<?xml version="1.0" standalone="no"?>
<!DOCTYPE svg PUBLIC "-//W3C//DTD SVG 20010904//EN"
 "http://www.w3.org/TR/2001/REC-SVG-20010904/DTD/svg10.dtd">
<svg version="1.0" xmlns="http://www.w3.org/2000/svg"
 width="480.000000pt" height="360.000000pt" viewBox="0 0 480.000000 360.000000"
 preserveAspectRatio="xMidYMid meet">

<g transform="translate(0.000000,360.000000) scale(0.100000,-0.100000)"
fill="#000000" stroke="none">
<path d="M2210 3190 c-170 -36 -309 -109 -424 -223 -118 -116 -183 -227 -227
-380 -17 -62 -36 -291 -39 -476 l0 -25 33 31 c17 18 44 36 60 42 23 9 26 15
21 36 l-6 26 38 -17 c133 -57 323 -71 468 -34 148 38 291 133 380 251 l49 66
23 -42 c109 -206 281 -330 487 -351 l64 -6 9 66 9 67 47 -25 c26 -14 45 -20
43 -13 -2 7 -9 83 -15 170 -14 203 -35 287 -107 417 -102 185 -267 324 -462
390 -154 52 -302 62 -451 30z"/>
<path d="M2531 2054 c-47 -60 -10 -144 64 -144 74 0 111 84 64 144 -16 21 -29
26 -64 26 -35 0 -48 -5 -64 -26z"/>
<path d="M2136 2045 c-58 -53 -19 -145 63 -145 31 0 44 6 60 26 46 59 8 144
-64 144 -20 0 -42 -9 -59 -25z"/>
<path d="M3253 1968 c-14 -30 -86 -68 -130 -68 -28 0 -34 -5 -57 -56 -74 -162
-214 -296 -386 -371 -48 -21 -75 -38 -74 -48 2 -46 5 -55 19 -55 26 0 44 -44
60 -148 20 -137 20 -185 -3 -205 -13 -12 -17 -26 -14 -47 l4 -30 235 0 235 0
28 -29 c39 -38 43 -63 33 -174 l-9 -95 29 -32 c30 -34 25 -49 -14 -50 -23 0
-27 -13 -35 -123 l-7 -95 179 -7 c199 -8 245 -1 285 41 20 21 24 36 24 83 0
54 -3 61 -71 156 -94 133 -384 562 -384 569 0 3 22 34 49 70 74 98 95 191 72
327 -5 30 -14 95 -21 144 -32 260 -34 270 -47 243z"/>
<path d="M1496 1905 c-3 -38 -11 -122 -17 -185 -6 -63 -11 -169 -11 -235 -1
-137 12 -180 82 -268 40 -49 40 -50 23 -76 -13 -21 -249 -322 -388 -496 -79
-98 -94 -159 -55 -222 29 -48 76 -59 202 -45 57 6 147 14 202 18 l99 7 -7 86
c-11 125 -15 141 -39 141 l-20 0 20 23 c20 20 21 28 13 95 -9 87 1 135 37 168
26 24 27 24 258 24 l233 0 5 33 c3 23 -1 37 -15 51 -16 15 -19 26 -13 55 3 20
10 61 15 91 23 152 31 180 56 186 20 5 24 12 24 44 0 35 -2 38 -42 49 -24 7
-79 31 -123 54 -101 52 -244 190 -293 285 -31 58 -35 62 -68 62 -65 0 -117 35
-160 106 -10 16 -13 7 -18 -51z"/>
<path d="M2485 1663 c-41 -24 -89 -26 -167 -7 -21 5 -28 3 -28 -8 0 -56 223
-47 245 10 10 27 -9 29 -50 5z"/>
</g>
</svg>
