<?xml version="1.0" encoding="UTF-8"?>
<svg version="1.1" viewBox="0 0 2048 1470" width="603" height="433" xmlns="http://www.w3.org/2000/svg">
<path transform="translate(0)" d="m0 0h2048v1470h-2048z" fill="#FCFCFC"/>
<path transform="translate(712,442)" d="m0 0 4 2 6 17 11 27 11 28 6 12 4 2 8-1 5-3 1-3v-68l-4-4-7-4v-1h37l8 20 8 21 4 9 2-3 14-37 5-10 33-1v2l-6 4-5 6v63l3 7 8 3-1 3h-38l-5-1v-2l10-3 1-2v-63l-13 36-9 23-3 8h-6l-5-10-22-55-2-2 1 63 3 3 7 3v1l-25 1h-41l-3-1 1-3 5-1-2-9-5-14v-2l-30 1-4 13v9l2 2 7 3v1l-31 1h-24l-6-2-13-22-11-17-4-2v29l2 8 10 3 1 2-6 1h-23l-17-1v-2l9-3 2-3v-69l-9-7-2-1v-2l48 1 16 3 10 5 5 6 1 3v11l-3 6-7 6-10 2 6 11 9 14 10 14 4 2h7l4-2 6-13 17-45 8-19 3-3z" fill="#080708"/>
<path transform="translate(408,444)" d="m0 0h13l12 3 12 7 5 4 6 9 4 9 1 4v18l-4 12-6 8-7 7-14 7-11 2h-12l-11-2-10-5-10-9-6-9-3-8v-24l5-12 7-8 7-6 11-5z" fill="#090709"/>
<path transform="translate(569,445)" d="m0 0 48 1 16 3 10 5 5 6 1 3v11l-3 6-7 6-10 2 6 11 9 14 10 14 4 2h7l4-2 6-13 17-45 5-13h1l2 9 3 5 9 24v2h2l1 4-1 2 2 1-30 1-4 13v9l2 2 7 3v1l-31 1h-24l-6-2-13-22-11-17-4-2v29l2 8 10 3 1 2-6 1h-23l-17-1v-2l9-3 2-3v-69l-9-7-2-1z" fill="#0B0A0B"/>
<path transform="translate(268,446)" d="m0 0h47l17 3 11 6 4 6 1 8-2 9-5 6-9 4-4 2 12 19 8 12 6 7 7 3-1 2h-30l-10-17-8-13-8-12h-3v31l3 6 9 2 1 2-5 1h-25l-17-1v-2l10-3 1-2v-71l-8-6z" fill="#0A090A"/>
<path transform="translate(876,446)" d="m0 0h35l3 3 18 48 1 1 15-40 4-11 2-1h32l-5 5-3 1-1 2v71l3 3 6 2v2l-8 1h-30l-5-2 2-2 7-2 1-1v-63l-17 45-7 18-4 4-4-2-11-27-13-34-3-7v60l2 7 3 2 6 2-3 2h-24l-1-3 8-3 1-2v-73l-5-2z" fill="#0C0A0C"/>
<path transform="translate(1506,435)" d="m0 0h2l1 84 4 3 4 1-1 3-20 7-4-1-2-7-3 1-5 5-8 3-11-1-8-6-5-7-3-10v-14l4-12 7-9 9-6 10-2 11 2v-20l-1-2-7-3 1-2 19-5z" fill="#0B090B"/>
<path transform="translate(182,446)" d="m0 0h50l12 2 13 7 4 5 2 5v12l-4 8-8 6-10 3-23 2h-4l1 29 3 3 9 2v2l-2 1h-41l-2-1v-2l9-2v-73l-1-3-8-5z" fill="#090709"/>
<path transform="translate(1289,467)" d="m0 0h1l1 9 4-2 6-5 6-2 10 1 7 6 2 4h2l4-5 9-5 8-1 8 3 5 6 3 6 1 47 6 1 1 2-5 1h-15l-13-1v-2l5-2v-39l-2-5-5-3h-9v45l1 2 5 3-2 2h-29l-1-3 4-1 1-6v-32l-3-8-4-2-9 1-1 47 6 1v2l-29 1-4-1v-2l7-1-1-49-6-3v-2l23-7z" fill="#0A090A"/>
<path transform="translate(172,88)" d="m0 0h14v81h-12l-3-3-5 2-9 2h-8l-10-3-9-8-4-8-2-12 2-11 4-8 8-7 7-3 11-1 12 3 3 2z" fill="#080708"/>
<path transform="translate(410,448)" d="m0 0 9 1 7 4 6 7 4 10 2 9v20l-4 15-6 9-6 5-10 2-7-2-9-8-5-12-2-8v-21l2-9 4-10 7-8z" fill="#FDFDFD"/>
<path transform="translate(1107,445)" d="m0 0 28 1-5 4-4 2-1 7-1 73-10 1-8-1v-2h-2l-7-11-27-40-7-10v-2h-2l1 56 1 5 10 2v2l-8 1h-19l-1-3 8-3 1-5v-66l-7-8-1-2h27l4 4 8 12 11 16 10 15 7 11 4 6v-54l-2-4-8-5z" fill="#080608"/>
<path transform="translate(1187,444)" d="m0 0h15l12 2 8 4 1 5v22h-2l-8-16-5-5-5-4-8-3-7 1-10 6-6 10-3 9v29l5 13 7 8 5 3h15l4-3 1-6v-14l-1-6-10-4v-2h40l-1 3-6 3-1 26-6 4-16 4-8 1h-12l-12-2-12-6-10-10-5-10-2-14 1-15 4-10 7-9 9-7 11-5z" fill="#0A090A"/>
<path transform="translate(514,444)" d="m0 0h18l14 3 4 3 1 3 1 24-3-1-8-16-8-7-9-4-8 1-8 5-6 7-4 10-1 4v26l4 13 6 8 7 5h16l4-3v-25l-4-3-6-2v-2h39l-1 3-6 3-1 25-3 4-12 4-15 2h-12l-12-2-10-5-10-9-6-10-2-7v-23l4-10 6-9 11-8 8-4z" fill="#090809"/>
<path transform="translate(264,110)" d="m0 0h7l2 2v3h3l2-4 3-1h15l5 3 2 3 12-6h17l6 4 5 8 1 4v42l-1 1h-12l-1-1-1-40-5-5-6-1-6 4-2 3-1 7-1 33h-12l-1-1-1-35-3-7-3-3-7-1-5 4-2 4-1 26-1 13h-10l-3-1v-57z" fill="#0A090A"/>
<path transform="translate(569,445)" d="m0 0 48 1 16 3 10 5 5 6 1 3v11l-3 6-7 6-12 2-8-2 4-1v-2l4 2-1-8-1-14-4-7-4-3-5-1h-8l-4 1v35l-1 34 1 3 9 4 6 2v1l-6 1h-23l-17-1v-2l9-3 2-3v-69l-9-7-2-1z" fill="#090809"/>
<path transform="translate(1705,467)" d="m0 0h9l10 3 5 4 3 5 1 5v36l3 5 6-1-2 5-4 3-6 2-8-1-5-3-2-6h-3l-2 5-6 4-10 1-8-3-6-6-1-3v-8l2-5 15-9 18-8v-9l-3-8-7-1-6 3-1 2-1 11h-15l-1-5 6-9 8-6 5-2z" fill="#0D0B0D"/>
<path transform="translate(1404,467)" d="m0 0h8l9 2 8 7 2 5 1 44 9-1-2 4-5 4-5 2-9-1-5-4-1-5-3 1-4 6-8 3h-8l-8-4-5-6-1-6 2-8 10-7 24-12v-7l-3-8-3-2-7 1-4 4-1 10-1 1h-15l1-7 5-8 10-6z" fill="#0B090B"/>
<path transform="translate(221,108)" d="m0 0 9 1 9 3 7 6 5 9 2 10v6l-34 1h-11l1 5 2 5 10 4 9-1 8-4 5 1 5 4-2 5-12 6-5 1h-13l-10-4-7-6-5-9-1-5v-13l4-11 6-7 10-5z" fill="#0A090A"/>
<path transform="translate(111,444)" d="m0 0h15l14 3 6 4 1 17 1 9h-2l-8-15-5-6-10-6-8-1-8 4-7 8-4 10-2 16 1 17 4 12 5 7 9 5h13l12-6 8-9 3-5 3-1-3 9-6 8-9 6-8 3-5 1h-11l-11-2-10-5-10-9-7-12-2-8v-17l3-11 7-10 7-7 14-7z" fill="#09080A"/>
<path transform="translate(712,442)" d="m0 0 4 2 6 17 11 27 11 28 6 12 4 2 8-1 5-3 2-4 1-24 2 1 1-15h1l1 40 4 4 7 3v1l-25 1h-41l-3-1 1-3 5-1-2-9-5-14v-3h-2v-6h-2l-10-26-4-7v-9l3-6z" fill="#090709"/>
<path transform="translate(1641,467)" d="m0 0h7l10 3 7 6 5 9 1 8h-42l2 12 4 8 7 5h18l7-3h3l-2 5-7 7-8 5-7 2h-8l-9-2-6-4-7-8-3-7-1-6v-9l4-13 6-8 7-6 6-3z" fill="#0B0A0B"/>
<path transform="translate(417,1233)" d="m0 0h35l8 4 5 6 2 5v8l-3 8-6 5-7 3h-19l-1 22-1 1-13-1z" fill="#0B090B"/>
<path transform="translate(995,446)" d="m0 0h43l-3 3-4 3h-2l-1 6v64l1 5 9 3-1 2-38 1-4-1v-2l8-3 1-1 1-9v-61l-1-3-9-6z" fill="#0A090A"/>
<path transform="translate(353,110)" d="m0 0 7 1 9 21 6 16 2 2 11-26 5-12 4-2h11l-3 9-12 29-11 26-7 14-6 6-3 1h-13v-12l10-2 5-10-1-6-9-21-12-30v-3z" fill="#0A090A"/>
<path transform="translate(86,1232)" d="m0 0 16 1 3 7 11 33 6 19v2l-14 1-3-8-1-5h-21l-4 12-5 1-9-1 1-7 15-43 4-11z" fill="#0A090A"/>
<path transform="translate(866,445)" d="m0 0h2v2l-6 4-5 6v63l3 7 8 3-1 3h-38l-5-1v-2l10-3 1-2v-63l-2 5h-2l1-5 1-4h-2l1-7 3-5z" fill="#0C0A0C"/>
<path transform="translate(1804,468)" d="m0 0h35v2l-6 3 2 9 10 25v2h2l3-10 7-20 1-7-6-2v-2h22l-3 3-4 1-8 20-13 34-8 21-5 8-5 3-7 1-5-2-3-3-1-5 3-5 2-2h5l1 3h2l4 4 4-7 2-4v-7l-13-28-12-26-6-7z" fill="#0C0A0C"/>
<path transform="translate(277,1251)" d="m0 0 12 1-10 40-2 3-17-1-2-15-3-13-1 1-4 26-1 1-16 1-2-1-10-40v-2h14l5 23 2 2 5-25h15l3 8 4 15 2 2 3-18 2-7z" fill="#0C0A0C"/>
<path transform="translate(66,110)" d="m0 0h11l1 1 1 33 3 9 7 3 8-1 4-2 2-4 1-38 3-1 11 1v39l-3 9-5 6-8 4-5 1h-13l-9-3-5-4-5-9v-43z" fill="#0A090B"/>
<path transform="translate(1772,467)" d="m0 0h9l11 2 1 1v20h-2l-4-10-6-5-6-2h-6l-4 3v6l1 3 5 2 19 10 6 7 1 3v13l-6 8-10 5-5 1h-9l-15-2-1-9v-8l1-6 3 1 3 10 5 5 5 3 6 1 7-3 2-2-1-7-5-4-17-9-6-7-3-7 1-11 4-6 6-4z" fill="#0D0B0D"/>
<path transform="translate(1552,467)" d="m0 0 11 1 8 3 7 8 3 7v5h-4l-13-2v-9h-2l-4-5-3-2h-6v-2l-7 4-4 5 2 3 1 16 2 8 4 6 5 4 2 1h18l6-3h2l-2 5-6 7-8 5-8 2-13-1-8-4-8-9-3-10v-14l3-10 6-9 7-6 7-3z" fill="#0C0A0C"/>
<path transform="translate(174,1233)" d="m0 0h14v20l8-3h8l6 3 4 5v37l-13-1-1-31h-9l-2 1-1 30-1 1h-13z" fill="#0D0C0D"/>
<path transform="translate(1345,467)" d="m0 0 8 1 6 4 5 8 1 2 1 47 6 1 1 2-5 1h-15l-13-1v-2l5-2v-39l-2-5v-4l-4-1-3-2h-3v-3h2v-3l6-3z" fill="#080708"/>
<path transform="translate(1289,467)" d="m0 0h1l1 14v48l6 1v2l-29 1-4-1v-2l7-1-1-49-6-3v-2l23-7z" fill="#090809"/>
<path transform="translate(342,1250)" d="m0 0h9l6 3 3 3 1 3 1 29-1 7-13-1-1-27-1-4h-7l-3 1-1 4-1 27-13-1v-42h17z" fill="#0B090B"/>
<path transform="translate(139,1250)" d="m0 0h11l10 4 2 2-1 4-3 3-18-3v6l9 1 9 2 6 5 2 4-1 7-4 6-8 4h-12l-7-2-6-3-3-3 2-4 2-3 6 1 6 3 11 1v-5l-13-3-8-3-4-4-1-9 3-6 7-4z" fill="#0B090B"/>
<path transform="translate(1195,493)" d="m0 0h40l-1 3-6 3-1 26-6 4-16 4-8 1h-12l-8-1-1-2-3-1v-2h5l-8-10 1-2 2-1 6 8 7 5h15l4-3 1-6v-14l-1-6-10-4z" fill="#070607"/>
<path transform="translate(1413,480)" d="m0 0 2 1v37h-2l-1 3-4 2-9 1-3 3-1 3 4 1v3h-8l-8-4-5-6-1-6 2-8 10-7 24-12z" fill="#3D393E"/>
<path transform="translate(154,121)" d="m0 0 9 2 7 5 3 6v11l-4 7-7 4-10 1-7-3-5-6-1-3v-11l3-6 8-6z" fill="#FDFDFD"/>
<path transform="translate(1476,472)" d="m0 0 7 1 5 3 1 2v41l-4 3h-5l-8-6-4-9-2-5v-17l5-9z" fill="#FDFDFD"/>
<path transform="translate(697,456)" d="m0 0h1l2 9 3 5 9 24v2h2l1 4-1 2 2 1-30 1-4 13-1 9-2 1v-8l-3-5 1-5 15-40z" fill="#3E3A3F"/>
<path transform="translate(215,451)" d="m0 0h11l7 3 5 6 2 4v14l-5 8-5 4-15 1-1-1v-38z" fill="#FDFDFD"/>
<path transform="translate(236,448)" d="m0 0h8l13 7 4 5 1 2v12l-5 9-9 6v2l-3 1h-7l1-6-1-6 1-2v-14l-5-8-4-3-4-2 3-1h7z" fill="#080709"/>
<path transform="translate(604,451)" d="m0 0h8l7 2 6 7 1 3v13l-7 8-10 3h-7l-1-1v-33z" fill="#FDFDFD"/>
<path transform="translate(301,451)" d="m0 0h10l8 3 5 7 1 3v8l-2 6-4 5-6 3-5 1h-7l-1-1v-34z" fill="#FDFDFD"/>
<path transform="translate(221,1252)" d="m0 0h14l5 23 2 2 1-7 1 4 8-1 1-2-1 9-2 13-1 1-16 1-2-1-10-40z" fill="#0A080A"/>
<path transform="translate(196,1250)" d="m0 0h8l6 3 4 5v37l-13-1-1-31-1-2h2l-3-4-3-1v-3l-5 1 1-2z" fill="#0A080A"/>
<path transform="translate(1107,445)" d="m0 0 28 1-5 4-4 2-1 7-1 73h-3v-11l-2-6-3-3 1-2v-54l-2-4-8-5z" fill="#3F3B40"/>
<path transform="translate(296,1252)" d="m0 0h13v42l-1 1h-8l-4-1z" fill="#0C0B0C"/>
<path transform="translate(373,1252)" d="m0 0h13v43l-13-1z" fill="#0A090A"/>
<path transform="translate(887,455)" d="m0 0 1 2h4 2v63l2 7 3 2 6 2-3 2h-24l-1-3 8-3 1-2z" fill="#3F3B40"/>
<path transform="translate(277,1251)" d="m0 0 12 1-10 40-2 3-17-1v-10l4-1 8 1v-2h2v-3l2-2-3-3v-11l3-11z" fill="#0B0A0B"/>
<path transform="translate(1055,456)" d="m0 0 3 2 1 5h2l2 4h-2l1 56 1 5 10 2v2l-8 1h-19l-1-3 8-3 1-5z" fill="#3F3B40"/>
<path transform="translate(1546,471)" d="m0 0 9 1 7 6v2h2l1 8 12 2 3 1 2-2v4h-41l-1-1-1-9-1-2-2-1 7-7z" fill="#3F3B40"/>
<path transform="translate(699,468)" d="m0 0 4 2 10 26v2l-25 1 1-5z" fill="#FDFDFD"/>
<path transform="translate(331,1355)" d="m0 0 6 2 3 5-3 7-6 5 12 1 5-5 4-6v-4l-4 1-3 5-3-1 1-6 3-3h10l1 2v9l-5 5-2 3h7l1 3-20 1h-13l-2-2 2-4 5-4 4-6 1-4-6 1-2 4-4 2 1-6 3-4z" fill="#141214"/>
<path transform="translate(243,607)" d="m0 0h7l3 10 2 1 2-10 1-1h7l1 1v21l-5 1-1-1-1-11 1-3h-2l-1 11-2 4-5-1v-9l-3-3v12l-5 1v-17z" fill="#191719"/>
<path transform="translate(1411,497)" d="m0 0h3v21l-4 4-2 1h-8l-4-5-1-2v-8l8-7z" fill="#FDFDFD"/>
<path transform="translate(1552,467)" d="m0 0 11 1 8 3 7 8 3 7v5h-4l-13-2v-9h-2l-4-5-3-2h-6v-2h-7l2-2z" fill="#0E0D0F"/>
<path transform="translate(1712,497)" d="m0 0h3v21l-4 5-6 1-5-3-4-6v-6l5-6z" fill="#FDFDFD"/>
<path transform="translate(76,1355)" d="m0 0 6 2 3 4v13l-4 4-4 1h-8l-1-1v-21l1-1z" fill="#2D2A2D"/>
<path transform="translate(201,1362)" d="m0 0h11l1 1v18l-3 4h-11l-2-3-1-14z" fill="#211E21"/>
<path transform="translate(292,613)" d="m0 0h11l2 1v17l-4 5h-10l-1-1-1-9v-10z" fill="#161417"/>
<path transform="translate(426,607)" d="m0 0h16l2 2v8l-1 7 1 6-5-1-3-6-5-3v10h-5z" fill="#1D1A1D"/>
<path transform="translate(312,1355)" d="m0 0 5 2 3 7 1 6-4 8-2 1h-7l-4-5-1-3v-8l4-6z" fill="#131113"/>
<path transform="translate(256,1355)" d="m0 0 6 2 4 11-4 10-2 1h-7l-4-4-1-4v-8l4-6z" fill="#110F11"/>
<path transform="translate(191,452)" d="m0 0 1 2h3l2 9v21l-1 41-5 3z" fill="#3F3B40"/>
<path transform="translate(1398,468)" d="m0 0 13 1-4 4-9 3-2 3-1 10-1 1h-15l1-7 5-8 10-6z" fill="#121012"/>
<path transform="translate(220,1405)" d="m0 0h7l5 1-1 4h-3l2 5 4 4-1 6-5 4h-7l-3-2-1-14 2-7z" fill="#353335"/>
<path transform="translate(830,456)" d="m0 0 1 2h2l-1 9-2 9-10 27-4 10-2-4 1-7-2-3 1-3 2-3z" fill="#3F3B40"/>
<path transform="translate(222,120)" d="m0 0 7 1 6 4 3 5v3h-31l1-4 4-5z" fill="#FDFDFD"/>
<path transform="translate(196,1405)" d="m0 0 8 1v5h-7l-3 2 4-1 6 4v8l-5 5h-7l-3-2v-20z" fill="#171517"/>
<path transform="translate(432,1245)" d="m0 0h16l4 2v10l-2 2-6 1h-11l-2-3v-10z" fill="#FDFDFD"/>
<path transform="translate(374,607)" d="m0 0h5v23h-13l-3-5-1-6 2-5 3-1h7z" fill="#141214"/>
<path transform="translate(600,453)" d="m0 0h1l1 33h7l10-3 6-7 2 2v7l-3-1-1 1-3 1h6l1 3h-3v2h-2v3h-3l-1-6-4 1v2l-5-1-1 3-6-3v29l1 8-4-2-1-6 1-35v-29z" fill="#3E3A3F"/>
<path transform="translate(477,607)" d="m0 0 5 1 1 3-1 18-2 1h-10l-4-5v-8l4-4h7z" fill="#161417"/>
<path transform="translate(498,607)" d="m0 0h4l1 18-2 5h-11l-3-2-1-3v-8l2-3 3-1h7z" fill="#110F11"/>
<path transform="translate(124,1412)" d="m0 0h7l2 4v15l-1 3-5 2-6-1-1-1v-9l-1-8z" fill="#201E21"/>
<path transform="translate(1852,468)" d="m0 0h22l-3 3-4 1-8 20-7 18-4-3 1-6 8-22 1-7-6-2z" fill="#19171A"/>
<path transform="translate(164,1355)" d="m0 0 5 2 4 9 3 12-4 1-2-1-1-3h-7l-3 4h-3l1-8 5-14z" fill="#131113"/>
<path transform="translate(264,1260)" d="m0 0 2 3 3 12 2 2 1-7 3 3 2 5-3 1v3h-2v2h-8l-2-1-1 3-2-1-3-14v-5l7-4z" fill="#3F3B40"/>
<path transform="translate(150,507)" d="m0 0h2l-3 9-6 8-9 6-8 3-5 1h-11l-7-1v-7l4-1 6 3h13l12-6 8-9 3-5z" fill="#131114"/>
<path transform="translate(770,458)" d="m0 0 2 1 1 7 2-4v62h-1l-1-25-1 15h-1l-1 8h-1v-61z" fill="#3E3A3F"/>
<path transform="translate(381,1412)" d="m0 0 9 1 2 3 3-4h6l4 10-1 5-4 2h-8l-1-4 2-1 5 1-3-3h-2v-3l-9-2-1 11h-4l1-15z" fill="#333134"/>
<path transform="translate(773,484)" d="m0 0h1l1 40 4 4 7 3v1l-25 1h-14l2-2 1-3 4 2 8-1 5-3 2-4 1-24 2 1z" fill="#0F0E0F"/>
<path transform="translate(119,355)" d="m0 0h13l3 3 1 6-3 3h-2l1 4 4 2v2l-5 1-4-6-6-4 2 10-5-1z" fill="#3E3A3F"/>
<path transform="translate(1640,473)" d="m0 0 7 1 4 5 2 4v4h-23l-1-3 3-6 5-4z" fill="#FDFDFD"/>
<path transform="translate(1551,473)" d="m0 0 7 1 5 6v7h-22l1-7 5-5z" fill="#FDFDFD"/>
<path transform="translate(262,465)" d="m0 0h1v12l-4 8-8 6-10 3-23 2h-4v-6l16-1 6-5 2-2 2 6-1 3h6l10-8h2l2-6 2-3z" fill="#3F3B40"/>
<path transform="translate(441,354)" d="m0 0 5 1 2 9v7h2l3-9 4-8 4 1 1 13v7l-4 1v-3-14l-4 11-1 6-5-1 1-3-4-1-1-14h-2l1 19h-4v-21z" fill="#252225"/>
<path transform="translate(478,354)" d="m0 0 7 1 3 3v7l-3 3-7 1-2-1v-2h-2l2 10h-5v-15l1-6z" fill="#3D393E"/>
<path transform="translate(1712,493)" d="m0 0h2l1 4-14 7-4 5v6l4 6 1 2-8 3-2 1-3-3 1-2h-2l-1-4-2-1 7-2 1-5 1-1-2-2h2v-3l-2-2z" fill="#3F3B40"/>
<path transform="translate(345,1412)" d="m0 0h7l4 4v10l-4 3h-8l-3-3-1-8z" fill="#151315"/>
<path transform="translate(322,1405)" d="m0 0 6 1v6h7l2 4v12l-4 1-1-11-4-1v11l-5 1-1-1z" fill="#19171A"/>
<path transform="translate(261,1412)" d="m0 0h6l5 6v6l-5 5h-7l-4-4v-7l3-5z" fill="#171518"/>
<path transform="translate(290,1355)" d="m0 0 7 1 3 5-1 7-6 5-1 2h8l1 3-2 1h-10l-5-1 1-4 8-7 1-7-3-1-3 7-4-1 1-6 3-3z" fill="#151315"/>
<path transform="translate(405,613)" d="m0 0h8l2 1 1 15-1 1h-12l-1-2v-13z" fill="#252226"/>
<path transform="translate(248,355)" d="m0 0h5l7 19v2l-5-1v-3h-9l-2 4h-3l3-9 3-11z" fill="#403C41"/>
<path transform="translate(312,613)" d="m0 0h7l3 2 1 3v11l-1 1-9 1-3-2v-14z" fill="#161416"/>
<path transform="translate(275,613)" d="m0 0 7 1 2 2v8l-4 6h-6l-4-4-1-7 3-5z" fill="#19171A"/>
<path transform="translate(452,613)" d="m0 0h6l4 4 1 5-3 6-2 2h-6l-4-5v-8z" fill="#1A181B"/>
<path transform="translate(93,1362)" d="m0 0h6l3 3 1 2v11l-2 1h-9l-3-3 1-8z" fill="#1B191B"/>
<path transform="translate(585,357)" d="m0 0 6 1 3 4v8l-4 4h-6l-4-4v-9z" fill="#FDFDFD"/>
<path transform="translate(178,614)" d="m0 0h10l1 1v12l-3 3h-7l-3-4-1-8 1-3z" fill="#2F2C30"/>
<path transform="translate(384,607)" d="m0 0 4 1 1 5 8 1 2 4v12h-6v-13h-5v13h-4z" fill="#141214"/>
<path transform="translate(1653,483)" d="m0 0h1v6l6 2 10 1 1-3v4h-42l-1-4v-5l2 2 23 1z" fill="#3F3B40"/>
<path transform="translate(418,357)" d="m0 0 6 1 3 5v7l-4 4h-6l-4-5 1-9z" fill="#FDFDFD"/>
<path transform="translate(332,357)" d="m0 0 6 1 3 5v7l-4 4h-6l-4-4v-8z" fill="#FDFDFD"/>
<path transform="translate(92,1247)" d="m0 0h2l5 16 1 8h-13l-1-2 5-18z" fill="#FDFDFD"/>
<path transform="translate(150,614)" d="m0 0h13l-1 13-3 3h-7l-2-2-1-10z" fill="#2E2B2F"/>
<path transform="translate(1172,515)" d="m0 0 4 5 8 7 2 1h15l5-3-2 5 1 3-8 1h-12l-8-1-1-2-3-1v-2h5l-8-10 1-2z" fill="#39353A"/>
<path transform="translate(622,354)" d="m0 0 2 1v21h-5l-6-9-3-5v14h-4v-21h4l4 6 6 10h1l-1-16z" fill="#3F3B40"/>
<path transform="translate(675,514)" d="m0 0h2l3 5v7l4 2 7 3v1l-25 1 2-5z" fill="#0B0A0B"/>
<path transform="translate(418,354)" d="m0 0 7 1 5 6v10l-4 5-3 1h-7l-5-4-1-2v-10l5-6zm0 3-4 3-1 9 4 5h6l4-4v-7l-3-5z" fill="#1A181A"/>
<path transform="translate(89,1412)" d="m0 0h5l4 4-1 11-2 2h-8l-2-4v-8l2-4z" fill="#222023"/>
<path transform="translate(332,354)" d="m0 0 7 1 4 4 1 9-3 7-4 2-9-1-4-5-1-6 2-7 4-3zm0 3-5 5v8l4 4h6l4-4v-7l-3-5z" fill="#373337"/>
<path transform="translate(1334,472)" d="m0 0 1 2h-2v3l4-1 6 4-1 3-4-2h-9l-1 45h-2l-2-36 2-11 5-5z" fill="#3F3B40"/>
<path transform="translate(585,354)" d="m0 0 7 1 4 4 1 2v9l-3 5-4 2h-6l-6-4-1-3v-9l3-5zm0 3-5 4v9l4 4h6l4-4v-8l-5-5z" fill="#3E3A3F"/>
<path transform="translate(506,613)" d="m0 0 5 3 2 4v3h2l1-9 2-1 2 1-1 8-4 11-3 3h-6l3-9-3-10z" fill="#141214"/>
<path transform="translate(297,1232)" d="m0 0 12 1v13h-12l-1-1v-12z" fill="#0C0B0D"/>
<path transform="translate(361,1412)" d="m0 0h3l1 13 4-1 2-12h5v14l-1 2-3 1h-10l-1-1-1-14z" fill="#121112"/>
<path transform="translate(189,1362)" d="m0 0h4l1 2v13l-3 2h-10l-2-3-1-12 5-1v12l5-1v-11z" fill="#121012"/>
<path transform="translate(373,1233)" d="m0 0h13v13h-12l-1-1z" fill="#0F0D0F"/>
<path transform="translate(72,1359)" d="m0 0h7l3 3v11l-2 2h-9v-15z" fill="#FDFDFD"/>
<path transform="translate(349,613)" d="m0 0h6l4 4 1 10-1 2h-9l4-3-1-2-3 2v-5l2-1-1-3h-2v12l-4-1v-10l2-4z" fill="#121012"/>
<path transform="translate(186,1233)" d="m0 0h2v20h7v3l4 1 2 4-2 1h-8l-3-3v-2l-4-1-1-4 2-17z" fill="#3F3B40"/>
<path transform="translate(298,354)" d="m0 0h6l1 4h-12l1 5 11 1v3h-8l-4-1v7l13 1-1 2h-15v-21z" fill="#3A373B"/>
<path transform="translate(1385,509)" d="m0 0 3 1h-2l-1 9 7 14-6-1-5-4-3-4-1-6 2-8z" fill="#0B0A0B"/>
<path transform="translate(246,1406)" d="m0 0 4 1 3 9h-3v9h2l1 4h-7l-2-2v-10h-2l-1-3z" fill="#151315"/>
<path transform="translate(182,446)" d="m0 0h50l6 1-2 1v2h-22v-2l-12 2h-7l-5-2h-7z" fill="#3F3B40"/>
<path transform="translate(360,354)" d="m0 0h6v4h-11v6h11l-1 3h-7l-3-1 1 11-5-1v-21z" fill="#3F3B40"/>
<path transform="translate(1476,467)" d="m0 0 13 2 1 5-2 4-3-3-4-2h-5l-5 4-4 8-2-2v-7l3-4h3v-2l-6 1 2-2z" fill="#3E3A3F"/>
<path transform="translate(96,355)" d="m0 0h14v3h-12l1 5h10l-1 4h-8-2l2 6h10v3h-14l-1-1v-19z" fill="#363337"/>
<path transform="translate(278,1406)" d="m0 0h3l4 8v2l-3 2 1 6 2 5h-7l-2-3-1-10-1-3z" fill="#121012"/>
<path transform="translate(519,355)" d="m0 0h15v3h-12v6h11v2l-5 1-6-1 1 7h12v3h-16z" fill="#3E3A3F"/>
<path transform="translate(292,1412)" d="m0 0h7l3 4v13h-4l-2-14h-1v12l2 2-5 1-2-1-1-5 1-10z" fill="#1C1A1C"/>
<path transform="translate(239,1356)" d="m0 0 5 1v21h-6l-1-2 1-11h-5l-1-3 6-4z" fill="#181618"/>
<path transform="translate(121,1362)" d="m0 0h7l1 3h2l1 2v7l-2-2-1-3-2 2h-7l2 4h9l-1 3-9 1-4-4 1-10z" fill="#2D2A2E"/>
<path transform="translate(208,1363)" d="m0 0h5v18l-3 4h-11l-2-3v-3h3v2h6l2-1 1-3-4-1h2z" fill="#0E0C0E"/>
<path transform="translate(331,613)" d="m0 0h8l1 1 1 15h-4v-12h-6v13h-5v-12l2-4z" fill="#1C1A1C"/>
<path transform="translate(888,522)" d="m0 0 5 1 4 5 8 3-3 2h-24l-1-3 8-3 1-2h2z" fill="#121113"/>
<path transform="translate(75,354)" d="m0 0 7 1 3 3-1 2-5-2-6 1-2 3v8l2 3h7l5-2-2 5-9 1-5-3-3-5 1-9 5-5z" fill="#373338"/>
<path transform="translate(485,457)" d="m0 0h2v4l-5 5-4 8-2 9v16l1 7v4l-2-2-2-7v-23l4-10 6-9z" fill="#3F3B40"/>
<path transform="translate(100,1268)" d="m0 0 2 3v4h-2v2h-3l-1 3-13 1 2-8h2v-2h13z" fill="#3F3B40"/>
<path transform="translate(220,355)" d="m0 0h10l3 2-1 3-5-2-6 1-2 4v6l3 4h7l4-2-1 4-5 2-8-1-3-3-1-3v-9l2-4z" fill="#3B373C"/>
<path transform="translate(391,354)" d="m0 0 7 1 4 4-2 1-4-2-7 1-2 3v7l4 4 8-1 3-1-1 4-6 2-7-1-4-4-1-9 2-5 3-3z" fill="#3B373C"/>
<path transform="translate(995,446)" d="m0 0h43l-1 2-6-1-1 3-4-1-22 2-2 1-7-5z" fill="#3C383D"/>
<path transform="translate(1539,495)" d="m0 0 2 4 2 8 4 6 3 4-1 3h-2l-1 2h-3v-2h-3l-3-8 2-5-1-4v-7z" fill="#3F3B40"/>
<path transform="translate(540,355)" d="m0 0h17v3h-7l1 18h-6v-14l1-4h-7z" fill="#3F3B40"/>
<path transform="translate(102,452)" d="m0 0 4 1-6 8-4 10-3 20-2-1v-19l7-16z" fill="#3A363B"/>
<path transform="translate(1055,523)" d="m0 0 6 1v2h2v2l10 2v2l-8 1h-19l-1-3 10-3z" fill="#1B191C"/>
<path transform="translate(1107,445)" d="m0 0 28 1-5 4-9 4-5-1-9-6z" fill="#090809"/>
<path transform="translate(277,354)" d="m0 0 5 1-1 3h-6v18h-5v-13l1-5h-6l-1-3z" fill="#3F3B40"/>
<path transform="translate(124,1414)" d="m0 0h5l1 2v7l-2 4 2 2-1 4-5 1-1-1v-8l-1-2v-6z" fill="#FDFDFD"/>
<path transform="translate(524,493)" d="m0 0h39l-1 3-6 3-1 25h-1v-28h-11v-1l-12-1v2h3l1 4-5-3-6-2z" fill="#3F3B40"/>
<path transform="translate(1408,522)" d="m0 0h6l1 5-1-3-3 1-4 6-5 2h-7l3-2-3-1 1-5 3-2z" fill="#0B0A0C"/>
<path transform="translate(1195,493)" d="m0 0h40l-1 3-6 3-1 26h-1v-29l-2-1h-21l3 1 1 2v7h-1l-1-6-10-4z" fill="#3F3B40"/>
<path transform="translate(225,1414)" d="m0 0 5 1 4 4-1 6-5 4h-7l-3-2 1-7 3 4 5-1-1-7-3-1z" fill="#111012"/>
<path transform="translate(180,355)" d="m0 0h14v3l-11 1v5h11v2l-4 1h-7l1 9h-4z" fill="#39363A"/>
<path transform="translate(306,1405)" d="m0 0h5l1 3v20l-5 1-1-13z" fill="#131114"/>
<path transform="translate(1712,493)" d="m0 0h2l1 4-14 7-4 5-2 3-1-3-2-2h2v-3l-2-2z" fill="#3F3B40"/>
<path transform="translate(444,1259)" d="m0 0h5l-1 4-7 2-2 4 12 2v1h-19l3-2-2-5 1-5z" fill="#3D3A3E"/>
<path transform="translate(531,527)" d="m0 0 2 1-1 2 8 1v1l-15 2h-12l-7-1 8-4 16-1z" fill="#282528"/>
<path transform="translate(121,356)" d="m0 0h12l2 2 1 6-3 3h-2l1 4 4 2v2l-5 1-4-6-4-4 1-2h7l1-4-1-1-10-1z" fill="#383438"/>
<path transform="translate(1866,161)" d="m0 0 7 2 2 4-1 7-2 2-6-1-1-2z" fill="#2E2B2F"/>
<path transform="translate(70,79)" d="m0 0 3 1-2 5h2l1 5 2 1-8 5h-3v-12z" fill="#3F3B40"/>
<path transform="translate(498,354)" d="m0 0h3v19h9l-1 3h-12v-21z" fill="#373438"/>
<path transform="translate(243,1270)" d="m0 0 1 4 8-1 1-2-1 9-2 4-10-1-1-3 2-3h1z" fill="#3F3B40"/>
<path transform="translate(77,613)" d="m0 0h9l2 1v15h-3v-13h-7v14l-4-1 1-15z" fill="#232023"/>
<path transform="translate(187,1264)" d="m0 0h1v30l-3-2-1-7-1-4v-7l2-9z" fill="#3E3A3F"/>
<path transform="translate(141,614)" d="m0 0 4 1v11l-1 3-2 1h-8l-3-5-1-10h3l2 10 5 1 1-1z" fill="#252225"/>
<path transform="translate(101,613)" d="m0 0 4 1v3l-7-1-1 1-1 11 4-1-1-7h3l2 3v5l-2 2h-8l-1-5v-10l1-1z" fill="#262326"/>
<path transform="translate(299,452)" d="m0 0h1l1 34h7l9-3 5-5 2-1v5h-3l-2 4-8 3h-6l-1 2h-3l-2-4z" fill="#3F3B40"/>
<path transform="translate(143,355)" d="m0 0h16v3h-7v18h-3v-16l1-2h-7z" fill="#312E32"/>
<path transform="translate(411,618)" d="m0 0 3 1 2 10-1 1h-12l-1-2v-8l5-1 1 8 3 1z" fill="#1D1B1E"/>
<path transform="translate(275,613)" d="m0 0 7 1 2 2v8l-3 5-4-1v-5l1-5-3-1-1 2-2-3z" fill="#151315"/>
<path transform="translate(310,1359)" d="m0 0 4 1 2 9-2 5-4 1-2-3v-9z" fill="#FDFDFD"/>
<path transform="translate(1096,479)" d="m0 0 4 5 11 17 3 4v2l-4-1-7-10-5-8-3-5z" fill="#3E3A3F"/>
<path transform="translate(94,1364)" d="m0 0 6 1 1 2v7l-2 2h-6l-1-1v-7z" fill="#D4D4D4"/>
<path transform="translate(256,1359)" d="m0 0 3 1 1 3v9l-3 3-4-2v-11z" fill="#FDFDFD"/>
<path transform="translate(106,525)" d="m0 0 7 3 11 1v1h-7v2l4 2h-11l-7-1v-7z" fill="#3B383C"/>
<path transform="translate(1274,472)" d="m0 0 2 1-1 3-4 1 1 2v50h-1l-1-49-6-3v-2z" fill="#3F3B40"/>
<path transform="translate(76,1355)" d="m0 0 6 2 3 4v11h-2l-2-12h-11v15h-1v-19z" fill="#100F11"/>
<path transform="translate(622,354)" d="m0 0 2 1v21h-5l-2-2-2-9 6 6-1-16z" fill="#383539"/>
<path transform="translate(105,1412)" d="m0 0h7l3 3 2 7-2 6-3-1 1-6-2-5-5-1-2 13h-2v-11l1-4z" fill="#252326"/>
<path transform="translate(391,614)" d="m0 0h6l2 4v12h-6v-11z" fill="#161417"/>
<path transform="translate(141,1405)" d="m0 0 2 3 1 7v15l-4-2-2-16z" fill="#1B191C"/>
<path transform="translate(153,616)" d="m0 0h6l2 1v8l-3 2-5-1-1-1v-8z" fill="#FDFDFD"/>
<path transform="translate(203,354)" d="m0 0 3 1 1 21h-5v-21z" fill="#3F3B40"/>
<path transform="translate(69,1405)" d="m0 0 2 1v21l9-2-2 4h-10v-23z" fill="#2E2B2F"/>
<path transform="translate(548,449)" d="m0 0 2 1 1 3 1 24-3-1-2-7v-19z" fill="#3F3B40"/>
<path transform="translate(441,354)" d="m0 0 5 1 1 2v6l-3-3v-3h-2l1 19h-4v-21z" fill="#322E32"/>
<path transform="translate(1804,163)" d="m0 0h4l1 2v9l-4 2-4-3-1-5z" fill="#302D31"/>
<path transform="translate(392,511)" d="m0 0 2 3 5 8 8 6 5 1-2 3-10 1 1-4-2-4-3-1-5-8z" fill="#3D393E"/>
<path transform="translate(1046,446)" d="m0 0h27v1l-6 1-2 2-4 1-6-1-1 2-4-1z" fill="#3F3B40"/>
<path transform="translate(108,1257)" d="m0 0 3 1 7 22-1 4-3-3v-5l-4-5-2-9z" fill="#3A363B"/>
<path transform="translate(167,355)" d="m0 0h4v21h-4z" fill="#3C393D"/>
<path transform="translate(129,1280)" d="m0 0 6 1 6 3 11 1-1 3h-8l-6-1v-2l-5-1-3-1-1 4h-3l2-4z" fill="#3F3B40"/>
<path transform="translate(261,612)" d="m0 0 1 4 3-3 1 16-5 1-1-1-1-11z" fill="#100F11"/>
<path transform="translate(179,616)" d="m0 0h7l1 1v8l-5 3-3-4-1-5z" fill="#FDFDFD"/>
<path transform="translate(248,355)" d="m0 0h3l-3 12-1 3h7l-2 2h-6l-2 4h-3l3-9 3-11z" fill="#252326"/>
<path transform="translate(262,465)" d="m0 0h1v12l-4 8-8 6-4 1 1-4 6-4 3-1 2-6 2-3z" fill="#3E3A3F"/>
<path transform="translate(91,1414)" d="m0 0 4 2-1 4 2 4-2 3-4 1-2-1v-9l1-3z" fill="#FDFDFD"/>
<path transform="translate(481,355)" d="m0 0 5 1 2 2v7l-3 3-7 1-2-1v-3l10-2-1-4-5-1z" fill="#3A363A"/>
<path transform="translate(361,1412)" d="m0 0h3l1 13h4v2l3 2h-10l-1-1-1-14z" fill="#161417"/>
<path transform="translate(1847,163)" d="m0 0h12l1 1v11l-2-1v-9h-3l-2 10-2-1 1-9h-6v9l-2 1v-10z" fill="#2D2A2E"/>
<path transform="translate(415,355)" d="m0 0 2 1 1 2-3 2-1 9 3 5-1 2-4-2-2-3v-10z" fill="#3A363B"/>
<path transform="translate(109,1357)" d="m0 0 2 4 5 4v5l-2-3-3-3 1 11 4 1v2l-5 1-2-2-1-5v-14z" fill="#242225"/>
<path transform="translate(1398,468)" d="m0 0 13 1-4 4-9 2-4-2 1-2-2-1z" fill="#3F3B40"/>
<path transform="translate(166,607)" d="m0 0 3 1 2 18 1 4h-4l-1-2-1-11z" fill="#242225"/>
<path transform="translate(297,1413)" d="m0 0 4 1 1 2v13h-4l-1-6z" fill="#19171A"/>
<path transform="translate(258,607)" d="m0 0h7l1 1v6l-4 3-1-4-3 3h-2l1-8z" fill="#1D1A1D"/>
<path transform="translate(477,357)" d="m0 0 6 1 3 3v2l-5 2h-6v-7z" fill="#FDFDFD"/>
<path transform="translate(203,1365)" d="m0 0h5v9l-5 1-2-1-1-5z" fill="#FDFDFD"/>
<path transform="translate(397,452)" d="m0 0 4 1-7 11-3 8-1 7h-1v-10l5-13z" fill="#3F3B40"/>
<path transform="translate(569,445)" d="m0 0 48 1v1l-32 1-4 2-12-3z" fill="#3F3B40"/>
<path transform="translate(564,355)" d="m0 0h4v21h-4z" fill="#383539"/>
<path transform="translate(367,617)" d="m0 0h6l1 1v7l-4 2-3-2-1-6z" fill="#FDFDFD"/>
<path transform="translate(473,616)" d="m0 0 4 1v9l-4 1-3-3v-6z" fill="#FDFDFD"/>
<path transform="translate(1468,507)" d="m0 0 2 3 3 6 4 4h-5l-1-1h-3l-4-5 2-4z" fill="#3F3B40"/>
<path transform="translate(122,358)" d="m0 0h9l2 2-1 4-4 1-6-1z" fill="#FDFDFD"/>
<path transform="translate(1939,161)" d="m0 0 5 1v9l-5 2-1-1v-10z" fill="#FDFDFD"/>
<path transform="translate(109,607)" d="m0 0 2 1v6l3 1-2 2 1 9 2 4h-5l-2-22z" fill="#322E32"/>
<path transform="translate(585,354)" d="m0 0 7 1 4 4 1 2v9l-2 1v-9h-2l-4-4-7-1v-2z" fill="#1A181A"/>
<path transform="translate(381,1412)" d="m0 0h3v3l2 1h-2l-1 12h-4l1-15z" fill="#131113"/>
<path transform="translate(757,446)" d="m0 0h37v1l-25 1-2 4-5-2z" fill="#39353A"/>
<path transform="translate(494,616)" d="m0 0 3 1v8l-4 2-3-3 1-7z" fill="#FDFDFD"/>
<path transform="translate(331,1355)" d="m0 0 5 1-1 3-6 1-2 4-4 2 1-6 3-4z" fill="#1B191B"/>
<path transform="translate(121,614)" d="m0 0h6v2l-3 2-1 11-4 1 1-15z" fill="#2E2B2F"/>
<path transform="translate(349,613)" d="m0 0h6v1l-5 1 1 2h-2v12l-4-1v-10l2-4z" fill="#282529"/>
<path transform="translate(1804,468)" d="m0 0h35v2l-4 1-6-1h-25z" fill="#3F3B40"/>
<path transform="translate(94,504)" d="m0 0 2 4 4 9 4 7-2 1-2-2-5-6-2-6z" fill="#3D393E"/>
<path transform="translate(134,1273)" d="m0 0h9l5 2 1 2 3 2-11-1-9-3z" fill="#3C383C"/>
<path transform="translate(295,616)" d="m0 0 5 2v6l-1 2-5-1-1-1v-6z" fill="#FDFDFD"/>
<path transform="translate(415,529)" d="m0 0h5v3h5v1l-6 1h-12l-1-2 2-2z" fill="#191619"/>
<path transform="translate(1600,79)" d="m0 0h5l3 4-1 10-5 1 3-3 1-6-2-4h-3l-1 3v10l-3-1v-10z" fill="#312D31"/>
<path transform="translate(347,1416)" d="m0 0 5 1v7l-5 2-2-2v-6z" fill="#FDFDFD"/>
<path transform="translate(486,617)" d="m0 0 4 2 2 6 1 4h8v1h-11l-3-2-1-3z" fill="#2A272B"/>
<path transform="translate(1712,493)" d="m0 0h2l1 4-6 3h-7l-6 2v-2z" fill="#2B282C"/>
<path transform="translate(460,355)" d="m0 0h1l1 13v7l-4 1v-3-17z" fill="#2C292D"/>
<path transform="translate(331,485)" d="m0 0 4 2-7 2-1 4h-6l-1 2-3-2 1-2 3-1v-2z" fill="#3F3B40"/>
<path transform="translate(1937,160)" d="m0 0h8l1 1-1 12-3 2-5-1zm2 1-1 1v10l3 1 3-2v-9z" fill="#363337"/>
<path transform="translate(178,614)" d="m0 0h10l1 1v10h-1l-1-7-1-1-7-1-1 7-3-1 1-7z" fill="#1E1C1E"/>
<path transform="translate(432,610)" d="m0 0h6l2 5-2 2h-7v-6z" fill="#FDFDFD"/>
<path transform="translate(197,613)" d="m0 0 4 2-3 2-1 13-3-1v-14z" fill="#262326"/>
<path transform="translate(1107,445)" d="m0 0 28 1-3 2h-15l-2 4-8-5z" fill="#3D393E"/>
<path transform="translate(250,358)" d="m0 0h2l2 11-7 1 2-11z" fill="#FDFDFD"/>
<path transform="translate(277,354)" d="m0 0 5 1-1 3h-8l-2 1-7-2v-2z" fill="#444045"/>
<path transform="translate(1714,160)" d="m0 0h8l1 4-8-3 2 5 4 1 1 4-1 2h-2l-1-4-3-1-1 7h-1v-14z" fill="#343035"/>
<path transform="translate(1763,118)" d="m0 0h5l1 2v9l-3 4h-2l3-9-1-4h-2l-2 13h-2l1-11z" fill="#343035"/>
<path transform="translate(1942,81)" d="m0 0h2l2 10-4 3-7-1-2-1v-9h3v9l7-1z" fill="#2D2A2E"/>
<path transform="translate(427,612)" d="m0 0 3 1 1 8-1 8h-3z" fill="#050405"/>
<path transform="translate(1868,164)" d="m0 0 4 1 2 6-3 3h-3l-1-9z" fill="#FDFDFD"/>
<path transform="translate(222,1417)" d="m0 0 5 1 1 5-2 2-5-1-1-5z" fill="#FDFDFD"/>
<path transform="translate(262,1416)" d="m0 0 4 1 1 1v6l-1 1h-5l-1-5z" fill="#FDFDFD"/>
<path transform="translate(69,607)" d="m0 0h2v21l-3 2z" fill="#2A272B"/>
<path transform="translate(1300,475)" d="m0 0 4 1 1 3-14 3-1-4 1-2 4 1z" fill="#3F3B40"/>
<path transform="translate(150,1405)" d="m0 0h2l1 15-1 8h-2z" fill="#232124"/>
<path transform="translate(158,1412)" d="m0 0 5 1 1 3v12h-2l-2-12-5-1z" fill="#1C1A1D"/>
<path transform="translate(351,616)" d="m0 0 2 1-1 4h-2l1 4 3-2v4l-2 1 6 1v1h-11l2-1-1-6 1-6z" fill="#C8C7C9"/>
<path transform="translate(298,354)" d="m0 0h6l1 4-14 1-1-4z" fill="#312E32"/>
<path transform="translate(93,1362)" d="m0 0h6l3 3 1 7-2 1-1-8h-6l-2 10h-1l-1-7z" fill="#312D31"/>
<path transform="translate(303,528)" d="m0 0 10 2 1 2-5 1h-25v-1l19-1z" fill="#312E32"/>
<path transform="translate(211,621)" d="m0 0 4 1 1 5-1 2-3 1h-7v-5l2 2h4z" fill="#312E32"/>
<path transform="translate(1923,160)" d="m0 0h6l3 3v7l-3 5h-5v-2l5-2v-8l-4-1h-2l-1 2z" fill="#383539"/>
<path transform="translate(108,87)" d="m0 0 6 2 1 3 2 1v3l-5-2-8-5 2-1 2 1z" fill="#3F3B40"/>
<path transform="translate(100,619)" d="m0 0 4 4v5l-2 2h-8l2-2 4-1-1-7z" fill="#2D2A2E"/>
<path transform="translate(448,617)" d="m0 0 5 2v9l-4-1-1-2z" fill="#110F11"/>
<path transform="translate(1841,79)" d="m0 0h5l1 2v13h-9l-1-3 7 1 1-10-5-1z" fill="#333034"/>
<path transform="translate(192,1418)" d="m0 0h6l1 5-5 2-3-3z" fill="#FDFDFD"/>
<path transform="translate(1911,160)" d="m0 0 6 1 4 6-6 8h-4v-2l4-2 2-6-1-2-6-1z" fill="#383439"/>
<path transform="translate(117,1372)" d="m0 0 5 3h9l-1 3-9 1-4-4z" fill="#1F1D1F"/>
<path transform="translate(236,1260)" d="m0 0h1l1 12-2 4-3-5 1-6z" fill="#3C383D"/>
<path transform="translate(1614,490)" d="m0 0 1 4v21l-2-2-1-6v-9z" fill="#3F3B40"/>
<path transform="translate(1301,469)" d="m0 0h2l1 3-2 3-7 3-1-3z" fill="#242225"/>
<path transform="translate(231,371)" d="m0 0h2l-1 4-5 2-8-1v-4l3 1h7z" fill="#252326"/>
<path transform="translate(269,1372)" d="m0 0 5 2-2 9h-4z" fill="#1B191C"/>
<path transform="translate(211,613)" d="m0 0 4 2-3 3-1-3h-3v8l-2 2-1-4v-7z" fill="#252225"/>
<path transform="translate(121,356)" d="m0 0h12l2 2 1 6h-3l-2-5-10-1z" fill="#1F1D20"/>
<path transform="translate(458,493)" d="m0 0h1l1 9-4 10-2-1 1-7 2-5z" fill="#3F3B40"/>
<path transform="translate(440,358)" d="m0 0h2l1 18h-4z" fill="#1B181B"/>
<path transform="translate(1804,118)" d="m0 0 2 1 1 14-4-1v-12z" fill="#2B282C"/>
<path transform="translate(1730,162)" d="m0 0 4 1 1 7-2 2-1-7-3 3-1 5h-2v-6z" fill="#333034"/>
<path transform="translate(1855,118)" d="m0 0 6 2-1 4-2-3h-3l-1 11-2 1v-11z" fill="#333034"/>
<path transform="translate(384,1413)" d="m0 0h6l2 3 2-2 1 4-4 1-7-2z" fill="#252326"/>
<path transform="translate(407,616)" d="m0 0 3 1 1 11-3 1-2-10z" fill="#FDFDFD"/>
<path transform="translate(85,614)" d="m0 0h3v15h-3v-13l-3-1z" fill="#252326"/>
<path transform="translate(392,511)" d="m0 0 2 3 5 8 2 4-5-2-5-8z" fill="#3A363B"/>
<path transform="translate(1805,165)" d="m0 0 3 1v8l-4-1-1-1v-6z" fill="#FDFDFD"/>
<path transform="translate(150,614)" d="m0 0h10v2l-7 1-1 1-1 7-2-1z" fill="#1A181A"/>
<path transform="translate(1629,471)" d="m0 0 2 1-13 13v-3l7-8z" fill="#3B383C"/>
<path transform="translate(1730,79)" d="m0 0h4v2l-5 2-3 5-1 5 2 1h-4v-6l4-6z" fill="#2C292D"/>
<path transform="translate(1171,462)" d="m0 0h2l-3 10-2 3h-2l2-9z" fill="#3D393E"/>
<path transform="translate(360,354)" d="m0 0h6v4h-10v-3z" fill="#3B383C"/>
<path transform="translate(411,618)" d="m0 0 3 1 2 10h-5z" fill="#080708"/>
<path transform="translate(457,354)" d="m0 0h3v2h-2l-1 5-3 8h-1v-7z" fill="#1E1C1F"/>
<path transform="translate(332,354)" d="m0 0 7 1 4 4v5l-3-1-2-4-3-2z" fill="#3B373C"/>
<path transform="translate(1751,164)" d="m0 0 2 1 1 7-2 2h-3v-8z" fill="#FDFDFD"/>
<path transform="translate(1709,118)" d="m0 0h3l-1 15h-3z" fill="#2B282C"/>
<path transform="translate(150,359)" d="m0 0h1l1 17h-3v-16z" fill="#211E21"/>
<path transform="translate(1742,117)" d="m0 0 4 1-4 2-6 11-4 2 8-14z" fill="#353135"/>
<path transform="translate(1842,118)" d="m0 0 4 1 1 14-3 1-1-14z" fill="#242125"/>
<path transform="translate(124,1412)" d="m0 0 5 1v1l-5 1-3 10h-1l-1-8z" fill="#2C292C"/>
<path transform="translate(315,616)" d="m0 0 3 3-1 9h-3v-11z" fill="#FDFDFD"/>
<path transform="translate(405,613)" d="m0 0h8l-4 1v2l-5 4-2-2 1-4z" fill="#2C292C"/>
<path transform="translate(531,527)" d="m0 0 2 1-1 2 8 1v1l-13 1 1-4z" fill="#3D393E"/>
<path transform="translate(1779,163)" d="m0 0h5l3 5-1 6-2 1v-8l-3-1-3 1z" fill="#2A272B"/>
<path transform="translate(1829,118)" d="m0 0h3v13l-1 2h-3l1-3v-8z" fill="#312E32"/>
<path transform="translate(1936,119)" d="m0 0 2 1-1 1-1 11h-3v-9z" fill="#312E32"/>
<path transform="translate(423,373)" d="m0 0h5l-2 3-3 1h-7v-3z" fill="#282528"/>
<path transform="translate(533,373)" d="m0 0 3 1-1 2h-15v-2z" fill="#211E21"/>
<path transform="translate(391,354)" d="m0 0 7 1 4 4-2 1-4-2-7-1z" fill="#222023"/>
<path transform="translate(1710,80)" d="m0 0 2 1-1 12h-3v-12z" fill="#211E21"/>
<path transform="translate(209,1421)" d="m0 0 3 1 1 7-5-1z" fill="#201D20"/>
<path transform="translate(275,617)" d="m0 0 4 1-1 9-3-3-1-5z" fill="#FDFDFD"/>
<path transform="translate(454,616)" d="m0 0 3 1v9l-3 1-1-10z" fill="#FDFDFD"/>
<path transform="translate(681,526)" d="m0 0 10 5v1h-9l-2-2z" fill="#2C292D"/>
<path transform="translate(594,362)" d="m0 0h1l1 11-3 3h-7l4-2 3-4z" fill="#343034"/>
<path transform="translate(75,354)" d="m0 0 7 1 3 3-1 2-5-2-6-1z" fill="#232124"/>
<path transform="translate(1777,117)" d="m0 0 2 1-2 5-2 9-3 1 3-14z" fill="#302D31"/>
<path transform="translate(1458,118)" d="m0 0 2 3v12h-3v-14z" fill="#292629"/>
<path transform="translate(1900,85)" d="m0 0h1l1 7h3l2-6 2 1-2 6-1 1h-6l-1-5z" fill="#272428"/>
<path transform="translate(113,1417)" d="m0 0 3 1 1 4-2 6-3-1z" fill="#1B191B"/>
<path transform="translate(218,1372)" d="m0 0h4l1 5-1 2h-4z" fill="#171518"/>
<path transform="translate(251,355)" d="m0 0h2l3 7-1 5-2-1-1-8-2-1z" fill="#373338"/>
<path transform="translate(184,355)" d="m0 0h10v3h-11z" fill="#3F3B40"/>
<path transform="translate(1781,85)" d="m0 0h2v8l-2 1h-9v-2h7z" fill="#312E32"/>
<path transform="translate(1804,80)" d="m0 0h2v14h-2l-2-13z" fill="#222023"/>
<path transform="translate(121,1422)" d="m0 0 3 3-1 9h-3z" fill="#1A181A"/>
<path transform="translate(123,1364)" d="m0 0 5 1 1 2-6 2-4-1z" fill="#FDFDFD"/>
<path transform="translate(132,449)" d="m0 0 5 4h-2l-1 2-4-1-3-3z" fill="#39353A"/>
<path transform="translate(108,373)" d="m0 0h2v3h-14v-2z" fill="#1E1B1E"/>
<path transform="translate(481,355)" d="m0 0 5 1 2 2v5l-3-2v-2l-5-1z" fill="#373338"/>
<path transform="translate(1683,118)" d="m0 0h2v12l-1 2-4-1 3-5z" fill="#312E32"/>
<path transform="translate(1767,81)" d="m0 0h2v10l-3 3-3-1 3-4z" fill="#312E32"/>
<path transform="translate(1568,81)" d="m0 0h4l-1 13h-3l1-10z" fill="#272528"/>
<path transform="translate(199,1378)" d="m0 0h9v3l-6 1-3-3z" fill="#FDFDFD"/>
<path transform="translate(165,1362)" d="m0 0 2 1 1 7-5 1z" fill="#FDFDFD"/>
<path transform="translate(452,613)" d="m0 0h6l-2 1v2l-4 3h-2l-1-4z" fill="#252225"/>
<path transform="translate(513,530)" d="m0 0 3 1v2h9v1h-12l-7-1 4-2z" fill="#3F3B40"/>
<path transform="translate(83,371)" d="m0 0h2l-2 5-9 1-1-2 7-2z" fill="#232023"/>
<path transform="translate(223,355)" d="m0 0h7l3 2-1 3-5-2-6-1z" fill="#1F1C1F"/>
<path transform="translate(1880,163)" d="m0 0h4v2l-2 1v6l1 4-4-1z" fill="#2B282B"/>
<path transform="translate(1768,163)" d="m0 0h4l-2 4 1 9h-3z" fill="#232023"/>
<path transform="translate(1569,119)" d="m0 0 3 1v11l-1 2-2-1z" fill="#2F2B2F"/>
<path transform="translate(1953,118)" d="m0 0 3 1 2 13-3 1-1-13z" fill="#3B373B"/>
<path transform="translate(94,1413)" d="m0 0 3 1 1 4-1 7-2-4-2-1 1-4z" fill="#151315"/>
<path transform="translate(82,1364)" d="m0 0h1v8h2l-1 4-5 2 2-5z" fill="#282528"/>
<path transform="translate(109,1357)" d="m0 0 2 4 5 4v5l-2-3-3-3h-3v-6z" fill="#322F33"/>
<path transform="translate(341,1258)" d="m0 0h5v4h-7v-3z" fill="#3F3B40"/>
<path transform="translate(110,620)" d="m0 0 2 1 3 9h-5z" fill="#262326"/>
<path transform="translate(665,529)" d="m0 0 3 1-2 2-10 1v-3z" fill="#221F22"/>
<path transform="translate(1209,449)" d="m0 0 2 3 2 4-7-2-3-3z" fill="#383539"/>
<path transform="translate(445,358)" d="m0 0h1l2 6v7h-3z" fill="#19171A"/>
<path transform="translate(1740,161)" d="m0 0h3l-1 13-2 1z" fill="#2A272A"/>
<path transform="translate(1943,121)" d="m0 0 2 1 1 9 3 1h-5l-1-5z" fill="#2E2B2F"/>
<path transform="translate(1740,81)" d="m0 0v3l-5 9-4 1-1-2 5-3 3-6z" fill="#2E2B2F"/>
<path transform="translate(1577,81)" d="m0 0h2v13h-3z" fill="#2A272A"/>
<path transform="translate(1457,81)" d="m0 0h2v13h-3z" fill="#262326"/>
<path transform="translate(106,76)" d="m0 0 5 2 6 4 1 3-5-1-5-5z" fill="#3F3B40"/>
<path transform="translate(179,1363)" d="m0 0h4v11h-1l-1-6h-2l-1-4z" fill="#272427"/>
<path transform="translate(1408,522)" d="m0 0h6l1 5-1-3-3 1-2 2-1-2-8-1v-1z" fill="#3F3B40"/>
<path transform="translate(1764,482)" d="m0 0 2 1v2l5 2 4 3-3 1-3-1-1-2-3-1-2-4z" fill="#3C383D"/>
<path transform="translate(457,470)" d="m0 0 2 3 1 7-2 2-2-4z" fill="#343035"/>
<path transform="translate(401,371)" d="m0 0 1 2-3 3-8 1-1-2h6v-2z" fill="#272427"/>
<path transform="translate(294,628)" d="m0 0h5l1 2-3 3-4-1z" fill="#FDFDFD"/>
<path transform="translate(345,620)" d="m0 0 3 1 1 8-4-1z" fill="#090809"/>
<path transform="translate(1633,511)" d="m0 0 5 5-5 1-4-1z" fill="#363236"/>
<path transform="translate(71,476)" d="m0 0 1 2h2l-1 16h-1l-1-6z" fill="#3F3B40"/>
<path transform="translate(594,359)" d="m0 0h2l1 2v9l-2 1v-9h-2z" fill="#221F22"/>
<path transform="translate(1782,119)" d="m0 0h1v12l-1 2h-2l1-11z" fill="#333034"/>
<path transform="translate(1747,118)" d="m0 0 2 2-3 12-3 1 3-12z" fill="#3C383D"/>
<path transform="translate(1879,81)" d="m0 0 3 4v9h-3z" fill="#312E32"/>
</svg>
