<?xml version="1.0" encoding="UTF-8"?>
<svg version="1.1" viewBox="0 0 1600 1190" width="1600" height="1190" xmlns="http://www.w3.org/2000/svg">
<path transform="translate(0)" d="m0 0h1600v1190h-1600z" fill="#F7F8FA"/>
<path transform="translate(104,488)" d="m0 0h34l9 3 5 4 2 4v11l-3 5-3 3 7 6 2 6v7l-3 8-7 5-8 2h-35z" fill="#1C1D1F"/>
<path transform="translate(631,378)" d="m0 0h34l9 3 5 4 2 4v11l-3 5-3 3 7 6 2 6v7l-3 8-7 5-8 2h-35z" fill="#1C1D1F"/>
<path transform="translate(241,503)" d="m0 0h11l8 5 1 1 1-5h16v44l-2 10-5 7-10 5-5 1h-14l-9-2-1-1v-11l11 3h9l7-2 2-6v-6l-7 5-3 1h-9l-8-4-6-8-2-7v-11l3-9 6-7z" fill="#1C1D1F"/>
<path transform="translate(521,393)" d="m0 0h11l7 4 5 6 3 9v12l-3 9-6 7-6 3h-11l-8-5-1-1-1 23h-16v-66h16l1 5 6-5z" fill="#1C1D1F"/>
<path transform="translate(1024,393)" d="m0 0h15l9 4 5 5 4 7 1 12-2 8-6 9-8 4-3 1h-15l-10-4-7-8-2-6v-14l4-9 7-6z" fill="#1C1D1F"/>
<path transform="translate(324,377)" d="m0 0h19l12 3v13l-12-3h-15l-4 4 1 5 10 3 12 3 8 5 4 8v9l-3 8-7 6-7 2h-18l-15-4v-14l15 5h14l4-3-1-7-13-4-12-4-6-6-2-7 1-10 4-6 5-4z" fill="#1C1D1F"/>
<path transform="translate(176,112)" d="m0 0h10v60h-10l-1-3-5 3-4 1h-7l-10-4-6-7-2-5v-13l5-10 7-5 3-1h13l6 3z" fill="#020202"/>
<path transform="translate(707,393)" d="m0 0h20l9 4 5 6 1 3v36h-15l-1-5-5 4-5 2h-11l-7-4-3-4-1-3v-10l4-6 8-4 6-1h15l-2-5-4-2h-13l-10 3v-12z" fill="#1C1D1F"/>
<path transform="translate(261,393)" d="m0 0h20l9 4 5 6 1 3v36h-15l-1-5-5 4-5 2h-11l-7-4-3-4-1-3v-10l4-6 8-4 6-1h15l-2-5-4-2h-13l-10 3v-12z" fill="#1C1D1F"/>
<path transform="translate(146,393)" d="m0 0h20l9 4 5 6 1 3v36h-15l-1-5-5 4-5 2h-11l-7-4-3-4-1-3v-10l4-6 8-4 6-1h15l-2-5-4-2h-13l-10 3v-12z" fill="#1C1D1F"/>
<path transform="translate(186,503)" d="m0 0h14l8 3 7 7 3 7v12h-35l3 7 5 3h11l12-4h2v11l-8 3-5 1h-16l-9-3-7-6-4-9v-14l4-9 7-6z" fill="#1C1D1F"/>
<path transform="translate(462,503)" d="m0 0h14l8 3 7 7 3 7v12h-35l3 7 5 3h11l12-4h2v11l-8 3-5 1h-16l-9-3-7-6-4-9v-14l5-10 6-5z" fill="#1C1D1F"/>
<path transform="translate(411,503)" d="m0 0h10l6 3 4 5 2 8v33h-16l-1-34-4-3-7 1-4 6-1 30h-16v-48h16l1 5 5-4z" fill="#1C1D1F"/>
<path transform="translate(348,503)" d="m0 0h10l6 3 4 5 2 8v33h-16l-1-34-4-3-7 1-4 6-1 30h-16v-48h16l1 5 5-4z" fill="#1C1D1F"/>
<path transform="translate(257,128)" d="m0 0h10l5 3 4 1 6-4h12l6 4 3 5 1 6v29h-11l-1-30-3-4h-7l-3 3-1 3-1 28h-10l-1-29-2-4-2-1h-6l-4 4-1 30h-10l-1-1v-42h11l1 2z" fill="#030303"/>
<path transform="translate(104,378)" d="m0 0h17v60l-2 9-4 6-5 4-6 2-13 1v-13l9-2 3-4z" fill="#1C1D1F"/>
<path transform="translate(559,503)" d="m0 0h17l10 2v12l-12-3h-11l-3 2 1 4 19 4 6 3 3 6v10l-4 6-10 4h-18l-11-3v-11l12 3h13l3-3v-4l-18-3-8-5-2-4v-11l6-7z" fill="#1C1D1F"/>
<path transform="translate(899,393)" d="m0 0h17l10 2v12l-12-3h-11l-3 2 1 4 19 4 6 3 3 6v10l-4 6-10 4h-18l-11-3v-11l12 3h13l3-3v-4l-18-3-8-5-2-4v-11l6-7z" fill="#1C1D1F"/>
<path transform="translate(766,393)" d="m0 0h17l10 2v12l-12-3h-11l-3 2 1 4 19 4 6 3 3 6v10l-4 6-10 4h-18l-11-3v-11l12 3h13l3-3v-4l-18-3-8-5-2-4v-11l6-7z" fill="#1C1D1F"/>
<path transform="translate(986,375)" d="m0 0h16v10l-11 1-2 1-1 7h13v11h-13v37h-16v-37h-7v-11h7l1-10 4-6z" fill="#1C1D1F"/>
<path transform="translate(560,380)" d="m0 0h15v14h16v11h-16l1 25 14 1v11h-19l-7-3-3-4-1-3v-27h-8v-11h8z" fill="#1C1D1F"/>
<path transform="translate(211,127)" d="m0 0 11 1 6 4 5 6 2 4v11h-33l3 7 5 3h9l6-3 5 2 3 3-6 5-9 3h-8l-9-3-7-7-3-10 1-11 5-8 5-4z" fill="#020202"/>
<path transform="translate(189,394)" d="m0 0h15l11 30 1 1 11-31h16l-6 16-12 31-1 1h-17l-18-45z" fill="#1C1D1F"/>
<path transform="translate(114,973)" d="m0 0h14l11 29 6 16v2h-12l-3-8h-18l-3 8h-12l1-6 15-40z" fill="#1C1D1F"/>
<path transform="translate(407,973)" d="m0 0h22l9 2 5 4 2 4v11l-4 6-6 3-4 1h-12v16h-12z" fill="#1C1D1F"/>
<path transform="translate(853,393)" d="m0 0h15l7 2v12l-7-2h-11l-4 2-3 6v10l2 6 5 2h11l7-2v12l-7 2h-15l-9-3-7-6-4-9v-14l5-10 8-6z" fill="#1C1D1F"/>
<path transform="translate(389,393)" d="m0 0h15l7 2v12l-7-2h-11l-4 2-3 6v10l2 6 5 2h11l7-2v12l-7 2h-15l-9-3-7-6-4-9v-14l5-10 8-6z" fill="#1C1D1F"/>
<path transform="translate(232,985)" d="m0 0h11l5 18v4h2l1-8 4-14h9l3 9 3 13 5-20 1-2h11l-9 35h-13l-5-20-2 4-4 16h-13z" fill="#1C1D1F"/>
<path transform="translate(305,129)" d="m0 0h11l11 28 1 1 12-29h11l-3 9-13 30-7 16-5 6-4 2h-9v-9l7-2 4-6-1-7-12-30z" fill="#020202"/>
<path transform="translate(190,971)" d="m0 0h10l1 1 1 16 7-4 9 1 5 5 2 9v21h-12l-1-25-1-1h-7l-2 3-1 23h-12v-48z" fill="#1C1D1F"/>
<path transform="translate(532,503)" d="m0 0h10v14l-4-1h-7l-5 2-3 6-1 28h-16v-48h16l1 5 5-4z" fill="#1C1D1F"/>
<path transform="translate(1093,393)" d="m0 0h10v14l-4-1h-7l-5 2-3 6-1 28h-16v-48h16l1 5 5-4z" fill="#1C1D1F"/>
<path transform="translate(449,393)" d="m0 0h10v14l-4-1h-7l-5 2-3 6-1 28h-16v-48h16l1 5 5-4z" fill="#1C1D1F"/>
<path transform="translate(96,129)" d="m0 0h10l1 26 2 5 3 2h8l4-4 1-29h11v28l-2 7-4 5-9 4h-10l-8-3-6-7-1-4z" fill="#020203"/>
<path transform="translate(336,984)" d="m0 0 9 1 5 5 2 9v21h-12l-1-25-1-1h-7l-2 3-1 23h-12v-35h12l1 3z" fill="#1C1D1F"/>
<path transform="translate(292,504)" d="m0 0h16v48h-16z" fill="#1C1D1F"/>
<path transform="translate(807,394)" d="m0 0h16v48h-16z" fill="#1C1D1F"/>
<path transform="translate(466,394)" d="m0 0h16v48h-16z" fill="#1C1D1F"/>
<path transform="translate(160,984)" d="m0 0h10l9 2v8l-6-1h-13v3l16 4 4 4 1 2v7l-3 5-8 3h-11l-9-2v-8l15 2 4-1v-4l-16-4-3-4-1-6 3-7z" fill="#1C1D1F"/>
<path transform="translate(160,137)" d="m0 0h7l6 3 3 4 1 9-3 6-5 4h-10l-5-3-3-6v-8l4-6z" fill="#F8F9FB"/>
<path transform="translate(1027,404)" d="m0 0h8l5 4 2 6v8l-3 7-4 3h-8l-5-5-1-3v-12l3-6z" fill="#F8F9FB"/>
<path transform="translate(517,404)" d="m0 0h8l5 5 1 3v12l-3 6-3 2h-8l-5-5-1-3v-12l3-6z" fill="#F8F9FB"/>
<path transform="translate(248,514)" d="m0 0h8l5 5 1 3v11l-3 5-4 3h-6l-4-2-3-6v-11l3-6z" fill="#F8F9FB"/>
<path transform="translate(115,96)" d="m0 0 12 6 9 6v9l-2 1-16-9-6 1-14 8h-2v-10l9-6z" fill="#1C1D1F"/>
<path transform="translate(362,985)" d="m0 0h12v35h-12z" fill="#1C1D1F"/>
<path transform="translate(294,985)" d="m0 0h12v35h-12z" fill="#1C1D1F"/>
<path transform="translate(121,524)" d="m0 0h14l5 4v9l-3 3-3 1h-13z" fill="#F8F9FB"/>
<path transform="translate(648,414)" d="m0 0h14l5 4v9l-3 3-3 1h-13z" fill="#F8F9FB"/>
<path transform="translate(228,607)" d="m0 0h6l3 6v2h2l1-5 2-3h6v17h-5l-1-8-3 5-3-1-3-7-1 11h-4z" fill="#1C1D1F"/>
<path transform="translate(481,310)" d="m0 0h6l5 5v7l-5 5h-6l-4-4-1-7 3-5z" fill="#1C1D1F"/>
<path transform="translate(357,310)" d="m0 0h6l5 5v7l-5 5h-6l-4-4-1-7 3-5z" fill="#1C1D1F"/>
<path transform="translate(293,310)" d="m0 0h6l5 5v7l-5 5h-6l-4-4-1-7 3-5z" fill="#1C1D1F"/>
<path transform="translate(121,499)" d="m0 0h12l5 5-1 6-5 3h-11z" fill="#F8F9FB"/>
<path transform="translate(648,389)" d="m0 0h12l5 5-1 6-5 3h-11z" fill="#F8F9FB"/>
<path transform="translate(293,485)" d="m0 0h15v12l-1 1h-14l-1-1v-11z" fill="#1C1D1F"/>
<path transform="translate(808,375)" d="m0 0h15v12l-1 1h-14l-1-1v-11z" fill="#1C1D1F"/>
<path transform="translate(467,375)" d="m0 0h15v12l-1 1h-14l-1-1v-11z" fill="#1C1D1F"/>
<path transform="translate(307,607)" d="m0 0h5v6h6v-6h5v17h-5v-7h-6v7h-5z" fill="#1C1D1F"/>
<path transform="translate(716,420)" d="m0 0h11v6l-5 6-2 1h-7l-4-4 1-6z" fill="#F8F9FB"/>
<path transform="translate(270,420)" d="m0 0h11v6l-5 6-2 1h-7l-4-4 1-6z" fill="#F8F9FB"/>
<path transform="translate(155,420)" d="m0 0h11v6l-5 6-2 1h-7l-4-4 1-6z" fill="#F8F9FB"/>
<path transform="translate(343,611)" d="m0 0h11 3 5l2 2v11h-4v-10l-3 1-1 9h-5v-10l-3 1-1 9h-4z" fill="#1C1D1F"/>
<path transform="translate(289,1054)" d="m0 0h7l3 5v7l-2 4-7 1-3-3-1-2v-7z" fill="#1C1D1F"/>
<path transform="translate(393,606)" d="m0 0h4v18h-11l-3-4 1-7 2-2h6z" fill="#1C1D1F"/>
<path transform="translate(374,310)" d="m0 0h5l4 10 3-10h5v17h-3l-1-9-3 9h-3l-3-10-1 10h-3z" fill="#1C1D1F"/>
<path transform="translate(136,310)" d="m0 0h9l3 1 1 7-2 4 3 5-5-1-3-5h-2l-1 6h-3z" fill="#1C1D1F"/>
<path transform="translate(419,982)" d="m0 0h10l4 4-1 7-3 2h-10z" fill="#F8F9FB"/>
<path transform="translate(465,513)" d="m0 0h8l5 5 1 4-1 1h-19l1-6z" fill="#F8F9FB"/>
<path transform="translate(189,513)" d="m0 0h8l5 5 1 4-1 1h-19l1-6z" fill="#F8F9FB"/>
<path transform="translate(192,1091)" d="m0 0h6l2 4-3 1v-2l-4 1-1 2h6l3 4-2 6-1 1h-7l-3-5v-7l2-4z" fill="#3B3C3E"/>
<path transform="translate(249,1054)" d="m0 0h6l2 4-3 1v-2l-4 1-1 2h6l3 4-2 6-1 1h-7l-3-5v-7l2-4z" fill="#3B3C3E"/>
<path transform="translate(211,136)" d="m0 0 9 1 5 6v2h-23l2-5 4-3z" fill="#F8F9FB"/>
<path transform="translate(254,611)" d="m0 0h8l3 3v7l-3 3h-7l-4-4 1-7z" fill="#1C1D1F"/>
<path transform="translate(195,1059)" d="m0 0h9l3 3v6l-3 3h-5l-1 5h-3z" fill="#1C1D1F"/>
<path transform="translate(498,310)" d="m0 0h4l6 10 1-10h3v17h-4l-6-10-1 10h-3z" fill="#1C1D1F"/>
<path transform="translate(398,310)" d="m0 0h9l3 1 1 7-2 2-7 1-1 6h-3z" fill="#1C1D1F"/>
<path transform="translate(139,1096)" d="m0 0h8v14l-3 3h-5l-2-4h2v2l5-1v-3l-5 1-3-4 1-6z" fill="#1C1D1F"/>
<path transform="translate(167,1054)" d="m0 0h8l2 1-1 3h-7l2 2 7 3-1 7-2 1h-7l-4-2 1-3 9 2-1-3-7-2-2-5z" fill="#1C1D1F"/>
<path transform="translate(370,611)" d="m0 0h8l3 3v5l-9 1 4 1h4l-1 3h-8l-4-4 1-7z" fill="#2F3032"/>
<path transform="translate(282,606)" d="m0 0h4v6l7-1 2 2v11h-4v-10h-4l-1 10h-4z" fill="#1C1D1F"/>
<path transform="translate(401,611)" d="m0 0h10l2 2v11h-11l-2-2 1-5 1-1h7l-1-2h-7z" fill="#323335"/>
<path transform="translate(327,611)" d="m0 0h10l2 2v11h-11l-2-2 1-5 1-1h7l-1-2h-7z" fill="#323335"/>
<path transform="translate(232,310)" d="m0 0 5 1 5 16h-4l-1-3h-6l-1 3h-3l2-9z" fill="#404143"/>
<path transform="translate(322,1054)" d="m0 0h4v10h2v3h-2v4h-4v-4h-7l1-5z" fill="#2C2D2F"/>
<path transform="translate(211,1091)" d="m0 0h10v3h-7l1 2 5 1 2 2v6l-3 3h-6l-3-3 1-2 7 2-1-5-6 1-1-3z" fill="#1C1D1F"/>
<path transform="translate(433,310)" d="m0 0h11v3h-8v4h8v3h-8v4h9v3h-12z" fill="#1C1D1F"/>
<path transform="translate(263,310)" d="m0 0h11v3h-8v4h8v3h-8v4h9v3h-12z" fill="#1C1D1F"/>
<path transform="translate(118,310)" d="m0 0h11v3h-8v4h8v3h-8v4h9v3h-12z" fill="#1C1D1F"/>
<path transform="translate(304,1054)" d="m0 0h7l2 2v6l-5 5 5 1v3h-12l1-4 6-5 1-5h-4v4l-4-1 1-5z" fill="#1C1D1F"/>
<path transform="translate(275,1054)" d="m0 0h7l2 2v6l-5 5 5 1v3h-12l1-4 6-5 1-5h-4v4l-4-1 1-5z" fill="#1C1D1F"/>
<path transform="translate(234,1054)" d="m0 0h7l2 2v6l-5 5 5 1v3h-12l1-4 6-5 1-5h-4v4l-4-1 1-5z" fill="#1C1D1F"/>
<path transform="translate(305,1096)" d="m0 0h6l3 3v6l-3 3h-6l-3-3v-6z" fill="#1C1D1F"/>
<path transform="translate(242,1096)" d="m0 0h6l3 3v6l-3 3h-6l-3-3v-6z" fill="#1C1D1F"/>
<path transform="translate(120,985)" d="m0 0 2 1 5 15v2h-12l1-6z" fill="#F8F9FB"/>
<path transform="translate(417,611)" d="m0 0h11l2 2v11h-4v-10h-4l-1 10h-4z" fill="#1C1D1F"/>
<path transform="translate(100,1056)" d="m0 0h7l2 2 1 5-2 5-1 1h-7z" fill="#F8F9FB"/>
<path transform="translate(181,612)" d="m0 0 7 1 1 2v6l-3 3h-5l-3-3 1-7z" fill="#1C1D1F"/>
<path transform="translate(289,1091)" d="m0 0h3l1 5h5l2 2v10h-4v-9l-3 1-1 8h-3z" fill="#1C1D1F"/>
<path transform="translate(266,1096)" d="m0 0h6l2 2v10h-10l-1-5 2-2 4-1 1-2h-3v2l-4-1z" fill="#303133"/>
<path transform="translate(363,971)" d="m0 0h10l1 1v8h-12v-8z" fill="#1C1D1F"/>
<path transform="translate(295,971)" d="m0 0h10l1 1v8h-12v-8z" fill="#1C1D1F"/>
<path transform="translate(183,1059)" d="m0 0h6l3 4v3l-8 1h6l1 3-2 1h-6l-3-3v-6z" fill="#313234"/>
<path transform="translate(98,1054)" d="m0 0h9l4 3 1 8-3 5-2 1h-9zm2 2v13h7l2-2 1-5-2-5-1-1z" fill="#1C1D1F"/>
<path transform="translate(269,611)" d="m0 0h9v3h-6v1l6 2 1 5-2 2h-9l-1-3h7l1-2-7-1-1-5z" fill="#1C1D1F"/>
<path transform="translate(337,310)" d="m0 0h6l3 2-1 3-6-2-2 1-1 6 1 3h6 3l-1 3-2 1h-6l-4-4-1-7 3-5z" fill="#1C1D1F"/>
<path transform="translate(212,310)" d="m0 0h6l4 4-3 1-5-2-2 1-1 6 1 3h6 3l-1 3-2 1h-6l-4-4-1-7 3-5z" fill="#1C1D1F"/>
<path transform="translate(102,310)" d="m0 0h6l4 4-3 1-5-2-2 1-1 6 1 3h6 3l-1 3-2 1h-6l-4-4-1-7 3-5z" fill="#1C1D1F"/>
<path transform="translate(309,310)" d="m0 0h11v3h-8v4h7v3h-7v7h-3z" fill="#1C1D1F"/>
<path transform="translate(181,310)" d="m0 0h11v3h-8v4h7v3h-7v7h-3z" fill="#1C1D1F"/>
<path transform="translate(317,1096)" d="m0 0h3v9l3-1 1-8h4v12h-10l-1-1z" fill="#1C1D1F"/>
<path transform="translate(483,312)" d="m0 0 5 2 1 1v6l-2 3h-6l-2-4 1-6z" fill="#F8F9FB"/>
<path transform="translate(359,312)" d="m0 0 5 2 1 1v6l-2 3h-6l-2-4 1-6z" fill="#F8F9FB"/>
<path transform="translate(295,312)" d="m0 0 5 2 1 1v6l-2 3h-6l-2-4 1-6z" fill="#F8F9FB"/>
<path transform="translate(341,1096)" d="m0 0h6l2 1v2l-6-1v2l6 2 1 4-2 2h-7l-2-1 1-3 5 1-4-2-2-2 1-4z" fill="#1C1D1F"/>
<path transform="translate(116,1059)" d="m0 0h6l2 2 1 10h-10l-1-5 7-3 1-2-5 1-2 1z" fill="#535456"/>
<path transform="translate(113,1096)" d="m0 0 7 1 1 5h-9l1 4 8-1-2 3h-6l-3-4 1-6z" fill="#808183"/>
<path transform="translate(138,1059)" d="m0 0 7 1 1 5h-9l1 4 8-1-2 3h-6l-3-4 1-6z" fill="#808183"/>
<path transform="translate(449,310)" d="m0 0h12v3h-4v14h-3v-14h-5z" fill="#1C1D1F"/>
<path transform="translate(245,310)" d="m0 0h12v3h-4v14h-3v-14h-5z" fill="#1C1D1F"/>
<path transform="translate(154,310)" d="m0 0h12v3h-4v14h-3v-14h-5z" fill="#1C1D1F"/>
<path transform="translate(257,1091)" d="m0 0h1v5h3v3h-3v6l3 1v2h-5l-1-1v-8l-3-1v-2h3v-4z" fill="#1C1D1F"/>
<path transform="translate(233,1091)" d="m0 0h1v5h3v3h-3v6l3 1v2h-5l-1-1v-8l-3-1v-2h3v-4z" fill="#1C1D1F"/>
<path transform="translate(213,1054)" d="m0 0h1v5h3v3h-3v6l3 1v2h-5l-1-1v-8l-3-1v-2h3v-4z" fill="#1C1D1F"/>
<path transform="translate(417,310)" d="m0 0h3v14h7v3h-10z" fill="#1C1D1F"/>
<path transform="translate(160,1091)" d="m0 0h2l1 5h5l2 3v9h-2l-1-9-2-1-2 1-1 9h-2z" fill="#1C1D1F"/>
<path transform="translate(124,1096)" d="m0 0h8l2 3v9h-2l-1-9-2-1-2 1-1 9h-2z" fill="#1C1D1F"/>
<path transform="translate(104,612)" d="m0 0h8l2 3v9h-2l-1-9-2-1-2 1-1 9h-2z" fill="#1C1D1F"/>
<path transform="translate(146,612)" d="m0 0h2v10h5v-10h2v12h-8l-1-1z" fill="#1C1D1F"/>
<path transform="translate(183,613)" d="m0 0 4 2v6l-4 2-3-3 1-6z" fill="#F8F9FB"/>
<path transform="translate(201,612)" d="m0 0h6l1 2h-7l1 2 7 3-1 4-1 1h-6l-2-1v-2l8 1-1-2-6-2-1-4z" fill="#1C1D1F"/>
<path transform="translate(118,612)" d="m0 0h6l1 2h-7l1 2 7 3-1 4-1 1h-6l-2-1v-2l8 1-1-2-6-2-1-4z" fill="#1C1D1F"/>
<path transform="translate(98,1091)" d="m0 0h2v15h9v2h-11z" fill="#1C1D1F"/>
<path transform="translate(434,611)" d="m0 0h4v13h-4z" fill="#1C1D1F"/>
<path transform="translate(277,1091)" d="m0 0h3v17h-3z" fill="#1C1D1F"/>
<path transform="translate(467,310)" d="m0 0h3v17h-3z" fill="#1C1D1F"/>
<path transform="translate(198,310)" d="m0 0h3v17h-3z" fill="#1C1D1F"/>
<path transform="translate(172,310)" d="m0 0h3v17h-3z" fill="#1C1D1F"/>
<path transform="translate(141,1097)" d="m0 0 4 2v6l-5 1-2-2 1-6z" fill="#F8F9FB"/>
<path transform="translate(291,1057)" d="m0 0 4 1v8l-1 2-4-1v-9z" fill="#F8F9FB"/>
<path transform="translate(331,1096)" d="m0 0h7v3h-3l-1 9h-3z" fill="#1C1D1F"/>
<path transform="translate(153,1091)" d="m0 0h1v5l3 1-3 1 1 8 2 2-5-1v-9l-3-1 3-1z" fill="#1C1D1F"/>
<path transform="translate(130,1054)" d="m0 0h1v5l3 1-3 1 1 8 2 2-5-1v-9l-3-1 3-1z" fill="#1C1D1F"/>
<path transform="translate(173,607)" d="m0 0h1v5l3 1-3 1 1 8 2 2-5-1v-9l-3-1 3-1z" fill="#1C1D1F"/>
<path transform="translate(130,607)" d="m0 0h1v5l3 1-3 1 1 8 2 2-5-1v-9l-3-1 3-1z" fill="#1C1D1F"/>
<path transform="translate(161,612)" d="m0 0 7 1v2l-7-1v8l7-1v2l-7 1-3-3 1-7z" fill="#1C1D1F"/>
<path transform="translate(388,614)" d="m0 0 5 1v5l-5 1-1-5z" fill="#F8F9FB"/>
<path transform="translate(256,614)" d="m0 0 5 1v5l-5 1-1-5z" fill="#F8F9FB"/>
<path transform="translate(401,313)" d="m0 0h6l1 4-1 1h-6z" fill="#F8F9FB"/>
<path transform="translate(139,313)" d="m0 0h6l1 4-1 1h-6z" fill="#F8F9FB"/>
<path transform="translate(111,1100)" d="m0 0 6 1v1h-5l1 4 8-1-2 3h-6l-3-4z" fill="#1C1D1F"/>
<path transform="translate(136,1063)" d="m0 0 6 1v1h-5l1 4 8-1-2 3h-6l-3-4z" fill="#1C1D1F"/>
<path transform="translate(192,612)" d="m0 0h6v2l-3 1-1 9h-2z" fill="#1C1D1F"/>
<path transform="translate(137,612)" d="m0 0h6v2l-3 1-1 9h-2z" fill="#1C1D1F"/>
<path transform="translate(199,1062)" d="m0 0h4l1 4-1 2-5-1z" fill="#F8F9FB"/>
<path transform="translate(308,1098)" d="m0 0 3 2-1 5h-4v-6z" fill="#F8F9FB"/>
<path transform="translate(245,1098)" d="m0 0 3 2-1 5h-4v-6z" fill="#F8F9FB"/>
<path transform="translate(1145,110)" d="m0 0 4 1-1 5-4-1z" fill="#F8F9FB"/>
</svg>
