<?xml version="1.0" encoding="UTF-8"?>
<svg version="1.1" viewBox="0 0 900 900" width="225" height="225" xmlns="http://www.w3.org/2000/svg">
<path transform="translate(445,145)" d="m0 0h68l22 1 38 5 23 5 36 12 18 8 19 9 11 7 13 5 18 2 9 3 8 7 4 7 3 8 2 15 5 5 11 13 13 15 11 14 11 16 16 28 8 17 11 30 6 20 7 29 3 23 1 12v41l-4 32-7 33-6 18-16 36-2 4h-2l-1 5-1 15v26l32 1 3 3v12l-5 3-134 1-38 1-5 1-3 5-10 4-19 3-42 4 25-1v3l2 2v4l13 4 5 8v8l-6 11-5 6-8 4-19 4-17 2-30 1-50-1h-171l-21-2-9-3-9-6-4-5-4-10v-21l5-5 7-2-10-4-8-6-5-5 4-1-13-2-56-1-131-1-5-2-1-9 3-7h101l-8-14-5-15v-7l4-1h22l29 1 4 1v9l-4 11-8 13 2 1 28 1v-31l1-1 7-1 1-41-7 1h-53l-11-6-5-5-4-11v-116l-7 2-12 1h-20l-16 6-5 3-3 5-2 1h-10l-2-2v-14l2-17 7-32 4-24 4-14-1-8-16-9-7-6-6-4-3-7-2-12 1-7 5-6 24-2h34l3-3 13-23 6-3h8l1-57 2-12 6-9 7-6 4-2 6-1 164-1-4-6-6-7-15-6-3-3 1-5 12-5 35-10 23-5 33-5zm-203 453-1 1-1 17v23l1 1h17l2-1-1-40-6-1zm267 0-1 1v58l38 2 3 1 3 12h96l1-4-3-10-2-15v-8l4-17 5-12 2-3v-3l-7-1-89-1zm-245 1v40l7 2 1 30 1 1h71l2-14h43v-59zm315 117 1 3 3 2 22-2 1-2-15-1zm-99 1 1 2h37l3-2z" fill="#334F69"/>
<path transform="translate(188,221)" d="m0 0h515l6 2 1 2 1 9v204h-1l-2-14-7-17-6-9-6-7-8-7-14-8-16-6-12-2h-13l-10 1h-16l-2-4-2-16-8-22-10-19-10-13-12-12-15-10-16-8-18-7-10-2-12-1h-16l-13 1-16 3-23 10-14 8-16 12-10 10-9 11-3 5h19l16 6 12 9 8 9 7 14 2 7v4l5-2 9-6 10-4 10-1 16 4 8 6 6 8 4 9v6l-1 3 16 1 11 4 5 5 1 3v10l-2 8h10l4-1h17l18 6 11 8 6 7 5 7 6-1 6-2h9l11 4 11 8 6-1 16-8 13-4h23l9 1 2-1 1 2v72l-5 5-2 1h-122l-45-1-162-1-76-1h-72l-11-1-5-1h-15l-7-2-3 1-4-20-2-20-2-111v-36l1-100 2-5z" fill="#45BED0"/>
<path transform="translate(747,560)" d="m0 0 4 2 9 30h3l10-20 6-8 4-3h5l1 3v15l-4 11 1 4 10-5 4 1v7l-8 9-1 5 3 1-1 7-2 3v3l9 2 1 44 32 1 3 3v12l-5 3-134 1-38 1-5 1-3 5-10 4-19 3-42 4 25-1v3l2 2v4l13 4 5 8v8l-6 11-5 6-8 4-19 4-17 2-30 1-50-1h-171l-21-2-9-3-9-6-4-5-4-10v-21l5-5 7-2-10-4-8-6-5-5 4-1-13-2-56-1-131-1-5-2-1-9 3-7h101l-8-14-5-15v-7l4-1h22l29 1 4 1v9l-4 11-8 13 2 1 28 1v-31l1-1 7-1 1-49 1-3h3l1 32v20h19v-51h4l1 51 7 2 1 30 71 1v-10l2-5h23l20 1-1-59-115-1v-1l-7-1-1-1v-8l1 2 26 1 37-1h314l75-1 8-3 4-7h4v4h5l3-12 4-9zm-238 38-1 1v58l38 2 3 1 3 12h96l1-4-3-10-2-15v-8l4-17 5-12 2-3v-3l-7-1-89-1zm70 118 1 3 3 2 22-2 1-2-15-1zm-99 1 1 2h37l3-2z" fill="#35546C"/>
<path transform="translate(733,221)" d="m0 0 2 3 2 15 5 5 11 13 13 15 11 14 11 16 16 28 8 17 11 30 6 20 7 29 3 23 1 12v41l-4 32-7 33-6 18-16 36-2 4h-2l-1 5-1 15h-1v-18l-9-1-1-4 3-5v-5l-2-1v-5l8-9v-7l-6 1-8 4-1-5 4-11v-18l-6 2-5 4-13 25-3 2-3-4-7-26-2-3-3 1-7 20h-5l-2 2v-6h-2l-2 6-2 2-8 3-88 1h-302l-38 1-21-1-3-1v6l15 1v1l107 1v1h-124l-1-11h-2l-1 44h-1v-33h-17l-1 11h-1v-23h-3l-1 11-7 1h-53l-11-6-5-5-4-11v-39l1 3h576z" fill="#45BED0"/>
<path transform="translate(309,296)" d="m0 0h9l12 3 16 8 6 5v2l3 1h29l16 6 12 9 8 9 7 14 2 7v4l5-2 9-6 10-4 10-1 16 4 8 6 6 8 4 9v6l-1 3 16 1 11 4 5 5 1 3v10l-2 8h10l4-1h17l18 6 11 8 6 7 5 7 6-1 6-2h9l11 4 11 8 6-1 16-8 13-4h23l10 1 1 2v29h-223l-3-1v-7l-4-11-7-11-7-8-10-6-12-3h-20l-9 2-10 4h-8l-4-3-15-5-5-2-11 1-4-3-4-12-13-12-8-6-10-4-5-1h-28l-17 6-10 5-3 2-4-1-2-12-8-5-2-1h-9l-4 2-6-1-4-5-12-12-12-4-9-1h-9l1-37 8-6 13-8 10-3h19l9 4 9 6 5 5 5-1 14-9 15-8 14-4z" fill="#F7FCFD"/>
<path transform="translate(469,254)" d="m0 0h16l16 2 9 2 21 9 12 6 14 10 14 14 10 14 10 21 7 21 1 12 1 3h16l10-1h13l15 3 13 5 14 8 10 9 9 11 8 18 2 8 1 14h-3l-9-1h-23l-15 5-16 8-5-1-10-7-11-4h-9l-8 3-5-1-9-12-9-7-8-4-13-4h-17l-4 1h-11l2-9v-10l-3-5-6-4-7-2-16-1-1-2 1-2-1-9-5-9-3-3v-2l-4-2-6-4-15-3-13 2-13 7-3 3h-4l-5-16-6-10-8-9-14-9-12-4h-16l-3-1 2-5 12-14 10-10 19-13 15-8 17-7 16-3z" fill="#FBAC7F"/>
<path transform="translate(735,230)" d="m0 0h1l1 9 5 5 11 13 13 15 11 14 11 16 16 28 8 17 11 30 6 20 7 29 3 23 1 12v41l-4 32-7 33-6 18-16 36-2 4h-2l-1 5-1 15h-1v-18l-9-1-1-4 3-5v-5l-2-1v-5l8-9v-7l-6 1-8 4-1-5 4-11v-18l-6 2-5 4-13 25-3 2-3-4-7-26-2-3-3 1-7 20h-5v-41z" fill="#F6FBFC"/>
<path transform="translate(662,222)" d="m0 0h37l10 1 1 2 1 9v204h-1l-2-14-7-17-6-9-6-7-8-7-14-8-16-6-12-2h-13l-10 1h-16l-2-4-2-16-8-22-10-19-10-13-12-12-15-10-16-8-18-7-10-2-12-1h-16l-13 1-16 3-7 3-3-1 6-3-5-8-11-16-3-6v-5h145z" fill="#86DDE8"/>
<path transform="translate(196,690)" d="m0 0h400l63 1v1l-5 1-3 5-10 4-19 3-42 4 25-1v3l2 2v4l13 4 5 8v8l-6 11-5 6-8 4-19 4-17 2-30 1-50-1h-171l-21-2-9-3-9-6-4-5-4-10v-21l5-5 7-2-10-4-8-6-5-5 4-1-13-2-56-1zm383 26 1 3 3 2 22-2 1-2-15-1zm-99 1 1 2h37l3-2z" fill="#F6FBFC"/>
<path transform="translate(730,578)" d="m0 0h2v6l-5 6-13 8-4 1h-201l-1 58h25l13 1 4 2 2 10v2h19l18 1-3 2-9 1-3 7-4 3-5 1-15 1h-303l-9 1-91-1-1-4 2-1 5 1v-2l4-2h25l16-2 4-1 5 2-1-3 3-2 1 2 2-1v3l9-3 1-2-2-1h7v-31l1-1 7-1 1-49 1-3h3l1 32v20h19v-51h4l1 51 7 2 1 30 71 1v-10l2-5h23l20 1-1-59-115-1v-1l-7-1-1-1v-8l1 2 26 1 37-1h314l75-1 8-3z" fill="#2897AE"/>
<path transform="translate(188,221)" d="m0 0h515l3 2h-44l-107 1h-118l-20-1 3 9 7 11 8 11 2 4-5 3h-2v2l-19 9-12 8-12 9-10 10-9 11-3 5-2 1h-8l-9-8-16-8-12-3h-9l-11 2-13 4-15 8-13 9-5-1-8-7-8-5-6-2h-19l-10 3-13 8-6 5h-2v25l-1 18h-1v-36l1-100 2-5z" fill="#45BED0"/>
<path transform="translate(175,200)" d="m0 0h233v2l-2 1 2 10 2 4v3l-225 1-4 1-2 5-1 7-1 38v42l1 162 1 40 1 4 2 1h96l290 1 4 8 5 5 2 4-3 1h-417v-31l1-28 3-1 4 1-1-8 2-6h-2l-4 4-2-1-1-7v-132l-1-22-1-8v-51l1-33 6-9 7-6z" fill="#181E2D"/>
<path transform="translate(188,357)" d="m0 0 13 2 9 4 9 9v2l4 2 4 4 5-1 3-1h9l9 5 2 2 2 12 5-1 7-4 14-6 7-2h28l11 3 10 6 10 10 6 5 4 12 3 2 11-1 13 5 9 3 2 2h8l12-5 7-1h20l12 3 11 7 8 9 8 14 2 10-1 4 3 1h-126l-4-2-6-8-7-6-10-5-8-2h-7l-11 3-7 4-3 4-4-1-7-11-8-7-10-4h-15l-10 4-2 2-4-1-5-10-9-9-8-4-10-3h-9l-15 5h-3v-64z" fill="#87DDE8"/>
<path transform="translate(445,145)" d="m0 0h68l22 1 38 5 23 5 36 12 18 8 19 9 11 7 13 5 10 1v1h-362l4-1-4-6-6-7-15-6-3-3 1-5 12-5 35-10 23-5 33-5z" fill="#F4FAFB"/>
<path transform="translate(155,283)" d="m0 0h1l1 58v120l-16 3h-24l-16 6-5 3-3 5-2 1h-10l-2-2v-14l2-17 7-32 4-24 4-14-1-8-16-9-7-6-6-4-3-7-2-12 1-7 5-6 24-2h34l3-3 13-23 6-3h8z" fill="#F6FAFB"/>
<path transform="translate(237,587)" d="m0 0h3l1 32v20h19v-51h4l1 51 7 2 1 30 71 1 1-5 2-3h197l6-1 2 7v2h19l18 1-3 2-9 1-3 7-4 3-5 1-15 1h-303l-9 1-91-1-1-4 2-1 5 1v-2l4-2h25l16-2 4-1 5 2-1-3 3-2 1 2 2-1v3l9-3 1-2-2-1h7v-31l1-1 7-1 1-49z" fill="#283B54"/>
<path transform="translate(196,690)" d="m0 0h400l63 1v1l-5 1-3 5-10 4-19 3-45 4-4 7-106 1h-140l-35-1-6-2-3-5-9-3-8-6-5-5 4-1-13-2-56-1z" fill="#AFD0DC"/>
<path transform="translate(430,265)" d="m0 0 9 1 6 4 5 8v2h2l6 11 14 22 10 15 7 11 10 15 7 11 7 12 1 5h-2v-2h-6l-4-3-5-3-7-10-8-6-5-3-15-3-13 2-13 7-3 3h-4l-5-16-6-10-8-9-5-5-8-5-15-5h-7l-2-5 2-5 11-12 18-14 12-7z" fill="#FB9263"/>
<path transform="translate(733,578)" d="m0 0 1 4h5l3 8 2 22 2 11h-2l-4-4-10-8-7-3 3 11 1 8 1 43-5 2h-75l-1-7-3-14-1-16 4-17 5-12 3-6h-7v-1l62-1 8-3 11-8 2-3h2z" fill="#F89554"/>
<path transform="translate(469,254)" d="m0 0h16l16 2 9 2 21 9 12 6 14 10 14 14 10 14 10 21 7 21 1 12 1 3h16l10-1h13l15 3 13 5 14 8 10 9 9 11 8 18 2 8 1 14h-3l-9-1h-23l-15 5-4 2-3-1h2v-5l-9-12-16-17-3-5-6-5v-2h-2l-6-7-5-5-3-5-2-6-4-1-5-12-2-16-5-16-14-27-5-5-6-4v-2h-2l-3-5-5-6-4-2v-2h-2v-2l-5-2-9-6-25-10-13-3h-20l-21 1-9 1-16 5-3-1 14-6 16-3z" fill="#FBBC97"/>
<path transform="translate(391,600)" d="m0 0h117v41l-1 9-2-2-1-5-1-3h-7l-6-1h-98l-1-2-1-32z" fill="#06465D"/>
<path transform="translate(747,560)" d="m0 0 4 2 9 30h3l10-20 6-8 4-3h5l1 3v15l-4 11 1 4 10-5 4 1v7l-8 9-1 5 3 1-1 7-2 3v3l9 2 1 45h-36l-2-3-1-31-5-4v-2l-4 1-7-6-1-7-2-8-2-22-2-6 1-7 5-15z" fill="#2595AD"/>
<path transform="translate(389,599)" d="m0 0h119v1h-117l1 39 7-1h95l9 2 2 2 1 6 1-7h1v16h25l13 1 4 2 1 4-8 1h-196l-3 4v-7l2-5h23l20 1z" fill="#165E76"/>
<path transform="translate(154,635)" d="m0 0h22l29 1 4 1v9l-4 11-8 13 2 1 21 1 2 1-1 3-4 1-2 2-3-1-1-2-2 1-1-2-1 4-7-1-6 2-14 1h-23l-4 1v2h-6v4h-87l-1-9 3-7h101l-8-14-5-15v-7z" fill="#1F2C40"/>
<path transform="translate(413,219)" d="m0 0h264l28 1 6 3 1 3 1 22v247l-1 23-5 4h-525l-3-2-1-4-1-40-1-162v-42l1-38 2-10 2-3 4-1zm-225 2-7 2-2 5-1 100v36l2 111 2 21 3 14 1 5h4l8 1h15l3 1 19 1h65l78 1 159 1 45 1h122l6-4 1-2v-281l-1-9-1-2-6-2z" fill="#1F6E86"/>
<path transform="translate(322,724)" d="m0 0h219l37 1 1 2-1 7-2 2-39 1h-215l-2-2v-10z" fill="#87DEE9"/>
<path transform="translate(747,560)" d="m0 0 4 2 9 30h3l10-20 6-8 4-3h5l1 3v15l-4 11 1 4 10-5 4 1v7l-8 9-1 5 3 1-1 7-2 3v3l6 1v1l-11 1-4-1 2-5 1-2-7 3-4 2h-7l-5-1-9-27-5-17-1-10h2l-1-7-2-2z" fill="#4AC0D1"/>
<path transform="translate(82,570)" d="m0 0h56l5 3 3 3v12l-2 6-2 1-65-1-8-2-5-5v-12l2-3z" fill="#F7FCFD"/>
<path transform="translate(237,587)" d="m0 0h3l1 32v20h19v-51h4l1 51 7 2v27l-2 3-9 1h-29l-5-1v-30l1-1 7-1 1-49z" fill="#06465D"/>
<path transform="translate(154,635)" d="m0 0h22l29 1 4 1v9l-4 11-8 13 2 2h-36l-8-14-5-15v-7z" fill="#FB9465"/>
<path transform="translate(723,608)" d="m0 0 5 1 16 12 2 6 4 2 3 3h4l5 5 1 4 1 28 1 3h-42l4-2-1-43-2-11z" fill="#1C788F"/>
<path transform="translate(507,641)" d="m0 0h1v16h25l13 1 4 2 1 4-8 1h-196l-3 4v-7l2-5h43l117-1z" fill="#45BECF"/>
<path transform="translate(547,663)" d="m0 0 4 1 1 8-2 1h-201l-5-2 2-7h198z" fill="#207D95"/>
<path transform="translate(157,220)" d="m0 0h1v81l1 8 1 24v137l4-1 2-3 4-1v2h-2v6 4l-1 4-6 1-2 58h408v1h-410l-1-3v-309z" fill="#2E495D"/>
<path transform="translate(318,486)" d="m0 0h185l1 1v6h-185l-2-1v-5z" fill="#F7FCFD"/>
<path transform="translate(176,422)" d="m0 0h1l2 94 1 4 2 1h96l290 1 4 8 2 1-1 2-4-2-4-6-1-1h-237l-10 1h-23l-16-1h-15l-27 3h-28l-12 1-5 4-5-1-5-5-3-5-6-14-1-17 4-10-1-18-1-4 1-7 1-6z" fill="#1D2E43"/>
<path transform="translate(462,252)" d="m0 0h29l16 3 16 6 17 8 17 11v2l4 2 9 8v2l3 1v2l4 2 6 8 8 16 5 13 5 14 1 2 1 10 3 2 6 1 18-1 14 1 15 4 17 8 11 8 8 7 7 10 4 7v2l4 1 1 2v24h-1l-2-14-7-17-6-9-6-7-8-7-14-8-16-6-12-2h-13l-10 1h-16l-2-4-2-16-8-22-10-19-10-13-12-12-15-10-16-8-18-7-10-2-12-1h-16l-13 1-16 3-7 3-3-1 11-5z" fill="#AFD1DD"/>
<path transform="translate(799,640)" d="m0 0h1v31h-26l-4-1v-2h-3l-2-3v-22l33-1z" fill="#43BDCF"/>
<path transform="translate(179,224)" d="m0 0 1 4-1 100v36l1 132 1 21 4 1 39 1 266 1v1l-308 1-3-2-1-4-1-40-1-162v-42l1-38z" fill="#1C788F"/>
<path transform="translate(179,427)" d="m0 0h1l1 48 2 21 3 14 1 2-1 3h2l1-2 7 2h17l3 1 19 1h65l78 1 159 1 45 1v1h-92l-266-1-39-1-4-2-1-2-1-19z" fill="#2492AA"/>
<path transform="translate(551,687)" d="m0 0m-304 0h303l1 2-293 1h-193l-3-2h177z" fill="#475C70"/>
<path transform="translate(733,578)" d="m0 0 1 4h5l3 8 2 22 2 11h-2l-4-4-10-8-7-3 3 11 1 8 1 43-4 1 1-2v-31l-2-16-2-17-1-4-4-1-7 1h-47l-7 2v-3h-7v-1l62-1 8-3 11-8 2-3h2z" fill="#FBAD80"/>
<path transform="translate(547,663)" d="m0 0 3 1-7 4h-48l-5-1-20 1-3 1v-2l-29 1h-12l-8 1h-15l-3-1-1 2h-7l-4-1-9 1h-19l-3 1h-13l2-7h198z" fill="#2494AC"/>
<path transform="translate(238,585)" d="m0 0 22 1v1h-23l-1 11-7 1h-53l-8-4-3-6 3-1 17 1h29l8 1 14-2v-2z" fill="#2899B0"/>
<path transform="translate(156,471)" d="m0 0h1l2 19v50h408v1h-410l-1-3z" fill="#334C65"/>
<path transform="translate(154,635)" d="m0 0h22l29 1 4 1v9l-2 7-4-4-1-2-3-1v-2l-20-1-18 1-1 2h-2v9l1 2-2 4-4-8-3-10v-7z" fill="#FBAC7F"/>
<path transform="translate(730,578)" d="m0 0h2v6l-5 6-13 8-4 1h-48l-7-2 4-4 9-2 4 1 1 1h26l11-1 1-2 5-1 10-4z" fill="#268AA3"/>
<path transform="translate(260,586)" d="m0 0 5 1 1 8 15 1v1l107 1v1h-124l-1-11h-2l-1 44h-1v-33h-17l-1 11h-1v-23z" fill="#3F93A9"/>
<path transform="translate(490,593)" d="m0 0 8 1 7-1v3h2l1 3h-116v-1h7v-2l9-1 6-1 14 1h33l24-1z" fill="#24869E"/>
<path transform="translate(274,522)" d="m0 0h294l4 8 2 1-1 2-4-2-4-6-1-1h-237l-10 1h-23l-16-1h-4z" fill="#1F2C40"/>
<path transform="translate(179,224)" d="m0 0 1 4-1 100-1 148h-1l-1-162v-42l1-38z" fill="#2B5871"/>
<path transform="translate(647,618)" d="m0 0 2 4 2 1-1 16-3 4 1 14 9 7 3 3h9l2 2 7 1 45 1v1h-75l-1-7-3-14-1-16z" fill="#FBA176"/>
<path transform="translate(389,599)" d="m0 0h119v1h-117v54l1 1 114 1v1h-117z" fill="#16637A"/>
<path transform="translate(716,599)" d="m0 0 4 1 2 4 1 12 2 11 1 11v31l-2 2h-24v-1l17-1 5-2 2-3v-25l-3-9-4-16-3-5v-2l-5-1-1-3h-2l-1 2v-2l-9-1v-1z" fill="#FC9263"/>
<path transform="translate(176,422)" d="m0 0h1l2 98-3-2-4-11-1-17 4-10-1-18-1-4 1-7 1-6z" fill="#1E2C40"/>
<path transform="translate(423,265)" d="m0 0 3 1-8 4h-2l-1 3-12 7-18 14-10 11-1 5 1 4 7-1 17 6 7 5h-3l-10-5-9-3h-16l-3-1 2-5 12-14 10-10 19-13z" fill="#FBB58D"/>
<path transform="translate(548,664)" d="m0 0h3l1 7h-28l-56-1 2-3 21-1 10 1h42z" fill="#278AA3"/>
<path transform="translate(733,578)" d="m0 0 1 4h5l3 8 2 22 2 11h-2l-4-4-10-8-3-3 5 2 5 3 4 1-1-11-3-6v-3l-13-1 6-7 1-2h2z" fill="#F3BD9C"/>
<path transform="translate(243,564)" d="m0 0h14l2 3v8l-2 4-2 1h-7l-5-2-2-4v-7z" fill="#FB9262"/>
<path transform="translate(801,672)" d="m0 0h32l3 3v12l-2 2-6-1 2-7-5-4h-4l-1 2h-5l-3-1h-6v-2l-4-1z" fill="#2E435A"/>
<path transform="translate(178,364)" d="m0 0h1l1 132 1 19 1 3 2 1 33 1v1l-5 1h-30l-3-2-1-4z" fill="#1A7289"/>
<path transform="translate(456,558)" d="m0 0 4 2 1 7-2 7-3 3-4 1h-8l-4-3 2-6 5-2 6-5 1-2h2z" fill="#2495AD"/>
<path transform="translate(669,672)" d="m0 0h58v2l-11 2-8 1-10 1-18-1-7-2-1 2-4-4z" fill="#283B54"/>
<path transform="translate(408,200)" d="m0 0h43l90 1v1l-125 1-7 1 1 8 4 6-1 2h-3l-3-7-2-10 3-1z" fill="#283B54"/>
<path transform="translate(154,635)" d="m0 0h22l29 1 4 1v9l-2-3v-2l-5-1-33-1-15 2-3 3-1-1v-7z" fill="#FAC19F"/>
<path transform="translate(261,587)" d="m0 0 3 1v52h-4v-52z" fill="#192030"/>
<path transform="translate(237,587)" d="m0 0h3l1 32-1 19-1 2h-3v-50z" fill="#1F2737"/>
<path transform="translate(391,658)" d="m0 0h20l75 1v1l-17 1-73 1-6-1z" fill="#87DEE9"/>
<path transform="translate(728,632)" d="m0 0 2 3 2 26 2 6 4 2v2h27v1h-42l4-2v-35z" fill="#16627A"/>
<path transform="translate(119,681)" d="m0 0 8 2h3l12 2-1 3h-50v-2l13-1 12-3z" fill="#273A53"/>
<path transform="translate(632,486)" d="m0 0h19v8l-1 1-18 1-2-2 1-7z" fill="#FBBC97"/>
<path transform="translate(158,462)" d="m0 0 2 1v7l4-1 2-3 4-1v2h-2v6 4l-1 4-6 1-1 27h-1l-2-31-1-10z" fill="#1F2C40"/>
<path transform="translate(156,471)" d="m0 0h1l2 19v50h-2l-1-2z" fill="#264E67"/>
<path transform="translate(647,618)" d="m0 0 2 4 2 1-1 16-3 4 1 16 1 9-2-3-3-14-1-16z" fill="#FB9D70"/>
<path transform="translate(389,635)" d="m0 0h2v19l1 1 114 1v1h-117z" fill="#1D7A91"/>
<path transform="translate(265,595)" d="m0 0 16 1v1l107 1v1h-124z" fill="#52C0D1"/>
<path transform="translate(176,422)" d="m0 0h1l1 54v40h-1l-1-36-1-6-1-12-1-4 1-7 1-6z" fill="#213045"/>
<path transform="translate(682,233)" d="m0 0h5l3 5-1 6-3 2-8-1-1-1v-6z" fill="#F7FCFD"/>
<path transform="translate(238,585)" d="m0 0 22 1v1h-23l-1 11-9-1-20-1-1-2 24-2 4-4h2v-2z" fill="#2587A0"/>
<path transform="translate(377,300)" d="m0 0v3l-2 2-1 5 1 4 7-1 17 6 7 5h-3l-10-5-9-3h-16l-3-1 2-5 8-9z" fill="#FBB085"/>
<path transform="translate(637,484)" d="m0 0h15l2 2-1 9-3 2h-18l-3-2v-2l-3-1v-5l4-2zm-5 2-2 5 1 4 1 1 18-1 1-1v-8z" fill="#AFD1DD"/>
<path transform="translate(179,221)" d="m0 0 2 1-2 5-1 7-1 38-2 3v-30l-1-9-1-7 3-7z" fill="#202D42"/>
<path transform="translate(158,217)" d="m0 0 2 3v55l-1 10-1 16h-1v-51z" fill="#213045"/>
<path transform="translate(346,657)" d="m0 0h23l20 1-4 2-7 1-25-1-6 2-3 4 1-8z" fill="#A6E5ED"/>
<path transform="translate(243,564)" d="m0 0h14l2 3v8l-2 4-2 1h-7l-5-2-2-4v-7zm3 2-2 3v5l4 4 6 1 3-3 1-5-3-5z" fill="#FBB38A"/>
<path transform="translate(446,552)" d="m0 0 7 1v3l-9 4-5 5-4 1 1-7 5-5z" fill="#258BA4"/>
<path transform="translate(722,608)" d="m0 0h1l3 11 1 8 1 43-4 1 1-2v-31l-2-16-1-6z" fill="#FBB891"/>
<path transform="translate(512,657)" d="m0 0h21l13 1 4 2v1h-12l-20-1-6-2z" fill="#A0E4ED"/>
<path transform="translate(764,644)" d="m0 0h1l1 21 1 3h3v2h16l15 1v1h-36l-1-1z" fill="#228AA1"/>
<path transform="translate(541,521)" d="m0 0h30l2 2v6l4 2 5 8-6 1 2-2-4-5v-2l-3-1-3-5v-3h-27z" fill="#2D405A"/>
<path transform="translate(648,599)" d="m0 0h60v1l-28 1h-18l-7 2v-3h-7z" fill="#EEBC9D"/>
<path transform="translate(609,441)" d="m0 0h13l11 4 4 3v2l4 2 3 1 7-4 3 1-9 5-5-1-10-7-11-4h-9l-6 1 2-2z" fill="#FBBC97"/>
<path transform="translate(746,625)" d="m0 0 5 1v2h8l4 3v7l-5-3-1-3-4 1-7-6z" fill="#268AA3"/>
<path transform="translate(179,516)" d="m0 0 5 3 33 1v1l-5 1h-30l-3-2z" fill="#10526A"/>
<path transform="translate(745,562)" d="m0 0 1 3-1 9-3 10v6l-2-2-1-8z" fill="#67C4D4"/>
<path transform="translate(605,486)" d="m0 0h6l1 1v6h-9v-6z" fill="#F7FCFD"/>
<path transform="translate(389,635)" d="m0 0h2v19l1 1 13 1v1h-16z" fill="#227D94"/>
<path transform="translate(711,491)" d="m0 0h1v27l-3 3h-5l4-4h2z" fill="#1E7C94"/>
<path transform="translate(272,672)" d="m0 0h20v1l-6 1v1h-11l-3-1z" fill="#1F2C40"/>
<path transform="translate(422,342)" d="m0 0 3 3 4 9 2 8 4-1-2 3h-4l-5-16z" fill="#FBB48B"/>
<path transform="translate(551,672)" d="m0 0h12l7 1v1l-5 1h-12l-3-2z" fill="#1F2C40"/>
<path transform="translate(293,486)" d="m0 0h5l1 6-6 1-1-5z" fill="#F7FCFD"/>
<path transform="translate(630,485)" d="m0 0h5l-3 2-1 7 1 2-3-1v-2l-3-1v-5z" fill="#A4D4E0"/>
<path transform="translate(258,567)" d="m0 0h1v8l-2 4-2 1h-7l-5-2 1-2 1 1 9 1 3-5z" fill="#FBB993"/>
<path transform="translate(250,568)" d="m0 0 4 2 2 4h-3v2h-5l1-7z" fill="#F89554"/>
<path transform="translate(241,574)" d="m0 0 3 4 4 1h7l3-1-1 3-3 1h-8l-5-5z" fill="#AFD1DD"/>
<path transform="translate(652,693)" d="m0 0 1 3-4 3-8 3-4-1 5-2 4-2 1-2h5z" fill="#F3F9FB"/>
<path transform="translate(722,608)" d="m0 0h1l3 11v8h-2l-2-11z" fill="#F9B68F"/>
<path transform="translate(723,608)" d="m0 0 5 1 1 3-2 5-3-1z" fill="#195E76"/>
<path transform="translate(62,672)" d="m0 0h25v1l-23 1v2l-4 1z" fill="#3C566E"/>
<path transform="translate(372,304)" d="m0 0v3l-3 6 6 2v1h-7l-3-1 2-5z" fill="#FBBC97"/>
<path transform="translate(745,562)" d="m0 0 1 3-1 9-4 3 2-10z" fill="#5DC6D6"/>
<path transform="translate(458,561)" d="m0 0h1v5l-3 2-3-1 2-5z" fill="#278BA4"/>
<path transform="translate(446,552)" d="m0 0 7 1v3l-8 3 1-3 3-3z" fill="#2590A9"/>
<path transform="translate(407,211)" d="m0 0 4 2 3 5-1 2h-3z" fill="#24344B"/>
<path transform="translate(730,578)" d="m0 0h2v6l-1 2h-4l2-6z" fill="#2593AB"/>
<path transform="translate(582,717)" d="m0 0" fill="#F7FCFD"/>
</svg>
