<?xml version="1.0" standalone="no"?>
<!DOCTYPE svg PUBLIC "-//W3C//DTD SVG 20010904//EN"
 "http://www.w3.org/TR/2001/REC-SVG-20010904/DTD/svg10.dtd">
<svg version="1.0" xmlns="http://www.w3.org/2000/svg"
 width="230.000000pt" height="219.000000pt" viewBox="0 0 230.000000 219.000000"
 preserveAspectRatio="xMidYMid meet">

<g transform="translate(0.000000,219.000000) scale(0.100000,-0.100000)"
fill="#000000" stroke="none">
<path d="M1239 2147 c-26 -17 -43 -44 -71 -107 -53 -125 -53 -128 -4 -150 22
-11 58 -22 79 -25 37 -6 37 -6 31 -45 -7 -43 0 -49 28 -23 17 15 18 13 18 -65
0 -45 -3 -82 -8 -82 -4 0 -21 37 -38 83 -34 92 -48 100 -108 72 -41 -20 -42
-23 -56 -225 -7 -85 -16 -163 -21 -172 -6 -12 -6 -18 1 -18 5 0 10 4 10 9 0 8
28 13 83 12 27 0 27 0 27 65 0 51 -5 72 -20 91 -11 14 -20 41 -20 59 0 36 18
84 32 84 5 0 2 -13 -7 -30 -20 -39 -19 -69 5 -105 15 -23 20 -47 20 -102 l0
-72 36 -13 c34 -12 36 -15 30 -48 -3 -19 -6 -45 -6 -57 0 -21 -5 -23 -54 -23
l-55 0 -7 -46 c-3 -25 -4 -69 0 -97 l6 -52 -40 -3 c-36 -2 -40 0 -40 22 0 13
6 24 13 23 44 -1 47 2 47 56 0 28 4 67 9 84 6 20 6 35 0 38 -5 4 -9 22 -9 41
0 19 -3 33 -7 32 -5 -1 -21 4 -36 10 -16 7 -35 12 -44 12 -9 0 -13 6 -9 15 4
12 -3 15 -37 15 -23 0 -53 7 -67 15 -14 8 -35 19 -47 24 -27 12 -31 24 -6 14
11 -4 4 9 -17 35 -19 23 -39 42 -44 42 -5 0 1 -11 14 -25 23 -24 25 -41 4 -27
-13 9 -44 54 -44 64 0 4 7 5 16 1 14 -5 13 -3 -2 15 -22 26 -25 27 -18 7 4 -8
1 -15 -6 -15 -6 0 -10 10 -8 24 2 14 -5 31 -18 42 -11 11 -13 15 -4 9 8 -5 3
7 -13 27 -15 20 -27 50 -27 65 0 16 -6 37 -13 47 -12 16 -15 16 -51 1 -30 -13
-45 -14 -69 -6 -17 6 -32 9 -34 7 -7 -7 92 -58 124 -63 36 -6 43 -17 36 -56
-4 -18 -12 -27 -24 -27 -13 0 -19 -7 -20 -22 0 -22 -1 -22 -9 -3 -7 15 -9 10
-9 -23 -1 -26 5 -49 14 -59 10 -9 14 -28 12 -51 -3 -28 -9 -38 -28 -43 -13 -4
-21 -7 -16 -8 4 -1 0 -15 -8 -32 -10 -19 -14 -41 -10 -60 4 -17 2 -29 -4 -29
-14 0 -23 34 -15 64 4 17 2 26 -6 26 -8 0 -11 -13 -8 -40 4 -45 -3 -49 -34
-20 -12 11 -16 20 -9 20 7 0 9 5 6 10 -3 6 -1 10 4 10 6 0 11 4 11 10 0 5 -5
9 -12 7 -7 -1 -16 17 -21 43 -4 25 -12 61 -17 80 -5 19 -12 47 -15 63 -3 15
-12 27 -20 27 -14 0 -19 12 -16 33 0 4 -4 7 -9 7 -6 0 -10 -4 -10 -9 0 -5 -14
-12 -30 -16 -17 -4 -30 -10 -30 -14 0 -4 -6 -15 -13 -25 -10 -14 -17 -15 -41
-6 -25 9 -27 12 -15 28 13 15 12 16 -3 4 -9 -8 -14 -20 -11 -28 3 -9 0 -12 -8
-9 -9 3 -25 -12 -41 -38 -22 -34 -27 -54 -27 -100 1 -31 5 -57 10 -57 14 0 11
-28 -3 -33 -9 -3 -6 -11 9 -24 17 -15 19 -23 11 -31 -9 -9 -9 -15 1 -24 11
-11 12 -10 6 2 -5 8 4 4 18 -9 15 -14 27 -27 27 -30 0 -3 -5 0 -12 7 -7 7 -16
12 -21 12 -5 0 2 -9 16 -20 14 -11 27 -20 30 -20 3 0 19 -14 37 -31 l31 -31
33 33 34 33 -74 72 c-91 89 -95 109 -41 179 51 64 61 75 69 75 5 0 8 -39 8
-87 0 -68 3 -84 12 -75 7 7 19 12 28 12 23 -1 172 -145 168 -164 -1 -8 -50
-65 -106 -126 l-104 -110 -41 35 c-22 19 -44 35 -48 35 -12 0 -16 -109 -9
-228 6 -95 4 -126 -11 -185 -13 -47 -19 -105 -19 -174 0 -108 18 -244 34 -255
13 -9 59 1 67 14 4 6 10 36 14 67 18 156 107 551 123 551 14 0 56 -175 53
-220 -2 -38 12 -124 34 -215 3 -11 18 -54 34 -95 28 -73 29 -75 61 -73 18 1
33 3 34 5 1 2 -1 71 -6 153 -22 436 -38 812 -38 903 0 95 2 105 23 123 12 10
26 18 31 19 4 0 30 -20 58 -45 78 -70 144 -103 213 -107 l60 -4 -3 -45 c-5
-87 -25 -170 -44 -180 -20 -11 -22 -47 -11 -212 l6 -97 87 0 87 0 6 -127 c4
-71 7 -159 6 -198 l0 -70 -71 -35 c-116 -57 -97 -77 40 -44 78 19 86 25 88 62
1 15 12 83 24 151 22 125 22 195 -1 282 -14 56 -5 69 52 69 45 0 49 -2 55 -27
3 -16 8 -34 10 -42 2 -7 7 -104 9 -215 l6 -201 -73 -35 c-117 -58 -94 -78 47
-41 l69 18 18 89 c36 174 40 218 33 309 -9 121 -8 191 7 378 l12 157 27 0 c15
0 29 -5 31 -11 2 -6 -2 -44 -9 -83 -18 -104 -17 -116 10 -116 21 0 22 -3 19
-67 -1 -38 -9 -135 -17 -218 -8 -82 -20 -215 -26 -295 -6 -80 -14 -180 -18
-222 -3 -42 -10 -81 -16 -86 -5 -4 -41 -16 -80 -26 -85 -21 -99 -32 -53 -41
39 -8 225 0 251 10 9 4 17 17 17 30 0 13 6 25 14 28 7 3 16 26 19 54 31 271
69 527 84 568 8 22 19 55 25 72 6 18 16 33 23 33 6 0 12 -15 13 -33 1 -17 13
-135 27 -262 13 -126 26 -266 28 -310 3 -44 8 -87 11 -96 9 -21 -9 -34 -72
-49 -104 -24 -61 -43 83 -36 50 3 102 5 116 6 39 0 42 36 24 241 -8 95 -15
221 -15 280 0 121 -1 119 82 119 l51 0 -6 166 c-5 181 -7 186 -62 179 -79 -10
-94 22 -51 111 56 117 57 153 12 374 -30 143 -41 176 -64 186 -10 4 -83 9
-163 12 -168 5 -196 -3 -228 -65 l-19 -38 -14 35 c-8 19 -18 48 -22 64 -4 16
-22 44 -41 63 -26 26 -41 33 -71 33 -21 0 -46 -7 -56 -17 -10 -9 -18 -11 -18
-5 0 6 -3 17 -6 26 -4 11 5 20 32 31 22 9 48 25 60 36 l22 21 -27 41 c-28 43
-71 140 -71 162 0 6 -11 17 -25 23 -42 19 -99 14 -136 -11z m46 -137 c3 -5 1
-10 -4 -10 -6 0 -11 5 -11 10 0 6 2 10 4 10 3 0 8 -4 11 -10z m20 -80 c-3 -5
-10 -10 -16 -10 -5 0 -9 5 -9 10 0 6 7 10 16 10 8 0 12 -4 9 -10z m75 -116 c0
-24 -8 -30 -26 -16 -5 4 -1 -1 9 -10 18 -17 18 -19 -5 -59 l-23 -42 -3 73 -3
73 -24 -23 c-24 -23 -25 -23 -25 -3 0 28 6 31 56 31 40 0 44 -2 44 -24z m200
-303 c-17 -66 -29 -125 -25 -131 4 -6 -19 -9 -67 -8 -40 0 -58 3 -40 5 l32 4
1 77 c0 42 4 97 8 122 l7 45 30 -78 31 -78 23 86 c13 47 25 84 27 81 2 -2 -10
-58 -27 -125z m-903 47 c-3 -8 -6 -5 -6 6 -1 11 2 17 5 13 3 -3 4 -12 1 -19z
m-347 -19 c0 -11 -4 -17 -10 -14 -5 3 -10 13 -10 21 0 8 5 14 10 14 6 0 10 -9
10 -21z m-35 -37 c-17 -16 -17 -16 -11 2 7 19 6 19 -14 1 -24 -21 -26 -37 -5
-29 21 8 19 2 -5 -19 -19 -16 -20 -16 -20 7 0 14 6 31 13 38 7 7 16 21 20 31
6 17 8 17 23 2 16 -15 16 -18 -1 -33z m1068 -129 c-13 -2 -33 -2 -45 0 -13 2
-3 4 22 4 25 0 35 -2 23 -4z m-186 -370 c-3 -10 -5 -4 -5 12 0 17 2 24 5 18 2
-7 2 -21 0 -30z m32 -163 c0 -35 -18 31 -23 86 l-6 59 15 -65 c7 -36 14 -72
14 -80z"/>
<path d="M515 2070 c-4 -6 -24 -18 -45 -26 -50 -20 -62 -52 -44 -114 20 -65
18 -76 -20 -117 -44 -50 -58 -79 -51 -103 8 -24 15 -25 41 -5 10 8 40 15 67
15 l47 0 0 60 c0 52 -3 61 -25 76 -27 18 -35 64 -11 64 8 0 18 -4 21 -10 16
-26 26 -7 19 37 -6 43 -5 46 12 39 11 -4 53 -9 94 -11 66 -4 75 -7 78 -25 4
-25 22 -16 22 11 0 39 -31 80 -73 100 -46 20 -122 25 -132 9z"/>
<path d="M1691 2022 c-6 -11 -6 -24 0 -35 11 -18 39 -24 39 -7 0 6 15 10 34
10 20 0 36 6 39 14 5 11 0 12 -24 2 -23 -8 -32 -8 -38 2 -6 10 -10 8 -14 -7
-7 -29 -24 -26 -24 4 0 14 6 26 16 28 14 4 14 5 -1 6 -10 0 -22 -7 -27 -17z"/>
<path d="M610 1920 c0 -5 5 -10 11 -10 5 0 7 5 4 10 -3 6 -8 10 -11 10 -2 0
-4 -4 -4 -10z"/>
<path d="M614 1835 c25 -19 52 -19 60 0 4 12 -3 15 -37 15 -39 -1 -41 -2 -23
-15z"/>
<path d="M394 1677 c-47 -32 -66 -57 -45 -57 6 0 10 5 9 12 -2 6 5 14 16 16
13 3 16 0 11 -9 -5 -7 -4 -10 3 -5 6 4 9 13 5 22 -4 12 -1 13 22 4 14 -5 34
-10 43 -10 29 0 -8 20 -38 20 -20 0 -22 2 -10 10 8 6 29 8 45 5 17 -3 24 -2
17 1 -6 3 -10 10 -6 15 12 20 -27 7 -72 -24z"/>
<path d="M641 1614 c0 -11 3 -14 6 -6 3 7 2 16 -1 19 -3 4 -6 -2 -5 -13z"/>
<path d="M350 1590 c0 -5 5 -10 10 -10 6 0 10 5 10 10 0 6 -4 10 -10 10 -5 0
-10 -4 -10 -10z"/>
<path d="M548 1568 c-2 -13 -1 -34 3 -48 5 -19 7 -14 8 23 1 50 -4 62 -11 25z"/>
<path d="M552 1445 c0 -16 2 -22 5 -12 2 9 2 23 0 30 -3 6 -5 -1 -5 -18z"/>
<path d="M648 1443 c7 -3 16 -2 19 1 4 3 -2 6 -13 5 -11 0 -14 -3 -6 -6z"/>
<path d="M196 1424 c-9 -24 -2 -26 12 -4 7 11 8 20 3 20 -5 0 -12 -7 -15 -16z"/>
<path d="M201 1342 c13 -33 35 -63 42 -56 3 3 -3 14 -14 25 -21 21 -25 39 -9
39 6 0 10 4 10 9 0 6 -9 9 -19 8 -16 -1 -17 -5 -10 -25z"/>
<path d="M672 168 c6 -17 65 -27 160 -27 88 -1 108 12 43 28 -63 16 -208 15
-203 -1z"/>
<path d="M312 141 c3 -12 24 -19 93 -28 114 -14 145 -15 145 -4 0 14 -58 31
-109 31 -25 1 -65 5 -89 9 -37 7 -43 6 -40 -8z"/>
</g>
</svg>
