<?xml version="1.0" encoding="UTF-8"?>
<svg version="1.1" viewBox="0 0 1440 1440" width="360" height="360" xmlns="http://www.w3.org/2000/svg">
<path transform="translate(711)" d="m0 0h18l1 377 34 6 21 4 4 3 10 32 10 31 8 24 1 1 12 2 30 9 22 8 26 12 23 12 25 17 17 13 14 12 18 18 11 14 9 12 10 17 11 23 9 27 4 22 1 9v37l-2 10-5 3-24 6-30 5-36 4-54 4-59 3-73 2h-120l-72-2-59-3-63-5-37-5-25-5-18-6-2-6-1-8v-35l4-27 11-33 12-24 8-13 13-17 11-13 18-18 11-9 13-10 13-9 17-11 23-12 10-5 19-8 20-7 19-6 11-3h10l3-10 11-35 7-23 5-15 3-8 24-5 28-5h6v-376z" fill="#404041"/>
<path transform="translate(635,719)" d="m0 0h9l4 2 6 9 12 14 7 7 10 7 14 7 6 2 8 1h19l12-3 16-8 11-8 9-9 11-14 3-6 5-1 59 2 59 3 61 5 39 5 25 5 18 6 1 3-2 5-11 4-27 6-36 5-44 4-65 4-58 2-39 1h-120l-72-2-59-3-63-5-37-5-25-5-18-6-1-6 3-3 14-5 27-5 38-5 60-5 57-3z" fill="#FDFDFD"/>
<path transform="translate(635,718)" d="m0 0h156l4 2-3 1-4 8-13 15-7 7-13 9-13 6-12 3h-19l-11-2-14-6-10-7-10-9-9-10-9-12-1-2-12-2z" fill="#9F9D6C"/>
</svg>
