<?xml version="1.0" encoding="UTF-8"?>
<svg version="1.1" xmlns="http://www.w3.org/2000/svg" width="360" height="414">
<path d="M0 0 C1.65 0 3.3 0 5 0 C6.08258804 14.82433069 6.08295665 29.58491952 5.97412109 44.44213867 C5.95903616 47.0639416 5.94447886 49.68574761 5.93040466 52.30755615 C5.89970763 57.9172251 5.86538998 63.52686192 5.82883835 69.13649559 C5.77133533 78.00732519 5.72501187 86.87819764 5.68032837 95.74909973 C5.66485365 98.79376156 5.64930187 101.838423 5.63372231 104.8830843 C5.62788877 106.02372755 5.62788877 106.02372755 5.62193739 107.18741411 C5.57768773 115.80765185 5.53103194 124.42787604 5.48339844 133.0480957 C5.47905539 133.83457465 5.47471234 134.62105359 5.47023769 135.43136523 C5.39939208 148.21308439 5.32101105 160.99474977 5.24087171 173.77641352 C5.15867749 186.93144256 5.08811217 200.08650169 5.02743781 213.24164754 C4.98964325 221.34100888 4.94227533 229.44020076 4.88250865 237.5394303 C4.83766934 243.73570123 4.8085868 249.93195409 4.78537178 256.12834167 C4.77331889 258.66845042 4.75605479 261.20854054 4.73321724 263.74857521 C4.70281289 267.21348117 4.69104708 270.67796945 4.68392944 274.14299011 C4.66396205 275.65231284 4.66396205 275.65231284 4.64359128 277.19212693 C4.65518857 282.96834112 5.43343208 286.83060954 8 292 C7.94140625 294.44140625 7.94140625 294.44140625 7.5625 296.5625 C7.34513173 298.86366877 7.34513173 298.86366877 8 301 C10.36667273 302.89422959 12.8132865 304.15722509 15.51171875 305.53125 C19.67171875 307.9867602 21.13543965 311.24377419 22.57006836 315.81738281 C23.12898097 318.65479266 23.22096938 321.40650111 23.31640625 324.296875 C23.35830078 325.50214844 23.40019531 326.70742188 23.44335938 327.94921875 C23.48267578 329.20347656 23.52199219 330.45773437 23.5625 331.75 C23.60568359 333.01972656 23.64886719 334.28945313 23.69335938 335.59765625 C23.79939722 338.73166365 23.90146058 341.86574933 24 345 C24.648479 345.12528076 25.29695801 345.25056152 25.96508789 345.37963867 C54.4775754 350.94582149 82.75562718 359.15084357 101.00390625 383.6953125 C104.72463572 389.27252285 107.20185805 394.54784359 109 401 C104.5526048 403.20380202 100.32765405 403.34130425 95.4621582 403.40966797 C94.61523344 403.42874332 93.76830868 403.44781868 92.89571953 403.46747208 C90.09333986 403.52737331 87.29094628 403.57277789 84.48828125 403.6171875 C82.50636674 403.6547673 80.52445864 403.69268612 78.54255676 403.73092651 C58.38745035 404.09868965 38.23179099 404.15757851 18.07387924 404.12877274 C15.13125313 404.12492648 12.18863033 404.12291153 9.2460022 404.12130737 C-14.94279506 404.10576396 -39.12736265 404.00661829 -63.3125 403.5625 C-64.41091217 403.5429425 -65.50932434 403.52338501 -66.64102173 403.50323486 C-77.79059868 403.29606529 -88.88680722 402.97631261 -100 402 C-99.81216883 390.54229874 -93.10261179 382.50296767 -85.48828125 374.40234375 C-66.96280407 356.51667897 -43.70257715 349.48909778 -19 345 C-18.9906543 344.12786865 -18.98130859 343.2557373 -18.97167969 342.35717773 C-18.92742849 339.09321831 -18.86571326 335.83052787 -18.79248047 332.56713867 C-18.76441256 331.16003296 -18.74312797 329.75277373 -18.72900391 328.34545898 C-18.57443928 313.81123212 -18.57443928 313.81123212 -14 308 C-9.80033531 304.11531016 -6.7587586 302 -1 302 C-1.07721786 301.2478163 -1.15443573 300.49563259 -1.23399353 299.72065544 C-1.98372983 291.49120283 -1.97436428 283.40920277 -1.65147209 275.16407943 C-1.09888273 260.75409815 -0.89650325 246.35279828 -0.90234375 231.93310547 C-0.9026528 231.02138211 -0.90296185 230.10965874 -0.90328026 229.1703074 C-0.90697784 223.40808148 -0.91853234 217.64588728 -0.93153763 211.88367605 C-0.9417903 206.696635 -0.94508111 201.50958933 -0.94897461 196.32254028 C-0.96084579 182.07248614 -0.98275223 167.82245135 -1.00520325 153.57241058 C-1.03060243 137.39983968 -1.05149082 121.22727512 -1.0625 105.0546875 C-1.0632893 104.01645308 -1.0640786 102.97821867 -1.06489182 101.90852261 C-1.08894502 67.92843756 -0.83044028 33.97102609 0 0 Z " fill="#212222" transform="translate(178,0)"/>
<path d="M0 0 C1.04494629 0.20278564 2.08989258 0.40557129 3.16650391 0.61450195 C30.86545064 6.26339262 58.24869172 15.96251572 74.73828125 40.6796875 C77.59407358 45.37749901 79.39010923 49.89359968 80.86328125 55.1796875 C76.43850448 57.36601757 72.25064815 57.52166646 67.41113281 57.59155273 C66.57067162 57.61079615 65.73021042 57.63003956 64.8642807 57.6498661 C62.07759128 57.71028838 59.29088888 57.75605964 56.50390625 57.80078125 C54.53159072 57.83863574 52.5592804 57.87676231 50.5869751 57.91514587 C29.5875029 58.29906564 8.58717103 58.29684779 -12.41497803 58.24835205 C-17.49279327 58.23781868 -22.57061431 58.23349269 -27.6484375 58.22851562 C-37.47787862 58.21803073 -47.30729585 58.20114381 -57.13671875 58.1796875 C-59.13671875 54.1796875 -61.13671875 50.1796875 -63.13671875 46.1796875 C-62.47671875 46.1796875 -61.81671875 46.1796875 -61.13671875 46.1796875 C-61.13671875 45.5196875 -61.13671875 44.8596875 -61.13671875 44.1796875 C-60.47671875 44.1796875 -59.81671875 44.1796875 -59.13671875 44.1796875 C-58.80671875 43.1896875 -58.47671875 42.1996875 -58.13671875 41.1796875 C-58.46671875 40.5196875 -58.79671875 39.8596875 -59.13671875 39.1796875 C-58.47671875 39.1796875 -57.81671875 39.1796875 -57.13671875 39.1796875 C-56.80671875 38.1896875 -56.47671875 37.1996875 -56.13671875 36.1796875 C-54.48671875 36.1796875 -52.83671875 36.1796875 -51.13671875 36.1796875 C-50.80671875 35.5196875 -50.47671875 34.8596875 -50.13671875 34.1796875 C-49.47671875 34.1796875 -48.81671875 34.1796875 -48.13671875 34.1796875 C-47.80671875 33.5196875 -47.47671875 32.8596875 -47.13671875 32.1796875 C-46.35296875 32.3859375 -45.56921875 32.5921875 -44.76171875 32.8046875 C-43.89546875 32.9284375 -43.02921875 33.0521875 -42.13671875 33.1796875 C-41.47671875 32.5196875 -40.81671875 31.8596875 -40.13671875 31.1796875 C-38.18359375 30.58203125 -38.18359375 30.58203125 -35.88671875 30.1171875 C-34.68402344 29.87162109 -34.68402344 29.87162109 -33.45703125 29.62109375 C-28.56866962 28.6911529 -24.10970231 28.1796875 -19.13671875 28.1796875 C-17.93015625 27.9321875 -17.93015625 27.9321875 -16.69921875 27.6796875 C-14.13671875 27.1796875 -14.13671875 27.1796875 -10.13671875 27.1796875 C-9.80671875 26.5196875 -9.47671875 25.8596875 -9.13671875 25.1796875 C-8.47671875 25.8396875 -7.81671875 26.4996875 -7.13671875 27.1796875 C-6.57984375 27.0353125 -6.02296875 26.8909375 -5.44921875 26.7421875 C-2.1937732 25.95032237 0.59609742 26.61421338 3.86328125 27.1796875 C3.86328125 26.1896875 3.86328125 25.1996875 3.86328125 24.1796875 C3.86328125 23.1896875 3.86328125 22.1996875 3.86328125 21.1796875 C4.44078125 21.3446875 5.01828125 21.5096875 5.61328125 21.6796875 C8.12992494 22.32430781 8.12992494 22.32430781 11.86328125 22.1796875 C13.34828125 22.6746875 13.34828125 22.6746875 14.86328125 23.1796875 C15.97703125 22.90125 15.97703125 22.90125 17.11328125 22.6171875 C20.76486009 22.0362545 23.36234576 23.09758017 26.86328125 24.1796875 C28.18328125 24.1796875 29.50328125 24.1796875 30.86328125 24.1796875 C31.35828125 26.1596875 31.35828125 26.1596875 31.86328125 28.1796875 C33.18328125 27.8496875 34.50328125 27.5196875 35.86328125 27.1796875 C36.35828125 28.1696875 36.35828125 28.1696875 36.86328125 29.1796875 C40.11178102 27.45742254 40.11178102 27.45742254 40.86328125 24.1796875 C41.85328125 23.8496875 42.84328125 23.5196875 43.86328125 23.1796875 C43.20328125 23.1796875 42.54328125 23.1796875 41.86328125 23.1796875 C41.36828125 21.6946875 41.36828125 21.6946875 40.86328125 20.1796875 C40.20328125 19.8496875 39.54328125 19.5196875 38.86328125 19.1796875 C38.53328125 19.8396875 38.20328125 20.4996875 37.86328125 21.1796875 C37.36828125 20.1896875 37.36828125 20.1896875 36.86328125 19.1796875 C37.19328125 18.5196875 37.52328125 17.8596875 37.86328125 17.1796875 C36.37828125 17.6746875 36.37828125 17.6746875 34.86328125 18.1796875 C34.86328125 17.5196875 34.86328125 16.8596875 34.86328125 16.1796875 C33.54328125 16.1796875 32.22328125 16.1796875 30.86328125 16.1796875 C30.36828125 15.1896875 30.36828125 15.1896875 29.86328125 14.1796875 C29.20328125 14.5096875 28.54328125 14.8396875 27.86328125 15.1796875 C27.86328125 14.5196875 27.86328125 13.8596875 27.86328125 13.1796875 C24.80480277 12.63595799 21.9755532 12.1796875 18.86328125 12.1796875 C17.87328125 11.1896875 17.87328125 11.1896875 16.86328125 10.1796875 C14.50132714 9.57366085 14.50132714 9.57366085 11.86328125 9.1796875 C10.99703125 8.9940625 10.13078125 8.8084375 9.23828125 8.6171875 C6.77404797 8.08910629 6.77404797 8.08910629 3.86328125 8.1796875 C3.86328125 7.5196875 3.86328125 6.8596875 3.86328125 6.1796875 C3.00476563 6.48712891 3.00476563 6.48712891 2.12890625 6.80078125 C-0.73582011 7.27988204 -1.87146611 6.62557645 -4.38671875 5.2421875 C-5.093125 4.86191406 -5.79953125 4.48164063 -6.52734375 4.08984375 C-7.0584375 3.78949219 -7.58953125 3.48914063 -8.13671875 3.1796875 C-7.80671875 2.1896875 -7.47671875 1.1996875 -7.13671875 0.1796875 C-4.41597484 -1.18068446 -2.97349626 -0.57764968 0 0 Z " fill="#393939" transform="translate(206.13671875,345.8203125)"/>
<path d="M0 0 C1.32 0 2.64 0 4 0 C4.12375 0.639375 4.2475 1.27875 4.375 1.9375 C4.684375 2.9584375 4.684375 2.9584375 5 4 C5.99 4.495 5.99 4.495 7 5 C6.835 6.299375 6.67 7.59875 6.5 8.9375 C5.70794317 15.96284554 5.70794317 15.96284554 6 23 C6.99 23.99 6.99 23.99 8 25 C7.01 25.66 6.02 26.32 5 27 C10.20173095 27.86809439 15.16978816 28.12515348 20.4375 28.0625 C21.16904297 28.05798828 21.90058594 28.05347656 22.65429688 28.04882812 C24.43623419 28.03718148 26.21812863 28.01925191 28 28 C27.505 26.515 27.505 26.515 27 25 C27.8125 23.125 27.8125 23.125 29 21 C29.67966676 19.33859237 30.34938905 17.67299959 31 16 C30.34 16 29.68 16 29 16 C28.375 13.6875 28.375 13.6875 28 11 C28.66 10.01 29.32 9.02 30 8 C30.99 9.98 30.99 9.98 32 12 C32.66 11.67 33.32 11.34 34 11 C34.495 19.91 34.495 19.91 35 29 C34.34 29 33.68 29 33 29 C33.70448698 31.00992838 33.70448698 31.00992838 35 33 C36.931975 33.88041498 36.931975 33.88041498 39.1875 34.1875 C39.98800781 34.33574219 40.78851563 34.48398437 41.61328125 34.63671875 C43.69627279 34.95376984 45.78534142 35.23036663 47.875 35.5 C51 36 51 36 54 38 C54.845625 38.144375 55.69125 38.28875 56.5625 38.4375 C59 39 59 39 61 42 C61.33 41.01 61.66 40.02 62 39 C63.0725 39.474375 64.145 39.94875 65.25 40.4375 C67.80839865 41.53766332 70.25835017 42.45167003 73 43 C73 43.66 73 44.32 73 45 C74.65 45.33 76.3 45.66 78 46 C78 46.99 78 47.98 78 49 C79.32 49 80.64 49 82 49 C83.75 50.5 83.75 50.5 85 52 C83 55 83 55 81 56 C80.67 56.66 80.34 57.32 80 58 C77.9375 58.625 77.9375 58.625 76 59 C76 58.01 76 57.02 76 56 C74.35 56.66 72.7 57.32 71 58 C70.67 57.01 70.34 56.02 70 55 C69.37351563 54.95101562 68.74703125 54.90203125 68.1015625 54.8515625 C67.28429687 54.77679688 66.46703125 54.70203125 65.625 54.625 C64.81289062 54.55539062 64.00078125 54.48578125 63.1640625 54.4140625 C61 54 61 54 59 52 C58.4225 52.350625 57.845 52.70125 57.25 53.0625 C54.52750185 54.19687423 53.75306948 53.89069895 51 53 C49.00211562 52.65421232 47.00240549 52.31856451 45 52 C45.33 52.99 45.66 53.98 46 55 C42.67538284 57.21641144 42.22126724 57.18319009 38.5 56.625 C35.92738336 56.25625828 33.60968926 56 31 56 C30.67 56 30.34 56 30 56 C25.96724803 56.54287046 21.98158938 57.16177066 18 58 C8.25 60 8.25 60 4 60 C1.0047587 61.02276532 -0.7448078 61.7448078 -3 64 C-3.598125 63.649375 -4.19625 63.29875 -4.8125 62.9375 C-7.10813214 61.66695302 -7.10813214 61.66695302 -10 63 C-10.268125 63.639375 -10.53625 64.27875 -10.8125 64.9375 C-12 67 -12 67 -15.125 68.25 C-16.07375 68.4975 -17.0225 68.745 -18 69 C-18 69.99 -18 70.98 -18 72 C-18.99 72.33 -19.98 72.66 -21 73 C-20.814375 73.639375 -20.62875 74.27875 -20.4375 74.9375 C-20.293125 75.618125 -20.14875 76.29875 -20 77 C-20.33 77.33 -20.66 77.66 -21 78 C-20.01 78.33 -19.02 78.66 -18 79 C-18.33 79.33 -18.66 79.66 -19 80 C-18.2236068 83.0745356 -18.2236068 83.0745356 -16 85 C-16.66 85 -17.32 85 -18 85 C-18.33 85.66 -18.66 86.32 -19 87 C-23.97650313 86.87976286 -28.95288343 86.7554417 -33.92919922 86.62768555 C-35.61439395 86.58495554 -37.29961509 86.54325204 -38.98486328 86.50268555 C-50.0117452 86.23638339 -60.99638161 85.77792757 -72 85 C-72 84.67 -72 84.34 -72 84 C-70.7625 83.87625 -69.525 83.7525 -68.25 83.625 C-65.11990702 83.22200743 -62.62989353 82.85066582 -60 81 C-58.98758315 79.67607028 -57.98560611 78.34400833 -57 77 C-56.34 77 -55.68 77 -55 77 C-55 76.01 -55 75.02 -55 74 C-53 72.3125 -53 72.3125 -51 71 C-50.505 71.99 -50.505 71.99 -50 73 C-49.34 71.68 -48.68 70.36 -48 69 C-48.66 69 -49.32 69 -50 69 C-49.67 68.34 -49.34 67.68 -49 67 C-48.505 65.515 -48.505 65.515 -48 64 C-48.66 63.67 -49.32 63.34 -50 63 C-49.34 62.34 -48.68 61.68 -48 61 C-48.66 60.01 -49.32 59.02 -50 58 C-49.625 55.8125 -49.625 55.8125 -49 54 C-47.515 54.495 -47.515 54.495 -46 55 C-44.48324337 58.41270242 -45.27216412 61.44169126 -46 65 C-45.01 64.505 -45.01 64.505 -44 64 C-43.67 63.01 -43.34 62.02 -43 61 C-42.01 60.34 -41.02 59.68 -40 59 C-40.99 58.34 -41.98 57.68 -43 57 C-43 56.34 -43 55.68 -43 55 C-43.66 54.67 -44.32 54.34 -45 54 C-44.67 53.01 -44.34 52.02 -44 51 C-44.66 50.67 -45.32 50.34 -46 50 C-44.02 49.505 -44.02 49.505 -42 49 C-42 47.68 -42 46.36 -42 45 C-39 46 -39 46 -38 47 C-37.67 45.35 -37.34 43.7 -37 42 C-35.02 41.505 -35.02 41.505 -33 41 C-33 40.34 -33 39.68 -33 39 C-32.27554688 39.04125 -31.55109375 39.0825 -30.8046875 39.125 C-27.74894447 38.9888109 -25.88772934 38.27103203 -23.125 37 C-18.84961107 35.18311852 -15.67384827 34.81671183 -11 35 C-7.86656791 34.02515446 -6.32377005 33.32377005 -4 31 C-3.505 29.515 -3.505 29.515 -3 28 C-2.01 27.505 -2.01 27.505 -1 27 C-1 24.47622403 -1.21891693 22.23771538 -1.5625 19.75 C-2.03501083 15.63050414 -1.74515656 12.09836105 -1 8 C-0.80414094 6.52191695 -0.61668178 5.04269734 -0.4375 3.5625 C-0.293125 2.386875 -0.14875 1.21125 0 0 Z M-39 57 C-39 57.66 -39 58.32 -39 59 C-38.34 58.67 -37.68 58.34 -37 58 C-37.66 57.67 -38.32 57.34 -39 57 Z " fill="#0F0F0F" transform="translate(166,317)"/>
<path d="M0 0 C0.721875 -0.165 1.44375 -0.33 2.1875 -0.5 C6.01242396 -1.17998648 9.15274411 -0.55847263 13 0 C14.695353 0 16.39082523 -0.00658694 18.0859375 -0.03515625 C23.2095104 -0.09635934 27.63595883 0.03013696 32.4375 2 C34.99828579 3.10723245 34.99828579 3.10723245 37.875 3.4375 C41.55389699 4.09970146 44.5923419 5.48548529 48 7 C49.32276056 7.37308631 50.65232077 7.73046415 52 8 C51.67 8.66 51.34 9.32 51 10 C51.99 10 52.98 10 54 10 C53.67 10.99 53.34 11.98 53 13 C52.21625 13.103125 51.4325 13.20625 50.625 13.3125 C47.66954819 13.77595022 47.66954819 13.77595022 46 17 C46.495 18.485 46.495 18.485 47 20 C46.01 21.485 46.01 21.485 45 23 C41.375 23.6875 41.375 23.6875 38 24 C38.99 24.99 38.99 24.99 40 26 C10.63 26 -18.74 26 -49 26 C-51 22 -53 18 -55 14 C-54.34 14 -53.68 14 -53 14 C-53 13.34 -53 12.68 -53 12 C-52.34 12 -51.68 12 -51 12 C-50.67 11.01 -50.34 10.02 -50 9 C-50.33 8.34 -50.66 7.68 -51 7 C-50.34 7 -49.68 7 -49 7 C-48.67 6.01 -48.34 5.02 -48 4 C-47.34 4 -46.68 4 -46 4 C-44.7934375 5.2375 -44.7934375 5.2375 -43.5625 6.5 C-41.23877584 9.34916193 -41.23877584 9.34916193 -38 9 C-38 8.01 -38 7.02 -38 6 C-36.5459375 5.87625 -36.5459375 5.87625 -35.0625 5.75 C-31.05423748 5.1960125 -27.73575886 3.68761352 -24.11328125 1.9375 C-19.95611957 0.09328779 -16.52204968 -0.04356708 -11.96484375 0.03515625 C-7.72088687 0.09239652 -3.90695679 -1.30231893 0 0 Z " fill="#575757" transform="translate(198,378)"/>
<path d="M0 0 C0.495 1.485 0.495 1.485 1 3 C2.98 2.01 4.96 1.02 7 0 C7.66 2.31 8.32 4.62 9 7 C9.66 6.34 10.32 5.68 11 5 C11.33 4.67 11.66 4.34 12 4 C13.34262065 4.29369827 14.67696283 4.6278958 16 5 C17.35011309 5.06189845 17.35011309 5.06189845 19.8125 3.875 C23.45666613 2.87464067 23.89422682 3.24006187 27 5 C29.06381575 4.67156616 29.06381575 4.67156616 31 4 C33.33333333 4 35.66666667 4 38 4 C38.33 3.34 38.66 2.68 39 2 C39.99 3.485 39.99 3.485 41 5 C44.0745356 4.2236068 44.0745356 4.2236068 46 2 C46.66 2 47.32 2 48 2 C48.9590625 1.7525 48.9590625 1.7525 49.9375 1.5 C55.57505069 0.13332105 62.19708617 1 68 1 C72.65011069 0.52823099 72.65011069 0.52823099 77 -1 C78.9375 -0.875 78.9375 -0.875 81 0 C82.75 2.5625 82.75 2.5625 84 5 C80.67538284 7.21641144 80.22126724 7.18319009 76.5 6.625 C73.92738336 6.25625828 71.60968926 6 69 6 C68.67 6 68.34 6 68 6 C63.96724803 6.54287046 59.98158938 7.16177066 56 8 C46.25 10 46.25 10 42 10 C39.0047587 11.02276532 37.2551922 11.7448078 35 14 C34.401875 13.649375 33.80375 13.29875 33.1875 12.9375 C30.89186786 11.66695302 30.89186786 11.66695302 28 13 C27.731875 13.639375 27.46375 14.27875 27.1875 14.9375 C26 17 26 17 22.875 18.25 C21.92625 18.4975 20.9775 18.745 20 19 C20 19.99 20 20.98 20 22 C19.01 22.33 18.02 22.66 17 23 C17.2784375 23.9590625 17.2784375 23.9590625 17.5625 24.9375 C17.706875 25.618125 17.85125 26.29875 18 27 C17.505 27.495 17.505 27.495 17 28 C17.99 28.33 18.98 28.66 20 29 C19.505 29.495 19.505 29.495 19 30 C19.7763932 33.0745356 19.7763932 33.0745356 22 35 C21.34 35 20.68 35 20 35 C19.505 35.99 19.505 35.99 19 37 C14.02349687 36.87976286 9.04711657 36.7554417 4.07080078 36.62768555 C2.38560605 36.58495554 0.70038491 36.54325204 -0.98486328 36.50268555 C-12.0117452 36.23638339 -22.99638161 35.77792757 -34 35 C-34 34.67 -34 34.34 -34 34 C-32.7625 33.87625 -31.525 33.7525 -30.25 33.625 C-27.11990702 33.22200743 -24.62989353 32.85066582 -22 31 C-20.98758315 29.67607028 -19.98560611 28.34400833 -19 27 C-18.34 27 -17.68 27 -17 27 C-17 26.01 -17 25.02 -17 24 C-15 22.3125 -15 22.3125 -13 21 C-12.67 21.66 -12.34 22.32 -12 23 C-11.34 21.68 -10.68 20.36 -10 19 C-10.66 19 -11.32 19 -12 19 C-11.67 18.34 -11.34 17.68 -11 17 C-10.67 16.01 -10.34 15.02 -10 14 C-10.66 13.67 -11.32 13.34 -12 13 C-11.34 12.34 -10.68 11.68 -10 11 C-10.66 10.01 -11.32 9.02 -12 8 C-11.625 5.8125 -11.625 5.8125 -11 4 C-10.01 4.33 -9.02 4.66 -8 5 C-6.48324337 8.41270242 -7.27216412 11.44169126 -8 15 C-7.34 14.67 -6.68 14.34 -6 14 C-5.67 13.01 -5.34 12.02 -5 11 C-4.01 10.34 -3.02 9.68 -2 9 C-2.99 8.34 -3.98 7.68 -5 7 C-5 6.34 -5 5.68 -5 5 C-5.66 4.67 -6.32 4.34 -7 4 C-6.67 3.01 -6.34 2.02 -6 1 C-6.66 0.67 -7.32 0.34 -8 0 C-5.13822943 -1.43088528 -3.06624227 -0.59991697 0 0 Z M-1 7 C-1 7.66 -1 8.32 -1 9 C-0.34 8.67 0.32 8.34 1 8 C0.34 7.67 -0.32 7.34 -1 7 Z " fill="#222423" transform="translate(128,367)"/>
<path d="M0 0 C5.07138107 1.85300462 8.07873156 3.2394144 11 8 C13.67487028 14.82520282 13.22372307 21.69654259 13.125 28.9375 C13.11597656 30.19369141 13.10695312 31.44988281 13.09765625 32.74414062 C13.07419249 35.82962522 13.04136201 38.91471205 13 42 C12.67 42 12.34 42 12 42 C11.95101562 40.92878906 11.90203125 39.85757813 11.8515625 38.75390625 C11.77654706 37.35674361 11.7009987 35.9596095 11.625 34.5625 C11.5940625 33.85544922 11.563125 33.14839844 11.53125 32.41992188 C11.42719371 30.60760812 11.22080108 28.80182012 11 27 C10.34 26.67 9.68 26.34 9 26 C8.67 25.67 8.34 25.34 8 25 C8.33 25.99 8.66 26.98 9 28 C10 31 10 31 9.1875 32.875 C8.795625 33.57625 8.40375 34.2775 8 35 C6.47380614 38.38807207 6.47380614 38.38807207 6 42 C2.43182513 42.80947706 -0.90481856 43.16206411 -4.5625 43.1875 C-5.49191406 43.20167969 -6.42132813 43.21585937 -7.37890625 43.23046875 C-10.07488389 42.99341557 -11.69407875 42.37270136 -14 41 C-13.83395264 40.44368896 -13.66790527 39.88737793 -13.49682617 39.31420898 C-12.56050072 34.95281883 -13.10262266 30.49292441 -13.3125 26.0625 C-13.34794922 25.07314453 -13.38339844 24.08378906 -13.41992188 23.06445312 C-13.46310547 22.10603516 -13.50628906 21.14761719 -13.55078125 20.16015625 C-13.58856689 19.29011963 -13.62635254 18.42008301 -13.6652832 17.52368164 C-14.0318486 14.75986949 -14.86729822 12.53769584 -16 10 C-15.34 9.67 -14.68 9.34 -14 9 C-13.67 8.01 -13.34 7.02 -13 6 C-12.01 5.34 -11.02 4.68 -10 4 C-9.67 3.34 -9.34 2.68 -9 2 C-6.03 2 -3.06 2 0 2 C0 1.34 0 0.68 0 0 Z " fill="#3A3A3A" transform="translate(188,303)"/>
<path d="M0 0 C1.56741943 0.30417847 1.56741943 0.30417847 3.16650391 0.61450195 C19.96345463 4.04005236 35.12996196 8.21942393 49.86328125 17.1796875 C50.45931152 17.5411084 51.0553418 17.9025293 51.66943359 18.27490234 C61.11239119 24.1712092 61.11239119 24.1712092 62.82421875 28.75 C63.11328125 31.2421875 63.11328125 31.2421875 62.86328125 35.1796875 C60.88328125 34.6846875 60.88328125 34.6846875 58.86328125 34.1796875 C59.19328125 35.1696875 59.52328125 36.1596875 59.86328125 37.1796875 C57.88328125 38.1696875 57.88328125 38.1696875 55.86328125 39.1796875 C55.53328125 38.1896875 55.20328125 37.1996875 54.86328125 36.1796875 C54.20328125 36.8396875 53.54328125 37.4996875 52.86328125 38.1796875 C52.20328125 37.5196875 51.54328125 36.8596875 50.86328125 36.1796875 C49.87328125 36.1796875 48.88328125 36.1796875 47.86328125 36.1796875 C46.52994792 35.84635417 45.19661458 35.51302083 43.86328125 35.1796875 C42.87328125 35.1796875 41.88328125 35.1796875 40.86328125 35.1796875 C38.83877204 35.1796875 36.83927599 34.58501975 34.86328125 34.1796875 C34.86328125 33.5196875 34.86328125 32.8596875 34.86328125 32.1796875 C33.97640625 32.2003125 33.08953125 32.2209375 32.17578125 32.2421875 C29.20233291 32.1860847 26.75169275 31.81372905 23.86328125 31.1796875 C22.66703125 31.0353125 21.47078125 30.8909375 20.23828125 30.7421875 C16.86328125 30.1796875 16.86328125 30.1796875 13.86328125 28.1796875 C12.52486453 28.49198474 11.1918905 28.82799682 9.86328125 29.1796875 C7.11328125 28.7421875 7.11328125 28.7421875 4.86328125 28.1796875 C4.53328125 25.8696875 4.20328125 23.5596875 3.86328125 21.1796875 C4.44078125 21.3446875 5.01828125 21.5096875 5.61328125 21.6796875 C8.12992494 22.32430781 8.12992494 22.32430781 11.86328125 22.1796875 C12.85328125 22.5096875 13.84328125 22.8396875 14.86328125 23.1796875 C15.60578125 22.9940625 16.34828125 22.8084375 17.11328125 22.6171875 C20.76486009 22.0362545 23.36234576 23.09758017 26.86328125 24.1796875 C28.18328125 24.1796875 29.50328125 24.1796875 30.86328125 24.1796875 C31.35828125 26.1596875 31.35828125 26.1596875 31.86328125 28.1796875 C33.18328125 27.8496875 34.50328125 27.5196875 35.86328125 27.1796875 C36.35828125 28.1696875 36.35828125 28.1696875 36.86328125 29.1796875 C40.11178102 27.45742254 40.11178102 27.45742254 40.86328125 24.1796875 C41.85328125 23.8496875 42.84328125 23.5196875 43.86328125 23.1796875 C43.20328125 23.1796875 42.54328125 23.1796875 41.86328125 23.1796875 C41.36828125 21.6946875 41.36828125 21.6946875 40.86328125 20.1796875 C40.20328125 19.8496875 39.54328125 19.5196875 38.86328125 19.1796875 C38.53328125 19.8396875 38.20328125 20.4996875 37.86328125 21.1796875 C37.36828125 20.1896875 37.36828125 20.1896875 36.86328125 19.1796875 C37.19328125 18.5196875 37.52328125 17.8596875 37.86328125 17.1796875 C36.87328125 17.5096875 35.88328125 17.8396875 34.86328125 18.1796875 C34.86328125 17.5196875 34.86328125 16.8596875 34.86328125 16.1796875 C33.54328125 16.1796875 32.22328125 16.1796875 30.86328125 16.1796875 C30.36828125 15.1896875 30.36828125 15.1896875 29.86328125 14.1796875 C29.20328125 14.5096875 28.54328125 14.8396875 27.86328125 15.1796875 C27.86328125 14.5196875 27.86328125 13.8596875 27.86328125 13.1796875 C24.80480277 12.63595799 21.9755532 12.1796875 18.86328125 12.1796875 C18.20328125 11.5196875 17.54328125 10.8596875 16.86328125 10.1796875 C14.50132714 9.57366085 14.50132714 9.57366085 11.86328125 9.1796875 C10.99703125 8.9940625 10.13078125 8.8084375 9.23828125 8.6171875 C6.77404797 8.08910629 6.77404797 8.08910629 3.86328125 8.1796875 C3.86328125 7.5196875 3.86328125 6.8596875 3.86328125 6.1796875 C3.2909375 6.38464844 2.71859375 6.58960938 2.12890625 6.80078125 C-0.73582011 7.27988204 -1.87146611 6.62557645 -4.38671875 5.2421875 C-5.093125 4.86191406 -5.79953125 4.48164063 -6.52734375 4.08984375 C-7.0584375 3.78949219 -7.58953125 3.48914063 -8.13671875 3.1796875 C-7.80671875 2.1896875 -7.47671875 1.1996875 -7.13671875 0.1796875 C-4.41597484 -1.18068446 -2.97349626 -0.57764968 0 0 Z " fill="#252626" transform="translate(206.13671875,345.8203125)"/>
<path d="M0 0 C0.66 0.33 1.32 0.66 2 1 C2 1.66 2 2.32 2 3 C-0.45066522 5.24060821 -2.48409035 6.81574655 -5.625 7.9375 C-8.70776748 9.31663282 -9.51874277 11.03748553 -11 14 C-10.01 15.485 -10.01 15.485 -9 17 C-7.4832681 19.69641227 -7 20.82753065 -7 24 C-6.34 24.66 -5.68 25.32 -5 26 C-5.66 27.98 -6.32 29.96 -7 32 C-7.99 31.67 -8.98 31.34 -10 31 C-10 31.66 -10 32.32 -10 33 C-8.515 33.495 -8.515 33.495 -7 34 C-7.66 34 -8.32 34 -9 34 C-9.66 35.32 -10.32 36.64 -11 38 C-11.99 38 -12.98 38 -14 38 C-16.5 39 -16.5 39 -18 43 C-14.04 43.33 -10.08 43.66 -6 44 C-6 44.33 -6 44.66 -6 45 C-16.72867997 45.10947633 -27.3051534 44.96288008 -38 44 C-37.81212103 32.53938282 -31.1032205 24.5442729 -23.51953125 16.41796875 C-16.87615597 10.04238845 -8.67806436 3.38561255 0 0 Z " fill="#3A3A3A" transform="translate(116,358)"/>
<path d="M0 0 C0.99 0.66 1.98 1.32 3 2 C3.556875 1.67 4.11375 1.34 4.6875 1 C8.90490952 -0.82374466 12.64012028 0.06574006 17 1 C18.216875 1.144375 19.43375 1.28875 20.6875 1.4375 C24 2 24 2 26 4 C26.99 4 27.98 4 29 4 C29.99 4.33 30.98 4.66 32 5 C32.875 6.875 32.875 6.875 33 9 C31.5625 10.75 31.5625 10.75 30 12 C30.804375 12.12375 31.60875 12.2475 32.4375 12.375 C33.283125 12.58125 34.12875 12.7875 35 13 C35.495 13.99 35.495 13.99 36 15 C32.91398919 15.90286751 30.16638994 16.1216323 26.95605469 16.11352539 C25.95531921 16.11344986 24.95458374 16.11337433 23.92352295 16.11329651 C22.85047913 16.10813522 21.7774353 16.10297394 20.671875 16.09765625 C19.56773254 16.0962413 18.46359009 16.09482635 17.32598877 16.09336853 C13.80063158 16.08777258 10.27533798 16.07522079 6.75 16.0625 C4.35937592 16.05748448 1.96875084 16.05292166 -0.421875 16.04882812 C-6.28127168 16.03780447 -12.1406313 16.02107033 -18 16 C-18.99 13.69 -19.98 11.38 -21 9 C-20.34 9 -19.68 9 -19 9 C-18.67 8.01 -18.34 7.02 -18 6 C-17.67 6 -17.34 6 -17 6 C-16.01 5.34 -15.02 4.68 -14 4 C-14 3.34 -14 2.68 -14 2 C-11.6875 1.3125 -11.6875 1.3125 -9 1 C-7.1875 2.4375 -7.1875 2.4375 -6 4 C-5.34 3.34 -4.68 2.68 -4 2 C-2.68252676 1.30251417 -1.35085807 0.63040043 0 0 Z " fill="#949494" transform="translate(194,386)"/>
<path d="M0 0 C1.67004829 -0.31595508 3.33637583 -0.65179959 5 -1 C8.41990349 -1.13679614 10.73953656 -1.08682115 14 0 C15.67542976 -0.28604898 17.34385343 -0.61781233 19 -1 C19.66 -1 20.32 -1 21 -1 C21.66 -0.34 22.32 0.32 23 1 C23.5775 0.835 24.155 0.67 24.75 0.5 C27.93318747 -0.20737499 29.97622413 0.88922519 33 2 C33.86625 2.12375 34.7325 2.2475 35.625 2.375 C38.66317221 3.174519 39.96706858 4.66589355 42 7 C42.99 6.67 43.98 6.34 45 6 C45.50512244 7.60256108 46.00391627 9.20711792 46.5 10.8125 C46.7784375 11.70582031 47.056875 12.59914063 47.34375 13.51953125 C48 16 48 16 48 19 C43.03926578 20.32286246 38.08888488 20.08893197 33 20 C33.66 19.34 34.32 18.68 35 18 C33.68 17.34 32.36 16.68 31 16 C31.33 15.34 31.66 14.68 32 14 C32 13.34 32 12.68 32 12 C31.01 11.34 30.02 10.68 29 10 C28.505 8.515 28.505 8.515 28 7 C27.67 7.99 27.34 8.98 27 10 C25.68 8.68 24.36 7.36 23 6 C22.67 6.66 22.34 7.32 22 8 C21.484375 7.690625 20.96875 7.38125 20.4375 7.0625 C16.01248451 5.13364709 11.61801733 4.46066089 7 6 C5.33333333 6 3.66666667 6 2 6 C-0.94511255 6.57002178 -3.35997208 7.58569933 -6 9 C-6.4125 8.505 -6.825 8.01 -7.25 7.5 C-9.12202338 5.56613908 -9.12202338 5.56613908 -13 6 C-12.67 6.99 -12.34 7.98 -12 9 C-12.99 9.66 -13.98 10.32 -15 11 C-15.72382467 13.05925139 -15.72382467 13.05925139 -16 15 C-16.33 14.01 -16.66 13.02 -17 12 C-17.66 12.66 -18.32 13.32 -19 14 C-18.01 15.485 -18.01 15.485 -17 17 C-17 17.99 -17 18.98 -17 20 C-18.41623216 20.05447047 -19.83308191 20.09300508 -21.25 20.125 C-22.43335938 20.15980469 -22.43335938 20.15980469 -23.640625 20.1953125 C-26.20731941 19.9828378 -27.7916067 19.28654105 -30 18 C-30 16.02 -30 14.04 -30 12 C-29.34 12 -28.68 12 -28 12 C-28.20625 11.38125 -28.4125 10.7625 -28.625 10.125 C-28.74875 9.42375 -28.8725 8.7225 -29 8 C-27 6 -27 6 -24 5 C-23.40058594 4.68160156 -22.80117187 4.36320312 -22.18359375 4.03515625 C-19.52814571 2.77631237 -16.91835106 2.12535316 -14.0625 1.4375 C-13.04285156 1.18871094 -12.02320313 0.93992187 -10.97265625 0.68359375 C-9.99167969 0.45800781 -9.01070312 0.23242188 -8 0 C-7.11183594 -0.21527344 -6.22367188 -0.43054688 -5.30859375 -0.65234375 C-3 -1 -3 -1 0 0 Z " fill="#757575" transform="translate(193,382)"/>
<path d="M0 0 C0.33 0 0.66 0 1 0 C1.00364563 1.29546249 1.00729126 2.59092499 1.01104736 3.92564392 C1.04803681 16.15210679 1.10585308 28.37831872 1.18390274 40.60459042 C1.223361 46.88980571 1.25555781 53.17488124 1.27099609 59.46020508 C1.2861732 65.52931994 1.32063842 71.59805053 1.36830902 77.66699409 C1.38311177 79.97891456 1.39104038 82.29088989 1.39188385 84.60285759 C1.39425848 87.84885187 1.42137983 91.09378846 1.45410156 94.33959961 C1.4490712 95.28906967 1.44404083 96.23853973 1.43885803 97.21678162 C1.52710677 102.89919564 2.51086108 107.06314486 5.109478 112.13480473 C6.23233054 114.48661551 6.38844955 116.3531953 6.1875 118.9375 C5.92043543 122.09031383 5.92043543 122.09031383 7 125 C-2.41002278 126.33257403 -2.41002278 126.33257403 -7 125 C-5.02 124.505 -5.02 124.505 -3 124 C-3.07726318 123.23123535 -3.15452637 122.4624707 -3.23413086 121.67041016 C-3.93658814 113.86909853 -3.97771704 106.27625567 -3.6479187 98.45617676 C-2.83820726 78.72803054 -2.91167359 58.9903878 -2.9375 39.25 C-2.93842274 38.47877556 -2.93934547 37.70755112 -2.94029617 36.91295624 C-2.95208666 27.27528013 -2.97181938 17.63764288 -3 8 C-2.67 8 -2.34 8 -2 8 C-1.67 9.65 -1.34 11.3 -1 13 C-0.67 8.71 -0.34 4.42 0 0 Z " fill="#414141" transform="translate(180,178)"/>
<path d="M0 0 C0.75410156 0.00644531 1.50820312 0.01289063 2.28515625 0.01953125 C3.45111328 0.04466797 3.45111328 0.04466797 4.640625 0.0703125 C5.82978516 0.08384766 5.82978516 0.08384766 7.04296875 0.09765625 C8.99231781 0.12114238 10.94151075 0.15701113 12.890625 0.1953125 C13.220625 1.1853125 13.550625 2.1753125 13.890625 3.1953125 C10.590625 3.1953125 7.290625 3.1953125 3.890625 3.1953125 C4.880625 3.8553125 5.870625 4.5153125 6.890625 5.1953125 C5.776875 5.4221875 4.663125 5.6490625 3.515625 5.8828125 C-0.21633985 6.81864443 -0.21633985 6.81864443 -1.671875 9.6328125 C-2.45083978 12.42716959 -2.45083978 12.42716959 -0.109375 15.1953125 C0.45122806 19.3588443 0.49583306 23.56118155 0.640625 27.7578125 C0.69605469 28.91990234 0.75148437 30.08199219 0.80859375 31.27929688 C0.85113281 32.38724609 0.89367187 33.49519531 0.9375 34.63671875 C0.99695801 36.16341187 0.99695801 36.16341187 1.05761719 37.72094727 C0.890625 40.1953125 0.890625 40.1953125 -1.109375 42.1953125 C-4.734375 42.3203125 -4.734375 42.3203125 -8.109375 42.1953125 C-6.789375 41.5353125 -5.469375 40.8753125 -4.109375 40.1953125 C-4.109375 39.2053125 -4.109375 38.2153125 -4.109375 37.1953125 C-4.09809911 35.75911104 -4.08632883 34.32291342 -4.07421875 32.88671875 C-4.06492004 31.17708432 -4.05581261 29.46744885 -4.046875 27.7578125 C-4.03849609 26.89865234 -4.03011719 26.03949219 -4.02148438 25.15429688 C-4.01826172 24.32349609 -4.01503906 23.49269531 -4.01171875 22.63671875 C-4.00648193 21.88076416 -4.00124512 21.12480957 -3.99584961 20.34594727 C-4.11045526 18.17484805 -4.51139323 16.2807111 -5.109375 14.1953125 C-6.099375 14.5253125 -7.089375 14.8553125 -8.109375 15.1953125 C-8.25375 16.1646875 -8.398125 17.1340625 -8.546875 18.1328125 C-8.64226562 18.76574219 -8.73765625 19.39867187 -8.8359375 20.05078125 C-9.02681821 21.54783142 -9.16320807 23.05239168 -9.2578125 24.55859375 C-9.31195313 25.34621094 -9.36609375 26.13382812 -9.421875 26.9453125 C-9.45925781 27.68265625 -9.49664062 28.42 -9.53515625 29.1796875 C-10.31319548 31.91076398 -11.83587112 32.60484888 -14.109375 34.1953125 C-14.28465816 30.17503592 -14.39055859 26.1557497 -14.484375 22.1328125 C-14.53464844 20.99908203 -14.58492187 19.86535156 -14.63671875 18.69726562 C-14.80252004 9.21895879 -14.80252004 9.21895879 -11.3359375 5.01171875 C-7.98167094 1.63986547 -4.79065489 -0.07258568 0 0 Z " fill="#242424" transform="translate(175.109375,302.8046875)"/>
<path d="M0 0 C2 1 2 1 3.125 4.0625 C3.41375 5.031875 3.7025 6.00125 4 7 C4.33 7 4.66 7 5 7 C5.02340548 21.96908104 5.04101667 36.93816066 5.05181217 51.90725613 C5.05695891 58.85834301 5.06397058 65.80941849 5.07543945 72.76049805 C5.08650662 79.47133096 5.09228816 86.1821496 5.09487724 92.89299202 C5.09672186 95.45056405 5.10032393 98.00813545 5.10573006 100.56570244 C5.11301132 104.15376041 5.11398795 107.74176979 5.11352539 111.32983398 C5.11712067 112.38216217 5.12071594 113.43449036 5.12442017 114.51870728 C5.11620059 120.42876031 4.76623177 126.13849181 4 132 C3.67 132 3.34 132 3 132 C2.67 101.64 2.34 71.28 2 40 C1.34 41.32 0.68 42.64 0 44 C-0.16873741 39.0197592 -0.32916744 34.03934259 -0.48217773 29.05859375 C-0.53527852 27.36711577 -0.59057914 25.67570526 -0.64819336 23.984375 C-0.73100422 21.54181466 -0.8056859 19.09911446 -0.87890625 16.65625 C-0.90594131 15.91008423 -0.93297638 15.16391846 -0.96083069 14.3951416 C-1.09786231 9.48466451 -0.71344659 4.86200639 0 0 Z " fill="#393939" transform="translate(178,151)"/>
<path d="M0 0 C2.3125 1.5625 2.3125 1.5625 4 3 C3.7834375 3.8353125 3.7834375 3.8353125 3.5625 4.6875 C2.45410117 9.24425076 1.8998037 13.29077397 2 18 C2 19.32 2 20.64 2 22 C2.185625 22.78375 2.37125 23.5675 2.5625 24.375 C3.07887254 27.47323522 2.54624663 29.92736272 2 33 C2.33 33.66 2.66 34.32 3 35 C-0.63 35 -4.26 35 -8 35 C-7.814375 34.154375 -7.62875 33.30875 -7.4375 32.4375 C-6.96446148 28.72076879 -7.44356489 25.6863826 -8 22 C-7.67 21.01 -7.34 20.02 -7 19 C-6.931009 16.93854893 -6.91532273 14.87498599 -6.9375 12.8125 C-6.95103516 11.18248047 -6.95103516 11.18248047 -6.96484375 9.51953125 C-6.97644531 8.68808594 -6.98804688 7.85664063 -7 7 C-7.66 7 -8.32 7 -9 7 C-9.33 5.35 -9.66 3.7 -10 2 C-9.34 2 -8.68 2 -8 2 C-8 1.34 -8 0.68 -8 0 C-4.62858491 -1.12380503 -3.35507997 -0.98197462 0 0 Z " fill="#767676" transform="translate(187,310)"/>
<path d="M0 0 C0.33 0 0.66 0 1 0 C1.495 10.395 1.495 10.395 2 21 C2.99 20.67 3.98 20.34 5 20 C6.125 22.3125 6.125 22.3125 7 25 C6.34 25.99 5.68 26.98 5 28 C5.495 28.99 5.495 28.99 6 30 C5.01 30.66 4.02 31.32 3 32 C3 32.99 3 33.98 3 35 C1.33237476 35.47646435 -0.3353971 35.95242151 -2.00390625 36.42578125 C-3.8409459 36.95424471 -5.67088372 37.50723256 -7.5 38.0625 C-11 39 -11 39 -14.6875 39.5 C-17.6636925 39.9492366 -19.39079228 40.64707748 -22 42 C-22.66 41.67 -23.32 41.34 -24 41 C-24.33 41.66 -24.66 42.32 -25 43 C-25 42.34 -25 41.68 -25 41 C-25.66 41 -26.32 41 -27 41 C-27 41.66 -27 42.32 -27 43 C-27.66 43 -28.32 43 -29 43 C-29.33 43.66 -29.66 44.32 -30 45 C-30.99 44.34 -31.98 43.68 -33 43 C-35.28648848 42.75892674 -35.28648848 42.75892674 -37.6875 42.875 C-38.49574219 42.89304687 -39.30398437 42.91109375 -40.13671875 42.9296875 C-40.75160156 42.95289063 -41.36648437 42.97609375 -42 43 C-31.34124357 34.19825842 -13.99956129 32.67638027 -1 30 C-0.67 20.1 -0.34 10.2 0 0 Z " fill="#282828" transform="translate(160,315)"/>
<path d="M0 0 C0.33 0.99 0.66 1.98 1 3 C0.34 3 -0.32 3 -1 3 C-1.309375 3.928125 -1.309375 3.928125 -1.625 4.875 C-3.54775888 7.84653645 -5.66594527 8.13024659 -9 9 C-9 9.99 -9 10.98 -9 12 C-9.99 12.33 -10.98 12.66 -12 13 C-11.814375 13.639375 -11.62875 14.27875 -11.4375 14.9375 C-11.293125 15.618125 -11.14875 16.29875 -11 17 C-11.33 17.33 -11.66 17.66 -12 18 C-11.01 18.33 -10.02 18.66 -9 19 C-9.33 19.33 -9.66 19.66 -10 20 C-9.67 20.99 -9.34 21.98 -9 23 C-9.99 23.33 -10.98 23.66 -12 24 C-12.66 23.67 -13.32 23.34 -14 23 C-14.33 23.66 -14.66 24.32 -15 25 C-15.33 23.35 -15.66 21.7 -16 20 C-16.61875 20.20625 -17.2375 20.4125 -17.875 20.625 C-18.57625 20.74875 -19.2775 20.8725 -20 21 C-20.66 20.34 -21.32 19.68 -22 19 C-22.99 19.99 -23.98 20.98 -25 22 C-25.33 19.69 -25.66 17.38 -26 15 C-25.01 14.67 -24.02 14.34 -23 14 C-23.33 12.02 -23.66 10.04 -24 8 C-21.35261084 6.5393715 -20.10551666 6 -17 6 C-17 6.66 -17 7.32 -17 8 C-16.01 7.01 -15.02 6.02 -14 5 C-14.66 4.67 -15.32 4.34 -16 4 C-15.34 3.34 -14.68 2.68 -14 2 C-13.34 2.66 -12.68 3.32 -12 4 C-10.68 3.34 -9.36 2.68 -8 2 C-8.33 1.34 -8.66 0.68 -9 0 C-5.93109813 -1.53445094 -3.29905734 -0.54984289 0 0 Z " fill="#252726" transform="translate(157,377)"/>
<path d="M0 0 C1.12946045 0.22864746 2.2589209 0.45729492 3.42260742 0.69287109 C25.72158152 5.35331043 25.72158152 5.35331043 32.3125 10.875 C31.36375 11.16375 30.415 11.4525 29.4375 11.75 C26.26038422 12.64325109 26.26038422 12.64325109 24.3125 14.875 C23.8175 13.885 23.8175 13.885 23.3125 12.875 C22.6525 13.205 21.9925 13.535 21.3125 13.875 C21.3125 13.215 21.3125 12.555 21.3125 11.875 C18.25402152 11.33127049 15.42477195 10.875 12.3125 10.875 C11.6525 10.215 10.9925 9.555 10.3125 8.875 C7.95054589 8.26897335 7.95054589 8.26897335 5.3125 7.875 C4.44625 7.689375 3.58 7.50375 2.6875 7.3125 C0.22326672 6.78441879 0.22326672 6.78441879 -2.6875 6.875 C-2.6875 6.215 -2.6875 5.555 -2.6875 4.875 C-3.25984375 5.07996094 -3.8321875 5.28492188 -4.421875 5.49609375 C-7.28660136 5.97519454 -8.42224736 5.32088895 -10.9375 3.9375 C-11.64390625 3.55722656 -12.3503125 3.17695313 -13.078125 2.78515625 C-13.60921875 2.48480469 -14.1403125 2.18445313 -14.6875 1.875 C-14.3575 0.885 -14.0275 -0.105 -13.6875 -1.125 C-9.66873779 -3.13438111 -4.24898132 -0.86568661 0 0 Z " fill="#262626" transform="translate(212.6875,347.125)"/>
<path d="M0 0 C0.33 0 0.66 0 1 0 C1.04898438 1.26714844 1.09796875 2.53429687 1.1484375 3.83984375 C1.22354191 5.53908096 1.29908632 7.23829876 1.375 8.9375 C1.4059375 9.76830078 1.436875 10.59910156 1.46875 11.45507812 C1.79741064 18.49389355 2.63873617 25.06804713 5.625 31.5 C7.13241649 35.33706017 7.21704162 38.02996068 7.0078125 42.08203125 C6.85552384 44.08675863 6.85552384 44.08675863 8 46 C-1.41002278 47.33257403 -1.41002278 47.33257403 -6 46 C-4.02 45.505 -4.02 45.505 -2 45 C-2.08378906 44.35160156 -2.16757813 43.70320313 -2.25390625 43.03515625 C-3.08521168 35.02726473 -2.98116372 27.16251191 -2.6875 19.125 C-2.65277588 18.04355713 -2.61805176 16.96211426 -2.58227539 15.84790039 C-2.34571569 10.24295466 -1.85173461 5.30578652 0 0 Z " fill="#454545" transform="translate(179,257)"/>
<path d="M0 0 C0.99 0 1.98 0 3 0 C4.37868281 1.62935241 5.71274093 3.29749607 7 5 C7.66 5.33 8.32 5.66 9 6 C8.34 8.31 7.68 10.62 7 13 C5.68 13.33 4.36 13.66 3 14 C3.33 15.32 3.66 16.64 4 18 C4.99 18 5.98 18 7 18 C7 18.66 7 19.32 7 20 C34.06 20.33 61.12 20.66 89 21 C89 21.33 89 21.66 89 22 C59.63 22 30.26 22 0 22 C-2 18 -4 14 -6 10 C-5.34 10 -4.68 10 -4 10 C-4 9.34 -4 8.68 -4 8 C-3.34 8 -2.68 8 -2 8 C-1.67 7.01 -1.34 6.02 -1 5 C-1.33 4.34 -1.66 3.68 -2 3 C-1.34 3 -0.68 3 0 3 C0 2.01 0 1.02 0 0 Z " fill="#656565" transform="translate(149,382)"/>
<path d="M0 0 C1.32 0 2.64 0 4 0 C4.66 1.32 5.32 2.64 6 4 C7.32 4 8.64 4 10 4 C12.25 5.5 12.25 5.5 14 7 C13.67 7.99 13.34 8.98 13 10 C13.38932856 12.14255793 13.38932856 12.14255793 14 14 C13.01 14.66 12.02 15.32 11 16 C11.66 16 12.32 16 13 16 C12.67 17.65 12.34 19.3 12 21 C11.01 20.67 10.02 20.34 9 20 C6.7226499 22.81509993 6.7226499 22.81509993 7 26 C6.443125 26.103125 5.88625 26.20625 5.3125 26.3125 C2.54289253 27.13589682 0.39747583 28.40168278 -2 30 C-2 30.33 -2 30.66 -2 31 C-3.65 31 -5.3 31 -7 31 C-6.25 28.5625 -6.25 28.5625 -5 26 C-2.9375 25.3125 -2.9375 25.3125 -1 25 C-0.67 24.34 -0.34 23.68 0 23 C0.33 23.33 0.66 23.66 1 24 C1 23.01 1 22.02 1 21 C1 20.34 1 19.68 1 19 C1.99 19 2.98 19 4 19 C4.77802187 16.6984589 4.77802187 16.6984589 5 14 C3.6483633 11.75244247 3.6483633 11.75244247 2 10 C2 9.67 2 9.34 2 9 C1.5359375 8.1028125 1.5359375 8.1028125 1.0625 7.1875 C0.04941585 5.10173851 -0.60668563 3.28122334 -1 1 C-0.67 0.67 -0.34 0.34 0 0 Z M11 3 C11.99 3.495 11.99 3.495 13 4 C12.01 4.495 12.01 4.495 11 5 C11 4.34 11 3.68 11 3 Z " fill="#2E2E2E" transform="translate(105,370)"/>
<path d="M0 0 C1.65 0 3.3 0 5 0 C6.68928495 24.09180229 6.68928495 24.09180229 3.98291016 28.75097656 C2.57468283 31.97317978 2.64293365 35.14955466 2.5859375 38.609375 C2.56657135 39.33618469 2.5472052 40.06299438 2.5272522 40.81182861 C2.46765729 43.12443448 2.42115242 45.43709067 2.375 47.75 C2.33680164 49.32163582 2.29774883 50.89325113 2.2578125 52.46484375 C2.16197257 56.30972842 2.07786805 60.15471107 2 64 C1.01 64.495 1.01 64.495 0 65 C0 43.55 0 22.1 0 0 Z " fill="#202020" transform="translate(178,0)"/>
<path d="M0 0 C0.33 0 0.66 0 1 0 C1.02331138 8.13731144 1.04100992 16.27460861 1.05181217 24.41194534 C1.05700028 28.19163453 1.06402267 31.97130065 1.07543945 35.75097656 C1.08641468 39.40792819 1.09230739 43.06485781 1.09487724 46.72182465 C1.09670541 48.10745337 1.10027441 49.49308107 1.10573006 50.87870026 C1.13756216 59.3092419 0.86354168 67.61144931 0 76 C-0.33 76 -0.66 76 -1 76 C-1.04898438 75.04738281 -1.09796875 74.09476562 -1.1484375 73.11328125 C-1.22320312 71.85902344 -1.29796875 70.60476562 -1.375 69.3125 C-1.44460937 68.07113281 -1.51421875 66.82976562 -1.5859375 65.55078125 C-1.8062171 62.1249884 -1.8062171 62.1249884 -3.03125 59.6875 C-4.56574129 55.43052417 -4.20739521 51.17170073 -4.125 46.6875 C-4.11597656 45.75615234 -4.10695312 44.82480469 -4.09765625 43.86523438 C-4.07418263 41.5765564 -4.04134729 39.28841328 -4 37 C-3.01 37 -2.02 37 -1 37 C-1.01160156 36.25621094 -1.02320313 35.51242188 -1.03515625 34.74609375 C-1.13102759 23.14566164 -0.56288444 11.58404209 0 0 Z " fill="#262626" transform="translate(182,94)"/>
<path d="M0 0 C0.66 0.33 1.32 0.66 2 1 C2.33 1.99 2.66 2.98 3 4 C3.66 3.67 4.32 3.34 5 3 C5.33 8.94 5.66 14.88 6 21 C3.40125 21.12375 3.40125 21.12375 0.75 21.25 C-3.8319867 21.63378467 -3.8319867 21.63378467 -7.6875 24.0625 C-8.120625 24.701875 -8.55375 25.34125 -9 26 C-9 25.34 -9 24.68 -9 24 C-9.99 24.33 -10.98 24.66 -12 25 C-13.32 25 -14.64 25 -16 25 C-16.66 24.01 -17.32 23.02 -18 22 C-18.99 21.34 -19.98 20.68 -21 20 C-14.4 20 -7.8 20 -1 20 C-1.33 19.01 -1.66 18.02 -2 17 C-1.1875 15.125 -1.1875 15.125 0 13 C0.67966676 11.33859237 1.34938905 9.67299959 2 8 C1.34 8 0.68 8 0 8 C-0.79953138 4.71303767 -1.09658936 3.28976808 0 0 Z " fill="#202020" transform="translate(195,325)"/>
<path d="M0 0 C1.32 0 2.64 0 4 0 C4.12375 0.639375 4.2475 1.27875 4.375 1.9375 C4.684375 2.9584375 4.684375 2.9584375 5 4 C5.66 4.33 6.32 4.66 7 5 C6.835 6.299375 6.67 7.59875 6.5 8.9375 C5.9684362 13.65419287 5.92470459 18.25638935 6 23 C5.34 23 4.68 23 4 23 C3.67 22.34 3.34 21.68 3 21 C1.68 21.33 0.36 21.66 -1 22 C-1.92033115 16.98930819 -1.87795608 13.00434967 -1 8 C-0.80481874 6.52182729 -0.61730355 5.04262194 -0.4375 3.5625 C-0.293125 2.386875 -0.14875 1.21125 0 0 Z " fill="#161616" transform="translate(166,317)"/>
<path d="M0 0 C0.33 0 0.66 0 1 0 C1.33 6.93 1.66 13.86 2 21 C2.99 20.67 3.98 20.34 5 20 C6.125 22.3125 6.125 22.3125 7 25 C6.34 25.99 5.68 26.98 5 28 C5.33 28.66 5.66 29.32 6 30 C5.01 30.66 4.02 31.32 3 32 C3 32.99 3 33.98 3 35 C-0.65524228 36.21841409 -0.76215663 35.61892168 -4 34 C-6.82098771 33.79850088 -8.46130539 33.73065269 -11 35 C-12.67654729 34.72057545 -14.34608154 34.39171753 -16 34 C-16 33.67 -16 33.34 -16 33 C-11.05 32.01 -6.1 31.02 -1 30 C-0.67 20.1 -0.34 10.2 0 0 Z " fill="#424242" transform="translate(160,315)"/>
<path d="M0 0 C2.56628339 3.84942509 2.29464462 7.04297887 2.25 11.5 C2.25773438 12.27214844 2.26546875 13.04429688 2.2734375 13.83984375 C2.25993153 17.73631468 2.20675169 19.68987247 0 23 C-0.36844508 25.8086043 -0.36844508 25.8086043 -0.4140625 28.98046875 C-0.45273438 30.14384766 -0.49140625 31.30722656 -0.53125 32.50585938 C-0.5621875 33.72080078 -0.593125 34.93574219 -0.625 36.1875 C-0.68300781 38.02731445 -0.68300781 38.02731445 -0.7421875 39.90429688 C-0.83656103 42.93604656 -0.92214549 45.96778841 -1 49 C-1.33 49 -1.66 49 -2 49 C-2.12375 48.05125 -2.2475 47.1025 -2.375 46.125 C-2.71687177 42.91332809 -2.71687177 42.91332809 -5 41 C-5.1953125 38.6171875 -5.1953125 38.6171875 -5.125 35.875 C-5.10695312 34.96492188 -5.08890625 34.05484375 -5.0703125 33.1171875 C-5.04710937 32.41851562 -5.02390625 31.71984375 -5 31 C-4.67 31 -4.34 31 -4 31 C-3.67 32.98 -3.34 34.96 -3 37 C-2.98018066 36.0212793 -2.96036133 35.04255859 -2.93994141 34.03417969 C-2.86375376 30.39606403 -2.77505705 26.75834147 -2.68261719 23.12060547 C-2.64438171 21.54744235 -2.60951934 19.97419342 -2.578125 18.40087891 C-2.53235578 16.13673277 -2.47438239 13.87317453 -2.4140625 11.609375 C-2.40251129 10.90818542 -2.39096008 10.20699585 -2.37905884 9.48455811 C-2.26960094 5.8466503 -1.98155656 3.1009622 0 0 Z " fill="#2E2E2E" transform="translate(182,27)"/>
<path d="M0 0 C0.33 0.99 0.66 1.98 1 3 C0.505 3.639375 0.01 4.27875 -0.5 4.9375 C-2.25030345 6.84991292 -2.25030345 6.84991292 -1.75 9 C-1.5025 9.66 -1.255 10.32 -1 11 C-0.66666667 12.33333333 -0.33333333 13.66666667 0 15 C-1.65 15.66 -3.3 16.32 -5 17 C-5 17.66 -5 18.32 -5 19 C-4.34 19.33 -3.68 19.66 -3 20 C-3.33 20.66 -3.66 21.32 -4 22 C-3.34 22.66 -2.68 23.32 -2 24 C-4.97 24 -7.94 24 -11 24 C-10.83686845 14.04897549 -5.85479528 7.70462323 0 0 Z " fill="#565656" transform="translate(89,378)"/>
<path d="M0 0 C0.33 0.99 0.66 1.98 1 3 C2.98 2.01 4.96 1.02 7 0 C9.28964059 4.94080338 9.28964059 4.94080338 8.46484375 7.95703125 C7.71434788 9.67095437 6.86320768 11.33998524 6 13 C4.35 13 2.7 13 1 13 C1.33 12.01 1.66 11.02 2 10 C2.99 9.67 3.98 9.34 5 9 C4.67 8.01 4.34 7.02 4 6 C2.02 6.99 0.04 7.98 -2 9 C-2.99 8.34 -3.98 7.68 -5 7 C-5 6.34 -5 5.68 -5 5 C-5.66 4.67 -6.32 4.34 -7 4 C-6.67 3.01 -6.34 2.02 -6 1 C-6.66 0.67 -7.32 0.34 -8 0 C-5.13822943 -1.43088528 -3.06624227 -0.59991697 0 0 Z " fill="#191A19" transform="translate(128,367)"/>
<path d="M0 0 C2.59515537 0.35069667 4.52570246 0.66623506 6.6875 2.1875 C8.59382209 4.82004003 8.08351005 6.49941913 7.6875 9.6875 C7.05073824 15.76754774 6.92822252 21.69250453 7.0378418 27.79370117 C7.10055415 32.79889171 7.10055415 32.79889171 6 35 C6.66 35.33 7.32 35.66 8 36 C6.35 35.67 4.7 35.34 3 35 C3.185625 33.7625 3.37125 32.525 3.5625 31.25 C3.95825232 28.18156421 3.91689023 25.97989326 3 23 C3.33 22.34 3.66 21.68 4 21 C3.34 20.67 2.68 20.34 2 20 C2.165 19.484375 2.33 18.96875 2.5 18.4375 C3.12857089 15.82271606 3.12857089 15.82271606 2.9375 12.375 C3 9 3 9 5 7 C4.97733657 4.98775876 4.97733657 4.98775876 4 3 C2.02329393 1.24577228 2.02329393 1.24577228 0 0 Z " fill="#585858" transform="translate(185,309)"/>
<path d="M0 0 C4.57031487 1.3281839 8.12250262 3.15363725 12.0625 5.8125 C13.06410156 6.47894531 14.06570313 7.14539063 15.09765625 7.83203125 C18.01669195 10.01246842 20.49201595 12.36316539 23 15 C22.34 15.66 21.68 16.32 21 17 C21 16.34 21 15.68 21 15 C20.443125 14.896875 19.88625 14.79375 19.3125 14.6875 C16.55823422 13.86866423 14.41272343 12.54146219 12 11 C12 11.66 12 12.32 12 13 C10.1875 12.9375 10.1875 12.9375 8 12 C7.319375 10.329375 7.319375 10.329375 6.625 8.625 C5.31146654 4.77660126 5.31146654 4.77660126 1.8125 3.0625 C0.884375 2.711875 -0.04375 2.36125 -1 2 C-0.67 1.34 -0.34 0.68 0 0 Z " fill="#2E2E2E" transform="translate(245,358)"/>
<path d="M0 0 C2.125 0.9375 2.125 0.9375 4 2 C3.76701576 4.41907043 3.5271373 6.83690139 3.2734375 9.25390625 C3.10488349 10.94667009 2.9592644 12.6421217 2.8515625 14.33984375 C2.6875 16.4375 2.6875 16.4375 2 20 C0.68 20.99 -0.64 21.98 -2 23 C-2 15.74 -2 8.48 -2 1 C-1.34 0.67 -0.68 0.34 0 0 Z " fill="#181818" transform="translate(163,314)"/>
<path d="M0 0 C0.66 0 1.32 0 2 0 C2 0.66 2 1.32 2 2 C1.34 2 0.68 2 0 2 C0.33 3.65 0.66 5.3 1 7 C1.66 7 2.32 7 3 7 C3.84681133 12.08086796 4.09038099 16.84828377 4 22 C3.34 22 2.68 22 2 22 C2.15597656 22.69867188 2.31195313 23.39734375 2.47265625 24.1171875 C2.66730469 25.02726562 2.86195313 25.93734375 3.0625 26.875 C3.25972656 27.77992188 3.45695313 28.68484375 3.66015625 29.6171875 C4 32 4 32 3 34 C5.97 34.33 8.94 34.66 12 35 C12 35.33 12 35.66 12 36 C8.37 36 4.74 36 1 36 C-0.34155835 33.31688331 -0.07882409 31.29291044 -0.02734375 28.29296875 C-0.01509766 27.14892578 -0.00285156 26.00488281 0.00976562 24.82617188 C0.04475294 22.41204687 0.08377602 19.99797679 0.12695312 17.58398438 C0.13791016 16.43607422 0.14886719 15.28816406 0.16015625 14.10546875 C0.17699463 13.05512451 0.19383301 12.00478027 0.21118164 10.92260742 C0.15449369 7.96409157 0.15449369 7.96409157 -1.13500977 5.3059082 C-1.42045654 4.5449585 -1.70590332 3.78400879 -2 3 C-1.34 2.01 -0.68 1.02 0 0 Z " fill="#565656" transform="translate(177,310)"/>
<path d="M0 0 C2 2 2 2 2.24291992 4.02783203 C2.23881104 4.84622559 2.23470215 5.66461914 2.23046875 6.5078125 C2.22853516 7.41273437 2.22660156 8.31765625 2.22460938 9.25 C2.21236328 10.19875 2.20011719 11.1475 2.1875 12.125 C2.18685547 13.05054687 2.18621094 13.97609375 2.18554688 14.9296875 C2.15095921 20.37147985 1.79173741 25.61618559 1 31 C0.67 31 0.34 31 0 31 C-0.33 28.36 -0.66 25.72 -1 23 C-1.66 23.33 -2.32 23.66 -3 24 C-3.40735653 15.49077472 -2.43092956 8.1609778 0 0 Z " fill="#494949" transform="translate(180,108)"/>
<path d="M0 0 C2.07171959 1.68666176 2.9395163 2.48588856 3.2578125 5.19140625 C3.21398437 5.97386719 3.17015625 6.75632812 3.125 7.5625 C2.89514189 10.91157562 2.89514189 10.91157562 4 14 C1.36 14.33 -1.28 14.66 -4 15 C-4 10.71 -4 6.42 -4 2 C-2.68 2 -1.36 2 0 2 C0 1.34 0 0.68 0 0 Z " fill="#BABABA" transform="translate(183,289)"/>
<path d="M0 0 C2.625 1.4375 2.625 1.4375 5 3 C5.33 2.34 5.66 1.68 6 1 C6 1.66 6 2.32 6 3 C7.65 3 9.3 3 11 3 C11.495 3.99 11.495 3.99 12 5 C-21.70817254 5.20638953 -21.70817254 5.20638953 -35 4 C-35 3.67 -35 3.34 -35 3 C-30.7643915 2.83247504 -26.52859426 2.67190668 -22.29248047 2.51782227 C-20.85100177 2.4644041 -19.40959259 2.40907482 -17.96826172 2.35180664 C-15.89826447 2.26989003 -13.82811573 2.19481641 -11.7578125 2.12109375 C-10.5114502 2.0739624 -9.26508789 2.02683105 -7.98095703 1.97827148 C-5 2 -5 2 -3 3 C-2.67 2.34 -2.34 1.68 -2 1 C-1.34 0.67 -0.68 0.34 0 0 Z " fill="#0F1010" transform="translate(129,398)"/>
<path d="M0 0 C4.5142775 3.66866356 8.50151106 7.33534808 12 12 C12 12.66 12 13.32 12 14 C9 15 9 15 6 14 C6 13.34 6 12.68 6 12 C5.34 11.67 4.68 11.34 4 11 C3.34 10.67 2.68 10.34 2 10 C0.68 11.32 -0.64 12.64 -2 14 C-2.33 11.69 -2.66 9.38 -3 7 C-2.01 7 -1.02 7 0 7 C0 4.69 0 2.38 0 0 Z " fill="#303030" transform="translate(268,373)"/>
<path d="M0 0 C0 0.99 0 1.98 0 3 C1.32 3 2.64 3 4 3 C5.75 4.5 5.75 4.5 7 6 C5 9 5 9 3 10 C2.67 10.66 2.34 11.32 2 12 C-0.0625 12.625 -0.0625 12.625 -2 13 C-2 12.01 -2 11.02 -2 10 C-3.65 10.66 -5.3 11.32 -7 12 C-6.67 11.01 -6.34 10.02 -6 9 C-5.34 8.67 -4.68 8.34 -4 8 C-4 5.69 -4 3.38 -4 1 C-2 0 -2 0 0 0 Z " fill="#161716" transform="translate(244,363)"/>
<path d="M0 0 C2.5 0.125 2.5 0.125 3.5 1.125 C3.58758003 3.12464982 3.60696576 5.1273611 3.59765625 7.12890625 C3.59443359 8.34384766 3.59121094 9.55878906 3.58789062 10.81054688 C3.57951172 12.08994141 3.57113281 13.36933594 3.5625 14.6875 C3.55798828 15.97076172 3.55347656 17.25402344 3.54882812 18.57617188 C3.53699545 21.75916022 3.52051068 24.94205762 3.5 28.125 C3.17 28.125 2.84 28.125 2.5 28.125 C2.45101562 27.05378906 2.40203125 25.98257812 2.3515625 24.87890625 C2.27654706 23.48174361 2.2009987 22.0846095 2.125 20.6875 C2.0940625 19.98044922 2.063125 19.27339844 2.03125 18.54492188 C1.92719371 16.73260812 1.72080108 14.92682012 1.5 13.125 C0.84 12.795 0.18 12.465 -0.5 12.125 C-2.73229443 8.34727097 -4.00466375 5.54080784 -3.5 1.125 C-2.5 0.125 -2.5 0.125 0 0 Z " fill="#5F5F5F" transform="translate(197.5,316.875)"/>
<path d="M0 0 C0.33 0 0.66 0 1 0 C1.33 1.65 1.66 3.3 2 5 C2.33 5 2.66 5 3 5 C3 12.92 3 20.84 3 29 C2.67 29 2.34 29 2 29 C1.67 32.3 1.34 35.6 1 39 C0.67 39 0.34 39 0 39 C0 26.13 0 13.26 0 0 Z " fill="#7D7D7D" transform="translate(177,186)"/>
<path d="M0 0 C3.96189783 4.23513217 5.43181728 8.547001 7 14 C4.08517222 14.80967438 2.53886783 15.21845993 -0.3125 14.0625 C-0.869375 13.711875 -1.42625 13.36125 -2 13 C-1.34 11.35 -0.68 9.7 0 8 C-0.99 7.67 -1.98 7.34 -3 7 C-2.34 7 -1.68 7 -1 7 C-1.20625 6.401875 -1.4125 5.80375 -1.625 5.1875 C-2 3 -2 3 0 0 Z " fill="#484848" transform="translate(280,387)"/>
<path d="M0 0 C4.84357947 7.2653692 1.64102263 20.51789704 1 29 C-3.5391547 23.86099645 -3.5391547 23.86099645 -3.3125 19.875 C-3 16 -3 16 -2 13 C-1.34 13 -0.68 13 0 13 C0 8.71 0 4.42 0 0 Z " fill="#454545" transform="translate(180,77)"/>
<path d="M0 0 C4.08521009 0.78217918 8.16777968 1.57737627 12.25 2.375 C13.98830078 2.70757812 13.98830078 2.70757812 15.76171875 3.046875 C16.87675781 3.26601563 17.99179688 3.48515625 19.140625 3.7109375 C20.68024902 4.00943604 20.68024902 4.00943604 22.25097656 4.31396484 C24.76369964 4.94102984 26.75282201 5.73537473 29 7 C26.7252187 8.38111722 25.49828639 9.05694702 22.8125 8.75 C21 8 21 8 20 6 C19.195625 6 18.39125 6 17.5625 6 C14.1285647 6 10.97544769 5.57462906 7.5625 5.0625 C6.38816406 4.88847656 5.21382812 4.71445312 4.00390625 4.53515625 C1 4 1 4 -1 3 C-0.67 2.01 -0.34 1.02 0 0 Z " fill="#5C5C5C" transform="translate(201,345)"/>
<path d="M0 0 C0.66 0.33 1.32 0.66 2 1 C2 1.66 2 2.32 2 3 C-0.4165767 5.20944155 -2.50175382 6.80556247 -5.5625 8 C-8.41474309 9.17015101 -9.95488582 10.72765091 -12 13 C-13.32 12.01 -14.64 11.02 -16 10 C-13.70912072 8.51960151 -11.41734017 7.04063324 -9.125 5.5625 C-8.47402344 5.14162109 -7.82304688 4.72074219 -7.15234375 4.28710938 C-2.2265625 1.11328125 -2.2265625 1.11328125 0 0 Z " fill="#535353" transform="translate(116,358)"/>
<path d="M0 0 C0.99 0.33 1.98 0.66 3 1 C5.3406065 0.72230092 7.67624308 0.39460023 10 0 C9.67 0.99 9.34 1.98 9 3 C7.824375 3.1546875 7.824375 3.1546875 6.625 3.3125 C3.66954819 3.77595022 3.66954819 3.77595022 2 7 C2.33 7.99 2.66 8.98 3 10 C2.01 11.485 2.01 11.485 1 13 C0.01 12.67 -0.98 12.34 -2 12 C-2.33 8.7 -2.66 5.4 -3 2 C-2.34 1.67 -1.68 1.34 -1 1 C-0.67 0.67 -0.34 0.34 0 0 Z " fill="#5A5A5A" transform="translate(242,388)"/>
<path d="M0 0 C0.33 0 0.66 0 1 0 C1.33 1.65 1.66 3.3 2 5 C2.33 5 2.66 5 3 5 C3.05789006 8.45826342 3.09355821 11.91640293 3.125 15.375 C3.14175781 16.35984375 3.15851563 17.3446875 3.17578125 18.359375 C3.18222656 19.30039063 3.18867188 20.24140625 3.1953125 21.2109375 C3.20578613 22.08024902 3.21625977 22.94956055 3.22705078 23.84521484 C3 26 3 26 1 28 C-0.35700647 25.28598706 -0.1123861 23.15153684 -0.09765625 20.1171875 C-0.09443359 18.95058594 -0.09121094 17.78398437 -0.08789062 16.58203125 C-0.07951172 15.35871094 -0.07113281 14.13539063 -0.0625 12.875 C-0.05798828 11.64394531 -0.05347656 10.41289062 -0.04882812 9.14453125 C-0.0370133 6.09630608 -0.02054028 3.04817686 0 0 Z " fill="#696969" transform="translate(177,227)"/>
<path d="M0 0 C-0.83144531 0.31453125 -1.66289062 0.6290625 -2.51953125 0.953125 C-3.60621094 1.38109375 -4.69289062 1.8090625 -5.8125 2.25 C-7.43091797 2.87648438 -7.43091797 2.87648438 -9.08203125 3.515625 C-12.05481083 5.02788235 -13.28888575 6.19017028 -15 9 C-15.53625 8.835 -16.0725 8.67 -16.625 8.5 C-19.45886009 7.90339788 -22.1119806 7.9343632 -25 8 C-21.60988684 5.09418872 -18.13831983 3.81502867 -13.9375 2.375 C-12.70902344 1.94960938 -11.48054687 1.52421875 -10.21484375 1.0859375 C-3.64819963 -1.13219988 -3.64819963 -1.13219988 0 0 Z " fill="#494949" transform="translate(143,350)"/>
<path d="M0 0 C5.61 0 11.22 0 17 0 C17.33 0.99 17.66 1.98 18 3 C17.35933594 2.96519531 16.71867187 2.93039062 16.05859375 2.89453125 C10.10283499 2.70813642 6.32737737 3.39067231 1 6 C0.01 6 -0.98 6 -2 6 C-1.34 4.02 -0.68 2.04 0 0 Z " fill="#1F1F1F" transform="translate(171,303)"/>
<path d="M0 0 C-0.33 0.99 -0.66 1.98 -1 3 C-1.66 3.28875 -2.32 3.5775 -3 3.875 C-5.26364462 4.85107088 -5.26364462 4.85107088 -5.8125 7.5 C-6.21473491 9.99790956 -6.21473491 9.99790956 -5 12 C-5.66 12.66 -6.32 13.32 -7 14 C-7.99 14 -8.98 14 -10 14 C-10.99 11.69 -11.98 9.38 -13 7 C-12.34 7 -11.68 7 -11 7 C-10.67 6.01 -10.34 5.02 -10 4 C-9.67 4 -9.34 4 -9 4 C-8.01 3.34 -7.02 2.68 -6 2 C-6 1.34 -6 0.68 -6 0 C-2.25 -1.125 -2.25 -1.125 0 0 Z " fill="#878787" transform="translate(186,388)"/>
<path d="M0 0 C0.66 0.33 1.32 0.66 2 1 C2.309375 1.99 2.61875 2.98 2.9375 4 C3.288125 4.99 3.63875 5.98 4 7 C4.99 7.33 5.98 7.66 7 8 C6.01 8.66 5.02 9.32 4 10 C3.67 10.99 3.34 11.98 3 13 C1.68 13 0.36 13 -1 13 C-1.66 11.35 -2.32 9.7 -3 8 C-2.34 8 -1.68 8 -1 8 C-0.67 5.36 -0.34 2.72 0 0 Z " fill="#1D1F1E" transform="translate(251,366)"/>
<path d="M0 0 C0.99 0.495 0.99 0.495 2 1 C1.01 1.495 1.01 1.495 0 2 C0 1.34 0 0.68 0 0 Z M-8 1 C-6 1.66666667 -4 2.33333333 -2 3 C-1.34 2.67 -0.68 2.34 0 2 C0.33 3.32 0.66 4.64 1 6 C0.01 6.33 -0.98 6.66 -2 7 C-2.33 7.66 -2.66 8.32 -3 9 C-2.34 9.33 -1.68 9.66 -1 10 C-2.98 10.99 -2.98 10.99 -5 12 C-5.66 11.01 -6.32 10.02 -7 9 C-7.66 8.67 -8.32 8.34 -9 8 C-8.67 5.69 -8.34 3.38 -8 1 Z " fill="#494949" transform="translate(259,390)"/>
<path d="M0 0 C0.33 0 0.66 0 1 0 C1 10.56 1 21.12 1 32 C0.67 32 0.34 32 0 32 C-0.185625 30.576875 -0.185625 30.576875 -0.375 29.125 C-0.71687177 25.91332809 -0.71687177 25.91332809 -3 24 C-3.1953125 21.6171875 -3.1953125 21.6171875 -3.125 18.875 C-3.10695312 17.96492188 -3.08890625 17.05484375 -3.0703125 16.1171875 C-3.04710937 15.41851562 -3.02390625 14.71984375 -3 14 C-2.67 14 -2.34 14 -2 14 C-1.67 15.98 -1.34 17.96 -1 20 C-0.67 13.4 -0.34 6.8 0 0 Z " fill="#575757" transform="translate(180,44)"/>
<path d="M0 0 C5.54050113 0.56825653 10.03715966 2.62886517 15 5 C12.80808632 7.19191368 11.88522592 7.27869352 9 8 C8.34 8.66 7.68 9.32 7 10 C5 4.25 5 4.25 5 2 C3.35 1.67 1.7 1.34 0 1 C0 0.67 0 0.34 0 0 Z " fill="#4A4A4A" transform="translate(230,352)"/>
<path d="M0 0 C1.2065625 0.0309375 1.2065625 0.0309375 2.4375 0.0625 C1.4475 0.5575 1.4475 0.5575 0.4375 1.0625 C1.7575 1.7225 3.0775 2.3825 4.4375 3.0625 C4.1075 3.3925 3.7775 3.7225 3.4375 4.0625 C3.7675 5.0525 4.0975 6.0425 4.4375 7.0625 C3.4475 7.3925 2.4575 7.7225 1.4375 8.0625 C0.7775 7.7325 0.1175 7.4025 -0.5625 7.0625 C-0.8925 7.7225 -1.2225 8.3825 -1.5625 9.0625 C-1.8925 7.4125 -2.2225 5.7625 -2.5625 4.0625 C-3.8825 4.3925 -5.2025 4.7225 -6.5625 5.0625 C-2.85817308 0.06971154 -2.85817308 0.06971154 0 0 Z " fill="#2A2B2B" transform="translate(143.5625,392.9375)"/>
<path d="M0 0 C2 2 2 2 2.25 5.8125 C2.16244314 9.2522338 1.6722837 11.93414656 0 15 C-0.99 15.495 -0.99 15.495 -2 16 C-2.05384521 13.70858714 -2.09272087 11.41681812 -2.125 9.125 C-2.14820313 7.84882813 -2.17140625 6.57265625 -2.1953125 5.2578125 C-2 2 -2 2 0 0 Z " fill="#232323" transform="translate(164,320)"/>
<path d="M0 0 C0 0.66 0 1.32 0 2 C-9.71614177 2.14973506 -19.31629705 1.69613269 -29 1 C-29 0.67 -29 0.34 -29 0 C-24.5420032 -0.19616609 -20.08359465 -0.38047068 -15.625 -0.5625 C-14.35398437 -0.61857422 -13.08296875 -0.67464844 -11.7734375 -0.73242188 C-10.56171875 -0.78076172 -9.35 -0.82910156 -8.1015625 -0.87890625 C-6.98088379 -0.9260376 -5.86020508 -0.97316895 -4.70556641 -1.02172852 C-2 -1 -2 -1 0 0 Z " fill="#171717" transform="translate(123,401)"/>
<path d="M0 0 C0.66 0 1.32 0 2 0 C2.33 1.32 2.66 2.64 3 4 C3.99 4 4.98 4 6 4 C5.67 4.66 5.34 5.32 5 6 C5.66 6.66 6.32 7.32 7 8 C4.03 8 1.06 8 -2 8 C-1.125 1.125 -1.125 1.125 0 0 Z " fill="#535353" transform="translate(80,394)"/>
<path d="M0 0 C0.99 0.33 1.98 0.66 3 1 C3.061875 1.78375 3.12375 2.5675 3.1875 3.375 C3.455625 4.24125 3.72375 5.1075 4 6 C6.47636012 7.37466625 6.47636012 7.37466625 9 8 C7 10 7 10 3.375 10.125 C2.26125 10.08375 1.1475 10.0425 0 10 C0.66 9.34 1.32 8.68 2 8 C0.68 7.34 -0.64 6.68 -2 6 C-1.67 5.34 -1.34 4.68 -1 4 C-0.64830932 2.67139075 -0.31229724 1.33841672 0 0 Z " fill="#828282" transform="translate(226,392)"/>
<path d="M0 0 C6.64615385 2.33846154 6.64615385 2.33846154 8.4375 5.6875 C8.7159375 6.8321875 8.7159375 6.8321875 9 8 C8.01 8.33 7.02 8.66 6 9 C3.8125 7.6875 3.8125 7.6875 2 6 C2 5.34 2 4.68 2 4 C0.68 3.67 -0.64 3.34 -2 3 C-1.34 2.67 -0.68 2.34 0 2 C0 1.34 0 0.68 0 0 Z " fill="#333333" transform="translate(188,303)"/>
<path d="M0 0 C0.33 0 0.66 0 1 0 C1.144375 0.763125 1.28875 1.52625 1.4375 2.3125 C1.9632594 5.08172908 1.9632594 5.08172908 3 8 C2.44140625 10.26171875 2.44140625 10.26171875 1.5625 12.6875 C1.27503906 13.49574219 0.98757812 14.30398437 0.69140625 15.13671875 C0.34916016 16.05904297 0.34916016 16.05904297 0 17 C-0.33 17 -0.66 17 -1 17 C-1.02691685 14.54159395 -1.04679802 12.08348118 -1.0625 9.625 C-1.07087891 8.92632812 -1.07925781 8.22765625 -1.08789062 7.5078125 C-1.11328125 2.2265625 -1.11328125 2.2265625 0 0 Z " fill="#474747" transform="translate(181,10)"/>
<path d="M0 0 C0.99 0 1.98 0 3 0 C3 5.28 3 10.56 3 16 C-0.23945545 11.68072606 -0.35373864 10.84798489 -0.1875 5.75 C-0.14689453 4.13351562 -0.14689453 4.13351562 -0.10546875 2.484375 C-0.07066406 1.66453125 -0.03585938 0.8446875 0 0 Z " fill="#252525" transform="translate(180,0)"/>
<path d="M0 0 C0.99 0.495 0.99 0.495 2 1 C2 1.99 2 2.98 2 4 C3.98 4.66 5.96 5.32 8 6 C7.01 7.485 7.01 7.485 6 9 C2.875 9.1875 2.875 9.1875 0 9 C0 6.03 0 3.06 0 0 Z " fill="#A0A0A0" transform="translate(198,393)"/>
<path d="M0 0 C1.32 0.33 2.64 0.66 4 1 C3.42655063 3.86724686 3.1385485 4.8614515 1 7 C0.01 7.66 -0.98 8.32 -2 9 C-2.66 8.01 -3.32 7.02 -4 6 C-3.125 3.3125 -3.125 3.3125 -2 1 C-1.34 1 -0.68 1 0 1 C0 0.67 0 0.34 0 0 Z " fill="#171918" transform="translate(140,371)"/>
<path d="M0 0 C0.66 0.66 1.32 1.32 2 2 C0.8125 3.5 0.8125 3.5 -1 5 C-3.6875 5.1875 -3.6875 5.1875 -6 5 C-6.33 3.35 -6.66 1.7 -7 0 C-3.85179059 -1.04940314 -3.00659136 -1.066855 0 0 Z " fill="#949494" transform="translate(187,312)"/>
<path d="M0 0 C2 1 2 1 2.62109375 2.609375 C3.13369428 5.84351443 3.09280305 8.97727051 3.0625 12.25 C3.05347656 13.51328125 3.04445312 14.7765625 3.03515625 16.078125 C3.02355469 17.04234375 3.01195312 18.0065625 3 19 C2.67 19 2.34 19 2 19 C1.67 15.7 1.34 12.4 1 9 C0.67 10.65 0.34 12.3 0 14 C-0.33 14 -0.66 14 -1 14 C-0.67 9.38 -0.34 4.76 0 0 Z " fill="#505050" transform="translate(178,151)"/>
<path d="M0 0 C0.99 0.99 1.98 1.98 3 3 C0.99210066 4.64934589 -0.51315067 5.88197592 -3.0625 6.5 C-5.44145275 7.11392329 -6.41113815 8.17280887 -8 10 C-8 7 -8 7 -6.25 5.17578125 C-5.5075 4.56089844 -4.765 3.94601562 -4 3.3125 C-3.2575 2.68988281 -2.515 2.06726563 -1.75 1.42578125 C-1.1725 0.95527344 -0.595 0.48476563 0 0 Z " fill="#565656" transform="translate(99,369)"/>
<path d="M0 0 C0.99 0.66 1.98 1.32 3 2 C2.67 3.65 2.34 5.3 2 7 C1.38125 6.814375 0.7625 6.62875 0.125 6.4375 C-2.04160178 5.76313824 -2.04160178 5.76313824 -4 7 C-4.33 5.35 -4.66 3.7 -5 2 C-2.6875 0.875 -2.6875 0.875 0 0 Z " fill="#181818" transform="translate(150,370)"/>
<path d="M0 0 C0.99 0 1.98 0 3 0 C3 3.63 3 7.26 3 11 C2.01 10.67 1.02 10.34 0 10 C0 6.7 0 3.4 0 0 Z " fill="#F8F8F8" transform="translate(179,291)"/>
<path d="M0 0 C1.11375 0.598125 2.2275 1.19625 3.375 1.8125 C4.00148438 2.14894531 4.62796875 2.48539062 5.2734375 2.83203125 C7 4 7 4 9 7 C8.34 7.66 7.68 8.32 7 9 C7 8.34 7 7.68 7 7 C6.4225 6.896875 5.845 6.79375 5.25 6.6875 C2.67950842 5.90207202 1.06342716 4.69495803 -1 3 C-0.67 2.01 -0.34 1.02 0 0 Z " fill="#525352" transform="translate(259,366)"/>
<path d="M0 0 C-0.66 1.32 -1.32 2.64 -2 4 C-4.01822917 3.70703125 -6.03645833 3.4140625 -8.0546875 3.12109375 C-10.08140667 2.8315703 -10.08140667 2.8315703 -12 4 C-13.67654729 3.72057545 -15.34608154 3.39171753 -17 3 C-17 2.67 -17 2.34 -17 2 C-14.54316882 1.47097431 -12.08497874 0.95149191 -9.625 0.4375 C-8.92632812 0.28603516 -8.22765625 0.13457031 -7.5078125 -0.02148438 C-2.2265625 -1.11328125 -2.2265625 -1.11328125 0 0 Z " fill="#777777" transform="translate(161,346)"/>
<path d="M0 0 C2 1 2 1 3 3 C1.88625 3.391875 0.7725 3.78375 -0.375 4.1875 C-3.31960666 5.42482967 -3.85882545 5.73606497 -5.4375 8.6875 C-5.623125 9.450625 -5.80875 10.21375 -6 11 C-6.66 11 -7.32 11 -8 11 C-7.49268371 6.60325886 -4.88085945 4.16191891 -2 1 C-1.34 0.67 -0.68 0.34 0 0 Z " fill="#323232" transform="translate(169,304)"/>
<path d="M0 0 C1.98 0.99 3.96 1.98 6 3 C5.34 4.98 4.68 6.96 4 9 C2.68 8.67 1.36 8.34 0 8 C0.66 6.02 1.32 4.04 2 2 C1.34 2 0.68 2 0 2 C0 1.34 0 0.68 0 0 Z " fill="#3D3E3E" transform="translate(253,362)"/>
<path d="M0 0 C1.98 0 3.96 0 6 0 C5.67 1.65 5.34 3.3 5 5 C2.69 5.33 0.38 5.66 -2 6 C-1.34 4.02 -0.68 2.04 0 0 Z " fill="#171717" transform="translate(171,303)"/>
<path d="M0 0 C0 0.66 0 1.32 0 2 C-3.1999003 5.01704885 -5.61537866 6.49890042 -10 7 C-4.4 -2.2 -4.4 -2.2 0 0 Z " fill="#454545" transform="translate(118,359)"/>
<path d="M0 0 C3 1 3 1 4.3125 3.375 C4.6528125 4.674375 4.6528125 4.674375 5 6 C4.01 7.485 4.01 7.485 3 9 C2.01 8.67 1.02 8.34 0 8 C-0.79953138 4.71303767 -1.09658936 3.28976808 0 0 Z " fill="#676767" transform="translate(240,392)"/>
<path d="M0 0 C0.66 0.99 1.32 1.98 2 3 C1.01 4.485 1.01 4.485 0 6 C-0.99 6 -1.98 6 -3 6 C-3 6.99 -3 7.98 -3 9 C-3.99 9 -4.98 9 -6 9 C-6 7.68 -6 6.36 -6 5 C-5.01 5 -4.02 5 -3 5 C-3 4.34 -3 3.68 -3 3 C-2.01 3 -1.02 3 0 3 C0 2.01 0 1.02 0 0 Z " fill="#3F3F3F" transform="translate(258,382)"/>
<path d="M0 0 C4.875 4.625 4.875 4.625 6 8 C5.01 8.33 4.02 8.66 3 9 C2.01 8.34 1.02 7.68 0 7 C-0.1875 3.375 -0.1875 3.375 0 0 Z " fill="#555555" transform="translate(274,379)"/>
<path d="M0 0 C0.33 0 0.66 0 1 0 C2.33583899 4.84241633 3.25328119 8.93437617 3 14 C2.34 14 1.68 14 1 14 C-0.38226016 11.23547967 -0.09525387 8.9538637 -0.0625 5.875 C-0.05347656 4.77929688 -0.04445312 3.68359375 -0.03515625 2.5546875 C-0.02355469 1.71164062 -0.01195312 0.86859375 0 0 Z " fill="#4E4E4E" transform="translate(180,277)"/>
<path d="M0 0 C1.32 0.66 2.64 1.32 4 2 C3.67 3.98 3.34 5.96 3 8 C1 7 1 7 0 4 C-2.01508358 3.26676204 -2.01508358 3.26676204 -4 3 C-2.68 2.01 -1.36 1.02 0 0 Z " fill="#323232" transform="translate(276,386)"/>
<path d="M0 0 C0.66 0.33 1.32 0.66 2 1 C2.99 1.33 3.98 1.66 5 2 C5.8125 3.9375 5.8125 3.9375 6 6 C5.34 6.66 4.68 7.32 4 8 C3.34 7.67 2.68 7.34 2 7 C2 6.34 2 5.68 2 5 C0.68 4.67 -0.64 4.34 -2 4 C-1.34 4 -0.68 4 0 4 C0 2.68 0 1.36 0 0 Z " fill="#8E8E8E" transform="translate(221,389)"/>
<path d="M0 0 C0.33 0.66 0.66 1.32 1 2 C1.66 2.33 2.32 2.66 3 3 C3.33 3.66 3.66 4.32 4 5 C2.35 5.66 0.7 6.32 -1 7 C-1.66 5.35 -2.32 3.7 -3 2 C-2.01 1.34 -1.02 0.68 0 0 Z " fill="#4A4A4A" transform="translate(154,393)"/>
<path d="M0 0 C1.65 0 3.3 0 5 0 C5 3.3 5 6.6 5 10 C4.67 10 4.34 10 4 10 C3.731875 9.071875 3.46375 8.14375 3.1875 7.1875 C2.08851629 4.23759634 1.37581439 2.94384814 -1 1 C-0.67 0.67 -0.34 0.34 0 0 Z " fill="#1B1B1B" transform="translate(195,317)"/>
<path d="M0 0 C1.67542976 0.28604898 3.34385343 0.61781233 5 1 C4.67 2.98 4.34 4.96 4 7 C2.0625 6.25 2.0625 6.25 0 5 C-0.8125 2.9375 -0.8125 2.9375 -1 1 C-0.67 0.67 -0.34 0.34 0 0 Z " fill="#2B2C2C" transform="translate(118,358)"/>
<path d="M0 0 C-8.03501094 4.07877462 -8.03501094 4.07877462 -12.0625 3.75 C-12.701875 3.5025 -13.34125 3.255 -14 3 C-9.491643 -0.00557133 -5.27839413 -1.63572214 0 0 Z " fill="#767676" transform="translate(143,350)"/>
<path d="M0 0 C0.99 0.33 1.98 0.66 3 1 C2.67 2.98 2.34 4.96 2 7 C-1.875 5.25 -1.875 5.25 -3 3 C-2.01 2.01 -1.02 1.02 0 0 Z " fill="#1C1C1C" transform="translate(170,321)"/>
<path d="M0 0 C0.33 0 0.66 0 1 0 C1.33 1.98 1.66 3.96 2 6 C2.33 6 2.66 6 3 6 C3 7.65 3 9.3 3 11 C2.01 11.495 2.01 11.495 1 12 C-0.26237731 9.47524538 -0.09856404 7.68799534 -0.0625 4.875 C-0.05347656 3.96492188 -0.04445312 3.05484375 -0.03515625 2.1171875 C-0.02355469 1.41851562 -0.01195312 0.71984375 0 0 Z " fill="#808080" transform="translate(177,58)"/>
<path d="M0 0 C2.97 0.33 5.94 0.66 9 1 C7.25 2.5625 7.25 2.5625 5 4 C2.8125 3.875 2.8125 3.875 1 3 C0.67 2.01 0.34 1.02 0 0 Z " fill="#4D4D4D" transform="translate(221,350)"/>
<path d="M0 0 C1.98 0.99 1.98 0.99 4 2 C4 2.99 4 3.98 4 5 C3.01 5.66 2.02 6.32 1 7 C0 6 0 6 -0.0625 2.9375 C-0.041875 1.968125 -0.02125 0.99875 0 0 Z " fill="#242424" transform="translate(162,339)"/>
<path d="M0 0 C0.99 1.485 0.99 1.485 2 3 C1.34 3 0.68 3 0 3 C0 2.01 0 1.02 0 0 Z M-1 3 C1 5 1 5 1 8 C0.01 8.33 -0.98 8.66 -2 9 C-2.625 7.125 -2.625 7.125 -3 5 C-2.34 4.34 -1.68 3.68 -1 3 Z " fill="#2A2A2A" transform="translate(198,331)"/>
<path d="M0 0 C1.32 0.66 2.64 1.32 4 2 C3.67 2.99 3.34 3.98 3 5 C1.35 5 -0.3 5 -2 5 C-1.34 3.35 -0.68 1.7 0 0 Z " fill="#6A6A6A" transform="translate(81,390)"/>
<path d="M0 0 C1.98 1.65 3.96 3.3 6 5 C4.125 5.625 4.125 5.625 2 6 C1.34 5.34 0.68 4.68 0 4 C0 2.68 0 1.36 0 0 Z " fill="#505050" transform="translate(268,373)"/>
<path d="M0 0 C0.99 0.66 1.98 1.32 3 2 C3 2.99 3 3.98 3 5 C1.68 5.33 0.36 5.66 -1 6 C-1.625 4.125 -1.625 4.125 -2 2 C-1.34 1.34 -0.68 0.68 0 0 Z " fill="#2B2B2B" transform="translate(197,312)"/>
<path d="M0 0 C2 3 2 3 2 6 C2.66 6 3.32 6 4 6 C3.67 7.65 3.34 9.3 3 11 C0.60236815 8.60236815 0.65719414 7.66726502 0.375 4.375 C0.30023438 3.55773438 0.22546875 2.74046875 0.1484375 1.8984375 C0.09945312 1.27195313 0.05046875 0.64546875 0 0 Z " fill="#414141" transform="translate(180,39)"/>
<path d="M0 0 C0.99 0 1.98 0 3 0 C2.67 1.65 2.34 3.3 2 5 C0.68 5 -0.64 5 -2 5 C-1.34 3.35 -0.68 1.7 0 0 Z " fill="#696969" transform="translate(165,395)"/>
<path d="M0 0 C1.98 0.66 3.96 1.32 6 2 C6 2.99 6 3.98 6 5 C3.69 4.01 1.38 3.02 -1 2 C-0.67 1.34 -0.34 0.68 0 0 Z " fill="#595959" transform="translate(245,358)"/>
<path d="M0 0 C-0.33 0.66 -0.66 1.32 -1 2 C-2.66500443 2.34153937 -4.33178677 2.67449498 -6 3 C-6.66 3.66 -7.32 4.32 -8 5 C-8.33 4.01 -8.66 3.02 -9 2 C-5.86501708 0.14223235 -3.62528568 -0.20140476 0 0 Z " fill="#404040" transform="translate(183,308)"/>
<path d="M0 0 C0.33 0 0.66 0 1 0 C1 2.31 1 4.62 1 7 C0.67 7 0.34 7 0 7 C0 4.69 0 2.38 0 0 Z " fill="#BDBDBD" transform="translate(175,293)"/>
</svg>
