<?xml version="1.0" encoding="UTF-8"?>
<svg version="1.1" xmlns="http://www.w3.org/2000/svg" width="260" height="280">
<path d="M0 0 C0.99 0.33 1.98 0.66 3 1 C3.92120521 8.71082879 2.1288547 13.63964846 -1.6875 20.3359375 C-3.29462974 23.1030567 -3.29462974 23.1030567 -3 27 C-2.34 27 -1.68 27 -1 27 C-0.773125 26.154375 -0.54625 25.30875 -0.3125 24.4375 C1.62709107 19.35761863 3.86467007 15.09139086 8.8125 12.5625 C9.534375 12.376875 10.25625 12.19125 11 12 C13.49743551 15.74615327 13.52695133 19.65892476 13 24 C11.62664479 28.04376812 10.64008786 29.57781439 7.0625 31.9375 C4.02721086 32.9905595 2.89808178 33.22611152 0 32 C0 32.99 0 33.98 0 35 C-0.66 35 -1.32 35 -2 35 C-2.12117188 35.65871094 -2.24234375 36.31742188 -2.3671875 36.99609375 C-3.30391843 41.44267451 -4.50887978 45.82447389 -5.71484375 50.20507812 C-7.03330952 55.13986554 -7.03330952 55.13986554 -6 60 C-5.25 62 -5.25 62 -5 64 C-5.495 64.61875 -5.99 65.2375 -6.5 65.875 C-8.25529416 67.96815466 -8.25529416 67.96815466 -8.1875 70.9375 C-6.65140595 74.89900571 -4.70341279 75.76746921 -1.0078125 77.62890625 C1.66963668 79.45728108 2.68908307 81.03274992 4 84 C4.14453125 87.3125 4.14453125 87.3125 3.8125 91 C3.63847656 92.96646484 3.63847656 92.96646484 3.4609375 94.97265625 C2.84022354 100.67908658 1.98219573 106.34522262 1 112 C3.29160319 112.02692484 5.58329546 112.04636124 7.875 112.0625 C9.78925781 112.07990234 9.78925781 112.07990234 11.7421875 112.09765625 C14.88664652 112.23176569 14.88664652 112.23176569 17 111 C18.98 111 20.96 111 23 111 C23 105.72 23 100.44 23 95 C20.69 94.67 18.38 94.34 16 94 C15.67 93.01 15.34 92.02 15 91 C15.66 90.34 16.32 89.68 17 89 C17.99 89 18.98 89 20 89 C20.03738281 88.38511719 20.07476562 87.77023438 20.11328125 87.13671875 C20.17902344 86.32847656 20.24476563 85.52023438 20.3125 84.6875 C20.37050781 83.88699219 20.42851562 83.08648437 20.48828125 82.26171875 C21.11081346 79.51022143 21.68032783 78.59977391 24 77 C26.69921875 76.48828125 26.69921875 76.48828125 29.6875 76.3125 C30.68136719 76.24675781 31.67523438 76.18101562 32.69921875 76.11328125 C33.83810547 76.05720703 33.83810547 76.05720703 35 76 C35.33 73.03 35.66 70.06 36 67 C34.35 66.67 32.7 66.34 31 66 C31.495 64.515 31.495 64.515 32 63 C36.0974476 61.45854821 40.503248 61.90454838 44.81640625 61.98046875 C45.66927719 61.99459305 46.52214813 62.00871735 47.40086365 62.02326965 C49.20049121 62.05632481 51.00006093 62.09267028 52.79956055 62.13208008 C55.55585945 62.1873668 58.31166887 62.21586814 61.06835938 62.24414062 C62.81774279 62.27958859 64.56709453 62.31664341 66.31640625 62.35546875 C67.55397423 62.36201729 67.55397423 62.36201729 68.81654358 62.36869812 C74.51156225 62.53892671 74.51156225 62.53892671 76.99584961 64.8840332 C78.49204762 68.03685307 79.3750624 70.6247712 78.4375 74.0625 C77.85417393 76.64580117 78.65948445 77.79209204 80 80 C79.01 80.66 78.02 81.32 77 82 C76.01 81.67 75.02 81.34 74 81 C74.46853622 83.99405579 74.46853622 83.99405579 76 87 C79.38472742 88.30181824 82.62460181 88.93375326 86.1875 89.5625 C89.95651892 91.48888745 90.87123636 93.61408186 92.3828125 97.48046875 C93.62524654 102.55243051 92.62264273 107.13207182 91 112 C104.86 112.495 104.86 112.495 119 113 C119 116.3 119 119.6 119 123 C118.34 123.66 117.68 124.32 117 125 C114.92475061 124.91657289 112.84914252 124.82386711 110.77807617 124.66796875 C103.03565809 123.91426702 103.03565809 123.91426702 96.4296875 127.21875 C94.64294475 129.94122786 94.64294475 129.94122786 93.38671875 132.8125 C92.92910156 133.534375 92.47148437 134.25625 92 135 C89.39453125 135.375 89.39453125 135.375 87 135 C84.59629915 132.59629915 85.375395 128.37855504 85 125 C45.4 124.67 5.8 124.34 -35 124 C-35 127.3 -35 130.6 -35 134 C-36 135 -36 135 -38.5625 135.0625 C-39.366875 135.041875 -40.17125 135.02125 -41 135 C-41.99 132.525 -41.99 132.525 -43 130 C-43.66 130 -44.32 130 -45 130 C-45.66 128.02 -46.32 126.04 -47 124 C-53.6 124 -60.2 124 -67 124 C-68.20272819 121.59454362 -68.10071472 120.05003047 -68.0625 117.375 C-68.05347656 116.55773437 -68.04445312 115.74046875 -68.03515625 114.8984375 C-68.02355469 114.27195312 -68.01195312 113.64546875 -68 113 C-63.15946556 112.19369673 -58.65435169 111.93180616 -53.75390625 112.12109375 C-52.76994118 112.15651024 -52.76994118 112.15651024 -51.76609802 112.19264221 C-49.69796255 112.26841126 -47.63028696 112.35280013 -45.5625 112.4375 C-44.14911006 112.49080795 -42.73569856 112.54354753 -41.32226562 112.59570312 C-37.88123685 112.72390614 -34.44056469 112.85983473 -31 113 C-31.09087891 112.410979 -31.18175781 111.82195801 -31.27539062 111.21508789 C-31.69049297 108.49856235 -32.09529399 105.78059304 -32.5 103.0625 C-32.64308594 102.13630859 -32.78617188 101.21011719 -32.93359375 100.25585938 C-35.1764869 85.03622732 -35.1764869 85.03622732 -32.375 80.1875 C-29.75413188 77.77354252 -27.02236384 75.88058195 -24 74 C-22.64381501 72.87465895 -22.64381501 72.87465895 -22.9375 69.9375 C-22.958125 68.968125 -22.97875 67.99875 -23 67 C-23.99 66.505 -23.99 66.505 -25 66 C-25.1875 63.625 -25.1875 63.625 -25 61 C-24.01 60.34 -23.02 59.68 -22 59 C-21.67 58.01 -21.34 57.02 -21 56 C-21.66 56 -22.32 56 -23 56 C-23.0825 54.948125 -23.165 53.89625 -23.25 52.8125 C-24.04976355 46.43724196 -25.39571854 38.28702552 -29.4453125 33.17578125 C-31.11216518 31.78481853 -31.11216518 31.78481853 -34 31 C-36.94216583 30.01927806 -38.1589476 29.42243737 -40 27 C-41.14077657 23.57767028 -41.09815117 20.91326783 -41.0625 17.3125 C-41.05347656 16.13300781 -41.04445313 14.95351562 -41.03515625 13.73828125 C-41.02355469 12.83464844 -41.01195313 11.93101563 -41 11 C-40.34 10.67 -39.68 10.34 -39 10 C-35.63050557 11.68474722 -34.12055614 12.8191658 -32 16 C-31.73445313 15.07316406 -31.46890625 14.14632812 -31.1953125 13.19140625 C-30.84210938 11.99386719 -30.48890625 10.79632813 -30.125 9.5625 C-29.77695313 8.36753906 -29.42890625 7.17257813 -29.0703125 5.94140625 C-28 3 -28 3 -26 2 C-19.31371553 8.26720111 -18.11280719 16.21468008 -17 25 C-16.90912109 23.57107422 -16.90912109 23.57107422 -16.81640625 22.11328125 C-16.73261719 20.85902344 -16.64882812 19.60476562 -16.5625 18.3125 C-16.48128906 17.07113281 -16.40007812 15.82976562 -16.31640625 14.55078125 C-16.05508683 11.61819663 -15.65201621 8.86558383 -15 6 C-13.1875 5.375 -13.1875 5.375 -11 5 C-10.01 5.66 -9.02 6.32 -8 7 C-7.54625 6.505 -7.0925 6.01 -6.625 5.5 C-5 4 -5 4 -3 4 C-3 3.34 -3 2.68 -3 2 C-2.01 1.34 -1.02 0.68 0 0 Z M-28 23 C-27.690625 23.680625 -27.38125 24.36125 -27.0625 25.0625 C-26 28 -26 28 -25.625 31.1875 C-24.70563974 36.79559759 -22.53682615 41.9263477 -20 47 C-19.34 47 -18.68 47 -18 47 C-17.8524273 39.94201056 -17.8524273 39.94201056 -19 33 C-19.12375 32.34 -19.2475 31.68 -19.375 31 C-20.22525161 28.27919486 -21.27619463 26.27788567 -23 24 C-25.59122743 23.11341534 -25.59122743 23.11341534 -28 23 Z M-17 27 C-17 28.32 -17 29.64 -17 31 C-16.34 30.67 -15.68 30.34 -15 30 C-15 29.01 -15 28.02 -15 27 C-15.66 27 -16.32 27 -17 27 Z M-11 27 C-11 28.65 -11 30.3 -11 32 C-10.01 32.33 -9.02 32.66 -8 33 C-8 31.35 -8 29.7 -8 28 C-8.99 27.67 -9.98 27.34 -11 27 Z M-5 31 C-4.67 31.66 -4.34 32.32 -4 33 C-3.67 32.34 -3.34 31.68 -3 31 C-3.66 31 -4.32 31 -5 31 Z M-11 33 C-11.33 34.98 -11.66 36.96 -12 39 C-11.01 38.01 -10.02 37.02 -9 36 C-9.33 35.01 -9.66 34.02 -10 33 C-10.33 33 -10.66 33 -11 33 Z M-11 39 C-11 40.65 -11 42.3 -11 44 C-10.67 44 -10.34 44 -10 44 C-10 42.35 -10 40.7 -10 39 C-10.33 39 -10.66 39 -11 39 Z " fill="#C5BDBA" transform="translate(108,58)"/>
<path d="M0 0 C0.99 0.33 1.98 0.66 3 1 C3.92120521 8.71082879 2.1288547 13.63964846 -1.6875 20.3359375 C-3.29462974 23.1030567 -3.29462974 23.1030567 -3 27 C-2.34 27 -1.68 27 -1 27 C-0.6596875 25.7315625 -0.6596875 25.7315625 -0.3125 24.4375 C1.62709107 19.35761863 3.86467007 15.09139086 8.8125 12.5625 C9.534375 12.376875 10.25625 12.19125 11 12 C13.49743551 15.74615327 13.52695133 19.65892476 13 24 C11.62664479 28.04376812 10.64008786 29.57781439 7.0625 31.9375 C4.02721086 32.9905595 2.89808178 33.22611152 0 32 C0 32.99 0 33.98 0 35 C-0.66 35 -1.32 35 -2 35 C-2.12117188 35.65871094 -2.24234375 36.31742188 -2.3671875 36.99609375 C-3.30391843 41.44267451 -4.50887978 45.82447389 -5.71484375 50.20507812 C-7.03330952 55.13986554 -7.03330952 55.13986554 -6 60 C-5.25 62 -5.25 62 -5 64 C-5.495 64.61875 -5.99 65.2375 -6.5 65.875 C-8.25529416 67.96815466 -8.25529416 67.96815466 -8.1875 70.9375 C-6.63179547 74.94958011 -4.5555737 75.84165753 -0.8125 77.7265625 C1 79 1 79 1.734375 80.8671875 C3.12521064 92.03477952 0.77206966 102.99840088 -1 114 C-10.24 114 -19.48 114 -29 114 C-30.2709173 108.28087215 -31.2661638 103.61907313 -31.625 97.9375 C-31.73714844 96.24947266 -31.73714844 96.24947266 -31.8515625 94.52734375 C-31.90054688 93.69332031 -31.94953125 92.85929687 -32 92 C-32.66 92 -33.32 92 -34 92 C-34.62151394 84.07569721 -34.62151394 84.07569721 -32.375 80.1875 C-29.75413188 77.77354252 -27.02236384 75.88058195 -24 74 C-22.64381501 72.87465895 -22.64381501 72.87465895 -22.9375 69.9375 C-22.958125 68.968125 -22.97875 67.99875 -23 67 C-23.66 66.67 -24.32 66.34 -25 66 C-25.1875 63.625 -25.1875 63.625 -25 61 C-24.01 60.34 -23.02 59.68 -22 59 C-21.67 58.01 -21.34 57.02 -21 56 C-21.66 56 -22.32 56 -23 56 C-23.0825 54.948125 -23.165 53.89625 -23.25 52.8125 C-24.04976355 46.43724196 -25.39571854 38.28702552 -29.4453125 33.17578125 C-31.11216518 31.78481853 -31.11216518 31.78481853 -34 31 C-36.94216583 30.01927806 -38.1589476 29.42243737 -40 27 C-41.14077657 23.57767028 -41.09815117 20.91326783 -41.0625 17.3125 C-41.05347656 16.13300781 -41.04445313 14.95351562 -41.03515625 13.73828125 C-41.02355469 12.83464844 -41.01195313 11.93101563 -41 11 C-40.34 10.67 -39.68 10.34 -39 10 C-35.63050557 11.68474722 -34.12055614 12.8191658 -32 16 C-31.60167969 14.60974609 -31.60167969 14.60974609 -31.1953125 13.19140625 C-30.84210938 11.99386719 -30.48890625 10.79632813 -30.125 9.5625 C-29.77695313 8.36753906 -29.42890625 7.17257813 -29.0703125 5.94140625 C-28 3 -28 3 -26 2 C-19.31371553 8.26720111 -18.11280719 16.21468008 -17 25 C-16.90912109 23.57107422 -16.90912109 23.57107422 -16.81640625 22.11328125 C-16.73261719 20.85902344 -16.64882812 19.60476562 -16.5625 18.3125 C-16.48128906 17.07113281 -16.40007812 15.82976562 -16.31640625 14.55078125 C-16.05508683 11.61819663 -15.65201621 8.86558383 -15 6 C-13.1875 5.375 -13.1875 5.375 -11 5 C-10.01 5.66 -9.02 6.32 -8 7 C-7.54625 6.505 -7.0925 6.01 -6.625 5.5 C-5 4 -5 4 -3 4 C-3 3.34 -3 2.68 -3 2 C-2.01 1.34 -1.02 0.68 0 0 Z M-28 23 C-27.690625 23.680625 -27.38125 24.36125 -27.0625 25.0625 C-26 28 -26 28 -25.625 31.1875 C-24.70563974 36.79559759 -22.53682615 41.9263477 -20 47 C-19.34 47 -18.68 47 -18 47 C-17.8524273 39.94201056 -17.8524273 39.94201056 -19 33 C-19.12375 32.34 -19.2475 31.68 -19.375 31 C-20.22525161 28.27919486 -21.27619463 26.27788567 -23 24 C-25.59122743 23.11341534 -25.59122743 23.11341534 -28 23 Z M-17 27 C-17 28.32 -17 29.64 -17 31 C-16.34 30.67 -15.68 30.34 -15 30 C-15 29.01 -15 28.02 -15 27 C-15.66 27 -16.32 27 -17 27 Z M-11 27 C-11 28.65 -11 30.3 -11 32 C-10.01 32.33 -9.02 32.66 -8 33 C-8 31.35 -8 29.7 -8 28 C-8.99 27.67 -9.98 27.34 -11 27 Z M-5 31 C-4.67 31.66 -4.34 32.32 -4 33 C-3.67 32.34 -3.34 31.68 -3 31 C-3.66 31 -4.32 31 -5 31 Z M-11 33 C-11.33 34.98 -11.66 36.96 -12 39 C-11.01 38.01 -10.02 37.02 -9 36 C-9.33 35.01 -9.66 34.02 -10 33 C-10.33 33 -10.66 33 -11 33 Z M-11 39 C-11 40.65 -11 42.3 -11 44 C-10.67 44 -10.34 44 -10 44 C-10 42.35 -10 40.7 -10 39 C-10.33 39 -10.66 39 -11 39 Z " fill="#B1B4B0" transform="translate(108,58)"/>
<path d="M0 0 C9.0749855 -0.09262065 18.14980868 -0.16372426 27.22516346 -0.20724869 C31.43909697 -0.22813678 35.65270748 -0.25647611 39.86645508 -0.30175781 C43.93187833 -0.34517291 47.99699064 -0.3691279 52.06262779 -0.37950897 C53.61483342 -0.38690823 55.16702175 -0.40135723 56.71909523 -0.42292023 C58.89098707 -0.45189829 61.06158899 -0.45595861 63.23364258 -0.45410156 C64.47052322 -0.46298401 65.70740387 -0.47186646 66.98176575 -0.48101807 C70 0 70 0 71.86039734 1.84088135 C73.5432879 5.02932633 74.17528918 7.68878403 74.25 11.25 C74.27578125 11.97703125 74.3015625 12.7040625 74.328125 13.453125 C74 16 74 16 71 23 C80.57 23 90.14 23 100 23 C100 25.97 100 28.94 100 32 C97.92138672 31.95166016 97.92138672 31.95166016 95.80078125 31.90234375 C86.05041758 31.3995203 86.05041758 31.3995203 77.55859375 35.0703125 C76.33929331 37.39244289 75.51849694 39.43344014 75 42 C73.68 42 72.36 42 71 42 C70.67 38.7 70.34 35.4 70 32 C29.41 31.67 -11.18 31.34 -53 31 C-52.34 30.34 -51.68 29.68 -51 29 C-49.68 29 -48.36 29 -47 29 C-47 27.68 -47 26.36 -47 25 C-30.99540492 24.37762667 -15.01798393 23.82047091 1 24 C1 23.34 1 22.68 1 22 C22.45 21.67 43.9 21.34 66 21 C66 14.73 66 8.46 66 2 C44.22 2 22.44 2 0 2 C0 1.34 0 0.68 0 0 Z " fill="#A96E4F" transform="translate(125,149)"/>
<path d="M0 0 C3.63 0 7.26 0 11 0 C11.12375 2.35125 11.12375 2.35125 11.25 4.75 C11.66640884 8.84535697 11.66640884 8.84535697 13.6875 12.375 C15.50300287 13.65075877 17.341246 14.894164 19.1875 16.125 C22 18 22 18 23 20 C24.10169253 30.29658786 21.6268593 40.89991519 20 51 C10.76 51 1.52 51 -8 51 C-13.9378882 24.27950311 -13.9378882 24.27950311 -10.375 18.25 C-8 16 -8 16 -4.875 14.125 C-1.18136186 11.39491964 -0.78159009 9.45506349 0 5 C0 3.35 0 1.7 0 0 Z " fill="#0A909D" transform="translate(87,121)"/>
<path d="M0 0 C0 2.16676682 -0.0238139 4.33357856 -0.0625 6.5 C-0.17508557 9.97347545 -0.17508557 9.97347545 1 13 C-1.31 13 -3.62 13 -6 13 C-6 13.66 -6 14.32 -6 15 C15.78 15 37.56 15 60 15 C60 21.27 60 27.54 60 34 C38.22 34 16.44 34 -6 34 C-6 33.67 -6 33.34 -6 33 C-4.02 33 -2.04 33 0 33 C0 27.72 0 22.44 0 17 C-2.31 16.67 -4.62 16.34 -7 16 C-7.33 15.01 -7.66 14.02 -8 13 C-7.34 12.34 -6.68 11.68 -6 11 C-5.01 11 -4.02 11 -3 11 C-2.95101562 10.37351563 -2.90203125 9.74703125 -2.8515625 9.1015625 C-2.77679688 8.28429687 -2.70203125 7.46703125 -2.625 6.625 C-2.55539063 5.81289062 -2.48578125 5.00078125 -2.4140625 4.1640625 C-2 2 -2 2 0 0 Z " fill="#E5D3CC" transform="translate(131,136)"/>
<path d="M0 0 C1.51171875 1.0703125 1.51171875 1.0703125 3 3 C3.14453125 6.1171875 3.14453125 6.1171875 2.8125 9.875 C2.71582031 11.08929688 2.61914062 12.30359375 2.51953125 13.5546875 C1.8375009 19.39040584 0.89340259 25.19288318 0 31 C25.41 31 50.82 31 77 31 C77 31.33 77 31.66 77 32 C57.2 32 37.4 32 17 32 C17 32.66 17 33.32 17 34 C0.99927319 35.11586638 -14.96608986 35.10778821 -31 35 C-31 36.32 -31 37.64 -31 39 C-32.98 39.495 -32.98 39.495 -35 40 C4.93 40.33 44.86 40.66 86 41 C86 41.33 86 41.66 86 42 C45.41 42 4.82 42 -37 42 C-37 45.96 -37 49.92 -37 54 C-38.65 54 -40.3 54 -42 54 C-42.66 52.35 -43.32 50.7 -44 49 C-44.66 49 -45.32 49 -46 49 C-46.66 47.02 -47.32 45.04 -48 43 C-54.6 43 -61.2 43 -68 43 C-69.20272819 40.59454362 -69.10071472 39.05003047 -69.0625 36.375 C-69.05347656 35.55773437 -69.04445312 34.74046875 -69.03515625 33.8984375 C-69.02355469 33.27195313 -69.01195312 32.64546875 -69 32 C-64.15946556 31.19369673 -59.65435169 30.93180616 -54.75390625 31.12109375 C-54.09792953 31.14470474 -53.44195282 31.16831573 -52.76609802 31.19264221 C-50.69796255 31.26841126 -48.63028696 31.35280013 -46.5625 31.4375 C-45.14911006 31.49080795 -43.73569856 31.54354753 -42.32226562 31.59570312 C-38.88123685 31.72390614 -35.44056469 31.85983473 -32 32 C-32.1429248 31.1946582 -32.28584961 30.38931641 -32.43310547 29.55957031 C-32.61760254 28.49319336 -32.80209961 27.42681641 -32.9921875 26.328125 C-33.1763623 25.2752832 -33.36053711 24.22244141 -33.55029297 23.13769531 C-34.13915137 19.02911322 -34.13811018 15.14330547 -34 11 C-32.43102297 13.82527536 -31.68815795 16.11842048 -31.3671875 19.328125 C-31.25286377 20.4094873 -31.25286377 20.4094873 -31.13623047 21.51269531 C-31.05002441 22.41600586 -30.96381836 23.31931641 -30.875 24.25 C-30.58625 27.1375 -30.2975 30.025 -30 33 C-20.76 33 -11.52 33 -2 33 C-1.67 29.04 -1.34 25.08 -1 21 C-0.7215625 19.0509375 -0.7215625 19.0509375 -0.4375 17.0625 C0.33007471 11.41362984 0.07802377 5.68706621 0 0 Z " fill="#BFA289" transform="translate(109,139)"/>
<path d="M0 0 C2 3 2 3 1.5 5.9375 C0.96258996 9.22913648 1.21870365 10.2756644 3 13 C2.01 13.66 1.02 14.32 0 15 C-0.99 14.67 -1.98 14.34 -3 14 C-2.53146378 16.99405579 -2.53146378 16.99405579 -1 20 C2.38472742 21.30181824 5.62460181 21.93375326 9.1875 22.5625 C12.95651892 24.48888745 13.87123636 26.61408186 15.3828125 30.48046875 C16.62524654 35.55243051 15.62264273 40.13207182 14 45 C27.86 45.495 27.86 45.495 42 46 C42 49.3 42 52.6 42 56 C41.01 56.99 41.01 56.99 40 58 C37.92475061 57.91657289 35.84914252 57.82386711 33.77807617 57.66796875 C26.03565809 56.91426702 26.03565809 56.91426702 19.4296875 60.21875 C17.64294475 62.94122786 17.64294475 62.94122786 16.38671875 65.8125 C15.70029297 66.8953125 15.70029297 66.8953125 15 68 C12.39453125 68.375 12.39453125 68.375 10 68 C7.59629915 65.59629915 8.375395 61.37855504 8 58 C-31.6 57.67 -71.2 57.34 -112 57 C-112 60.3 -112 63.6 -112 67 C-112.33 67 -112.66 67 -113 67 C-113 63.37 -113 59.74 -113 56 C-72.08 56 -31.16 56 11 56 C11 59.3 11 62.6 11 66 C12.32 66 13.64 66 15 66 C15.268125 65.278125 15.53625 64.55625 15.8125 63.8125 C16.204375 62.884375 16.59625 61.95625 17 61 C17.309375 60.1234375 17.61875 59.246875 17.9375 58.34375 C20 56 20 56 22.11791992 55.59838867 C24.82354434 55.50643112 27.48313102 55.5655125 30.1875 55.6875 C31.59805664 55.72133789 31.59805664 55.72133789 33.03710938 55.75585938 C35.35875154 55.8147843 37.67957597 55.90446562 40 56 C40 53.03 40 50.06 40 47 C30.43 47 20.86 47 11 47 C11.66 44.69 12.32 42.38 13 40 C13.54279438 35.59420147 13.21093672 31.7874971 12.0625 27.5 C10.11496088 24.58040697 10.11496088 24.58040697 6.10961914 24.36352539 C0.475608 23.88303503 -5.16487441 23.77378456 -10.81640625 23.68359375 C-11.91347397 23.66281265 -13.01054169 23.64203156 -14.14085388 23.62062073 C-17.61467769 23.55570203 -21.08857132 23.49651078 -24.5625 23.4375 C-26.9303455 23.39425981 -29.29818418 23.35064385 -31.66601562 23.30664062 C-37.44394049 23.20008048 -43.22193495 23.09865376 -49 23 C-49 19.7 -49 16.4 -49 13 C-32.5 13 -16 13 1 13 C1 12.34 1 11.68 1 11 C0.34 11 -0.32 11 -1 11 C-0.67 7.37 -0.34 3.74 0 0 Z " fill="#DFD4C3" transform="translate(185,125)"/>
<path d="M0 0 C85.90334457 -0.71220885 85.90334457 -0.71220885 124 5 C124 5.33 124 5.66 124 6 C117.62035254 7.15904277 111.38423548 7.09618339 104.91430664 7.02172852 C103.11323959 7.0073172 103.11323959 7.0073172 101.27578735 6.99261475 C98.00146251 6.96538633 94.7272241 6.93348467 91.45296407 6.89946485 C88.02437546 6.8649599 84.59573675 6.83648527 81.167099 6.80735779 C74.68262492 6.75136033 68.19821357 6.6899774 61.71380752 6.62663645 C54.32809087 6.55475527 46.94232419 6.48891305 39.55654728 6.42356598 C24.37096654 6.28907399 9.18546484 6.14703756 -6 6 C-5.34 5.34 -4.68 4.68 -4 4 C-2.68 4 -1.36 4 0 4 C0 2.68 0 1.36 0 0 Z " fill="#B57C58" transform="translate(78,174)"/>
<path d="M0 0 C3.63 0 7.26 0 11 0 C11.12375 2.35125 11.12375 2.35125 11.25 4.75 C11.66640884 8.84535697 11.66640884 8.84535697 13.6875 12.375 C15.50300287 13.65075877 17.341246 14.894164 19.1875 16.125 C22 18 22 18 23 20 C24.10169253 30.29658786 21.6268593 40.89991519 20 51 C10.76 51 1.52 51 -8 51 C-13.9378882 24.27950311 -13.9378882 24.27950311 -10.375 18.25 C-8 16 -8 16 -4.875 14.125 C-1.18136186 11.39491964 -0.78159009 9.45506349 0 5 C0 3.35 0 1.7 0 0 Z M5 4 C4.82984375 4.60328125 4.6596875 5.2065625 4.484375 5.828125 C3.07236514 10.48475326 2.01486843 13.95843301 -2 17 C-2.70125 17.33 -3.4025 17.66 -4.125 18 C-6.58006327 19.30936708 -6.99511617 20.43039669 -8 23 C-8.11103824 25.24325894 -8.11103824 25.24325894 -7.79296875 27.58984375 C-7.70080078 28.45673828 -7.60863281 29.32363281 -7.51367188 30.21679688 C-7.3522168 31.56354492 -7.3522168 31.56354492 -7.1875 32.9375 C-7.09146484 33.83146484 -6.99542969 34.72542969 -6.89648438 35.64648438 C-6.43307276 39.8358498 -5.82880233 43.85598834 -5 48 C1.93 48 8.86 48 16 48 C16.7425 43.2665625 16.7425 43.2665625 17.5 38.4375 C17.65662109 37.4570874 17.81324219 36.4766748 17.97460938 35.46655273 C19.15248248 28.25618668 19.15248248 28.25618668 19 21 C17.12629117 18.95794066 17.12629117 18.95794066 14.5625 17.6875 C10.05695509 15.11391019 10.05695509 15.11391019 9 13 C8.34 13 7.68 13 7 13 C7 10.03 7 7.06 7 4 C6.34 4 5.68 4 5 4 Z " fill="#13A5BA" transform="translate(87,121)"/>
<path d="M0 0 C3 1 3 1 4.6875 3.9375 C6 7 6 7 6 9 C4 9 4 9 2.375 7.5 C1.92125 7.005 1.4675 6.51 1 6 C-1.33479983 9.64812473 -1.38018947 12.74187788 -1 17 C0.35885116 19.40083438 0.35885116 19.40083438 2 21 C1.34 21.33 0.68 21.66 0 22 C0 22.99 0 23.98 0 25 C0.66 25.33 1.32 25.66 2 26 C2.33333333 28.33333333 2.66666667 30.66666667 3 33 C3.88366842 35.72701975 4.92613061 38.3386715 6 41 C6.66 41 7.32 41 8 41 C8.33 42.32 8.66 43.64 9 45 C9 43.02 9 41.04 9 39 C9.33 39 9.66 39 10 39 C10 45.27 10 51.54 10 58 C9.34 58 8.68 58 8 58 C8 58.66 8 59.32 8 60 C6.02 60.495 6.02 60.495 4 61 C4.66 61.99 5.32 62.98 6 64 C6.65702553 69.09194787 6.65702553 69.09194787 6 72 C3.97475699 74.02524301 2.31336645 75.42517307 0 77 C-3.57736151 79.94138613 -5.2353047 81.75907041 -5.8125 86.3125 C-5.874375 87.529375 -5.93625 88.74625 -6 90 C-6.33 90 -6.66 90 -7 90 C-7.62151394 82.07569721 -7.62151394 82.07569721 -5.375 78.1875 C-2.75413188 75.77354252 -0.02236384 73.88058195 3 72 C4.35618499 70.87465895 4.35618499 70.87465895 4.0625 67.9375 C4.041875 66.968125 4.02125 65.99875 4 65 C3.34 64.67 2.68 64.34 2 64 C1.8125 61.625 1.8125 61.625 2 59 C2.99 58.34 3.98 57.68 5 57 C5.33 56.01 5.66 55.02 6 54 C5.34 54 4.68 54 4 54 C3.9175 52.948125 3.835 51.89625 3.75 50.8125 C2.95023645 44.43724196 1.60428146 36.28702552 -2.4453125 31.17578125 C-4.11216518 29.78481853 -4.11216518 29.78481853 -7 29 C-9.94216583 28.01927806 -11.1589476 27.42243737 -13 25 C-14.14077657 21.57767028 -14.09815117 18.91326783 -14.0625 15.3125 C-14.05347656 14.13300781 -14.04445313 12.95351562 -14.03515625 11.73828125 C-14.02355469 10.83464844 -14.01195313 9.93101563 -14 9 C-13.34 8.67 -12.68 8.34 -12 8 C-8.63050557 9.68474722 -7.12055614 10.8191658 -5 14 C-4.72285156 13.07316406 -4.44570312 12.14632812 -4.16015625 11.19140625 C-3.79792969 9.99386719 -3.43570313 8.79632813 -3.0625 7.5625 C-2.52302734 5.77005859 -2.52302734 5.77005859 -1.97265625 3.94140625 C-1 1 -1 1 0 0 Z " fill="#CBD9D7" transform="translate(81,60)"/>
<path d="M0 0 C3 0 3 0 4.9375 1.875 C5.618125 2.57625 6.29875 3.2775 7 4 C9.13309192 5.23512079 9.13309192 5.23512079 11 6 C11.28209832 13.19350723 10.18312112 19.90127326 9 27 C4.38 27 -0.24 27 -5 27 C-5.50567729 24.43850372 -6.00470132 21.87600535 -6.5 19.3125 C-6.64308594 18.59126953 -6.78617187 17.87003906 -6.93359375 17.12695312 C-7.65571887 13.36158641 -8.1824976 9.85526187 -8 6 C-6.20963542 5.0234375 -4.41927083 4.046875 -2.62890625 3.0703125 C-0.83381685 2.08589976 -0.83381685 2.08589976 0 0 Z " fill="#077A7C" transform="translate(91,138)"/>
<path d="M0 0 C9.0749855 -0.09262065 18.14980868 -0.16372426 27.22516346 -0.20724869 C31.43909697 -0.22813678 35.65270748 -0.25647611 39.86645508 -0.30175781 C43.93187833 -0.34517291 47.99699064 -0.3691279 52.06262779 -0.37950897 C53.61483342 -0.38690823 55.16702175 -0.40135723 56.71909523 -0.42292023 C58.89098707 -0.45189829 61.06158899 -0.45595861 63.23364258 -0.45410156 C64.47052322 -0.46298401 65.70740387 -0.47186646 66.98176575 -0.48101807 C70 0 70 0 71.86039734 1.84088135 C74.32589224 6.51206738 74.51985462 10.82788711 74 16 C71.90909091 21.09090909 71.90909091 21.09090909 70 23 C67.85331715 23.12396871 65.70257613 23.1780072 63.55249023 23.20532227 C62.54277664 23.22017166 62.54277664 23.22017166 61.51266479 23.23532104 C59.27801075 23.26701838 57.04333542 23.29172574 54.80859375 23.31640625 C53.26302016 23.33696869 51.71745228 23.35796496 50.17189026 23.37937927 C46.09649268 23.43467337 42.02104375 23.48405013 37.94555664 23.53222656 C33.7898296 23.58238817 29.63417748 23.63810204 25.47851562 23.69335938 C17.3190737 23.80103064 9.15956924 23.90245552 1 24 C1 23.34 1 22.68 1 22 C22.45 21.67 43.9 21.34 66 21 C66 14.73 66 8.46 66 2 C44.22 2 22.44 2 0 2 C0 1.34 0 0.68 0 0 Z " fill="#A35041" transform="translate(125,149)"/>
<path d="M0 0 C5.37514905 -0.04935509 10.75016685 -0.08569802 16.12548828 -0.10986328 C17.95493873 -0.11993484 19.78437303 -0.13359276 21.61376953 -0.15087891 C24.23994934 -0.17507677 26.86591675 -0.18647132 29.4921875 -0.1953125 C30.31306854 -0.20563507 31.13394958 -0.21595764 31.97970581 -0.22659302 C33.98789142 -0.22699184 35.99555382 -0.1224954 38 0 C40 2 40 2 40.1875 5.9375 C40.16190316 8.67636155 39.88664156 10.34007532 39 13 C39.66 13 40.32 13 41 13 C41 13.66 41 14.32 41 15 C24.5 15 8 15 -9 15 C-9 18.3 -9 21.6 -9 25 C7.5 25 24 25 41 25 C41 25.33 41 25.66 41 26 C33.34625576 26.07586651 25.69260793 26.12852217 18.03857422 26.16479492 C15.43306861 26.17991108 12.82758856 26.20040432 10.22216797 26.22631836 C6.48398544 26.26257688 2.74613835 26.27969798 -0.9921875 26.29296875 C-2.16304901 26.30845261 -3.33391052 26.32393646 -4.54025269 26.33988953 C-5.62122223 26.34011612 -6.70219177 26.34034271 -7.81591797 26.34057617 C-8.77078094 26.34723801 -9.72564392 26.35389984 -10.70944214 26.36076355 C-11.46532623 26.24171158 -12.22121033 26.12265961 -13 26 C-15.45811625 22.31282562 -15.31118164 20.35654296 -15 16 C-13 13 -13 13 -11.16676331 12.49171448 C-10.43956589 12.43458786 -9.71236847 12.37746124 -8.96313477 12.31860352 C-8.15586945 12.25432159 -7.34860413 12.19003967 -6.51687622 12.12380981 C-2.53753617 11.92805869 1.42649047 11.87685382 5.41015625 11.90234375 C6.26306747 11.9037587 7.1159787 11.90517365 7.99473572 11.90663147 C10.68402816 11.91217061 13.37323328 11.9247112 16.0625 11.9375 C17.90038941 11.94252288 19.73828015 11.9470844 21.57617188 11.95117188 C26.05081422 11.96212 30.52539238 11.97934161 35 12 C35 8.37 35 4.74 35 1 C23.45 1 11.9 1 0 1 C0 0.67 0 0.34 0 0 Z " fill="#A2B180" transform="translate(145,123)"/>
<path d="M0 0 C13.2 0 26.4 0 40 0 C40 1.98 40 3.96 40 6 C33.73 6 27.46 6 21 6 C20.67 7.65 20.34 9.3 20 11 C18.82017501 13.44967679 17.41573443 15.67088852 16 18 C14.68 18 13.36 18 12 18 C12.01160156 17.21753906 12.02320313 16.43507812 12.03515625 15.62890625 C12.04417969 14.61699219 12.05320313 13.60507813 12.0625 12.5625 C12.07410156 11.55316406 12.08570313 10.54382813 12.09765625 9.50390625 C12.28612676 7.05978933 12.28612676 7.05978933 11 6 C8.22441577 5.71520878 5.44872155 5.55156981 2.6640625 5.37890625 C0 5 0 5 -3 3 C-2.01 3 -1.02 3 0 3 C0 2.01 0 1.02 0 0 Z " fill="#A16A45" transform="translate(184,173)"/>
<path d="M0 0 C1.65 0.33 3.3 0.66 5 1 C5 1.99 5 2.98 5 4 C5.99 4 6.98 4 8 4 C11.18010568 14.96036422 11.67200625 25.6559403 12 37 C12.66 37 13.32 37 14 37 C14 34.69 14 32.38 14 30 C14.33 30 14.66 30 15 30 C15 36.6 15 43.2 15 50 C15.66 49.01 16.32 48.02 17 47 C17 49.64 17 52.28 17 55 C18.65 55 20.3 55 22 55 C20.02 57.475 20.02 57.475 18 60 C18 58.68 18 57.36 18 56 C14.37 56 10.74 56 7 56 C7.33 57.65 7.66 59.3 8 61 C4 56.125 4 56.125 4 55 C5.65 55 7.3 55 9 55 C9 54.34 9 53.68 9 53 C9.66 53 10.32 53 11 53 C10.88576707 49.93675381 10.75902148 46.87489086 10.625 43.8125 C10.5940625 42.94818359 10.563125 42.08386719 10.53125 41.19335938 C10.32364913 36.67804043 9.91775866 33.15644835 8 29 C8.020625 28.01 8.04125 27.02 8.0625 26 C7.96017352 21.0883288 5.68447902 18.71707326 2.375 15.25 C1.59125 14.5075 0.8075 13.765 0 13 C-1 12 -1 12 -1.125 8.75 C-1.02213207 5.66396211 -0.72382033 2.98575886 0 0 Z " fill="#37797C" transform="translate(80,65)"/>
<path d="M0 0 C8.24895995 0.34586834 8.24895995 0.34586834 10.9375 2.6875 C11.288125 3.450625 11.63875 4.21375 12 5 C12.4125 5.886875 12.825 6.77375 13.25 7.6875 C14.44647269 12.97192105 13.70252288 17.89243136 12 23 C25.86 23.495 25.86 23.495 40 24 C40 27.3 40 30.6 40 34 C39.01 34.99 39.01 34.99 38 36 C35.92475061 35.91657289 33.84914252 35.82386711 31.77807617 35.66796875 C24.03565809 34.91426702 24.03565809 34.91426702 17.4296875 38.21875 C15.64294475 40.94122786 15.64294475 40.94122786 14.38671875 43.8125 C13.92910156 44.534375 13.47148437 45.25625 13 46 C10.39453125 46.375 10.39453125 46.375 8 46 C5.59629915 43.59629915 6.375395 39.37855504 6 36 C-33.6 35.67 -73.2 35.34 -114 35 C-114 38.3 -114 41.6 -114 45 C-114.33 45 -114.66 45 -115 45 C-115 41.37 -115 37.74 -115 34 C-74.08 34 -33.16 34 9 34 C9 37.3 9 40.6 9 44 C10.32 44 11.64 44 13 44 C13.4021875 42.9171875 13.4021875 42.9171875 13.8125 41.8125 C14.204375 40.884375 14.59625 39.95625 15 39 C15.309375 38.1234375 15.61875 37.246875 15.9375 36.34375 C18 34 18 34 20.11791992 33.59838867 C22.82354434 33.50643112 25.48313102 33.5655125 28.1875 33.6875 C29.59805664 33.72133789 29.59805664 33.72133789 31.03710938 33.75585938 C33.35875154 33.8147843 35.67957597 33.90446562 38 34 C38 31.03 38 28.06 38 25 C28.43 25 18.86 25 9 25 C9.66 22.69 10.32 20.38 11 18 C11.54575463 13.57017342 11.22678784 9.79375743 10 5.5 C7.74033897 2.67542371 7.22801067 2.57234122 3.8125 2.125 C2.554375 2.08375 1.29625 2.0425 0 2 C0 1.34 0 0.68 0 0 Z " fill="#FEFAF6" transform="translate(187,147)"/>
<path d="M0 0 C0.99 0.33 1.98 0.66 3 1 C3.05437607 2.58294782 3.09296271 4.16644256 3.125 5.75 C3.14820312 6.63171875 3.17140625 7.5134375 3.1953125 8.421875 C2.99139502 11.1135858 2.36551721 12.69904974 1 15 C0.34 15 -0.32 15 -1 15 C-1.33 15.99 -1.66 16.98 -2 18 C-2.66 17.67 -3.32 17.34 -4 17 C-3.67 18.32 -3.34 19.64 -3 21 C-3.99 21.33 -4.98 21.66 -6 22 C-9.59003583 24.82074244 -11.2631949 26.82252792 -11.8125 31.3125 C-11.874375 32.529375 -11.93625 33.74625 -12 35 C-12.33 35 -12.66 35 -13 35 C-13.83042381 28.83113744 -14.10822827 22.71672168 -14.125 16.5 C-14.12951172 15.79359375 -14.13402344 15.0871875 -14.13867188 14.359375 C-14.12381213 9.24762427 -14.12381213 9.24762427 -13 7 C-10.525 7.99 -10.525 7.99 -8 9 C-5.47411298 6.63707344 -4.11179163 5.33537489 -3 2 C-2.01 1.34 -1.02 0.68 0 0 Z " fill="#C14846" transform="translate(108,58)"/>
<path d="M0 0 C1.29640378 0.59393382 2.58698839 1.20057989 3.875 1.8125 C4.59429687 2.14894531 5.31359375 2.48539063 6.0546875 2.83203125 C8 4 8 4 10 7 C11.50669877 16.99900095 8.57733802 28.20735978 7 38 C-2.24 38 -11.48 38 -21 38 C-25.78431373 16.47058824 -25.78431373 16.47058824 -25 8 C-23.48046875 6.2890625 -23.48046875 6.2890625 -22 5 C-22.02320312 5.87140625 -22.04640625 6.7428125 -22.0703125 7.640625 C-22.17815395 14.75816084 -21.83256413 21.39389766 -20.4375 28.37890625 C-20.00464729 30.97215778 -19.92409428 33.37650841 -20 36 C-19.36707031 35.83628906 -18.73414062 35.67257813 -18.08203125 35.50390625 C-13.93248907 34.82546399 -9.88358502 34.89444625 -5.6875 34.9375 C-4.85154297 34.94201172 -4.01558594 34.94652344 -3.15429688 34.95117188 C-1.10283351 34.96289452 0.94859273 34.98082797 3 35 C3.34197019 31.87588408 3.67192253 28.75060292 4 25.625 C4.14308594 24.31982422 4.14308594 24.31982422 4.2890625 22.98828125 C5.35670206 13.9955649 5.35670206 13.9955649 5 5 C2.6450037 2.91783124 2.6450037 2.91783124 0 2 C0 1.34 0 0.68 0 0 Z " fill="#23A2AF" transform="translate(100,134)"/>
<path d="M0 0 C0 2.16676682 -0.0238139 4.33357856 -0.0625 6.5 C-0.17508557 9.97347545 -0.17508557 9.97347545 1 13 C-1.31 13 -3.62 13 -6 13 C-6 13.66 -6 14.32 -6 15 C15.78 15 37.56 15 60 15 C60 21.27 60 27.54 60 34 C58.35 34 56.7 34 55 34 C54.49645133 31.56318413 53.99703244 29.12564561 53.5 26.6875 C53.35691406 25.99720703 53.21382812 25.30691406 53.06640625 24.59570312 C52.47374956 21.67475227 52 18.98891878 52 16 C32.53 16 13.06 16 -7 16 C-7.33 15.01 -7.66 14.02 -8 13 C-7.34 12.34 -6.68 11.68 -6 11 C-5.01 11 -4.02 11 -3 11 C-2.95101562 10.37351563 -2.90203125 9.74703125 -2.8515625 9.1015625 C-2.77679688 8.28429687 -2.70203125 7.46703125 -2.625 6.625 C-2.55539063 5.81289062 -2.48578125 5.00078125 -2.4140625 4.1640625 C-2 2 -2 2 0 0 Z " fill="#EABAB1" transform="translate(131,136)"/>
<path d="M0 0 C0.90720795 0.02361099 1.81441589 0.04722198 2.74911499 0.07154846 C5.65321201 0.14826146 8.55704747 0.2322529 11.4609375 0.31640625 C13.42707044 0.36961929 15.39321623 0.42235974 17.359375 0.47460938 C22.18506218 0.60388694 27.01052712 0.73969351 31.8359375 0.87890625 C32.4959375 2.19890625 33.1559375 3.51890625 33.8359375 4.87890625 C33.1759375 4.54890625 32.5159375 4.21890625 31.8359375 3.87890625 C28.99385724 3.72184294 26.17256443 3.62041055 23.328125 3.5625 C22.48750519 3.5417189 21.64688538 3.52093781 20.78079224 3.49952698 C18.09092515 3.43405186 15.40095907 3.37515605 12.7109375 3.31640625 C10.88931261 3.27321909 9.06769779 3.22960473 7.24609375 3.18554688 C2.77614356 3.07837257 -1.69390636 2.9770994 -6.1640625 2.87890625 C-6.1640625 5.51890625 -6.1640625 8.15890625 -6.1640625 10.87890625 C-5.12765625 10.92789063 -4.09125 10.976875 -3.0234375 11.02734375 C-1.65362042 11.10240222 -0.28383002 11.17794872 1.0859375 11.25390625 C1.76785156 11.28484375 2.44976562 11.31578125 3.15234375 11.34765625 C6.82332788 11.56149999 9.69845366 11.8896768 12.8359375 13.87890625 C12.8359375 14.20890625 12.8359375 14.53890625 12.8359375 14.87890625 C-3.0040625 15.37390625 -3.0040625 15.37390625 -19.1640625 15.87890625 C-19.1640625 15.54890625 -19.1640625 15.21890625 -19.1640625 14.87890625 C-13.7190625 14.38390625 -13.7190625 14.38390625 -8.1640625 13.87890625 C-7.8340625 10.90890625 -7.5040625 7.93890625 -7.1640625 4.87890625 C-8.8140625 4.54890625 -10.4640625 4.21890625 -12.1640625 3.87890625 C-11.8340625 2.88890625 -11.5040625 1.89890625 -11.1640625 0.87890625 C-7.72433219 -0.8409589 -3.77535132 -0.11513434 0 0 Z " fill="#B3D0DD" transform="translate(151.1640625,120.12109375)"/>
<path d="M0 0 C14.85 0 29.7 0 45 0 C45 2.31 45 4.62 45 7 C39.06 7 33.12 7 27 7 C27 6.67 27 6.34 27 6 C33.435 5.505 33.435 5.505 40 5 C38.31699331 3.31699331 36.17991273 3.77190923 33.87109375 3.68359375 C32.83662109 3.64169922 31.80214844 3.59980469 30.73632812 3.55664062 C29.64771484 3.51732422 28.55910156 3.47800781 27.4375 3.4375 C26.34501953 3.39431641 25.25253906 3.35113281 24.12695312 3.30664062 C21.41810436 3.20017932 18.70916008 3.09816484 16 3 C16 2.34 16 1.68 16 1 C15.41992188 1.08378906 14.83984375 1.16757813 14.2421875 1.25390625 C9.57684697 1.86209421 5.64557883 2.07205665 1 1 C1 3.31 1 5.62 1 8 C8.26 8 15.52 8 23 8 C23 8.33 23 8.66 23 9 C15.41 9 7.82 9 0 9 C0 6.03 0 3.06 0 0 Z " fill="#DAD8BE" transform="translate(136,138)"/>
<path d="M0 0 C0.66 0.33 1.32 0.66 2 1 C0.02 2.65 -1.96 4.3 -4 6 C-5.32 5.01 -6.64 4.02 -8 3 C-8.05379226 5.95857409 -8.09357093 8.91617721 -8.125 11.875 C-8.14175781 12.71675781 -8.15851563 13.55851562 -8.17578125 14.42578125 C-8.18222656 15.23144531 -8.18867187 16.03710938 -8.1953125 16.8671875 C-8.20578613 17.61081543 -8.21625977 18.35444336 -8.22705078 19.12060547 C-8.1665597 21.24490235 -8.1665597 21.24490235 -6 23 C-5.19057233 26.2377107 -4.93808771 28.63626529 -5.5 31.9375 C-6.17680136 35.02310438 -6.17680136 35.02310438 -5.4375 38.1875 C-4.85190854 43.29051127 -5.54231704 48.07286109 -7 53 C-7.99 53.495 -7.99 53.495 -9 54 C-9 49.38 -9 44.76 -9 40 C-9.66 40 -10.32 40 -11 40 C-10.979375 38.865625 -10.95875 37.73125 -10.9375 36.5625 C-10.58422523 33.18424326 -10.58422523 33.18424326 -12 32 C-12.0450286 30.33394172 -12.03874921 28.66621616 -12 27 C-12 24.52048322 -12.03489531 22.04037906 -12.125 19.5625 C-12.14748682 13.63722335 -10.99424564 7.82343875 -10 2 C-8.1875 1.375 -8.1875 1.375 -6 1 C-5.01 1.66 -4.02 2.32 -3 3 C-2.01 2.01 -1.02 1.02 0 0 Z " fill="#F3DEDB" transform="translate(103,62)"/>
<path d="M0 0 C1.51171875 1.0703125 1.51171875 1.0703125 3 3 C3.14453125 6.1171875 3.14453125 6.1171875 2.8125 9.875 C2.71582031 11.08929688 2.61914062 12.30359375 2.51953125 13.5546875 C1.8375009 19.39040584 0.89340259 25.19288318 0 31 C25.41 31 50.82 31 77 31 C77 31.33 77 31.66 77 32 C57.2 32 37.4 32 17 32 C17 32.66 17 33.32 17 34 C10.73 34 4.46 34 -2 34 C-1.0625 21.14285714 -1.0625 21.14285714 -0.4375 17 C0.33847347 11.37419234 0.07772045 5.66495721 0 0 Z " fill="#CAADA8" transform="translate(109,139)"/>
<path d="M0 0 C0.77373974 10.78077374 0.77373974 10.78077374 -2.0625 15.25 C-5.63445029 17.37797038 -7.90944253 17.40103505 -12 17 C-10.3971349 6.1384799 -10.3971349 6.1384799 -6 2 C-3.77661117 0.62673043 -2.60417425 0 0 0 Z " fill="#C26162" transform="translate(119,72)"/>
<path d="M0 0 C4.02331149 2.08692178 6.00714394 4.0125019 8.25 7.9375 C8.75015625 8.79214844 9.2503125 9.64679688 9.765625 10.52734375 C10.86573165 12.73103841 11.63051337 14.57116877 12 17 C11 18 11 18 7.6875 18.375 C4 18 4 18 1.625 15.625 C-0.49175283 12.20563004 -1.13793423 10.4837428 -1.125 6.5 C-1.12757812 5.7059375 -1.13015625 4.911875 -1.1328125 4.09375 C-1 2 -1 2 0 0 Z " fill="#BD6061" transform="translate(69,70)"/>
<path d="M0 0 C0 0.99 0 1.98 0 3 C-14.34370819 3.69241678 -28.6391479 4.1524147 -43 4 C-43 3.01 -43 2.02 -43 1 C-28.65507373 0.05269355 -14.37370111 -0.11995 0 0 Z " fill="#D3C6BF" transform="translate(176,153)"/>
<path d="M0 0 C0.99 0.66 1.98 1.32 3 2 C3.66 1.34 4.32 0.68 5 0 C4.45276317 3.37462715 3.9451 5.08235 2 8 C2 9.32 2 10.64 2 12 C2.66 12 3.32 12 4 12 C4.33 11.34 4.66 10.68 5 10 C4.4253379 14.78642607 3.01754357 18.53788787 0.9375 22.875 C0.38964844 24.02742188 -0.15820312 25.17984375 -0.72265625 26.3671875 C-1.35494141 27.67042969 -1.35494141 27.67042969 -2 29 C-2.33 27.68 -2.66 26.36 -3 25 C-3.33 25.66 -3.66 26.32 -4 27 C-5.61949011 24.42786866 -6.04408751 23.32330841 -5.625 20.25 C-5.41875 19.5075 -5.2125 18.765 -5 18 C-4.34 18 -3.68 18 -3 18 C-3.57452746 14.06924356 -3.57452746 14.06924356 -6 11 C-4.47005208 9.76302083 -2.94010417 8.52604167 -1.41015625 7.2890625 C0.13266437 6.0333609 0.13266437 6.0333609 1 4 C0.60061233 1.90178785 0.60061233 1.90178785 0 0 Z M0 16 C0.33 16.66 0.66 17.32 1 18 C1.33 17.34 1.66 16.68 2 16 C1.34 16 0.68 16 0 16 Z " fill="#BABDBA" transform="translate(103,73)"/>
<path d="M0 0 C1.65 0.33 3.3 0.66 5 1 C5 1.99 5 2.98 5 4 C5.99 4 6.98 4 8 4 C9.49297212 6.98594424 9.11755228 9.70853624 9 13 C8.67 13.66 8.34 14.32 8 15 C2.63157895 15.35789474 2.63157895 15.35789474 0.125 13.9375 C-2.32508818 9.71790369 -1.10092468 4.5413143 0 0 Z " fill="#8B3434" transform="translate(80,65)"/>
<path d="M0 0 C5.37514905 -0.04935509 10.75016685 -0.08569802 16.12548828 -0.10986328 C17.95493873 -0.11993484 19.78437303 -0.13359276 21.61376953 -0.15087891 C24.23994934 -0.17507677 26.86591675 -0.18647132 29.4921875 -0.1953125 C30.72350906 -0.21079636 30.72350906 -0.21079636 31.97970581 -0.22659302 C33.98789142 -0.22699184 35.99555382 -0.1224954 38 0 C40.60704898 2.60704898 40.23905333 4.47338241 40.265625 8.02734375 C40 10 40 10 38 13 C35.04935852 13.2208564 32.31631769 13.28060989 29.375 13.1875 C28.57320312 13.17396484 27.77140625 13.16042969 26.9453125 13.14648438 C24.96325622 13.11109051 22.98154449 13.05728234 21 13 C21 12.67 21 12.34 21 12 C25.62 12 30.24 12 35 12 C35 8.37 35 4.74 35 1 C23.45 1 11.9 1 0 1 C0 0.67 0 0.34 0 0 Z " fill="#4B758F" transform="translate(145,123)"/>
<path d="M0 0 C8.25 0.33 16.5 0.66 25 1 C25 1.33 25 1.66 25 2 C18.73 2 12.46 2 6 2 C6 2.99 6 3.98 6 5 C9.96 5 13.92 5 18 5 C18.33 5.99 18.66 6.98 19 8 C14.71 8 10.42 8 6 8 C6.020625 9.464375 6.04125 10.92875 6.0625 12.4375 C6.08392007 13.95832518 6.07179964 15.48071962 6 17 C5 18 5 18 1.4375 18.0625 C0.303125 18.041875 -0.83125 18.02125 -2 18 C-2 17.67 -2 17.34 -2 17 C-0.02 17 1.96 17 4 17 C4 11.72 4 6.44 4 1 C2.68 0.67 1.36 0.34 0 0 Z " fill="#EBE1DD" transform="translate(127,152)"/>
<path d="M0 0 C2.31 0 4.62 0 7 0 C7 5.94 7 11.88 7 18 C5.68 17.67 4.36 17.34 3 17 C2.49622232 14.73000175 1.99709981 12.45896997 1.5 10.1875 C1.08234375 8.29064453 1.08234375 8.29064453 0.65625 6.35546875 C0 3 0 3 0 0 Z " fill="#D6BDB6" transform="translate(183,152)"/>
<path d="M0 0 C0.99 0.33 1.98 0.66 3 1 C3.05437607 2.58294782 3.09296271 4.16644256 3.125 5.75 C3.14820312 6.63171875 3.17140625 7.5134375 3.1953125 8.421875 C2.99139502 11.1135858 2.36551721 12.69904974 1 15 C0.34 15 -0.32 15 -1 15 C-1.33 15.99 -1.66 16.98 -2 18 C-3.231394 15.53721199 -3.07159196 13.7204945 -3 11 C-4.32 10.67 -5.64 10.34 -7 10 C-6.33333333 8.66666667 -5.66666667 7.33333333 -5 6 C-4.5359375 4.948125 -4.5359375 4.948125 -4.0625 3.875 C-3 2 -3 2 0 0 Z " fill="#BC8484" transform="translate(108,58)"/>
<path d="M0 0 C1.32 0 2.64 0 4 0 C4 2.31 4 4.62 4 7 C5.03640625 7.04898438 6.0728125 7.09796875 7.140625 7.1484375 C8.51044208 7.22349597 9.88023248 7.29904247 11.25 7.375 C12.27287109 7.42140625 12.27287109 7.42140625 13.31640625 7.46875 C16.98739038 7.68259374 19.86251616 8.01077055 23 10 C23 10.33 23 10.66 23 11 C7.16 11.495 7.16 11.495 -9 12 C-9 11.67 -9 11.34 -9 11 C-3.555 10.505 -3.555 10.505 2 10 C2.33 7.03 2.66 4.06 3 1 C2.01 0.67 1.02 0.34 0 0 Z " fill="#DEE4E4" transform="translate(141,124)"/>
<path d="M0 0 C3 1 3 1 4.6875 3.9375 C6 7 6 7 6 9 C4 9 4 9 2.375 7.5 C1.92125 7.005 1.4675 6.51 1 6 C-1.33479983 9.64812473 -1.38018947 12.74187788 -1 17 C0.35885116 19.40083438 0.35885116 19.40083438 2 21 C1.34 21.33 0.68 21.66 0 22 C0 22.99 0 23.98 0 25 C0.66 25.33 1.32 25.66 2 26 C1.34 27.32 0.68 28.64 0 30 C-0.25394531 29.25234375 -0.50789063 28.5046875 -0.76953125 27.734375 C-1.11371094 26.74953125 -1.45789063 25.7646875 -1.8125 24.75 C-2.14894531 23.77546875 -2.48539062 22.8009375 -2.83203125 21.796875 C-3.94132042 19.14051698 -5.1693283 17.20310061 -7 15 C-6.67 14.34 -6.34 13.68 -6 13 C-5.67 13.33 -5.34 13.66 -5 14 C-4.58427734 12.60974609 -4.58427734 12.60974609 -4.16015625 11.19140625 C-3.79792969 9.99386719 -3.43570313 8.79632813 -3.0625 7.5625 C-2.70285156 6.36753906 -2.34320313 5.17257813 -1.97265625 3.94140625 C-1 1 -1 1 0 0 Z " fill="#F5E1E0" transform="translate(81,60)"/>
<path d="M0 0 C2.97 0 5.94 0 9 0 C9 2.31 9 4.62 9 7 C3.06 7 -2.88 7 -9 7 C-9 6.67 -9 6.34 -9 6 C-2.565 5.505 -2.565 5.505 4 5 C2.00383446 3.00383446 -1.81701963 3.59016573 -4.5625 3.4375 C-5.27341797 3.39431641 -5.98433594 3.35113281 -6.71679688 3.30664062 C-8.47761912 3.20028223 -10.2387832 3.09961154 -12 3 C-12 2.67 -12 2.34 -12 2 C-8.04 2 -4.08 2 0 2 C0 1.34 0 0.68 0 0 Z " fill="#BDB5A9" transform="translate(172,138)"/>
<path d="M0 0 C2.56578153 3.93279629 2.51345851 8.07729901 2.75 12.625 C2.80542969 13.40101562 2.86085938 14.17703125 2.91796875 14.9765625 C3.032822 16.98127381 3.02494216 18.99215623 3 21 C2.34 21.66 1.68 22.32 1 23 C-0.35240775 20.12613354 -1.00432956 18.20781866 -0.9375 15 C-1.01147346 11.44927408 -1.90388146 9.82169803 -4 7 C-4.66 6.67 -5.32 6.34 -6 6 C-6 5.34 -6 4.68 -6 4 C-4.35 4 -2.7 4 -1 4 C-0.67 2.68 -0.34 1.36 0 0 Z " fill="#B4ACAD" transform="translate(89,76)"/>
<path d="M0 0 C0.33 0 0.66 0 1 0 C0.90460938 0.91523437 0.80921875 1.83046875 0.7109375 2.7734375 C0.60007812 3.96195312 0.48921875 5.15046875 0.375 6.375 C0.20097656 8.15003906 0.20097656 8.15003906 0.0234375 9.9609375 C0.01570313 10.96382812 0.00796875 11.96671875 0 13 C0.66 13.66 1.32 14.32 2 15 C1.67028521 18.29714793 1.3773161 19.6226839 -1 22 C-1.3061773 24.93284872 -1.3061773 24.93284872 0 28 C2.48910712 30.01748683 5.15628178 31.53603572 8 33 C7.67 33.66 7.34 34.32 7 35 C5.51714758 34.04737966 4.03881799 33.08771595 2.5625 32.125 C1.73878906 31.59132812 0.91507812 31.05765625 0.06640625 30.5078125 C-2 29 -2 29 -3 27 C-3.30343947 23.51044604 -3.39470082 21.62494296 -1.5 18.625 C-1.005 18.08875 -0.51 17.5525 0 17 C-0.99 16.67 -1.98 16.34 -3 16 C-2.68954268 14.0830014 -2.37655329 12.16641277 -2.0625 10.25 C-1.88847656 9.18265625 -1.71445313 8.1153125 -1.53515625 7.015625 C-1.11295829 4.63652407 -0.62797116 2.33084789 0 0 Z " fill="#D4F6F6" transform="translate(101,104)"/>
<path d="M0 0 C2.64 0 5.28 0 8 0 C8 3.3 8 6.6 8 10 C6.68 10 5.36 10 4 10 C0 3.375 0 3.375 0 0 Z " fill="#8F5F41" transform="translate(63,181)"/>
<path d="M0 0 C1.875 0.625 1.875 0.625 4 2 C5.25 5.125 5.25 5.125 6 8 C6.99 8 7.98 8 9 8 C8.34 9.32 7.68 10.64 7 12 C5.68 12 4.36 12 3 12 C3 11.34 3 10.68 3 10 C2.34 10 1.68 10 1 10 C-0.60725635 6.78548731 -0.05748185 3.56387464 0 0 Z " fill="#CD4849" transform="translate(70,74)"/>
<path d="M0 0 C0.33 0 0.66 0 1 0 C1 1.98 1 3.96 1 6 C0.01 6.33 -0.98 6.66 -2 7 C-1.01 8.485 -1.01 8.485 0 10 C0.65702553 15.09194787 0.65702553 15.09194787 0 18 C-2.02524301 20.02524301 -3.68663355 21.42517307 -6 23 C-9.57736151 25.94138613 -11.2353047 27.75907041 -11.8125 32.3125 C-11.874375 33.529375 -11.93625 34.74625 -12 36 C-12.33 36 -12.66 36 -13 36 C-13.62151394 28.07569721 -13.62151394 28.07569721 -11.375 24.1875 C-8.75413188 21.77354252 -6.02236384 19.88058195 -3 18 C-1.64381501 16.87465895 -1.64381501 16.87465895 -1.9375 13.9375 C-1.958125 12.968125 -1.97875 11.99875 -2 11 C-2.66 10.67 -3.32 10.34 -4 10 C-4.1875 7.625 -4.1875 7.625 -4 5 C-3.01 4.34 -2.02 3.68 -1 3 C-0.67 2.01 -0.34 1.02 0 0 Z " fill="#CAF7FA" transform="translate(87,114)"/>
<path d="M0 0 C0.33 0 0.66 0 1 0 C1.68789379 3.21017104 2.05434586 5.68071806 1.5 8.9375 C0.82319864 12.02310438 0.82319864 12.02310438 1.5625 15.1875 C2.14809146 20.29051127 1.45768296 25.07286109 0 30 C-0.66 30.33 -1.32 30.66 -2 31 C-2.05804281 26.58338849 -2.09361104 22.16687504 -2.125 17.75 C-2.14175781 16.49574219 -2.15851563 15.24148437 -2.17578125 13.94921875 C-2.18222656 12.74394531 -2.18867187 11.53867188 -2.1953125 10.296875 C-2.20578613 9.18666992 -2.21625977 8.07646484 -2.22705078 6.93261719 C-2.00468334 4.06049058 -1.49281575 2.42776265 0 0 Z " fill="#DAE9E7" transform="translate(96,85)"/>
<path d="M0 0 C4.875 0.875 4.875 0.875 6 2 C6.04063832 3.66617115 6.042721 5.33388095 6 7 C5.01 7.495 5.01 7.495 4 8 C4.33 9.32 4.66 10.64 5 12 C4.01 12.495 4.01 12.495 3 13 C0.36914866 10.20472045 -0.93193325 8.69428088 -1.3125 4.8125 C-1 2 -1 2 0 0 Z " fill="#9C2D2E" transform="translate(100,67)"/>
<path d="M0 0 C2.475 0.99 2.475 0.99 5 2 C5 2.99 5 3.98 5 5 C4.01 4.34 3.02 3.68 2 3 C0.44969882 4.55030118 0.75594901 6.03676001 0.6875 8.1875 C0.76205836 12.86976528 1.69225384 15.52262583 5 19 C8.61416517 20.43917432 8.61416517 20.43917432 12 21 C12.33 22.32 12.66 23.64 13 25 C12.01 24.67 11.02 24.34 10 24 C9.67 23.34 9.34 22.68 9 22 C8.05125 21.690625 7.1025 21.38125 6.125 21.0625 C3.12053136 20.04098066 1.87744187 19.47031825 0 17 C-1.13130884 13.60607349 -1.1329194 10.94665128 -1.125 7.375 C-1.12886719 5.62316406 -1.12886719 5.62316406 -1.1328125 3.8359375 C-1 1 -1 1 0 0 Z " fill="#FCE9E5" transform="translate(68,68)"/>
<path d="M0 0 C0.33 0 0.66 0 1 0 C1 8.25 1 16.5 1 25 C0.01 25 -0.98 25 -2 25 C-2 19.06 -2 13.12 -2 7 C-1.34 7 -0.68 7 0 7 C0 4.69 0 2.38 0 0 Z " fill="#8FAEAB" transform="translate(94,95)"/>
<path d="M0 0 C1.32 0.66 2.64 1.32 4 2 C4.33 1.34 4.66 0.68 5 0 C4.4253379 4.78642607 3.01754357 8.53788787 0.9375 12.875 C0.38964844 14.02742188 -0.15820312 15.17984375 -0.72265625 16.3671875 C-1.14417969 17.23601562 -1.56570312 18.10484375 -2 19 C-3.56454159 14.97985339 -2.46223974 11.30074319 -1.5625 7.25 C-1.34110352 6.20392578 -1.34110352 6.20392578 -1.11523438 5.13671875 C-0.75131967 3.4227979 -0.37670932 1.71115419 0 0 Z M0 6 C0.33 6.66 0.66 7.32 1 8 C1.33 7.34 1.66 6.68 2 6 C1.34 6 0.68 6 0 6 Z " fill="#ECEFEE" transform="translate(103,83)"/>
<path d="M0 0 C0.66 0 1.32 0 2 0 C2 1.32 2 2.64 2 4 C1.34 4 0.68 4 0 4 C-0.12375 4.70125 -0.2475 5.4025 -0.375 6.125 C-1.03838345 9.17656387 -1.97211955 12.05340938 -3 15 C-3.66 15 -4.32 15 -5 15 C-5.33 16.32 -5.66 17.64 -6 19 C-7 18 -7 18 -7.0625 15.4375 C-7.041875 14.633125 -7.02125 13.82875 -7 13 C-6.34 13 -5.68 13 -5 13 C-4.80664062 12.39671875 -4.61328125 11.7934375 -4.4140625 11.171875 C-4.15367188 10.37265625 -3.89328125 9.5734375 -3.625 8.75 C-3.24214844 7.56664063 -3.24214844 7.56664063 -2.8515625 6.359375 C-2.04826333 4.13372042 -1.10288338 2.09068328 0 0 Z " fill="#8EADA5" transform="translate(106,89)"/>
<path d="M0 0 C0.94875 0.04125 1.8975 0.0825 2.875 0.125 C1.555 2.765 0.235 5.405 -1.125 8.125 C-2.445 8.125 -3.765 8.125 -5.125 8.125 C-5.25 5.25 -5.25 5.25 -5.125 2.125 C-3.125 0.125 -3.125 0.125 0 0 Z " fill="#996949" transform="translate(201.125,182.875)"/>
<path d="M0 0 C0.33 0 0.66 0 1 0 C1.2833095 3.70820662 1.43591109 7.30020465 1 11 C-1.1875 13.25 -1.1875 13.25 -4 14 C-6.8125 13.6875 -6.8125 13.6875 -9 13 C-7.21108363 11.11693013 -5.52906459 9.67483031 -3.375 8.1875 C-0.47456922 5.5160506 -0.26294498 3.85652635 0 0 Z " fill="#24A8B5" transform="translate(87,126)"/>
<path d="M0 0 C1.65 0.33 3.3 0.66 5 1 C5.33 2.32 5.66 3.64 6 5 C5.34 5 4.68 5 4 5 C4.33 5.99 4.66 6.98 5 8 C4.34 8.66 3.68 9.32 3 10 C1.68 9.67 0.36 9.34 -1 9 C-0.67 6.03 -0.34 3.06 0 0 Z " fill="#8A302E" transform="translate(80,65)"/>
<path d="M0 0 C0.33 0 0.66 0 1 0 C1 3.3 1 6.6 1 10 C2.32 10 3.64 10 5 10 C5.268125 9.278125 5.53625 8.55625 5.8125 7.8125 C6.99901362 5.00233617 8.27485639 2.51583443 10 0 C10.66 0 11.32 0 12 0 C10.93428999 3.19713003 9.50993301 5.99288666 7.6875 8.8125 C7.29949219 9.41707031 6.91148437 10.02164063 6.51171875 10.64453125 C5 12 5 12 0 12 C0 8.04 0 4.08 0 0 Z " fill="#E6D8CA" transform="translate(195,181)"/>
<path d="M0 0 C0.99 0.33 1.98 0.66 3 1 C3 3.64 3 6.28 3 9 C1.35 9 -0.3 9 -2 9 C-2.125 5.625 -2.125 5.625 -2 2 C-1.34 1.34 -0.68 0.68 0 0 Z " fill="#A1BF59" transform="translate(133,138)"/>
<path d="M0 0 C2 0.1875 2 0.1875 4 1 C4.66 1.99 5.32 2.98 6 4 C5.01 5.485 5.01 5.485 4 7 C1.375 7.1875 1.375 7.1875 -1 7 C-1.625 4.625 -1.625 4.625 -2 2 C-1.34 1.34 -0.68 0.68 0 0 Z " fill="#D04749" transform="translate(97,75)"/>
<path d="M0 0 C2 3 2 3 1.5 5.9375 C0.96258996 9.22913648 1.21870365 10.2756644 3 13 C2.01 13.66 1.02 14.32 0 15 C-0.99 14.67 -1.98 14.34 -3 14 C-2.34 16.64 -1.68 19.28 -1 22 C-1.99 22 -2.98 22 -4 22 C-4 19.03 -4 16.06 -4 13 C-2.35 13 -0.7 13 1 13 C1 12.34 1 11.68 1 11 C0.34 11 -0.32 11 -1 11 C-0.67 7.37 -0.34 3.74 0 0 Z " fill="#ECF5F2" transform="translate(185,125)"/>
<path d="M0 0 C0.99 0 1.98 0 3 0 C3 2.31 3 4.62 3 7 C2.34 7 1.68 7 1 7 C1 7.66 1 8.32 1 9 C-0.32 8.67 -1.64 8.34 -3 8 C-1.125 1.125 -1.125 1.125 0 0 Z " fill="#D04644" transform="translate(113,78)"/>
<path d="M0 0 C0.66 0 1.32 0 2 0 C1.67 5.61 1.34 11.22 1 17 C0.34 17 -0.32 17 -1 17 C-0.979375 15.865625 -0.95875 14.73125 -0.9375 13.5625 C-0.58422523 10.18424326 -0.58422523 10.18424326 -2 9 C-2.29356154 5.37940768 -1.85064319 3.12296038 0 0 Z " fill="#F3F8F8" transform="translate(93,85)"/>
<path d="M0 0 C3 1 3 1 4.6875 3.9375 C6 7 6 7 6 9 C4 9 4 9 2.375 7.5 C1.92125 7.005 1.4675 6.51 1 6 C0.01 7.32 -0.98 8.64 -2 10 C-2.25 3.375 -2.25 3.375 0 0 Z " fill="#C29D9B" transform="translate(81,60)"/>
<path d="M0 0 C1.98 0 3.96 0 6 0 C6 1.32 6 2.64 6 4 C0.06 4 -5.88 4 -12 4 C-12 3.67 -12 3.34 -12 3 C-5.565 2.505 -5.565 2.505 1 2 C0.67 1.34 0.34 0.68 0 0 Z " fill="#C4BDB2" transform="translate(175,141)"/>
<path d="M0 0 C1.29640378 0.59393382 2.58698839 1.20057989 3.875 1.8125 C4.59429687 2.14894531 5.31359375 2.48539063 6.0546875 2.83203125 C8 4 8 4 10 7 C10.1953125 9.26171875 10.1953125 9.26171875 10.125 11.6875 C10.10695313 12.49574219 10.08890625 13.30398437 10.0703125 14.13671875 C10.03550781 15.05904297 10.03550781 15.05904297 10 16 C9.67 16 9.34 16 9 16 C9 13.36 9 10.72 9 8 C8.01 8.33 7.02 8.66 6 9 C5.7525 8.21625 5.505 7.4325 5.25 6.625 C3.84610901 3.67682892 2.99324263 3.0975223 0 2 C0 1.34 0 0.68 0 0 Z " fill="#2CA0B1" transform="translate(100,134)"/>
<path d="M0 0 C0.33 0 0.66 0 1 0 C1 4.95 1 9.9 1 15 C0.01 14.67 -0.98 14.34 -2 14 C-2 11.03 -2 8.06 -2 5 C-1.67 5 -1.34 5 -1 5 C-0.67 3.35 -0.34 1.7 0 0 Z " fill="#C9BCB3" transform="translate(188,154)"/>
<path d="M0 0 C1.32 0.33 2.64 0.66 4 1 C4.9765625 7.0546875 4.9765625 7.0546875 5 9 C4.34 9.66 3.68 10.32 3 11 C2.49384702 9.73160474 1.99530901 8.46016898 1.5 7.1875 C1.2215625 6.47980469 0.943125 5.77210938 0.65625 5.04296875 C0 3 0 3 0 0 Z " fill="#B63A3E" transform="translate(192,151)"/>
<path d="M0 0 C1.32 0.33 2.64 0.66 4 1 C4.1953125 7.0546875 4.1953125 7.0546875 4 9 C3.34 9.66 2.68 10.32 2 11 C0.57741188 7.17679443 -0.24042276 4.08718695 0 0 Z " fill="#236B9D" transform="translate(180,123)"/>
<path d="M0 0 C2.31 0 4.62 0 7 0 C7.66 3.3 8.32 6.6 9 10 C8.01 9.67 7.02 9.34 6 9 C4.76132839 6.38502661 3.91496017 3.74488051 3 1 C2.34 1 1.68 1 1 1 C1 2.65 1 4.3 1 6 C0.67 6 0.34 6 0 6 C0 4.02 0 2.04 0 0 Z " fill="#18A1B0" transform="translate(91,124)"/>
<path d="M0 0 C0.66 0 1.32 0 2 0 C1.91266424 1.60517097 1.80447776 3.20921662 1.6875 4.8125 C1.62949219 5.70582031 1.57148437 6.59914062 1.51171875 7.51953125 C0.93686419 10.30604 0.1793144 11.24135754 -2 13 C-2.33 10.36 -2.66 7.72 -3 5 C-2.01 5.33 -1.02 5.66 0 6 C0 4.02 0 2.04 0 0 Z " fill="#2EA3B5" transform="translate(107,156)"/>
<path d="M0 0 C0.66 0 1.32 0 2 0 C2 0.66 2 1.32 2 2 C2.66 2 3.32 2 4 2 C7 8.5 7 8.5 7 13 C6.34 13 5.68 13 5 13 C3.35 8.71 1.7 4.42 0 0 Z " fill="#98ABA7" transform="translate(79,88)"/>
<path d="M0 0 C0.33 2.31 0.66 4.62 1 7 C0.01 7 -0.98 7 -2 7 C-2.99 7.33 -3.98 7.66 -5 8 C-4.74438677 5.6568787 -4.40729228 3.32156597 -4 1 C-2 0 -2 0 0 0 Z " fill="#AE6260" transform="translate(88,69)"/>
<path d="M0 0 C0.66 0.33 1.32 0.66 2 1 C2 2.98 2 4.96 2 7 C0.68 7 -0.64 7 -2 7 C-2.66 5.35 -3.32 3.7 -4 2 C-2.68 2 -1.36 2 0 2 C0 1.34 0 0.68 0 0 Z " fill="#996B4D" transform="translate(69,184)"/>
<path d="M0 0 C1 4 1 4 1 8 C2.65 8 4.3 8 6 8 C4.68 9.65 3.36 11.3 2 13 C2 11.68 2 10.36 2 9 C1.01 9 0.02 9 -1 9 C-0.67 6.03 -0.34 3.06 0 0 Z " fill="#458E98" transform="translate(96,112)"/>
<path d="M0 0 C0.99 0.66 1.98 1.32 3 2 C3.66 1.34 4.32 0.68 5 0 C4.49701212 4.40114397 2.91227269 6.71195019 0 10 C-0.66 9.01 -1.32 8.02 -2 7 C-1.01 6.67 -0.02 6.34 1 6 C0.67 4.02 0.34 2.04 0 0 Z " fill="#B7918F" transform="translate(103,73)"/>
<path d="M0 0 C0.66 0 1.32 0 2 0 C2.9765625 6.0546875 2.9765625 6.0546875 3 8 C2.34 8.66 1.68 9.32 1 10 C-0.83691257 6.21812119 -1.15837626 4.05431692 0 0 Z " fill="#8E9E99" transform="translate(89,89)"/>
<path d="M0 0 C0.66 0.66 1.32 1.32 2 2 C3.31747324 2.69748583 4.64914193 3.36959957 6 4 C5 5 5 5 1.4375 5.0625 C0.303125 5.041875 -0.83125 5.02125 -2 5 C-1.125 1.125 -1.125 1.125 0 0 Z " fill="#B05656" transform="translate(109,84)"/>
<path d="M0 0 C2.97 0.495 2.97 0.495 6 1 C5.2884375 1.495 5.2884375 1.495 4.5625 2 C2.14208385 5.09813267 2.31801083 8.12026792 2 12 C1.67 12 1.34 12 1 12 C0.67 8.04 0.34 4.08 0 0 Z " fill="#9A6668" transform="translate(94,81)"/>
<path d="M0 0 C0 0.99 0 1.98 0 3 C-2.64 3.66 -5.28 4.32 -8 5 C-8 3.68 -8 2.36 -8 1 C-5.36 0.67 -2.72 0.34 0 0 Z " fill="#845534" transform="translate(204,180)"/>
<path d="M0 0 C0.33 0.66 0.66 1.32 1 2 C1.66 2 2.32 2 3 2 C2.67 2.99 2.34 3.98 2 5 C2.38932856 7.14255793 2.38932856 7.14255793 3 9 C2.01 9.495 2.01 9.495 1 10 C0.01 7.03 -0.98 4.06 -2 1 C-1.34 0.67 -0.68 0.34 0 0 Z " fill="#8D3030" transform="translate(102,70)"/>
<path d="M0 0 C0.33 1.32 0.66 2.64 1 4 C-1.31 4.66 -3.62 5.32 -6 6 C-4.95125002 3.37812506 -4.35068687 2.20628639 -1.875 0.75 C-1.25625 0.5025 -0.6375 0.255 0 0 Z " fill="#C47578" transform="translate(117,72)"/>
<path d="M0 0 C0.66 0 1.32 0 2 0 C2 0.66 2 1.32 2 2 C1.34 2 0.68 2 0 2 C0.33 3.32 0.66 4.64 1 6 C-0.98 6.99 -0.98 6.99 -3 8 C-2.45276317 4.62537285 -1.9451 2.91765 0 0 Z " fill="#B93B39" transform="translate(195,163)"/>
<path d="M0 0 C1.32 0.33 2.64 0.66 4 1 C2.6875 3.5 2.6875 3.5 1 6 C0.01 6 -0.98 6 -2 6 C-2 5.34 -2 4.68 -2 4 C-1.34 4 -0.68 4 0 4 C0 2.68 0 1.36 0 0 Z " fill="#9B7456" transform="translate(200,183)"/>
<path d="M0 0 C0.66 0 1.32 0 2 0 C2 1.32 2 2.64 2 4 C1.34 4 0.68 4 0 4 C-0.33 5.65 -0.66 7.3 -1 9 C-2.25541557 5.23375329 -1.37061958 3.62811066 0 0 Z " fill="#ABBEB8" transform="translate(106,89)"/>
<path d="M0 0 C2.64 0.33 5.28 0.66 8 1 C8.66 2.65 9.32 4.3 10 6 C9.01 5.67 8.02 5.34 7 5 C6.67 4.34 6.34 3.68 6 3 C4.02111039 2.27306096 2.02045442 1.60183749 0 1 C0 0.67 0 0.34 0 0 Z " fill="#F8F8F0" transform="translate(71,87)"/>
<path d="M0 0 C3.875 1.75 3.875 1.75 5 4 C3.02 4.33 1.04 4.66 -1 5 C-0.67 3.35 -0.34 1.7 0 0 Z " fill="#BD5A5E" transform="translate(95,65)"/>
<path d="M0 0 C0.66 0 1.32 0 2 0 C2 2.64 2 5.28 2 8 C1.01 8.495 1.01 8.495 0 9 C-0.87890625 2.84765625 -0.87890625 2.84765625 -1 1 C-0.67 0.67 -0.34 0.34 0 0 Z " fill="#884847" transform="translate(108,60)"/>
<path d="M0 0 C0.33 0 0.66 0 1 0 C1 1.98 1 3.96 1 6 C-0.32 6 -1.64 6 -3 6 C-3.33 7.32 -3.66 8.64 -4 10 C-4.1875 7.625 -4.1875 7.625 -4 5 C-3.01 4.34 -2.02 3.68 -1 3 C-0.67 2.01 -0.34 1.02 0 0 Z " fill="#DEF7F6" transform="translate(87,114)"/>
<path d="M0 0 C4.875 4.625 4.875 4.625 6 8 C5.01 8 4.02 8 3 8 C0 2.25 0 2.25 0 0 Z " fill="#B95555" transform="translate(73,74)"/>
<path d="M0 0 C1.32 1.32 2.64 2.64 4 4 C3.01 4.99 2.02 5.98 1 7 C-0.0625 5.1875 -0.0625 5.1875 -1 3 C-0.67 2.01 -0.34 1.02 0 0 Z " fill="#C14844" transform="translate(99,75)"/>
<path d="M0 0 C0.66 0 1.32 0 2 0 C1.67 1.65 1.34 3.3 1 5 C-0.32 5 -1.64 5 -3 5 C-1.125 1.125 -1.125 1.125 0 0 Z " fill="#85302F" transform="translate(104,63)"/>
<path d="" fill="#FFFFFF" transform="translate(0,0)"/>
<path d="" fill="#FFFFFF" transform="translate(0,0)"/>
</svg>
