<?xml version="1.0" encoding="UTF-8"?>
<svg version="1.1" viewBox="0 0 1386 980" width="1386" height="980" xmlns="http://www.w3.org/2000/svg">
<path transform="translate(0)" d="m0 0h1386v980h-1386z" fill="#FDFDFC"/>
<path transform="translate(731,129)" d="m0 0h59v233h9v-135h35v135h20v-202h59v202h18v-186h49v186h17v-186h49v186h12v-219h43v219h16l1 1v48h-164v25h-39l-1-24-444-1v25h-39v-25h-164v-48l1-1h18v-204h60v204h9v-218l1-1h58l1 1v218h9v-189h35v189l9-1v-129l1-2 3-1h31l1 3v130h8l-1-42v-152l1-23h59l1 31v155l-1 31h17v-211h24v211h84v-217h24v217h10v-232z" fill="#58621F"/>
<path transform="translate(1014,497)" d="m0 0 2 1 3 11 6 3-1 9v10l1 4 3 1 1 6v8l4 2-3 12 1 6 2 7 1 7 2 2-1 8-2 5-1 8 2-1 2-8 1-13 5-7 2-13 4-2 3-16 5-1 3-12 7-8 2-2 1 1 1 10 5 4-3 9-1 8 1 3 2 1-1 12 3 2-1 4-4 7 1 11v6l1 5-6 10 1 5 1 3-3 6 1 8-6 9-1 8 4-1 7-9 4-7 6-1 2-5 3-4 7-1 2-5 1-2 7-1 5-5 10-2-1 9 3 5-7 6-1 6v4l-3 3 1 6-7 4-1 7-2 2v7l-9 4v6l-5 3v5l-9 5-5 8-5 3 13 1 4 4v16l-3 2-3 26-4 42-1 5h46v49h-165v24l-1 1h-38v-25h-445v24l-1 1h-38v-25h-162l-1-1v-48h56v-183h35l1 28v154l14 1-1-65v-92l1-55h59l1 211h52l-16-9-24-14-9-6 6-11 10-18 13-22 8-14 14-24 15-26 10-16 9-16 5-9 11-19 4-1 41 24 8 5-2 6-11 18-8 14-14 24-9 16-14 24-22 38-15 26-5 8-1 3 75-1-36-16-4-2 1-5 13-30 18-41 13-30 17-39 11-25 1-3 5 1 37 16 3 1-1 6-5 11-1 3h53v-24l1-1h217v25h-84v59l-11 1-7-1v-59h-15v60h-8l-1-1v-59h-83v60l-62-1-1-4v-52l-7 15-18 41-17 39-15 34-8 19-1 3 97-1 1-59h25v-18h27l1-16h19l2 34h92v-17l1-17h19l1 34 16 1 1 29v30l110-1-6-62-1-9-4-5v-13l5-5h16l-5-10-6-6 1-7-7-12-1-1v-8l-4-8-4-6 1-8-4-13-3-6 1-8-4-9 1-4v-7l-2-4v-5l2-2-2-11 2-4 1-7 7 7 7 2 2 12 2 3 5 1 2 10h5l1 1v11l4 3 2-5 1-1 1-21-1-13 3-6v-17l3-5v-16l4-4 1-13 5-10z" fill="#886337"/>
<path transform="translate(356,143)" d="m0 0h58l1 1v218h9v-189h35v189l9-1v-129l1-2 3-1h31l1 3v130h8l-1-42v-152l1-23h59l1 31v155l-1 31h17v-211h24v211h84v-217h24v217h10v1h-58v3h-2v4h-2v4h-2v2l57-2 13-2 16-3 13-1 18 1-1 2-33 1-13 3-16 2-18 1-38 1v4l-2 1-21-3-14 1h-13l-10-2h-26l-26 3-12 4-10-1-14-4h-20l-29 3-6 3-7 8-4 3-10 3h-23l-19-3-14-7-16-5-21-3h-11l-10 1h-17l-14-2h-15l-13 1v-21l1-1h18v-204h60v204h9v-218z" fill="#90643B"/>
<path transform="translate(731,129)" d="m0 0h59v233h9l-3 2 25 1 67 4h16l14-2h50l8 1 1-2v2l14 1 18 3 4 1h16l17-5 2-1 16-1 29 1 14 2 11 4v38h-164v25h-39l-1-24-444-1v25h-39v-25h-164v-27l13-2h15l14 2h17l10-1h11l21 3 16 5 14 7 19 3h23l10-3 5-4 7-8 5-2 29-3h20l18 5 10-1 8-3 26-3h26l10 2h13l14-1 22 3-1-2h2v-2l2-1 36-1 26-2 16-3 5-1 33-1-22-1-16 2-12 3-9 1-23 1h-34v-2h2v-4h2v-4h2v-3h58v-233z" fill="#886337"/>
<path transform="translate(268,804)" d="m0 0h1l1 9 21-3 26-2h15l10 2 18 5 13 2h20l4-2 3 1-4 3-4 1h-16l-32-6-8-3h-24l-26 2-16 3-1 3 9-2 5-1 45-3 12 2 25 6 17 2 13-1 4-3 9-2 28 1 28 3 14 1h10l20-4h38l54-7 10-1h17l14 2 7 2 1 2 11 1 12 1h27l13-3 16-2h32l19 2 13 4 9 1 12-4h70l25-4 12-2h20l12 2 44 4h30l8-1h31l17 1h33l4-1v36h-165v24l-1 1h-38v-25h-445v24l-1 1h-38v-25h-162l-1-1z" fill="#94663F"/>
<path transform="translate(699,648)" d="m0 0h83l1 59 8 1v-60h15v59h18v-59h31v59h27v35h-10v30h-1v-29h-17v-35h-19v17l-1 17-93 1-1-18v-17h-19v17h-27l-1 17h-25v59l-1 1h-97l1-6 9-20 18-41 13-30 18-41 6-14 2 1v56h54l8 1z" fill="#696E34"/>
<path transform="translate(1014,497)" d="m0 0 2 1 3 11 6 3-1 9v10l1 4 3 1 1 6v8l4 2-3 12 1 6 2 7 1 7 2 2-1 8-2 5-1 8 2-1 2-8 1-13 5-7 2-13 4-2 3-16 5-1 3-12 7-8 2-2 1 1 1 10 5 4-3 9-1 8 1 3 2 1-1 12 3 2-1 4-4 7 1 11v6l1 5-6 10 1 5 1 3-3 6 1 8-6 9-1 8 4-1 7-9 4-7 6-1 2-5 3-4 7-1 2-5 1-2 7-1 5-5 10-2-1 9 3 5-7 6-1 6v4l-3 3 1 6-7 4-1 7-2 2v7l-9 4v6l-5 3v5l-9 5-5 8-6 4-25-1v2l-4 1h-60l-4 2v10l3 9-5-5v-13l5-5h16l-5-10-6-6 1-7-7-12-1-1v-8l-4-8-4-6 1-8-4-13-3-6 1-8-4-9 1-4v-7l-2-4v-5l2-2-2-11 2-4 1-7 7 7 7 2 2 12 2 3 5 1 2 10h5l1 1v11l4 3 2-5 1-1 1-21-1-13 3-6v-17l3-5v-16l4-4 1-13 5-10z" fill="#72A02D"/>
<path transform="translate(731,129)" d="m0 0h59v233l-54 1h-6v-233z" fill="#CC740D"/>
<path transform="translate(356,143)" d="m0 0h58l1 1v219l-57-1-3-1v-217z" fill="#59611E"/>
<path transform="translate(512,145)" d="m0 0h59l1 31v155l-1 31h-59l-1-42v-152z" fill="#408671"/>
<path transform="translate(374,590)" d="m0 0h59v212h-59l-1-65v-92z" fill="#1E635E"/>
<path transform="translate(539,596)" d="m0 0 5 1 20 12 23 13 4 3-2 6-11 18-8 14-14 24-9 16-14 24-22 38-15 26-5 8-1 3-4-1-16-9-24-14-9-6 6-11 10-18 13-22 8-14 14-24 15-26 10-16 9-16 5-9 11-19z" fill="#CB7308"/>
<path transform="translate(854,160)" d="m0 0h59v202h17v1h-95v-1h19z" fill="#DB8B7F"/>
<path transform="translate(599,610)" d="m0 0 5 1 37 16 3 1-1 6-5 11-1 3h53v-24l1-1h217v25h-84v59l-11 1-7-1v-59h-15v60h-8l-1-1v-59h-83v60l-62-1-1-4v-52l-42-18-4-2z" fill="#A63F1C"/>
<path transform="translate(721,708)" d="m0 0h19l2 34h92v-17l1-17h19l1 34 16 1 1 29v30h-151v-60l-10 1v59h-8l-1-2 1-57-10-1v-18h27z" fill="#5C1330"/>
<path transform="translate(734,362)" d="m0 0h65l-3 2 25 1 34 2 9 1v2l3 1 5 1 46 3 50 1h24l-19-1-56-1-13-1-1-2 15-2 26-1 25 1 28 3 19 3h13l12-3 7-3 12-1h23l20 2 11 3 3 2-1 3-15-4-8-1-34-1-11 1-5 2h-3v2l12-3 12-1h16l27 3 8 3 2 1v5l-16-2-25-6h-12l-6 1h16l27 6 16 3v9l-15-3h-8l-10 5-6 5-11 4-11 1h-13l-15-3-10-5-5-6-1-4-4-1h-20l-23 2-33 1-12 1h-12l-14-2-2-1h-18l-22 6h-20l-24-4-16-3-16-2h-30l-13 3-21 8-4 1h-20l-29-4-2-2 3-7 4-2-2-3h2v-2l2-1 36-1 26-2 16-3 5-1 33-1-22-1-16 2-12 3-9 1-23 1h-34v-2h2v-4h2v-4h2v-3z" fill="#815327"/>
<path transform="translate(1041,706)" d="m0 0h17l22 1 4 4v16l-3 2-3 26-4 42-1 5h-91l-7-74-3-7v-8l5-5h64z" fill="#CB7307"/>
<path transform="translate(931,176)" d="m0 0h49v186l-10 1h-37l-2-2z" fill="#C9690A"/>
<path transform="translate(635,650)" d="m0 0 2 1v56h54l2 1v34h-25v59l-1 1h-97l1-6 9-20 18-41 13-30 18-41z" fill="#FCFDFC"/>
<path transform="translate(287,212)" d="m0 0h59v150h-59z" fill="#49001C"/>
<path transform="translate(976,366)" d="m0 0 1 2 14 1 18 3 4 1h16l17-5 2-1 16-1 29 1 14 2 11 4v32h-11l-7-1-12 3-5 2 5-5 5-2 11-1 10 2h3v-5l-11-2-11-1-10 5-10 7-8 2h-32l-13-4-6-4-6-8v-2h-22l-28 2-29 1h-32l-11-2h-13l-15 4-7 2h-21l-19-3-21-4-16-2h-28l-17 4-22 8h-13l-24-2-14-2-6-1-20-4h-16l-13 4-7 2-20 2-8 1h-18l-12-5-10-2h-16l-32 2-11 2-5 1v2l-14 6-18 3-1 1h-164v-27l13-2h15l14 2h17l10-1h11l21 3 16 5 14 7 19 3h23l10-3 5-4 7-8 5-2 29-3h20l18 5 10-1 8-3 26-3h26l10 2h13l14-1 21 3 6 1v1l-8 1-1 6v2l29 4h20l20-7 13-4 5-1h30l24 3 24 5 8 1h20l22-6h18l7 2 9 1h12l12-1 33-1 23-2h20l4 2 5 8 6 4 13 4 7 1h13l11-1 12-5 10-7 5-2h8l14 3 1-8-10-1-24-5-9-2h-18l2-2 6-1h12l30 7 11 2v-5l-16-4-21-2h-16l-18 2-6 1v-2l7-1 1-2 16-1 29 1 17 3 6 2 1-2-10-3-11-2-13-1h-23l-12 1-14 5-5 1h-13l-26-4-21-2-30-1-21 1-14 2 13 1 56 1 19 1 4 2h-28l-50-1-46-3-8-1v-4l24 1h16l14-2h50l8 1z" fill="#8D6339"/>
<path transform="translate(590,632)" d="m0 0 7 1 18 8 19 8 1 3-34 78-18 41-7 16-6 14-7-1-37-16-1-4 11-25 17-39 14-32 13-30 9-20z" fill="#1F645F"/>
<path transform="translate(668,742)" d="m0 0h35l1 2-1 57 8 1-1-59 1-1h10l1 2v28l-1 30h351l45 1 1 1v7l-4 1h-28l-14-1h-40l-8 1h-21l-19-1-40-4-16-2-40 6-8 1h-28l-17-1h-19l-12 4h-10l-18-5-12-1h-40l-17 3-7 2h-25l-19-2-16-4-9-2h-21l-19 2h-6l2-5h81z" fill="#815428"/>
<path transform="translate(928,818)" d="m0 0 18 2 42 6 12 1h13l22-3h21l13 2h35l14-1v12l-6 2-13 1h-23l-24-3h-15l-19 3h-26l-56-8h-16l-17 3-15 4-10 1h-30l-21-2h-11l-13 5h-11l-38-3-18-2h-18l-29 5h-17l-22-7-5-1h-12l-9 3v2l-15 6-17 2-10-1-8-5-4-3 2-5 1-4 5 2 4 2h21l16-5 10-6 3-1h14l18 5 6 2 14 1 20-3 21-3 15 1 28 3 34 2 8-3 4-2 11-1 19 2h38l14-2 14-4z" fill="#815327"/>
<path transform="translate(642,169)" d="m0 0h5l5 18 14 58 22 91 3 13v4l-32 8-3-1-7-30-9-36-6-27-6-23-6-26-9-37v-5z" fill="#4D041E"/>
<path transform="translate(424,173)" d="m0 0h35v189h-35z" fill="#1D635F"/>
<path transform="translate(324,619)" d="m0 0h35l1 28v155h-36z" fill="#3E8773"/>
<path transform="translate(748,388)" d="m0 0h28l28 4 20 4 8 1h21l17-5 5-1h13l11 2h32l48-2 9-1h20l3 3 6 8 10 5 8 2h32l10-3 13-9 5-2 11 1 11 3v5l-4 1-9-2-11 1-8 4 3-1 12-3 18 2v6h-203l-265-1 1-5 42 2h11l14-2 15-4 7-1h17l32 6h17l9-4 13 1 16 2h20l10-3 6-3h18l27 4 19 1h16l16-1 9-2h11l12 4 10 4v-2l-10-3-8-3-12-2-12 3-16 1-35-1-36-5-10 1-7 4-8 2h-20l-21-3h-10l-8 4h-16l-29-6h-21l-19 4-16 3h-17l-31-2-3-2 3-5 16 1 24 2h13l25-9z" fill="#815327"/>
<path transform="translate(696,145)" d="m0 0h24v217h10v1h-118v-1h84z" fill="#DC8C80"/>
<path transform="translate(918,833)" d="m0 0h18l32 5 26 3h22l24-3h11l13 2h54v10l-166 1-388-1 2-1 1-5 1-3 5 2 3 2v2l5 1h24l13-4 16-8h9l16 4 13 4h18l30-5h16l49 5h19l13-5h11l20 2h24l16-1 21-5z" fill="#815327"/>
<path transform="translate(700,648)" d="m0 0h82v58l-1 1h-81z" fill="#DC8C80"/>
<path transform="translate(588,151)" d="m0 0h24v212h-12v-23h-12z" fill="#58631F"/>
<path transform="translate(1067,524)" d="m0 0 2 1 1 10 5 4-3 9-1 8 1 3 2 1-1 12 3 2-1 4-4 7 1 11v6l1 5-6 10 1 5 1 3-3 6 1 8-7 11-2 12-3 6v5l1 2-2 5h-2v2h-2l-2 6v8l-1 3h-2l-1 5-4 1v2h-14l-1-4 3-9-1-3v-9l5-10-1-5-1-2 1-9v-19l3-9-1-6v-10l3-14 1-13 5-7 2-13 4-2 3-16 5-1 3-12 7-8z" fill="#1D635F"/>
<path transform="translate(870,624)" d="m0 0h10v12l7-1h19l1 1v10l-1 1-50 1h-32v59l-11 1-7-1v-59h-15v60h-8l-1-1v-59h-83v60h-8v-72l5-1h173z" fill="#9B2609"/>
<path transform="translate(472,229)" d="m0 0h31l1 3v130h-35l-1-1v-129l1-2z" fill="#DB8B7F"/>
<path transform="translate(799,227)" d="m0 0h35v135h-35z" fill="#408975"/>
<path transform="translate(1059,199)" d="m0 0h41v112h-41z" fill="#750403"/>
<path transform="translate(721,772)" d="m0 0h151v30h-151z" fill="#4C001D"/>
<path transform="translate(538,658)" d="m0 0 5 2 8 5 5 1 8 5-1 4-14 25-6 10-14 24-10 17-15 26-13 22-1 3-4-1-16-9-7-4v-3l3-3 6-10h2v-5l16-26 5-9 1-4h2l1-4 3-4h2l2-7 6-12 2-1 3-7 3-5h2l1-5 6-9 5-9z" fill="#C86705"/>
<path transform="translate(959,561)" d="m0 0 7 7 7 2 2 12 2 3 5 1 2 10h5l1 1v11l4 3 2 7h2l2 9v6l4 4 1 7 3 3 1 15 3 6 1 9 3 3v7l-1 3 2 6 1 2v7l-1 2h-25l-5-10-6-6 1-7-7-12-1-1v-8l-4-8-4-6 1-8-4-13-3-6 1-8-4-9 1-4v-7l-2-4v-5l2-2-2-11 2-4z" fill="#1E645F"/>
<path transform="translate(512,291)" d="m0 0h59l1 40-1 31h-59l-1-42z" fill="#488268"/>
<path transform="translate(287,212)" d="m0 0h29v148l-1 1h-27z" fill="#5D1330"/>
<path transform="translate(414,293)" d="m0 0h1v70l-57-1-3-1v-63h59z" fill="#566220"/>
<path transform="translate(731,129)" d="m0 0h59v63h-60v-62z" fill="#CC7407"/>
<path transform="translate(730,192)" d="m0 0h60v108h-59v-9h29v-88l-3-1-26-1-1-1z" fill="#C86702"/>
<path transform="translate(512,145)" d="m0 0h59l1 31-1 32h-59l-1-40z" fill="#3F8874"/>
<path transform="translate(1058,143)" d="m0 0h43v219h-1v-29h-41v29h-1zm1 56v112h41v-112z" fill="#D0773A"/>
<path transform="translate(615,812)" d="m0 0h11l16 3 18 4 8 1h33l16-4 11-1h36l16 2 12 4 9 1 13-4 10-1 24 1h35l40-6h16l21 3 36 3h32l7-1h33l12 1 38 1v4l-12 2h-38l-12-2h-21l-19 3h-19l-37-5-20-3h-26l-23 6-8 1h-43l-18-2-9 1-8 4h-19l-36-3-10-1h-24l-24 4-15 1-16-4-13-4-12-1-9 3-14 7-14 3h-16l-7-4-1-2 1-3h2l1-4 3-5 18-1-2 2-6 1v7l6 2h7l6-3v-4l-1-2h3l-10-3v-1z" fill="#815327"/>
<path transform="translate(458,237)" d="m0 0h1v125h-35v-64l17-1v-59z" fill="#08544F"/>
<path transform="translate(286,158)" d="m0 0h60v54h-60z" fill="#D6897A"/>
<path transform="translate(539,596)" d="m0 0 5 1 20 12 23 13 4 3-2 6-11 18-8 14-5 9-11-6-10-6-11-6-15-9-6-2 8-15 6-9 5-10z" fill="#DB8B7F"/>
<path transform="translate(286,212)" d="m0 0h1v150l71-1 57 1h173v-22h12v23h72v3h-2v4l-2 1h-28l-24-3-28-1-26 2-13 2h-22l-39-3h-29l-13 1h-31l-9-1h-43l-35 3-16 2-24-1-20-1-1 4v-12l1-1h18z" fill="#8A6439"/>
<path transform="translate(315,815)" d="m0 0h18l9 2 14 4 20 3h16l7-3 9-2h18l43 4h24l13-3 10-1h36l30-4-4 9h-2v4l7 4h16l14-3 14-7 9-3 12 1 23 7 12 1 21-3 12-2h24l30 3 16 1h19l8-4 11-1 16 2h43l11-2 20-5h26l36 5 21 3h19l19-3h21l2 2-23 1-22 3h-13l-27-3-33-5-12-1-18 2-19 5-9 1h-38l-19-2-11 1-8 4-8 1-41-3-26-3-15 1-23 4-16 1-11-2-15-5-5-1h-14l-18 9-11 3h-21l-8-5-5-4v-2l-41 3-32 3h-16l-7-1-46-2-8-1h-13l-14 6-3 1h-15l-14-2-17-4-13-5h-30l-20 4-7 2h-4v-7l16-4 21-1z" fill="#8C6238"/>
<path transform="translate(1059,333)" d="m0 0h41v29h17l1 1v10l-7-2-8-2-10-1-34-1-11 1-14 5-5 1h-16l-15-3-22-3h-58l-14 2h-16l-85-5h-7l-5-1v-1l8-1h131 3 64v2l7-1h42l12-1z" fill="#835328"/>
<path transform="translate(939,368)" d="m0 0 30 1 28 3 19 3h13l12-3 7-3 12-1h23l20 2 11 3 3 2-1 3-15-4-8-1-34-1-11 1-5 2h-3v2l12-3 12-1h16l27 3 8 3 2 1v5l-16-2-25-6h-12l-8 1v2l-9 1 11 2 9 5 4 3 3 1-2 4-4 1-2 5-4 2-19 2-11-2-6-2-2-3 1-5 6-9 1-2-17 2h-23l-10-1-62-1-14-2-4-1h-15l-8 4h-2v2h-3v2l-9 3-17 1h-18l-10-3-21-9-7-1-28-1-10-1-12 3-15 4-14 2h-37v-1l36-2 24-4 12-4h16l31 1 13 4 10 5 15 5h8l8-1 16-1 7-1 1-3 10-6 13-2 16 3 11 1 61 1 10 1h23l-14-3-8-1-3-2-19-1-56-1-13-1-1-2 15-2z" fill="#8C6137"/>
<path transform="translate(731,315)" d="m0 0h59v47l-54 1h-6z" fill="#CB7306"/>
<path transform="translate(1009,509)" d="m0 0 2 2 1 2v14l-3 3-2-1v7l3 1v-2l6 1 1 7v7l3 2-1 8-1 10 3 6 1 9 2 1v6l-2 3-1 5v7l2 1-1 12 2 3v9l-3 3-1 5h-2v3h2l1 5v8l-2 9 3 5-1 4-2 6-2 11 2 6-4-2-1-6 1-2v-7l-3-3-2-12-2-3-1-17-3-1-1-7-4-4v-9l-1-6h-2l-2-3 1-8 2-2 1-21-1-13 3-6v-17l3-5v-16l4-4 1-13z" fill="#72A02D"/>
<path transform="translate(268,804)" d="m0 0h1l1 9 21-3 26-2h15l10 2 18 5 13 2h20l4-2 3 1-4 3-4 1h-16l-32-6-8-3h-24l-26 2-16 3-1 3 9-2 5-1 45-3 12 2 25 6 17 2 13-1 4-3 9-2 28 1 28 3 14 1h10l20-4h38l54-7 10-1h17l14 2 7 2 1 2 11 1 12 1h27l13-3 16-2h32l19 2 13 4 9 1 12-4h70l25-4 12-2h20l12 2 44 4h30l8-1h31l17 1h33l4-1v36h-165v-1h164v-10l-9 1h-9l-1-2 13-1 6-1v-12l-14 2h-35l-13-2 2-2 10 1h38l12-1v-4h-38l-12-1h-33l-7 1h-32l-45-4-12-2h-16l-40 6h-35l-27-1-10 2-12 3-10-2-9-3-16-2h-36l-16 2-11 3h-33l-19-3-15-4-8-1h-11l-10 1 8 2 1 2h-3l2 4-5 4-3 1h-7l-6-2-1-4 1-5 3-1-23 2-20 3h-36l-14 2-9 2h-24l-43-4h-18l-9 2-7 3h-16l-24-4-13-4-6-1h-18l-9 1-21 1-13 3h-3v7l19-5 12-2h30l13 5 22 5 9 1h15l8-3h3v2l-13 4h-11l-24-4-14-4-8-3h-32l-26 6h-3l1 12 10-1-3 2-7 2-2 4z" fill="#8D6238"/>
<path transform="translate(504,399)" d="m0 0h18l13 4 9 1h28l23-2 16-3h17l24 4-1 6 268 1h33l2 1v25h-39l-1-24-266-1-171-1-2-2 24-8z" fill="#8F643A"/>
<path transform="translate(355,197)" d="m0 0 3 1h-2l1 8 1 1 26 1 1 5 2 3 4 3v7l-5 3-2 1 1 3v7l5 3 1 6-3 6h-3v9l1 3 5 3v6l-2 4-4 2v5l-1 1h-27v10h-2z" fill="#676E34"/>
<path transform="translate(1008,223)" d="m0 0h25l2 1v92l-1 1h-26z" fill="#C86702"/>
<path transform="translate(997,208)" d="m0 0 3 1 21 1v9 3 1h-13v94l26-1 1-92h1v93l-1 1-15 1 1 1v37l-1 5h-23z" fill="#676C33"/>
<path transform="translate(592,662)" d="m0 0h12l4 2 3 5 1 10-4 10-5 11-2 5-8 16-5 15-2 1-2 7-4 4-4 2h-10l-6-4-3-7 1-9 9-20 7-17 7-15 6-12z" fill="#46021C"/>
<path transform="translate(1041,706)" d="m0 0h17l22 1 4 4v16l-4 3h-101l-4-2-3-7v-8l5-5h64z" fill="#A93916"/>
<path transform="translate(952,223)" d="m0 0h10l5 4 2 5v77l-3 5-4 3h-13l-6-5-1-2v-79l4-6z" fill="#9B2508"/>
<path transform="translate(356,143)" d="m0 0h58l1 1v39l-42 1-18-1v-39z" fill="#6F713A"/>
<path transform="translate(599,610)" d="m0 0 5 1 37 16 3 1-1 6-5 11-1 3h21v59h-21l-1-4v-52l-42-18-4-2z" fill="#D98A7D"/>
<path transform="translate(512,209)" d="m0 0h29l1 7-1 74h-29z" fill="#4D927F"/>
<path transform="translate(1014,497)" d="m0 0 2 1 3 11 6 3-1 9v10l1 4 3 1 1 6v8l4 2-3 12 1 6 2 7 1 7 2 2-1 8-2 5-1 8 3-1-1 6v10l1 6-3 9v19l-1 9 2 3-1 5-4 9v9l1 5-5 10-2 1-4-1-1-9v-3l-1-6 2-8 2-6 1-4-3-6 2-8v-13h-2v-3h2l1-7 3-1-1-9-2-3 1-8 1-4-3-1v-7l4-14-3-1-1-10-3-5 1-10 2-8-4-2v-14l-6-1v2l-3 1-1-2v-7h3l2-2v-14l-2-5 4-8z" fill="#64961E"/>
<path transform="translate(734,362)" d="m0 0h65l-3 2 25 1 34 2 9 1v2l3 1-10 2 5 2 2 2-1 4-12 7-11-1-20-2-6-4-1-5 3-3 10-1-44-1v-1l-22-1-16 2-12 3-9 1-23 1h-34v-2h2v-4h2v-4h2v-3z" fill="#8C6238"/>
<path transform="translate(432,652)" d="m0 0h1v84h-30v-7l6-2v-8l-3-3-3-2v-12l3-1 3-5-1-5-1-4-4-1v-11l5-3 1-6-2-6-4-1v-4l-6-1v-1z" fill="#09524C"/>
<path transform="translate(931,200)" d="m0 0h32v1l-7 1v18l-1 3-9 3-3 5v79l4 5 2 1v2h7v19l-1 3-24 1z" fill="#CB7206"/>
<path transform="translate(612,642)" d="m0 0h6l11 5 6 3-3 9-18 41-13 30-18 41-5 10-16-7v-2l-5-2 3-10 5-10 11-1 6-4 2-3 2-6h2l1-6 4-10 6-13v-2l2-1 5-14 2-1 3-11-1-9-3-5-3-1 1-5 4-10 1-4z" fill="#0B554F"/>
<path transform="translate(588,151)" d="m0 0h12v179h-12z" fill="#656F34"/>
<path transform="translate(355,183)" d="m0 0h60v110l-1 5h-57l-1-1v-7l1-1h45l10-1 2 1v-82h-57l-1-1v-8l-1-1z" fill="#626224"/>
<path transform="translate(1067,524)" d="m0 0 2 1 1 10 5 4-3 9-1 8 1 3 2 1-1 12 3 2-1 4-4 7 1 11v6l1 5-6 10 1 5 1 3-3 6 1 8-7 11-2 12-3 6v5l1 2-2 5h-2v2h-2l-2 6v8l-1 3h-2l-1 5-4 1v2h-14l4-2 6-9 2-13 6-7h2l-3-5 1-5 3-5 1-13h2l2-6 3-6-1-7 2-3-1-10 5-8h2l-3-7v-17l4-6 1-4-3-1-1-5 2-8-3-1v-11l3-9-1-1-2 3v-7l7-8z" fill="#0B5651"/>
<path transform="translate(824,648)" d="m0 0h31v59h-31z" fill="#DC8C80"/>
<path transform="translate(811,247)" d="m0 0h12l2 2 1 8v84l-1 2-15 1-3-4v-90z" fill="#A93816"/>
<path transform="translate(976,366)" d="m0 0 1 2 14 1 18 3 4 1h16l17-5 2-1 16-1 29 1 14 2 11 4v32h-11l-7-1-12 3-5 2 5-5 5-2 11-1 10 2h3v-5l-11-2-11-1-10 5-10 7-8 2h-32l-13-4-6-4-6-8v-2h-22l-28 2-29 1h-32l-11-2h-13l-15 4-7 2h-13v-1l12-2 22-6h18l7 2 9 1h12l12-1 33-1 23-2h20l4 2 5 8 6 4 13 4 7 1h13l11-1 12-5 10-7 5-2h8l14 3 1-8-10-1-24-5-9-2h-18l2-2 6-1h12l30 7 11 2v-5l-16-4-21-2h-16l-18 2-6 1v-2l7-1 1-2 16-1 29 1 17 3 6 2 1-2-10-3-11-2-13-1h-23l-12 1-14 5-5 1h-13l-26-4-21-2-30-1-21 1-14 2 13 1 56 1 19 1 4 2h-28l-50-1-46-3-8-1v-4l24 1h16l14-2h50l8 1z" fill="#8C6339"/>
<path transform="translate(537,594)" d="m0 0 11 1 6 5 3 2h9l2 2h-2v3h2l3 3 5 3v2l5 1v2l9 1 4 4-2 6-4 9-3 3-5 9-4 2 2-4 12-21v-2l-26-15-22-13h-3l-16 28-9 16-8 13-14 24-15 26-8 14-8 13-16 28-7 12 3 3 26 15 20 12v1h-53l-1-1v-31h2l5-10 4-7v-7l3-2 3 2 2-5 5-11 4-6h2l1-4 3-6 2-2v-7l5-1 2-7 3-3 3-6 2-1 2-5 4-6 1-6 3-1 7-12 1-5 3-2 3-7 5-5 3-9 5-6 3-8 3-5h2l2-6z" fill="#FDFCF4"/>
<path transform="translate(283,393)" d="m0 0h16l9 3 44 1v2l11 1 17 4 28 4 16 1v1l-40 1h-117v-13l8-3z" fill="#896338"/>
<path transform="translate(928,806)" d="m0 0h8l26 4 20 2 18 1h25l7-1h37l11 1 38 1v2l-3 1h-33l-17-1h-31l-8 1h-30l-44-4-12-2h-20l-29 5-8 1h-70l-13 4-10-2-11-3-19-2h-32l-20 3-9 2h-27l-18-2-18-5-9-1h-17l-18 2h-10l2-3 27-3h19l16 4 5 1 22 3h25l20-4 9-1h42l15 3 10 3h10l10-3 18-1 16 1h32l27-4z" fill="#815327"/>
<path transform="translate(1054,730)" d="m0 0h26l-2 25-4 42-1 5h-89v-2h67l1-12 4-44 1-10z" fill="#C86705"/>
<path transform="translate(512,334)" d="m0 0h59v28h-59z" fill="#3F8874"/>
<path transform="translate(324,666)" d="m0 0h18l1 3v37l-5 3h-2l1 8 5 3 1 40-1 1h-18z" fill="#4E927F"/>
<path transform="translate(637,220)" d="m0 0h4l7 26 6 26 4 16 3 14 1 2v6h-4v2l-11 2-4-8-11-47-6-24-2-12z" fill="#5E1530"/>
<path transform="translate(997,176)" d="m0 0h49v32l-2 2-46-1-1-1z" fill="#57621E"/>
<path transform="translate(744,724)" d="m0 0 90 1v17l-93 1v-18z" fill="#57621E"/>
<path transform="translate(539,596)" d="m0 0 5 1 20 12 23 13 4 3-2 6-9 15-3 1-9-5v-2l-5-1-35-21 1-6 6-10z" fill="#CB7308"/>
<path transform="translate(425,174)" d="m0 0h34v45h-34z" fill="#08544F"/>
<path transform="translate(286,158)" d="m0 0h60v25h-60z" fill="#49031D"/>
<path transform="translate(855,338)" d="m0 0h29l29 1v23h17v1h-95v-1h19v-23z" fill="#D98A7D"/>
<path transform="translate(481,251)" d="m0 0h8l4 2 1 2v87l-5 3h-8l-3-3v-88z" fill="#4E021F"/>
<path transform="translate(668,743)" d="m0 0h25v59h-25z" fill="#4C001C"/>
<path transform="translate(854,160)" d="m0 0h59v25h-59z" fill="#DC8C80"/>
<path transform="translate(799,227)" d="m0 0h17l1 4v16l-8 2-1 1v90l2 3 6 1v2h2l1 3-1 1v11l-19 1z" fill="#4D927F"/>
<path transform="translate(582,808)" d="m0 0h2l-1 6-37 5h-38l-20 4h-10l-22-2-20-2-28-1-9 2-4 3-13 1-22-3-29-7-22 1-26 2-14 2 1-4 16-3 26-2h24l13 4 27 5h16l5-2 3-1v-2l8-2h18l42 4h26l13-3 20-1h23l24-3z" fill="#8C6238"/>
<path transform="translate(983,802)" d="m0 0h89l45 1 1 1v7l-4 1h-28l-14-1h-40l-8 1h-21l-19-1-40-4-16-2v-2z" fill="#835125"/>
<path transform="translate(374,778)" d="m0 0h58l1 1v23h-59z" fill="#08524D"/>
<path transform="translate(1059,143)" d="m0 0h41v34h-41z" fill="#740404"/>
<path transform="translate(512,145)" d="m0 0h59v21h-59z" fill="#3F8874"/>
<path transform="translate(1059,333)" d="m0 0h41v29l-2 1-34 1-5-1z" fill="#760503"/>
<path transform="translate(591,663)" d="m0 0h11l-1 6-8 18-7 17-6 13-11 25-2 5h-3l-5-3-2-5 1-9 9-20 7-17 7-15 6-12z" fill="#56142E"/>
<path transform="translate(374,590)" d="m0 0h59v21l-59-1z" fill="#1D635F"/>
<path transform="translate(952,223)" d="m0 0h10v1h-7v93h-6l-6-5-1-2v-79l4-6z" fill="#A93816"/>
<path transform="translate(931,176)" d="m0 0h49v24h-49z" fill="#C05D0B"/>
<path transform="translate(374,610)" d="m0 0h58l1 1v19h-59z" fill="#750303"/>
<path transform="translate(512,166)" d="m0 0h59l1 4v11l-1 4-59 1-1-9v-9z" fill="#B8680C"/>
<path transform="translate(1072,802)" d="m0 0h47v13l-39-1-11-1h-37l-7 1h-25l-28-2-32-4-4-1-17 1-31 5-8 1h-32l-24-1-13 2-7 2h-10l-16-4-9-2h-42l-15 2-14 3h-25l-25-3-12-4-6-1h-28l-2-2 10-1h21l12 3 20 4 12 1h25l10-3 14-2h40l17 2 13 4h10l12-4h19l17 1h28l40-6 8-1 16 2 40 4 19 1h21l8-1h40l14 1h32l-1-7-45-1z" fill="#8C6238"/>
<path transform="translate(432,757)" d="m0 0h1v22l-59-1v-20h57z" fill="#760403"/>
<path transform="translate(959,561)" d="m0 0 7 7 7 2 2 12 2 3 5 1 2 10h5l1 1v11l4 3 2 7h2l2 9v6l4 4 1 7 3 3 1 15 3 6 1 9 3 3v7l-1 3 2 6 1 2v7l-1 2h-25v-1h19v-7l-4-3v-8l3-8-5-1-1-12-4-6 1-13-4-2-1-9-4-3v-13l-6-4-2-6-4-4 1-10-6-1-1-9-6-1v-2h-2l-2-8v-5l-2-1-1 3v-3h-2z" fill="#0D5751"/>
<path transform="translate(355,164)" d="m0 0h59v19l-41 1-18-1z" fill="#0A514B"/>
<path transform="translate(513,315)" d="m0 0h32l25 1 2 6v9l-1 3h-59l-1-3v-11z" fill="#BB680C"/>
<path transform="translate(1014,224)" d="m0 0h6l1 1v91h-12v-91z" fill="#CC7407"/>
<path transform="translate(696,322)" d="m0 0h24v40h10v1h-118v-1h84z" fill="#DA8B7E"/>
<path transform="translate(413,312)" d="m0 0h1v20h-54l-3 1-2-1v-19z" fill="#071F16"/>
<path transform="translate(470,851)" d="m0 0h445v25l3-1 36 1-1 2h-34l-1 2h-2l-4-7 1-6v-12l-1-1h-438l-2 13 2 5-1 3h-3z" fill="#FDFDF5"/>
<path transform="translate(658,648)" d="m0 0h18v59h-18z" fill="#4C001D"/>
<path transform="translate(731,315)" d="m0 0h59v17l-1 1h-58z" fill="#760503"/>
<path transform="translate(731,159)" d="m0 0h59v17l-1 1h-58z" fill="#760503"/>
<path transform="translate(931,341)" d="m0 0h48v21l-9 1h-37l-2-2z" fill="#C76702"/>
<path transform="translate(1115,613)" d="m0 0h3l-1 9 3 5-7 6-1 6v4l-3 3 1 6-7 4-1 7-2 2v7l-9 4v6l-5 3v5l-9 5-5 8-6 4h-8v-2l-2-1 5-5h4l1-7 6-4h4l1-7h3v-8l9-5 1-5 2-3 1-8 3-3 3-1v-5l4-5-2-6-2-1 1-3 5-1 4-3-1-6z" fill="#689521"/>
<path transform="translate(854,707)" d="m0 0h28v35h-10v30h-1v-29h-17z" fill="#686F34"/>
<path transform="translate(809,649)" d="m0 0h15v58l-11 1-7-1v-30l1-27z" fill="#4C011D"/>
<path transform="translate(470,411)" d="m0 0h444l1 1v24l-3-1 1-4 1-15h-2v-2h-272l-54-1h-96l-11 1-5-1-1 4v17h-2l-1 2z" fill="#FDFDF5"/>
<path transform="translate(268,804)" d="m0 0h1l1 9 21-3 26-2h15l10 2 18 5 13 2h20l4-2 3 1-4 3-4 1h-16l-32-6-8-3h-24l-26 2-16 3-1 3 9-2 5-1 45-3 12 2 25 6 17 2 13-1 4-3 9-2 28 1 28 3 14 1h10l20-4h38l30-4h7l-3 2-28 4h-36l-14 2-9 2h-24l-43-4h-18l-9 2-7 3h-16l-24-4-13-4-6-1h-18l-9 1-21 1-13 3h-3v7l19-5 12-2h30l13 5 22 5 9 1h15l8-3h3v2l-13 4h-11l-24-4-14-4-8-3h-32l-26 6h-3l1 12 10-1-3 2-7 2-2 4z" fill="#A07047"/>
<path transform="translate(914,850)" d="m0 0h38l2 1v24l-1 1h-38z" fill="#8D643A"/>
<path transform="translate(917,410)" d="m0 0h35l2 1v25h-39v-23z" fill="#896337"/>
<path transform="translate(324,619)" d="m0 0h35v28l-35 1z" fill="#4E927F"/>
<path transform="translate(920,831)" d="m0 0h16l56 8h26l19-3h15l12 2 36 2v1h-36l-13-2h-11l-24 3h-22l-34-4-24-4h-18l-17 4-13 3-16 1h-24l-20-2h-11l-13 5h-19l-49-5h-16l-30 5h-18l-24-7-5-1h-9l-10 4v-3l5-3 4-1h12l21 6 6 2h17l29-5h18l40 4 16 1h11l13-5h11l21 2h30l14-2 20-5z" fill="#8C6238"/>
<path transform="translate(693,724)" d="m0 0h27l1 1v17l-10 1v59h-8l-1-2 1-57-10-1z" fill="#57621E"/>
<path transform="translate(866,619)" d="m0 0h15l25 1 4 3 1 22-3 8h-3v-2l-34-1-6 1-5-1-2 1v5h-2l1 48 8 1h14l1 2h-25v-59h53v-25l-217 1-1 16-2-3v-15l5-2z" fill="#FDFDF5"/>
<path transform="translate(1059,311)" d="m0 0h41v22h-41v29h-1v-50z" fill="#CD7512"/>
<path transform="translate(360,331)" d="m0 0h41v1h-16v30h-27l-3-1v-29z" fill="#626E35"/>
<path transform="translate(414,293)" d="m0 0h1v20h-60v-15h59z" fill="#696B32"/>
<path transform="translate(303,837)" d="m0 0h23l13 4 10 3 23 4 1 2h-105l1-6 11-3 14-3z" fill="#8B6137"/>
<path transform="translate(789,332)" d="m0 0h1v30h-31l2-3-1-4v-22z" fill="#C76702"/>
<path transform="translate(432,743)" d="m0 0h1v14l-2 2h-56l-1-1v-13z" fill="#084C47"/>
<path transform="translate(385,629)" d="m0 0h15l33 1v14h-59v-14z" fill="#074C47"/>
<path transform="translate(676,648)" d="m0 0h14v59h-14z" fill="#DC8C80"/>
<path transform="translate(359,761)" d="m0 0h1v41h-36v-23h35z" fill="#3E8573"/>
<path transform="translate(792,648)" d="m0 0h14v58l-1 1h-13z" fill="#DC8C80"/>
<path transform="translate(753,130)" d="m0 0h37v29h-7v-1l-23-1v-24l-7-1z" fill="#C76702"/>
<path transform="translate(1047,707)" d="m0 0h33l4 4v16l-4 3-37-1 4-3v-14l-1-2-4-2z" fill="#9A270A"/>
<path transform="translate(424,173)" d="m0 0h35v1h-34v45h34v18l-1 1h-33v60h-1z" fill="#4A907D"/>
<path transform="translate(939,368)" d="m0 0 30 1 28 3 19 3h13l12-3 7-3 12-1h23l20 2 11 3 3 2-1 3-15-4-8-1-34-1-11 1-8 3-5 2-6 1h-13l-12-2-31-2-56-1-13-1-1-2 15-2z" fill="#815327"/>
<path transform="translate(559,608)" d="m0 0 5 1 23 13 4 3-2 6-9 15-3 1-9-5v-2l-5-1-5-3-4-4 2-5 6-11h2l-1-4z" fill="#C76907"/>
<path transform="translate(512,335)" d="m0 0h30v26h-29l-1-1z" fill="#4E9380"/>
<path transform="translate(884,396)" d="m0 0 12 1 29 4 41 1 15-2 9-2 16 4 12 5v2l-6-1-10-4-6-2h-11l-9 2-16 1h-16l-28-2-18-3h-18l-11 5-5 1h-20l-22-3h-7l-9 4h-17l-32-6h-17l-15 3-12 3-9 1-36-1v-2h36l16-3 19-4h21l29 6h16l8-4h10l21 3h20l9-3 6-3z" fill="#8C6238"/>
<path transform="translate(424,318)" d="m0 0h17l1 44h-18z" fill="#1E6560"/>
<path transform="translate(914,817)" d="m0 0h26l36 5 21 3h19l19-3h21l2 2-23 1-22 3h-13l-27-3-33-5-12-1-18 2-19 5-9 1h-38l-19-2-11 1-8 4-8 1-41-3-26-3-15 1-12 1 1-2 11-2h24l30 3 16 1h19l8-4 11-1 16 2h43l11-2z" fill="#8C6238"/>
<path transform="translate(835,708)" d="m0 0h19v17l-1 17h-17l-1 1h-81v-1h80v-17z" fill="#071D15"/>
<path transform="translate(425,174)" d="m0 0h16l1 2v43h-17z" fill="#1D635F"/>
<path transform="translate(374,778)" d="m0 0h30l-1 23h9v1h-38z" fill="#1D635F"/>
<path transform="translate(692,743)" d="m0 0h1v58h-1l-1-29h-22v-28h22z" fill="#5E1431"/>
<path transform="translate(530,770)" d="m0 0 9 3 25 11 10 4-1 6-3 7-7-1-37-16-1-4z" fill="#23655E"/>
<path transform="translate(599,610)" d="m0 0 5 1 37 16 3 1-1 6-4 8-13-5-27-12-4-2 1-5z" fill="#22665F"/>
<path transform="translate(325,647)" d="m0 0h35v19h-36v-18z" fill="#0C554F"/>
<path transform="translate(748,375)" d="m0 0h16l31 1 13 4 10 5 15 5h8l8-1 16-1 7-1 1-3 10-6 13-2 16 3 11 1 61 1 22 2v2h-14l-10-1-62-1-14-2-4-1h-15l-8 4h-2v2h-3v2l-9 3-17 1h-18l-10-3-21-9-7-1-28-1-10-1-12 3-15 4-14 2h-37v-1l36-2 24-4z" fill="#8D6339"/>
<path transform="translate(1095,394)" d="m0 0 11 1 11 3v5l-4 1-9-2-11 1-8 4 3-1 12-3 18 2v6h-164v-1l63-1h4 25l21-1 10-3 13-9z" fill="#8A6237"/>
<path transform="translate(286,201)" d="m0 0h60v11h-60z" fill="#D6897A"/>
<path transform="translate(481,251)" d="m0 0 3 1v1l2 3v89l-7-1-1-2v-88z" fill="#5E1531"/>
<path transform="translate(812,250)" d="m0 0h11l1 6v84l-2 2-6-1v-3-87z" fill="#9B2508"/>
<path transform="translate(286,158)" d="m0 0h31l-1 2v21h-28v-21l-1-1v24h-1z" fill="#5F1B31"/>
<path transform="translate(721,708)" d="m0 0h19l1 17v17h-19l-1-17z" fill="#071D15"/>
<path transform="translate(327,760)" d="m0 0 32 1v18h-35v-18z" fill="#09524D"/>
<path transform="translate(412,143)" d="m0 0 3 1v39h-1v-19h-29l-1-4v-16z" fill="#556220"/>
<path transform="translate(854,328)" d="m0 0h59v11h-59z" fill="#42856E"/>
<path transform="translate(854,185)" d="m0 0h59v11h-30l-29-1z" fill="#44846A"/>
<path transform="translate(433,776)" d="m0 0h6l6 4 9 4 6 4 6 3 1 2 6 2 2 4-15 2h-6l-6-1h-9l-6 1z" fill="#FDFDFC"/>
<path transform="translate(701,143)" d="m0 0h12l11 1v4h-3l1 4h2l1 4-4 1 1 19h2v5h-2v7l2 1-2 4v98l2 1v7h-2v16l-1 7h-1v-177h-24v177h-1l-1-14v-150l1-14z" fill="#FEFDF5"/>
<path transform="translate(512,145)" d="m0 0h59v1l-29 1v17l-1 1h-29z" fill="#53927F"/>
<path transform="translate(1034,815)" d="m0 0h31l17 1h33l4-1v36h-165v-1h164v-10l-9 1h-9l-1-2 13-1 6-1v-12l-14 2h-35l-13-2 2-2 10 1h38l12-1v-4h-38l-12-1h-33l-7 1h-32l4-2 26-1z" fill="#A26D4B"/>
<path transform="translate(412,376)" d="m0 0h10l7 2h16l3 2 2 6 2 3-1 4h-2l-1 2-20 2h-10v-1l6-1-11-1-1-3 29-2-1-3-10-1 1 3-2 1h-13l-3-3 3-3-9 1-6 1 1-3-9 3-2 1 1-4 12-3 7-2z" fill="#9C6D44"/>
<path transform="translate(518,632)" d="m0 0 8 5 41 24 3 2-5 9-11-6-10-6-11-6-15-9-6-2z" fill="#DB8B7F"/>
<path transform="translate(404,590)" d="m0 0h29v21l-30-2v-18z" fill="#07534E"/>
<path transform="translate(699,648)" d="m0 0h1v59h41l6 1v1h-6v16h-1v-17h-19v17h-27l-1-1v-16h6z" fill="#6A6B32"/>
<path transform="translate(734,362)" d="m0 0h55v2l-40 1-19 4-26 2h-36l2-1v-4h2v-3z" fill="#874E24"/>
<path transform="translate(790,129)" d="m0 0 3 3-1 28v40l2 25v26l-1 37-1 4v29l1 3-1 7 2 1v18l-1 2v8l5 1v1h-8z" fill="#FEFDF5"/>
<path transform="translate(385,164)" d="m0 0h29v19h-34l4-2 1-15-2-1z" fill="#071E15"/>
<path transform="translate(997,176)" d="m0 0h24v23l-24 1z" fill="#646E33"/>
<path transform="translate(960,172)" d="m0 0h21l2 3-1 17v150l-2 2v-168h-49v18l-2-4-1-16 1-1z" fill="#FEFDF5"/>
<path transform="translate(787,647)" d="m0 0 4 1v60h-8l-1-1v-59z" fill="#4D001D"/>
<path transform="translate(730,192)" d="m0 0h60v10l-59-1-1-1z" fill="#9B2508"/>
<path transform="translate(268,359)" d="m0 0 15 1 3 2-18 1-1 48h164l1 26-4-2v-21l-9-1-11 1-54-1-5 1-11-1h-68l-4-1v-2h-2v-45l1-3z" fill="#FDFDF5"/>
<path transform="translate(811,247)" d="m0 0h12l2 2 1 8v84l-1 2-15 1-3-4v-90zm0 3-1 1v89l1 1 11 1 2-4v-82l-1-6z" fill="#7B5D2D"/>
<path transform="translate(374,644)" d="m0 0h59v8l-1 1h-58l-1-2v-6z" fill="#AA3917"/>
<path transform="translate(870,624)" d="m0 0h10v12l7-1h19l1 1v10l-1 1h-36z" fill="#9B2508"/>
<path transform="translate(788,290)" d="m0 0 2 1v9h-59v-9z" fill="#9A2609"/>
<path transform="translate(512,291)" d="m0 0h59v9h-59z" fill="#DC8C80"/>
<path transform="translate(512,199)" d="m0 0h59v9h-59z" fill="#D98A7D"/>
<path transform="translate(381,735)" d="m0 0h22l30 1v7l-1 1-29 1h-29l-1-2v-6l1-1z" fill="#AA3917"/>
<path transform="translate(660,648)" d="m0 0h16v59h-1v-30h-16v-28z" fill="#641D32"/>
<path transform="translate(610,810)" d="m0 0h17l14 2 7 2 1 2 11 1 12 1h27l13-3 5 1v1l-16 4h-33l-19-3-15-4-8-1h-11l-10 1 8 2 1 2h-3l2 4-5 4-3 1h-7l-6-2-1-4 1-5 3-1h-12v-2z" fill="#8C6238"/>
<path transform="translate(357,289)" d="m0 0h54l3 1 1 3-1 5h-57l-1-1v-7z" fill="#C86702"/>
<path transform="translate(859,724)" d="m0 0h18l4 1v17h-9v30h-1v-29h-17v-18z" fill="#59601E"/>
<path transform="translate(1046,173)" d="m0 0 4 2 1 5-1 9-1 5v164l7 2 1-6h1v8h-12v-186l-21-1v-1z" fill="#FDFDF5"/>
<path transform="translate(280,401)" d="m0 0h24l16 4 29 3 3 2h-84v-7z" fill="#91653C"/>
<path transform="translate(358,197)" d="m0 0 56 1v8l-30 1h-27l-1-1v-8z" fill="#C86702"/>
<path transform="translate(752,366)" d="m0 0h47l44 2 14 1v1l-97-1-16 2-12 3-9 1-23 1h-34v-2l2-1 52-2 21-3z" fill="#815327"/>
<path transform="translate(626,173)" d="m0 0 4 1 5 19v8l-14 3-3-3-5-20v-5z" fill="#5D1730"/>
<path transform="translate(998,199)" d="m0 0h47l1 1v8l-2 2-46-1-1-1v-8z" fill="#44031C"/>
<path transform="translate(691,647)" d="m0 0 8 1v60h-8z" fill="#4C001D"/>
<path transform="translate(931,341)" d="m0 0h48v10h-48z" fill="#790703"/>
<path transform="translate(665,330)" d="m0 0 3 1 5 21v5l-16 4-2-6-5-22 6-1z" fill="#5D152F"/>
<path transform="translate(521,626)" d="m0 0 5 2 17 10 22 12 7 6-1 5-4 1-21-12-22-13-5-3 1-6z" fill="#C86A04"/>
<path transform="translate(342,619)" d="m0 0h17v28h-17z" fill="#3F8874"/>
<path transform="translate(704,743)" d="m0 0h6l1 1v58h-8l-1-2 1-56z" fill="#5D1330"/>
<path transform="translate(809,649)" d="m0 0h15v29l-16-1-1-2v-25z" fill="#5D1330"/>
<path transform="translate(760,300)" d="m0 0h30v15h-57v-1h27z" fill="#C86702"/>
<path transform="translate(789,176)" d="m0 0h1v16h-30v-2h3v-2l-3-1v-8l-26-1v-1z" fill="#C76702"/>
<path transform="translate(513,315)" d="m0 0 4 1h24l1 4v11h-31v-11z" fill="#CC7409"/>
<path transform="translate(954,411)" d="m0 0h164l-2 3h-98l-59-1-2 1v22l-2 3h-7l-1-1h-30v-2h37z" fill="#FEFDF5"/>
<path transform="translate(971,725)" d="m0 0 5 5 7 70-1 2h-110v-43h1v41l98-1 7-2v3l2-2-2-14v-9h-2v-6l1-5-3-14v-15l-4-8z" fill="#FEFDF5"/>
<path transform="translate(1078,311)" d="m0 0h22v22h-21l1-21z" fill="#C76602"/>
<path transform="translate(533,762)" d="m0 0 6 1 29 13 10 5-3 9-1-2-5-1-37-16-2-2z" fill="#DB8B7F"/>
<path transform="translate(355,313)" d="m0 0 2 2h28v14l-1 1h-24v2l-3 1-2-1z" fill="#095550"/>
<path transform="translate(267,804)" d="m0 0h1l1 46 162 1v25l-1-2h-2v-18-2l-5-1h-51l-103 1-4-5 1-4v-38z" fill="#FDFDF5"/>
<path transform="translate(931,190)" d="m0 0h48v9h-48z" fill="#760403"/>
<path transform="translate(360,299)" d="m0 0h54v13l-1 1h-28l-1-11 1-2h-25z" fill="#56621E"/>
<path transform="translate(731,177)" d="m0 0 38 1v1h-9l1 8 2 1v2h-3v2h-29z" fill="#CB7306"/>
<path transform="translate(920,831)" d="m0 0h16l56 8h26l19-3h15l12 2 36 2v1h-36l-13-2h-11l-24 3h-22l-34-4-24-4h-18l-17 4-7 2h-7l1-2 24-6z" fill="#8C6238"/>
<path transform="translate(286,194)" d="m0 0h59l1 1v6h-60z" fill="#4B011C"/>
<path transform="translate(1060,177)" d="m0 0h9l11 1v3h8v1h-8l1 14-1 2h-20z" fill="#CC7407"/>
<path transform="translate(731,300)" d="m0 0h29l4 2-3 1v9l-1 2-29 1z" fill="#CB7306"/>
<path transform="translate(1035,384)" d="m0 0h18l-2 2 10 3-3 6-2 1-1-5-2-1-13-1v2l-5 2v3h2l1-3h2v2l13 1-2 2-6 1v1h7l6-3 6-8 6 4-5 6-1 2-8 2h-20l-9-3-1-3 6-11z" fill="#8C6238"/>
<path transform="translate(918,367)" d="m0 0h27v1l-6 1-21 1-14 2 13 1 56 1 19 1 4 2h-28l-50-1-46-3-8-1v-4l24 1h16z" fill="#90653B"/>
<path transform="translate(374,745)" d="m0 0h30v14h-29l-1-1z" fill="#1C625E"/>
<path transform="translate(402,381)" d="m0 0 2 1-2 2 9-2h7l-4 5 2 1h13l1-3-2-1h8l5 2v3l-4 1-13 1 4 4-10 1v2h-11l-12-6-4-5 3-4z" fill="#976A40"/>
<path transform="translate(385,629)" d="m0 0h15l4 2v12h-30v-13z" fill="#1D635F"/>
<path transform="translate(954,851)" d="m0 0h165l-4 2h-156l-1 5-1 6v7l-1 4h-2z" fill="#FDFDF5"/>
<path transform="translate(578,379)" d="m0 0h26l10 2h13l14-1 21 3 6 1v1h-9l-14-2h-12l-7 1h-10l-16-3h-16l-34 4-6 3h-14l-14-4h-24l-25 3-6 3-1 2h-2l-2 4-5 4-9 3-2-2 10-3 5-4 7-8 5-2 29-3h20l18 5 10-1 8-3z" fill="#A07047"/>
<path transform="translate(355,183)" d="m0 0h30v13h-28l-2 1z" fill="#646E33"/>
<path transform="translate(512,167)" d="m0 0h29l-1 2h-3l-1 10 1 3-8 1-17-1-1-5v-9z" fill="#CB7206"/>
<path transform="translate(324,779)" d="m0 0 19 1-1 21h-15l-2-1-1 2z" fill="#4E927F"/>
<path transform="translate(536,720)" d="m0 0h1l-1 7-5 8h-2l-1 6-4 5-1 3h-2l-2 5-3 9-3 2-1 3h-2v5h-2l-9 18h-2l-3 9h2v-2l6 1h46l12 1 1 2h-71l1-5 9-15 12-21 11-19z" fill="#FEFDF5"/>
<path transform="translate(789,362)" d="m0 0h10l-3 2 25 1 21 2v1h-24l-19-1h-47l-24 4-8 1-24 1h-28v-2l36-1 26-2 19-4 36-1 4 1z" fill="#8F643A"/>
<path transform="translate(1064,373)" d="m0 0h16l27 3 8 3 2 1v5l-16-2-25-6h-12l-21 2h-5l2-2 12-3z" fill="#815327"/>
<path transform="translate(552,781)" d="m0 0 7 1 15 6-1 6-3 7-7-1-16-7v-5h2l1-5h2z" fill="#0E564F"/>
<path transform="translate(621,620)" d="m0 0 6 1 17 7-1 6-4 8-13-5-4-2v-2l-5-2 2-7z" fill="#0F5851"/>
<path transform="translate(522,301)" d="m0 0h19l1 5v7h-30v-10l1-1z" fill="#4E9380"/>
<path transform="translate(668,742)" d="m0 0h35l1 2-1 29-10-1v-29h-25z" fill="#8C6238"/>
<path transform="translate(711,742)" d="m0 0h10l1 2v28h-11l-1-29z" fill="#8A6035"/>
<path transform="translate(441,219)" d="m0 0h18v18l-1 1h-17z" fill="#3F8874"/>
<path transform="translate(884,396)" d="m0 0 12 1 29 4 41 1 15-2 9-2 16 4 12 5v2l-6-1-10-4-6-2h-11l-9 2-16 1h-16l-28-2-18-3h-18l-6 3-4-1 9-5z" fill="#8D6238"/>
<path transform="translate(512,187)" d="m0 0h29l1 3v7l-1 1h-28l-1-1z" fill="#4E9380"/>
<path transform="translate(880,624)" d="m0 0h26l1 1v11h-27z" fill="#A83615"/>
<path transform="translate(588,148)" d="m0 0h22l5 3v10l-1 8v6l2 1h-3l2 12-1 12v119l1 9-3 1v-178h-24z" fill="#FDFCF4"/>
<path transform="translate(442,299)" d="m0 0h17v18h-17l-1-15z" fill="#071E15"/>
<path transform="translate(341,648)" d="m0 0h18v18h-16l-1-1z" fill="#071E15"/>
<path transform="translate(1072,802)" d="m0 0h47v13l-39-1-11-1h-37l-7 1h-25v-1l5-1 19-1 8-1h40l14 1h32l-1-7-45-1z" fill="#8B6237"/>
<path transform="translate(342,761)" d="m0 0h17v18h-17z" fill="#071E15"/>
<path transform="translate(931,176)" d="m0 0h11l13 1 1 6v6h-25z" fill="#CB7306"/>
<path transform="translate(582,808)" d="m0 0h2v2l-33 5h-39l-20 4h-20l-42-4h-30l3-2 5-1h18l42 4h26l13-3 20-1h23l24-3z" fill="#A07047"/>
<path transform="translate(930,197)" d="m0 0h1v147l-5-3 2-5 1-136z" fill="#FDFBF3"/>
<path transform="translate(1095,394)" d="m0 0 11 1 11 3v5l-4 1-9-2-11 1-10 5h-3v2h-21v-1l16-3 15-10z" fill="#815327"/>
<path transform="translate(280,382)" d="m0 0h15l14 2h17l10-1h11l21 3 16 5 14 7 19 3 23 1v1l-5 1-23-1-18-4-15-7-19-5-8-1h-21l-6 1h-16l-8-2h-34l3-2z" fill="#A07047"/>
<path transform="translate(559,824)" d="m0 0h10v1l-30 3-32 3h-35l-8-1-32-1-12-1h-14l-6 1 3-3 3-1h13l8 1 46 2 7 1h16l32-3z" fill="#A07047"/>
<path transform="translate(588,340)" d="m0 0h12v23h-12z" fill="#646E33"/>
<path transform="translate(600,340)" d="m0 0h9l3 1v22h-12z" fill="#58631F"/>
<path transform="translate(730,192)" d="m0 0h30v9h-29l-1-1z" fill="#A93A18"/>
<path transform="translate(432,757)" d="m0 0h1v22l-59-1 1-3 57 1v-15l-58 1 1-4h56z" fill="#2A0E19"/>
<path transform="translate(374,610)" d="m0 0h58l1 1v19h-59v-2l29-1h28v-14h-57z" fill="#290F19"/>
<path transform="translate(285,391)" d="m0 0h12l15 4h36l26 6 29 5 23 2v1h-18l-34-5-11-3-11-2v-2h-44l-9-3h-16l-14 4h-2v-2l13-4z" fill="#A07047"/>
<path transform="translate(731,291)" d="m0 0h29l1 3-1 6h-29z" fill="#A93816"/>
<path transform="translate(853,196)" d="m0 0h1v131l-3-1 1-6v-120z" fill="#FEFDF5"/>
<path transform="translate(1040,383)" d="m0 0h18l6 3-1 6-6 7-5 2h-9v-3l8-1-9-1-2-1v-2l-3 3h-2v-3l5-2v-2h13l4 3v3l3-5-5-2-11-1v-1l7-1-11-1z" fill="#91653B"/>
<path transform="translate(931,351)" d="m0 0h24l1 10-13 1h-11l-1-1z" fill="#CB7306"/>
<path transform="translate(695,331)" d="m0 0h1v31h-84v-23l2 3 1 4-1 7 1 6 44 1 7-2 4 1 14 1h7l2 1 1-7v-21z" fill="#FDFCF4"/>
<path transform="translate(610,805)" d="m0 0h21l12 3 20 4 12 1h25l10-3h7l1 2-20 4h-25l-25-3-12-4-6-1h-28l-2-2z" fill="#8C6238"/>
<path transform="translate(960,172)" d="m0 0h21l2 3-1 15-2 2v-16h-49v18l-2-4-1-16 1-1z" fill="#FDFBF3"/>
<path transform="translate(588,330)" d="m0 0h24v11l-24-1z" fill="#141816"/>
<path transform="translate(855,329)" d="m0 0h29l1 8h-31v-7z" fill="#4E9380"/>
<path transform="translate(696,322)" d="m0 0h24v10h-24z" fill="#27695E"/>
<path transform="translate(404,644)" d="m0 0h29v8h-30v-7z" fill="#91220E"/>
<path transform="translate(857,186)" d="m0 0h26l2 2-1 6h-29l-1-1v-6z" fill="#4E9380"/>
<path transform="translate(521,626)" d="m0 0 5 2 17 10 6 3-3 1-1 4-2 2-21-12-3-2 1-6z" fill="#CB7308"/>
<path transform="translate(1080,706)" d="m0 0 5 2 1 1 1 17-3 4h-2v10l3 2v9l-1 1-2 16h-2l-1-3h-2v-10l3-26 3-2v-16l-3-3z" fill="#FDFCF4"/>
<path transform="translate(731,129)" d="m0 0h59v1l-37 1-21 1 1 8-1 18h51v1h-52v33h-1v-62z" fill="#CD7840"/>
<path transform="translate(653,199)" d="m0 0 2 1 2 8v6l-11 2h-6l1-5 3-1-5-5 2-4 5-1z" fill="#0C1D16"/>
<path transform="translate(1021,200)" d="m0 0h25v8l-2 2-20-1-3-1z" fill="#071D15"/>
<path transform="translate(728,813)" d="m0 0h32l19 2 13 4 9 1 12-4h23v1l-22 2-13 4-12-2-9-3-16-2h-48l4-2z" fill="#91663C"/>
<path transform="translate(633,834)" d="m0 0h12l21 6 6 2h17l29-5h9v1h-7v2l-30 5h-18l-24-7-5-1h-9l-10 4v-3l5-3z" fill="#8C6238"/>
<path transform="translate(870,624)" d="m0 0h10v23h-10z" fill="#760403"/>
<path transform="translate(403,736)" d="m0 0h30v7h-30z" fill="#982409"/>
<path transform="translate(1037,836)" d="m0 0h15l12 2 36 2v1h-36l-13-2h-11l-24 3h-22l-10-1 1-2h33z" fill="#90653B"/>
<path transform="translate(286,194)" d="m0 0h29l1 6-1 1h-29z" fill="#5E1630"/>
<path transform="translate(1035,384)" d="m0 0h6l1 2-10 3v7l1 2 4 2h15l6-3 6-8 6 4-5 6-1 2-8 2h-20l-9-3-1-3 6-11z" fill="#815327"/>
<path transform="translate(976,366)" d="m0 0 1 2 14 1 18 3 4 1h16l11-3h3v2l-9 3-5 1h-13l-26-4-21-2-25-1 1-2h23l8 1z" fill="#8C6238"/>
<path transform="translate(580,799)" d="m0 0h81l6 1v2h-97l1-2z" fill="#FEFDF5"/>
<path transform="translate(415,138)" d="m0 0 1 2h-2l1 3-59 1-1 20h-3l1-22 7-2h39l2-1h11 1z" fill="#FDFDF5"/>
<path transform="translate(354,197)" d="m0 0h1v101l-3-2 1-88-1-7z" fill="#FDFDF5"/>
<path transform="translate(485,227)" d="m0 0h12l6 1v1l-34 1v132h-6l4-2v-131l1-1z" fill="#FDFDF5"/>
<path transform="translate(1077,247)" d="m0 0 7 1 3 4-1 8-2 2h-9l-3-5 1-7 1-2z" fill="#CA6F06"/>
<path transform="translate(357,199)" d="m0 0h28l1 3-1 4h-17l-11-1z" fill="#CC7407"/>
<path transform="translate(1117,387)" d="m0 0h1v18h-11l-7-1-12 3-5 2 5-5 5-2 11-1 10 2h3v-5l-11-2-11-1-10 5-5 4-2-1 5-5 8-5 3-1h8l14 3z" fill="#8C6238"/>
<path transform="translate(1077,765)" d="m0 0h1v17l-1 2-1 16 5-5 2 4h31l5 2v1h-46l2-26 1-10z" fill="#FEFDF5"/>
<path transform="translate(704,772)" d="m0 0h6v30h-6z" fill="#4C001D"/>
<path transform="translate(608,815)" d="m0 0 5 1 1 2h-3l2 4-5 4-3 1h-7l-6-2 1-4 4 1v-2l-2-1 1-2z" fill="#8B5F35"/>
<path transform="translate(372,290)" d="m0 0h12l1 1v6h-27l-1-5 1-1z" fill="#CC7407"/>
<path transform="translate(1100,403)" d="m0 0 17 2-1 5h-33l5-4z" fill="#815327"/>
<path transform="translate(1031,386)" d="m0 0 1 2-5 10v2l9 2h20l8-1 2-5 3-3-5-4v-2l10 5-2 4-4 1-2 5-4 2-19 2-11-2-6-2-2-3 1-5z" fill="#8D6238"/>
<path transform="translate(811,247)" d="m0 0h5l-3 2-3 1-1 10v79l9 2 5-1v-4h3l-1 7-15 1-3-4v-90z" fill="#666B30"/>
<path transform="translate(565,670)" d="m0 0 1 3-2 6-3 1-2 6-5 10-3 5v7l-2 4-5 2-5 5-1-2 9-16 14-24z" fill="#FEFDF5"/>
<path transform="translate(748,375)" d="m0 0h16l1 2h-11l-12 3-15 4-14 2h-37v-1l36-2 24-4z" fill="#91653C"/>
<path transform="translate(920,374)" d="m0 0h53l19 1 4 2h-28l-50-1z" fill="#8F643A"/>
<path transform="translate(694,677)" d="m0 0 3 1 1 10v16l1 4h-6l-1-4v-22z" fill="#071E15"/>
<path transform="translate(381,735)" d="m0 0h22v2h-28v5l57 1v1l-29 1h-29l-1-2v-6l1-1z" fill="#7C5728"/>
<path transform="translate(835,711)" d="m0 0 1 3 12-2 5 1v4l-5 2v4 1l-8 1-3-1 1-5-2-1-1 2z" fill="#4C001D"/>
<path transform="translate(913,198)" d="m0 0 2 1 1 10h-2l1 109 1 3-1 4-2 4z" fill="#FEFDF5"/>
<path transform="translate(785,678)" d="m0 0 4 1v25l2 4h-8l1-4v-25z" fill="#071D15"/>
<path transform="translate(679,308)" d="m0 0 3 3 2 12h-2l-2 2h-6l-1-1v-7h-2l-1-5 2-2 4 1 3-1z" fill="#0C1F16"/>
<path transform="translate(928,805)" d="m0 0h12l12 2 32 3 19 1 2 2h-23l-35-4-19-3z" fill="#8E6339"/>
<path transform="translate(413,383)" d="m0 0 2 1-1 3 2 1h13l1-3-2-1h8l5 2v3l-4 1-13 1h-16l-5-2 5-5z" fill="#8C6238"/>
<path transform="translate(1102,339)" d="m0 0h1v18l1 3 15-1-1 3 2 1v45l-2 3-1-48-16-1v-10z" fill="#FDFDF5"/>
<path transform="translate(663,313)" d="m0 0 6 1 3 3-1 7-3 3-7-1-2-3v-7h2v-2z" fill="#CD8473"/>
<path transform="translate(537,169)" d="m0 0h9l2 3v6l-4 4h-6l-3-3v-6z" fill="#590317"/>
<path transform="translate(342,706)" d="m0 0 5 2 2 3-1 6-4 3-5-1-3-2-1-5 1-3z" fill="#0B5651"/>
<path transform="translate(712,815)" d="m0 0 5 1v1l-16 4h-33l-12-2v-2l16 1h27z" fill="#8D6339"/>
<path transform="translate(1017,705)" d="m0 0 6 1h3l14 1 1-2v3l-4 1h-60l-4 2v10l3 9-5-5v-13l5-5h41z" fill="#7C5627"/>
<path transform="translate(1059,366)" d="m0 0 34 1 14 2 11 4v2l-6-1-9-3-20-2h-23l-12 1-5 1 3-3 2-1z" fill="#8C6238"/>
<path transform="translate(914,337)" d="m0 0 2 4-2 1 1 2 1 12-1 2h2v2l10-2v-3-5h3v-5h1v17h-18v-24z" fill="#FDFBF3"/>
<path transform="translate(402,714)" d="m0 0 6 2 2 3-1 6-3 2h-6l-3-4 1-6z" fill="#DB8C80"/>
<path transform="translate(765,376)" d="m0 0h30l13 4 10 5 3 1v2l-6-1-16-7-7-1-28-1z" fill="#8C6238"/>
<path transform="translate(401,688)" d="m0 0 7 1 2 4-1 5-5 3-5-2-2-2 1-7z" fill="#DC8C80"/>
<path transform="translate(400,662)" d="m0 0h6l4 4-1 6-3 2h-6l-3-4 1-6z" fill="#DC8C80"/>
<path transform="translate(883,378)" d="m0 0m-1 1m-3 1h3v2l-5 2v2h-3v2l-9 3-17 1h-18l-10-3 1-2 12 3h8l8-1 16-1 7-1 1-3z" fill="#8E6339"/>
<path transform="translate(1064,376)" d="m0 0h12l30 7 12 2v2l-11-1-24-5-9-2h-18l2-2z" fill="#8D6238"/>
<path transform="translate(789,362)" d="m0 0h10l-3 2 25 1 21 2v1h-24l-33-2v-2h4z" fill="#93653E"/>
<path transform="translate(746,386)" d="m0 0h30l2 2-30 1-17 4-8 3h-3v-2l16-6z" fill="#8E6339"/>
<path transform="translate(760,368)" d="m0 0 23 1-1 2-33 1-13 3-16 1 3-2 13-2 16-3z" fill="#90653B"/>
<path transform="translate(882,708)" d="m0 0 3 4v28l-1 5-4 1h-8v-4h10z" fill="#FDFDF8"/>
<path transform="translate(825,376)" d="m0 0h29l3 1-1 3-7 3-4-1 2-1v-2l-2-1h-15l2 4-9-1-3-1v-2z" fill="#815327"/>
<path transform="translate(384,268)" d="m0 0 5 2 2 2-1 6-1 2-6 1-4-3v-6l2-3z" fill="#DC8C80"/>
<path transform="translate(988,398)" d="m0 0 16 3 14 6v2l-6-1-10-4-6-2h-11l-9 2h-9l-1-2 15-2z" fill="#8C6238"/>
<path transform="translate(383,215)" d="m0 0 6 2 2 2v5l-3 3-4 1-4-2-1-2v-6z" fill="#DC8C80"/>
<path transform="translate(374,644)" d="m0 0h30v1l-28 1-1 5 57 1v1h-58l-1-2v-6z" fill="#795325"/>
<path transform="translate(864,368)" d="m0 0 24 1 8 1-1 3h-23l-8-1z" fill="#93673D"/>
<path transform="translate(382,242)" d="m0 0h5l3 2 1 5-3 5h-6l-3-3v-6z" fill="#DC8C80"/>
<path transform="translate(881,157)" d="m0 0h7v2h25v1h-59v24l-3-1v-3h2l-1-7v-10l1-4h28z" fill="#FEFDF5"/>
<path transform="translate(1040,389)" d="m0 0h13l4 3-1 3-3-2-1 3h-10l-2-1v-2l-3 3h-2v-3l5-2z" fill="#8C6238"/>
<path transform="translate(729,331)" d="m0 0h1v31h-10v-30h1v24h2l2 4h2l1-28z" fill="#FEFDF5"/>
<path transform="translate(914,817)" d="m0 0h22v1l-26 3-19 5h-9l1-2 11-2z" fill="#8F643A"/>
<path transform="translate(614,818)" d="m0 0h2l1 6-4 4-9 3-15-1-4-2 1-6 4-3-2 8h20l6-4z" fill="#8C6238"/>
<path transform="translate(717,403)" d="m0 0 4 1-3 2-14 2-36-1v-2h36z" fill="#8F643A"/>
<path transform="translate(784,363)" d="m0 0 1 3-33 1-11 2h-7l2-2 13-3z" fill="#8C6238"/>
<path transform="translate(781,816)" d="m0 0 9 2 10 2 13-4h23v1l-22 2-13 4-12-2-9-3z" fill="#8C6238"/>
<path transform="translate(884,396)" d="m0 0 12 1 20 3 2 2h-8l-12-2h-18l-6 3-4-1 9-5z" fill="#8E6339"/>
<path transform="translate(835,708)" d="m0 0h19v8l-1-3-17 1z" fill="#201218"/>
<path transform="translate(708,323)" d="m0 0h12v8h-12z" fill="#08544F"/>
<path transform="translate(734,712)" d="m0 0 6 1-1 5-4 1v2l-5-1-7-4v-2z" fill="#4C001D"/>
<path transform="translate(955,813)" d="m0 0 16 1 25 2 4 2h-16l-24-2-6-1z" fill="#8E633A"/>
<path transform="translate(503,657)" d="m0 0 2 2-1 3h-2v4h-2v3l-3 3-3 7h-2l-2 5-4 9h-2l-2 5-4 4 2-5 16-28z" fill="#CB732F"/>
<path transform="translate(1024,507)" d="m0 0 3 2 1 5v8l-1 5 1 2-1 5h-2l-1-5h-1v-8l2-9h-2l-1-3z" fill="#FDFDF6"/>
<path transform="translate(1038,389)" d="m0 0h2v2l-5 2v3h2l1-3h2v2l13 1-2 2-6 1-2 2h-6l-5-7 4-4z" fill="#85592E"/>
<path transform="translate(853,339)" d="m0 0h1v23h-19l3-2h8l5-2v-18z" fill="#FEFDF5"/>
<path transform="translate(799,362)" d="m0 0h36l1 2-4 1h-36l-5-1v-1z" fill="#5F6628"/>
<path transform="translate(727,837)" d="m0 0h9l28 3 4 2h-15l-17-2-16-1v-1z" fill="#90653B"/>
<path transform="translate(674,707)" d="m0 0h17l1 1v33h-1l-1-5v-14l-1-5 1-5-2-3h-11z" fill="#FDFBF3"/>
<path transform="translate(412,376)" d="m0 0h8v1l-6 1 9 2v1h-13l-7 4-2-1 1-2-9 3-2 1 1-4 12-3 7-2z" fill="#A07047"/>
<path transform="translate(442,762)" d="m0 0h1v5h-2l-1 4 5 2v2l6 2 11 7v3l-23-13-2-3z" fill="#C7712B"/>
<path transform="translate(621,840)" d="m0 0h3v2l-8 4-11 3h-19v-1l23-3z" fill="#8E643A"/>
<path transform="translate(816,810)" d="m0 0h19l4 2-25 2-6 2-4-1 9-4z" fill="#8F643A"/>
<path transform="translate(354,331)" d="m0 0h1v31h-9l2-2h4v-27h2z" fill="#FDFDF5"/>
<path transform="translate(1099,401)" d="m0 0 9 1 10 1v2h-11l-7-1-12 3-5 2 5-5 5-2z" fill="#8D6339"/>
<path transform="translate(510,163)" d="m0 0h1v22l-4-1v-11l1-8z" fill="#FDFDF5"/>
<path transform="translate(716,823)" d="m0 0h24l4 2h-19l-15 2h-6l1-2z" fill="#8F643A"/>
<path transform="translate(1059,371)" d="m0 0 21 1v1l-28 2-12 2v-2l7-1 1-2z" fill="#90653B"/>
<path transform="translate(928,805)" d="m0 0h12l12 2 16 2 3 2h-9l-34-5z" fill="#91653C"/>
<path transform="translate(988,388)" d="m0 0m-12 1h12v2l-9 1h-33v-1z" fill="#92663D"/>
<path transform="translate(816,837)" d="m0 0h11l9 1v2h-19l-11 4h-3v-2z" fill="#8E6339"/>
<path transform="translate(1078,402)" d="m0 0m-3 1h3l-1 3-10 3h-27v-1l27-2z" fill="#93673D"/>
<path transform="translate(415,197)" d="m0 0 2 2v34l1 1v7l-3 1z" fill="#FEFDF5"/>
<path transform="translate(512,166)" d="m0 0h59l-1 2-26-1v2l-4-1-28-1z" fill="#95683E"/>
<path transform="translate(776,810)" d="m0 0 8 1 10 3 10 1v2h-10l-19-5z" fill="#8C6238"/>
<path transform="translate(859,376)" d="m0 0 5 1-1 4-8 4h-11v-1h8l-1-3 5-2 2-2v2h2z" fill="#895D33"/>
<path transform="translate(913,160)" d="m0 0 3 3v12l1 4-1 3-3 2z" fill="#FDFDF5"/>
<path transform="translate(539,596)" d="m0 0 5 1 5 4-6-1v-2h-2v2h-2l-2 4-4 4 2-6zm-7 12h1v5l-5 2z" fill="#C5722F"/>
<path transform="translate(712,815)" d="m0 0 5 1v1l-16 4h-11v-2l14-2z" fill="#8C6238"/>
<path transform="translate(980,348)" d="m0 0 2 2 1 10 9-1 4-2 1 5h-17z" fill="#FEFDF5"/>
<path transform="translate(339,707)" d="m0 0h2l1 7-1 5-5-2-1-5 1-3z" fill="#1C625E"/>
<path transform="translate(537,169)" d="m0 0h9l-1 3-4-1-3 2v4l8 4-2 1h-6l-3-3v-6z" fill="#7D0C05"/>
<path transform="translate(976,705)" d="m0 0h16v2l-16 1-4 4-1 10h-1l-1-5v-7l3-3z" fill="#FDFDF5"/>
<path transform="translate(998,548)" d="m0 0h2l1 17-3 5h-2l-1 3 1-7 2-6z" fill="#FDFDF6"/>
<path transform="translate(534,181)" d="m0 0 10 1v1l-6 1h-25l-1-2h19z" fill="#C86702"/>
<path transform="translate(1081,249)" d="m0 0 6 3-1 8-3 2v-2l-3 1-1-2 2-3 1-5-2-1z" fill="#C66603"/>
<path transform="translate(636,707)" d="m0 0h36v1l-36 2z" fill="#F5E0D7"/>
<path transform="translate(868,391)" d="m0 0 4 1-14 5-5 1h-13v-1l12-2z" fill="#91663C"/>
<path transform="translate(1020,824)" d="m0 0 7 1v1l-14 2h-13l-3-2 19-1z" fill="#8C6238"/>
<path transform="translate(976,707)" d="m0 0h15v1l-14 1-4 2v10l3 9-5-5v-13z" fill="#9B6942"/>
<path transform="translate(1084,406)" d="m0 0m-1 1m34-2h1v6h-38v-3h3v2l33-1z" fill="#866437"/>
<path transform="translate(1117,387)" d="m0 0h1v16h-1v-5l-11-2-5-1v-2h7l8 2z" fill="#836638"/>
<path transform="translate(571,166)" d="m0 0h3l1 4h-2l1 7 1 6-3 2-1-5z" fill="#FDFDF5"/>
<path transform="translate(973,822)" d="m0 0 24 3v2h-9l-15-2z" fill="#90653B"/>
<path transform="translate(926,804)" d="m0 0h2v3l-21 3h-6l1-2z" fill="#8D6339"/>
<path transform="translate(439,799)" d="m0 0h13l8 2v1h-26l1-2z" fill="#FEFDF5"/>
<path transform="translate(1090,682)" d="m0 0v3l-2 2-1 4-3 3-5 3-1 2h-3l1-4 5-3 4-2v-5z" fill="#FDFDF6"/>
<path transform="translate(1046,387)" d="m0 0h9l6 2-3 6-2 1-1-5-2-1-13-1v-1z" fill="#815327"/>
<path transform="translate(510,314)" d="m0 0h1v22l-2-4-1-5v-11z" fill="#FEFDF5"/>
<path transform="translate(1028,535)" d="m0 0 5 2v8l-1 4h-2l-2-2z" fill="#FDFDF7"/>
<path transform="translate(813,816)" d="m0 0h23v1l-22 2-9 2 3-3z" fill="#93673D"/>
<path transform="translate(1074,700)" d="m0 0 3 1-2 2 5 3v1h-14l4-4z" fill="#FDFDF6"/>
<path transform="translate(1091,616)" d="m0 0 8 1 1 4-7 2-1-3-1 4v-3h-2l-1-4z" fill="#FDFDF5"/>
<path transform="translate(1064,376)" d="m0 0h12l6 2v1h-26l2-2z" fill="#90643B"/>
<path transform="translate(512,167)" d="m0 0h22v1l-21 1v13h-1l-1-5v-9z" fill="#CB6D19"/>
<path transform="translate(1080,706)" d="m0 0 5 2 1 1 1 17h-3l-1-15-3-3z" fill="#F6E4DB"/>
<path transform="translate(371,611)" d="m0 0h3v18h-1v-6h-2l-1-7-1-2z" fill="#F0D0C7"/>
<path transform="translate(818,822)" d="m0 0 14 1 3 2h-15l-9 1 2-3z" fill="#90653B"/>
<path transform="translate(433,436)" d="m0 0h36v3l-6-1-30-1z" fill="#FEFDF5"/>
<path transform="translate(883,378)" d="m0 0m-1 1m-3 1h3v2l-5 2v2h-3v2l-5 2h-5l1-2 7-1 1-3z" fill="#8F643A"/>
<path transform="translate(1096,368)" d="m0 0h7l13 4 2 1v2l-6-1-9-3-7-1z" fill="#90643B"/>
<path transform="translate(571,314)" d="m0 0h2l1 2v16l-3 1z" fill="#FEFDF5"/>
<path transform="translate(598,815)" d="m0 0h10v1l-12 1 1 5-4-1-1 3-1-3 1-5z" fill="#966940"/>
<path transform="translate(373,760)" d="m0 0h1v17l-1-3h-2v-8l-1-5z" fill="#F0D0C6"/>
<path transform="translate(689,641)" d="m0 0h1v7h-15l4-3h8z" fill="#FEFDF5"/>
<path transform="translate(440,378)" d="m0 0 7 1 4 9 1 4-3 1-1 2v-3h2l-4-9-1-2-6-1z" fill="#A07047"/>
<path transform="translate(746,839)" d="m0 0 18 1 4 2h-15l-7-1z" fill="#8E643A"/>
<path transform="translate(883,740)" d="m0 0h1v5l-4 1h-8v-4l10-1z" fill="#F6E4DB"/>
<path transform="translate(1105,656)" d="m0 0h2l-2 4-4 12-2-3 1-5 2-7z" fill="#FDFDF5"/>
<path transform="translate(1006,506)" d="m0 0h3l-1 17-3-3 1-4-1-5z" fill="#FDFDF6"/>
<path transform="translate(374,644)" d="m0 0h30v1l-28 1-2 5h-1v-6z" fill="#8F5B34"/>
<path transform="translate(585,352)" d="m0 0h2v10h-15l4-2h6l2-1z" fill="#FEFDF5"/>
<path transform="translate(718,837)" d="m0 0h9v1h-7v2l-16 1 3-2z" fill="#8E6339"/>
<path transform="translate(955,813)" d="m0 0 16 1 2 2h-13l-6-1z" fill="#90653B"/>
<path transform="translate(1095,675)" d="m0 0h6l1 4-2 4h-3v-6h-2z" fill="#FEFDF5"/>
<path transform="translate(1057,176)" d="m0 0h1v23l-2-1v-13l-1-5z" fill="#FEFDF5"/>
<path transform="translate(722,708)" d="m0 0h18v2h-2l-1 2v-2h-13z" fill="#4C001D"/>
<path transform="translate(1057,311)" d="m0 0 2 1-1 22-3-3 1-7-1-3 1-1z" fill="#FEFDF5"/>
<path transform="translate(402,381)" d="m0 0 2 1-6 4-1 3h-3l-2-4 2-2z" fill="#8C6238"/>
<path transform="translate(1080,372)" d="m0 0h13l4 1v2l-17-1z" fill="#8C6238"/>
<path transform="translate(821,387)" d="m0 0 12 3 8 1v1h-11l-10-3z" fill="#93673D"/>
<path transform="translate(901,835)" d="m0 0m-4 1h4v2l-7 2h-7l1-2z" fill="#8E6339"/>
<path transform="translate(976,734)" d="m0 0 1 2h2v14l-2-2z" fill="#CB722B"/>
<path transform="translate(638,643)" d="m0 0 3 3 16 1v1h-20z" fill="#FEFDF5"/>
<path transform="translate(1041,384)" d="m0 0h12l-2 2-5 1v1h-5v-3z" fill="#8A5E34"/>
<path transform="translate(411,382)" d="m0 0h7l-3 2-9 2-3 3h-2l2-4z" fill="#A07047"/>
<path transform="translate(434,380)" d="m0 0h11l2 4v2l-4-2v-2l-9-1z" fill="#8C6238"/>
<path transform="translate(410,380)" d="m0 0 14 1v1l-13 1-8 2 3-3z" fill="#8C6238"/>
<path transform="translate(539,171)" d="m0 0h2l1 6-2 3v-2l-3-1 1-5z" fill="#5C112E"/>
<path transform="translate(1112,648)" d="m0 0h2l2 3-1 4h-3l-2-2z" fill="#FEFDF5"/>
<path transform="translate(1084,626)" d="m0 0h7v3l-7 1-3 2v-3h2z" fill="#FDFDF5"/>
<path transform="translate(433,616)" d="m0 0h1v5l3 1v5h-4z" fill="#EFCDC3"/>
<path transform="translate(1017,496)" d="m0 0h4l1 5h-2l-2 2v-2h-2z" fill="#FDFDF5"/>
<path transform="translate(1059,366)" d="m0 0 15 1v1l-17 1-1-2z" fill="#92663D"/>
<path transform="translate(346,200)" d="m0 0 1 2h2l-1 5 1 2-2 5h-1z" fill="#FDFDF5"/>
</svg>
